<?xml version="1.0" encoding="utf-8" standalone="no"?>
<!DOCTYPE svg PUBLIC "-//W3C//DTD SVG 1.1//EN"
  "http://www.w3.org/Graphics/SVG/1.1/DTD/svg11.dtd">
<!-- Created with matplotlib (https://matplotlib.org/) -->
<svg height="503.15225pt" version="1.1" viewBox="0 0 621.420312 503.15225" width="621.420312pt" xmlns="http://www.w3.org/2000/svg" xmlns:xlink="http://www.w3.org/1999/xlink">
 <defs>
  <style type="text/css">
*{stroke-linecap:butt;stroke-linejoin:round;}
  </style>
 </defs>
 <g id="figure_1">
  <g id="patch_1">
   <path d="M 0 503.15225 
L 621.420312 503.15225 
L 621.420312 0 
L 0 0 
z
" style="fill:#ffffff;"/>
  </g>
  <g id="axes_1">
   <g id="patch_2">
    <path d="M 47.73875 459.591 
L 605.73875 459.591 
L 605.73875 24.711 
L 47.73875 24.711 
z
" style="fill:#ffffff;"/>
   </g>
   <g id="matplotlib.axis_1">
    <g id="xtick_1">
     <g id="line2d_1">
      <defs>
       <path d="M 0 0 
L 0 3.5 
" id="m534dc52ebc" style="stroke:#000000;stroke-width:0.8;"/>
      </defs>
      <g>
       <use style="stroke:#000000;stroke-width:0.8;" x="47.73875" xlink:href="#m534dc52ebc" y="459.591"/>
      </g>
     </g>
     <g id="text_1">
      <!-- 0.0 -->
      <defs>
       <path d="M 4.4375 36.328125 
Q 4.4375 56.34375 11.078125 66.625 
Q 17.71875 76.90625 30.328125 76.90625 
Q 54.34375 76.90625 54.34375 38.140625 
Q 54.34375 19 47.578125 8.859375 
Q 40.828125 -1.265625 28.609375 -1.265625 
Q 17.09375 -1.265625 10.765625 8.34375 
Q 4.4375 17.96875 4.4375 36.328125 
z
M 14.203125 36.765625 
Q 14.203125 6.640625 29.5 6.640625 
Q 44.53125 6.640625 44.53125 37.25 
Q 44.53125 68.953125 29.78125 68.953125 
Q 14.203125 68.953125 14.203125 36.765625 
z
" id="MicrosoftYaHei-48"/>
       <path d="M 5.8125 5.03125 
Q 5.8125 7.671875 7.609375 9.46875 
Q 9.421875 11.28125 12.109375 11.28125 
Q 14.84375 11.28125 16.640625 9.453125 
Q 18.453125 7.625 18.453125 5.03125 
Q 18.453125 2.484375 16.640625 0.65625 
Q 14.84375 -1.171875 12.0625 -1.171875 
Q 9.375 -1.171875 7.59375 0.65625 
Q 5.8125 2.484375 5.8125 5.03125 
z
" id="MicrosoftYaHei-46"/>
      </defs>
      <g transform="translate(39.257188 476.1835)scale(0.12 -0.12)">
       <use xlink:href="#MicrosoftYaHei-48"/>
       <use x="58.642578" xlink:href="#MicrosoftYaHei-46"/>
       <use x="82.714844" xlink:href="#MicrosoftYaHei-48"/>
      </g>
     </g>
    </g>
    <g id="xtick_2">
     <g id="line2d_2">
      <g>
       <use style="stroke:#000000;stroke-width:0.8;" x="159.33875" xlink:href="#m534dc52ebc" y="459.591"/>
      </g>
     </g>
     <g id="text_2">
      <!-- 0.2 -->
      <defs>
       <path d="M 41.65625 55.8125 
Q 41.65625 61.921875 37.796875 65.40625 
Q 33.9375 68.890625 27.296875 68.890625 
Q 22.609375 68.890625 17.8125 66.5 
Q 13.03125 64.109375 8.890625 59.671875 
L 8.890625 68.953125 
Q 12.59375 72.796875 17.296875 74.84375 
Q 22.015625 76.90625 28.375 76.90625 
Q 38.625 76.90625 44.875 71.40625 
Q 51.125 65.921875 51.125 56.546875 
Q 51.125 48.1875 47.28125 42.078125 
Q 43.453125 35.984375 34.1875 29.59375 
Q 24.703125 23.046875 21.5 20.21875 
Q 18.3125 17.390625 17.03125 14.796875 
Q 15.765625 12.203125 15.765625 8.5 
L 53.375 8.5 
L 53.375 0 
L 5.8125 0 
L 5.8125 3.765625 
Q 5.8125 10.296875 7.59375 14.859375 
Q 9.375 19.4375 13.46875 23.75 
Q 17.578125 28.078125 26.265625 34.125 
Q 35.15625 40.375 38.40625 45.09375 
Q 41.65625 49.8125 41.65625 55.8125 
z
" id="MicrosoftYaHei-50"/>
      </defs>
      <g transform="translate(150.857188 476.1835)scale(0.12 -0.12)">
       <use xlink:href="#MicrosoftYaHei-48"/>
       <use x="58.642578" xlink:href="#MicrosoftYaHei-46"/>
       <use x="82.714844" xlink:href="#MicrosoftYaHei-50"/>
      </g>
     </g>
    </g>
    <g id="xtick_3">
     <g id="line2d_3">
      <g>
       <use style="stroke:#000000;stroke-width:0.8;" x="270.93875" xlink:href="#m534dc52ebc" y="459.591"/>
      </g>
     </g>
     <g id="text_3">
      <!-- 0.4 -->
      <defs>
       <path d="M 45.40625 75.640625 
L 45.40625 25.6875 
L 56.734375 25.6875 
L 56.734375 17.78125 
L 45.40625 17.78125 
L 45.40625 0 
L 36.140625 0 
L 36.140625 17.78125 
L 0.828125 17.78125 
L 0.828125 25.25 
Q 10.25 35.84375 19.765625 49.65625 
Q 29.296875 63.484375 35.5 75.640625 
z
M 11.578125 25.6875 
L 36.140625 25.6875 
L 36.140625 61.71875 
Q 31.0625 52.59375 25.25 44.015625 
Q 19.4375 35.453125 11.578125 25.6875 
z
" id="MicrosoftYaHei-52"/>
      </defs>
      <g transform="translate(262.457188 476.1835)scale(0.12 -0.12)">
       <use xlink:href="#MicrosoftYaHei-48"/>
       <use x="58.642578" xlink:href="#MicrosoftYaHei-46"/>
       <use x="82.714844" xlink:href="#MicrosoftYaHei-52"/>
      </g>
     </g>
    </g>
    <g id="xtick_4">
     <g id="line2d_4">
      <g>
       <use style="stroke:#000000;stroke-width:0.8;" x="382.53875" xlink:href="#m534dc52ebc" y="459.591"/>
      </g>
     </g>
     <g id="text_4">
      <!-- 0.6 -->
      <defs>
       <path d="M 49.703125 65.921875 
Q 43.796875 68.953125 37.359375 68.953125 
Q 27.546875 68.953125 21.578125 60.40625 
Q 15.625 51.859375 15.53125 37.0625 
L 15.765625 37.0625 
Q 21.140625 47.46875 32.90625 47.46875 
Q 42.71875 47.46875 48.578125 41.0625 
Q 54.4375 34.671875 54.4375 24.078125 
Q 54.4375 12.984375 47.671875 5.859375 
Q 40.921875 -1.265625 30.421875 -1.265625 
Q 18.890625 -1.265625 12.328125 7.734375 
Q 5.765625 16.75 5.765625 33.296875 
Q 5.765625 53.328125 14.375 65.109375 
Q 23 76.90625 37.0625 76.90625 
Q 45.125 76.90625 49.703125 74.703125 
z
M 16.109375 24.75 
Q 16.109375 17.28125 20.09375 11.953125 
Q 24.078125 6.640625 30.671875 6.640625 
Q 36.921875 6.640625 40.828125 11.234375 
Q 44.734375 15.828125 44.734375 23.046875 
Q 44.734375 30.859375 41.046875 35.203125 
Q 37.359375 39.546875 30.5625 39.546875 
Q 24.125 39.546875 20.109375 35.15625 
Q 16.109375 30.765625 16.109375 24.75 
z
" id="MicrosoftYaHei-54"/>
      </defs>
      <g transform="translate(374.057188 476.1835)scale(0.12 -0.12)">
       <use xlink:href="#MicrosoftYaHei-48"/>
       <use x="58.642578" xlink:href="#MicrosoftYaHei-46"/>
       <use x="82.714844" xlink:href="#MicrosoftYaHei-54"/>
      </g>
     </g>
    </g>
    <g id="xtick_5">
     <g id="line2d_5">
      <g>
       <use style="stroke:#000000;stroke-width:0.8;" x="494.13875" xlink:href="#m534dc52ebc" y="459.591"/>
      </g>
     </g>
     <g id="text_5">
      <!-- 0.8 -->
      <defs>
       <path d="M 4.78125 21.09375 
Q 4.78125 27.640625 8.6875 33.15625 
Q 12.59375 38.671875 18.75 41.015625 
Q 13.8125 43.796875 10.9375 48.140625 
Q 8.0625 52.484375 8.0625 57.5625 
Q 8.0625 62.9375 10.8125 67.375 
Q 13.578125 71.828125 18.484375 74.359375 
Q 23.390625 76.90625 29.296875 76.90625 
Q 35.25 76.90625 40.1875 74.390625 
Q 45.125 71.875 47.859375 67.421875 
Q 50.59375 62.984375 50.59375 57.5625 
Q 50.59375 52.59375 47.78125 48.21875 
Q 44.96875 43.84375 39.984375 41.015625 
Q 46.140625 38.625 50 33.109375 
Q 53.859375 27.59375 53.859375 21.09375 
Q 53.859375 14.65625 50.78125 9.546875 
Q 47.703125 4.4375 42.03125 1.609375 
Q 36.375 -1.21875 29.296875 -1.21875 
Q 22.265625 -1.21875 16.640625 1.609375 
Q 11.03125 4.4375 7.90625 9.5625 
Q 4.78125 14.703125 4.78125 21.09375 
z
M 14.15625 21.53125 
Q 14.15625 14.796875 18.3125 10.734375 
Q 22.46875 6.6875 29.34375 6.6875 
Q 36.078125 6.6875 40.34375 10.8125 
Q 44.625 14.9375 44.625 21.53125 
Q 44.625 27.78125 40.296875 32.046875 
Q 35.984375 36.328125 29.34375 36.328125 
Q 22.75 36.328125 18.453125 32.15625 
Q 14.15625 27.984375 14.15625 21.53125 
z
M 16.890625 56.78125 
Q 16.890625 51.703125 20.5 48.0625 
Q 24.125 44.4375 29.34375 44.4375 
Q 34.46875 44.4375 38.203125 48.09375 
Q 41.9375 51.765625 41.9375 56.78125 
Q 41.9375 61.921875 38.34375 65.484375 
Q 34.765625 69.046875 29.34375 69.046875 
Q 23.96875 69.046875 20.421875 65.546875 
Q 16.890625 62.0625 16.890625 56.78125 
z
" id="MicrosoftYaHei-56"/>
      </defs>
      <g transform="translate(485.657188 476.1835)scale(0.12 -0.12)">
       <use xlink:href="#MicrosoftYaHei-48"/>
       <use x="58.642578" xlink:href="#MicrosoftYaHei-46"/>
       <use x="82.714844" xlink:href="#MicrosoftYaHei-56"/>
      </g>
     </g>
    </g>
    <g id="xtick_6">
     <g id="line2d_6">
      <g>
       <use style="stroke:#000000;stroke-width:0.8;" x="605.73875" xlink:href="#m534dc52ebc" y="459.591"/>
      </g>
     </g>
     <g id="text_6">
      <!-- 1.0 -->
      <defs>
       <path d="M 27.828125 0 
L 27.828125 64.703125 
Q 25.59375 62.453125 20.234375 59.671875 
Q 14.890625 56.890625 10.359375 55.765625 
L 10.359375 65.140625 
Q 16.359375 66.796875 23.1875 70.4375 
Q 30.03125 74.078125 33.6875 77.296875 
L 37.3125 77.296875 
L 37.3125 0 
z
" id="MicrosoftYaHei-49"/>
      </defs>
      <g transform="translate(597.257187 476.1835)scale(0.12 -0.12)">
       <use xlink:href="#MicrosoftYaHei-49"/>
       <use x="58.642578" xlink:href="#MicrosoftYaHei-46"/>
       <use x="82.714844" xlink:href="#MicrosoftYaHei-48"/>
      </g>
     </g>
    </g>
    <g id="text_7">
     <!-- 1 - Specificity -->
     <defs>
      <path id="MicrosoftYaHei-32"/>
      <path d="M 36.375 26.265625 
L 7.625 26.265625 
L 7.625 33.640625 
L 36.375 33.640625 
z
" id="MicrosoftYaHei-45"/>
      <path d="M 6.25 14.203125 
Q 9.71875 11.1875 15.53125 9.234375 
Q 21.34375 7.28125 26.5625 7.28125 
Q 42.484375 7.28125 42.484375 18.609375 
Q 42.484375 21.78125 40.765625 24.3125 
Q 39.0625 26.859375 36.078125 28.8125 
Q 33.109375 30.765625 24.90625 34.8125 
Q 13.53125 40.484375 9.90625 45.34375 
Q 6.296875 50.203125 6.296875 56.453125 
Q 6.296875 65.875 13.859375 71.390625 
Q 21.4375 76.90625 32.953125 76.90625 
Q 44.234375 76.90625 49.515625 74.171875 
L 49.515625 63.53125 
Q 42.671875 68.265625 32.234375 68.265625 
Q 25.296875 68.265625 20.921875 65.359375 
Q 16.546875 62.453125 16.546875 57.28125 
Q 16.546875 52.6875 19.578125 49.796875 
Q 22.609375 46.921875 32.71875 41.9375 
Q 43.84375 36.625 48.28125 31.296875 
Q 52.734375 25.984375 52.734375 19.34375 
Q 52.734375 9.375 45.5 4.046875 
Q 38.28125 -1.265625 25.4375 -1.265625 
Q 20.953125 -1.265625 14.96875 -0.015625 
Q 8.984375 1.21875 6.25 3.078125 
z
" id="MicrosoftYaHei-83"/>
      <path d="M 18.109375 7.625 
L 18.109375 -24.859375 
L 8.546875 -24.859375 
L 8.546875 54 
L 18.109375 54 
L 18.109375 44.671875 
L 18.3125 44.671875 
Q 24.65625 55.28125 36.859375 55.28125 
Q 47.21875 55.28125 53.09375 48.015625 
Q 58.984375 40.765625 58.984375 28.5625 
Q 58.984375 15.09375 52.3125 6.90625 
Q 45.65625 -1.265625 34.375 -1.265625 
Q 23.96875 -1.265625 18.3125 7.625 
z
M 18.0625 22.265625 
Q 18.0625 15.671875 22.3125 11.15625 
Q 26.5625 6.640625 32.953125 6.640625 
Q 40.578125 6.640625 44.875 12.5 
Q 49.171875 18.359375 49.171875 28.71875 
Q 49.171875 37.453125 45.15625 42.40625 
Q 41.15625 47.359375 34.234375 47.359375 
Q 27.15625 47.359375 22.609375 42.328125 
Q 18.0625 37.3125 18.0625 29.4375 
z
" id="MicrosoftYaHei-112"/>
      <path d="M 52.546875 24.5625 
L 14.75 24.5625 
Q 14.984375 15.921875 19.46875 11.203125 
Q 23.96875 6.5 32.03125 6.5 
Q 41.109375 6.5 48.6875 12.3125 
L 48.6875 3.765625 
Q 41.546875 -1.265625 29.78125 -1.265625 
Q 18.0625 -1.265625 11.5 6.15625 
Q 4.9375 13.578125 4.9375 26.765625 
Q 4.9375 39.15625 12.140625 47.21875 
Q 19.34375 55.28125 30.03125 55.28125 
Q 40.625 55.28125 46.578125 48.46875 
Q 52.546875 41.65625 52.546875 29.390625 
z
M 42.96875 32.234375 
Q 42.921875 39.546875 39.5 43.546875 
Q 36.078125 47.5625 29.890625 47.5625 
Q 24.171875 47.5625 20 43.3125 
Q 15.828125 39.0625 14.75 32.234375 
z
" id="MicrosoftYaHei-101"/>
      <path d="M 45.84375 2.4375 
Q 39.65625 -1.265625 30.90625 -1.265625 
Q 19.1875 -1.265625 12.0625 6.25 
Q 4.9375 13.765625 4.9375 25.734375 
Q 4.9375 39.015625 12.625 47.140625 
Q 20.3125 55.28125 33.203125 55.28125 
Q 40.625 55.28125 45.90625 52.640625 
L 45.90625 43.171875 
Q 40.1875 47.359375 33.203125 47.359375 
Q 25 47.359375 19.84375 41.671875 
Q 14.703125 35.984375 14.703125 26.515625 
Q 14.703125 17.1875 19.5625 11.90625 
Q 24.421875 6.640625 32.671875 6.640625 
Q 39.65625 6.640625 45.84375 11.234375 
z
" id="MicrosoftYaHei-99"/>
      <path d="M 7.375 73.046875 
Q 7.375 75.59375 9.109375 77.3125 
Q 10.84375 79.046875 13.375 79.046875 
Q 15.96875 79.046875 17.75 77.34375 
Q 19.53125 75.640625 19.53125 73.046875 
Q 19.53125 70.515625 17.75 68.828125 
Q 15.96875 67.140625 13.375 67.140625 
Q 10.796875 67.140625 9.078125 68.828125 
Q 7.375 70.515625 7.375 73.046875 
z
M 8.5 0 
L 8.5 54 
L 18.0625 54 
L 18.0625 0 
z
" id="MicrosoftYaHei-105"/>
      <path d="M 36.234375 71.78125 
Q 33.546875 73.1875 30.421875 73.1875 
Q 21.4375 73.1875 21.4375 62.0625 
L 21.4375 54 
L 34.078125 54 
L 34.078125 46.09375 
L 21.4375 46.09375 
L 21.4375 0 
L 11.96875 0 
L 11.96875 46.09375 
L 2.734375 46.09375 
L 2.734375 54 
L 11.96875 54 
L 11.96875 62.5 
Q 11.96875 71.1875 16.96875 76.140625 
Q 21.96875 81.109375 29.6875 81.109375 
Q 33.796875 81.109375 36.234375 80.171875 
z
" id="MicrosoftYaHei-102"/>
      <path d="M 34.46875 0.53125 
Q 31.34375 -1.171875 26.03125 -1.171875 
Q 11.53125 -1.171875 11.53125 14.890625 
L 11.53125 46.09375 
L 2.25 46.09375 
L 2.25 54 
L 11.53125 54 
L 11.53125 67 
L 21.046875 70.015625 
L 21.046875 54 
L 34.46875 54 
L 34.46875 46.09375 
L 21.046875 46.09375 
L 21.046875 16.609375 
Q 21.046875 11.28125 22.84375 8.984375 
Q 24.65625 6.6875 28.859375 6.6875 
Q 32.078125 6.6875 34.46875 8.5 
z
" id="MicrosoftYaHei-116"/>
      <path d="M 52.484375 54 
L 27.984375 -8.15625 
Q 21.140625 -25.4375 8.6875 -25.4375 
Q 5.125 -25.4375 2.59375 -24.65625 
L 2.59375 -16.265625 
Q 5.375 -17.328125 7.953125 -17.328125 
Q 14.453125 -17.328125 17.671875 -9.71875 
L 21.828125 0.09375 
L 0.640625 54 
L 11.234375 54 
L 25.34375 13.421875 
L 26.515625 8.984375 
L 26.765625 8.984375 
Q 27.046875 10.5 27.9375 13.328125 
L 42.671875 54 
z
" id="MicrosoftYaHei-121"/>
     </defs>
     <g transform="translate(288.075312 492.89975)scale(0.12 -0.12)">
      <use xlink:href="#MicrosoftYaHei-49"/>
      <use x="58.642578" xlink:href="#MicrosoftYaHei-32"/>
      <use x="88.232422" xlink:href="#MicrosoftYaHei-45"/>
      <use x="131.494141" xlink:href="#MicrosoftYaHei-32"/>
      <use x="161.083984" xlink:href="#MicrosoftYaHei-83"/>
      <use x="218.798828" xlink:href="#MicrosoftYaHei-112"/>
      <use x="282.666016" xlink:href="#MicrosoftYaHei-101"/>
      <use x="339.404297" xlink:href="#MicrosoftYaHei-99"/>
      <use x="389.550781" xlink:href="#MicrosoftYaHei-105"/>
      <use x="416.162109" xlink:href="#MicrosoftYaHei-102"/>
      <use x="450.830078" xlink:href="#MicrosoftYaHei-105"/>
      <use x="477.441406" xlink:href="#MicrosoftYaHei-99"/>
      <use x="527.587891" xlink:href="#MicrosoftYaHei-105"/>
      <use x="554.199219" xlink:href="#MicrosoftYaHei-116"/>
      <use x="591.455078" xlink:href="#MicrosoftYaHei-121"/>
     </g>
    </g>
   </g>
   <g id="matplotlib.axis_2">
    <g id="ytick_1">
     <g id="line2d_7">
      <defs>
       <path d="M 0 0 
L -3.5 0 
" id="m14232c40e7" style="stroke:#000000;stroke-width:0.8;"/>
      </defs>
      <g>
       <use style="stroke:#000000;stroke-width:0.8;" x="47.73875" xlink:href="#m14232c40e7" y="459.591"/>
      </g>
     </g>
     <g id="text_8">
      <!-- 0.0 -->
      <g transform="translate(23.775625 464.38725)scale(0.12 -0.12)">
       <use xlink:href="#MicrosoftYaHei-48"/>
       <use x="58.642578" xlink:href="#MicrosoftYaHei-46"/>
       <use x="82.714844" xlink:href="#MicrosoftYaHei-48"/>
      </g>
     </g>
    </g>
    <g id="ytick_2">
     <g id="line2d_8">
      <g>
       <use style="stroke:#000000;stroke-width:0.8;" x="47.73875" xlink:href="#m14232c40e7" y="376.756714"/>
      </g>
     </g>
     <g id="text_9">
      <!-- 0.2 -->
      <g transform="translate(23.775625 381.552964)scale(0.12 -0.12)">
       <use xlink:href="#MicrosoftYaHei-48"/>
       <use x="58.642578" xlink:href="#MicrosoftYaHei-46"/>
       <use x="82.714844" xlink:href="#MicrosoftYaHei-50"/>
      </g>
     </g>
    </g>
    <g id="ytick_3">
     <g id="line2d_9">
      <g>
       <use style="stroke:#000000;stroke-width:0.8;" x="47.73875" xlink:href="#m14232c40e7" y="293.922429"/>
      </g>
     </g>
     <g id="text_10">
      <!-- 0.4 -->
      <g transform="translate(23.775625 298.718679)scale(0.12 -0.12)">
       <use xlink:href="#MicrosoftYaHei-48"/>
       <use x="58.642578" xlink:href="#MicrosoftYaHei-46"/>
       <use x="82.714844" xlink:href="#MicrosoftYaHei-52"/>
      </g>
     </g>
    </g>
    <g id="ytick_4">
     <g id="line2d_10">
      <g>
       <use style="stroke:#000000;stroke-width:0.8;" x="47.73875" xlink:href="#m14232c40e7" y="211.088143"/>
      </g>
     </g>
     <g id="text_11">
      <!-- 0.6 -->
      <g transform="translate(23.775625 215.884393)scale(0.12 -0.12)">
       <use xlink:href="#MicrosoftYaHei-48"/>
       <use x="58.642578" xlink:href="#MicrosoftYaHei-46"/>
       <use x="82.714844" xlink:href="#MicrosoftYaHei-54"/>
      </g>
     </g>
    </g>
    <g id="ytick_5">
     <g id="line2d_11">
      <g>
       <use style="stroke:#000000;stroke-width:0.8;" x="47.73875" xlink:href="#m14232c40e7" y="128.253857"/>
      </g>
     </g>
     <g id="text_12">
      <!-- 0.8 -->
      <g transform="translate(23.775625 133.050107)scale(0.12 -0.12)">
       <use xlink:href="#MicrosoftYaHei-48"/>
       <use x="58.642578" xlink:href="#MicrosoftYaHei-46"/>
       <use x="82.714844" xlink:href="#MicrosoftYaHei-56"/>
      </g>
     </g>
    </g>
    <g id="ytick_6">
     <g id="line2d_12">
      <g>
       <use style="stroke:#000000;stroke-width:0.8;" x="47.73875" xlink:href="#m14232c40e7" y="45.419571"/>
      </g>
     </g>
     <g id="text_13">
      <!-- 1.0 -->
      <g transform="translate(23.775625 50.215821)scale(0.12 -0.12)">
       <use xlink:href="#MicrosoftYaHei-49"/>
       <use x="58.642578" xlink:href="#MicrosoftYaHei-46"/>
       <use x="82.714844" xlink:href="#MicrosoftYaHei-48"/>
      </g>
     </g>
    </g>
    <g id="text_14">
     <!-- Sensitivity -->
     <defs>
      <path d="M 54.203125 0 
L 44.671875 0 
L 44.671875 30.71875 
Q 44.671875 47.359375 32.515625 47.359375 
Q 26.21875 47.359375 22.15625 42.671875 
Q 18.109375 37.984375 18.109375 30.8125 
L 18.109375 0 
L 8.546875 0 
L 8.546875 54 
L 18.109375 54 
L 18.109375 45.0625 
L 18.3125 45.0625 
Q 24.421875 55.28125 36.03125 55.28125 
Q 44.921875 55.28125 49.5625 49.578125 
Q 54.203125 43.890625 54.203125 33.015625 
z
" id="MicrosoftYaHei-110"/>
      <path d="M 5.515625 11.671875 
Q 12.75 6.453125 21.09375 6.453125 
Q 32.28125 6.453125 32.28125 13.765625 
Q 32.28125 16.890625 29.828125 18.921875 
Q 27.390625 20.953125 19.921875 23.734375 
Q 10.9375 27.34375 8.25 30.875 
Q 5.5625 34.421875 5.5625 39.453125 
Q 5.5625 46.625 11.640625 50.953125 
Q 17.71875 55.28125 26.609375 55.28125 
Q 33.5 55.28125 39.40625 52.875 
L 39.40625 43.65625 
Q 33.34375 47.5625 25.6875 47.5625 
Q 21.09375 47.5625 18.203125 45.5625 
Q 15.328125 43.5625 15.328125 40.28125 
Q 15.328125 37.0625 17.40625 35.25 
Q 19.484375 33.453125 26.609375 30.609375 
Q 35.640625 27.25 38.8125 23.625 
Q 42 20.015625 42 14.703125 
Q 42 7.28125 35.90625 3 
Q 29.828125 -1.265625 20.171875 -1.265625 
Q 11.765625 -1.265625 5.515625 1.90625 
z
" id="MicrosoftYaHei-115"/>
      <path d="M 52.046875 54 
L 30.671875 0 
L 21 0 
L 0.6875 54 
L 11.140625 54 
L 24.3125 15.4375 
Q 25.921875 10.796875 26.21875 7.671875 
L 26.46875 7.671875 
Q 26.953125 11.765625 28.171875 15.234375 
L 42 54 
z
" id="MicrosoftYaHei-118"/>
     </defs>
     <g transform="translate(16.723125 271.0785)rotate(-90)scale(0.12 -0.12)">
      <use xlink:href="#MicrosoftYaHei-83"/>
      <use x="57.714844" xlink:href="#MicrosoftYaHei-101"/>
      <use x="114.453125" xlink:href="#MicrosoftYaHei-110"/>
      <use x="176.074219" xlink:href="#MicrosoftYaHei-115"/>
      <use x="222.363281" xlink:href="#MicrosoftYaHei-105"/>
      <use x="248.974609" xlink:href="#MicrosoftYaHei-116"/>
      <use x="286.230469" xlink:href="#MicrosoftYaHei-105"/>
      <use x="312.841797" xlink:href="#MicrosoftYaHei-118"/>
      <use x="365.332031" xlink:href="#MicrosoftYaHei-105"/>
      <use x="391.943359" xlink:href="#MicrosoftYaHei-116"/>
      <use x="429.199219" xlink:href="#MicrosoftYaHei-121"/>
     </g>
    </g>
   </g>
   <g id="line2d_13">
    <path clip-path="url(#pe5f940baa2)" d="M 47.73875 459.591 
L 63.23875 427.731659 
L 63.23875 395.872319 
L 63.23875 332.153637 
L 78.73875 300.294297 
L 94.23875 300.294297 
L 125.23875 300.294297 
L 156.23875 236.575615 
L 187.23875 236.575615 
L 218.23875 236.575615 
L 233.73875 204.716275 
L 264.73875 204.716275 
L 295.73875 204.716275 
L 295.73875 140.997593 
L 295.73875 109.138253 
L 311.23875 109.138253 
L 373.23875 109.138253 
L 404.23875 109.138253 
L 435.23875 109.138253 
L 435.23875 77.278912 
L 466.23875 77.278912 
L 481.73875 77.278912 
L 512.73875 77.278912 
L 528.23875 77.278912 
L 590.23875 77.278912 
L 605.73875 77.278912 
L 605.73875 45.419571 
" style="fill:none;stroke:#ff1493;stroke-linecap:square;stroke-width:4;"/>
   </g>
   <g id="line2d_14">
    <path clip-path="url(#pe5f940baa2)" d="M 47.73875 459.591 
L 78.73875 459.591 
L 94.23875 459.591 
L 94.23875 427.731659 
L 125.23875 427.731659 
L 125.23875 364.012978 
L 156.23875 364.012978 
L 171.73875 364.012978 
L 233.73875 364.012978 
L 249.23875 364.012978 
L 249.23875 332.153637 
L 280.23875 332.153637 
L 280.23875 300.294297 
L 311.23875 300.294297 
L 311.23875 236.575615 
L 326.73875 236.575615 
L 357.73875 236.575615 
L 404.23875 236.575615 
L 419.73875 204.716275 
L 512.73875 204.716275 
L 543.73875 140.997593 
L 574.73875 140.997593 
L 605.73875 77.278912 
L 605.73875 45.419571 
" style="fill:none;stroke:#000080;stroke-dasharray:4,6.6;stroke-dashoffset:0;stroke-width:4;"/>
   </g>
   <g id="line2d_15">
    <path clip-path="url(#pe5f940baa2)" d="M 47.73875 459.591 
L 63.23875 427.731659 
L 78.73875 395.872319 
L 171.73875 364.012978 
L 280.23875 364.012978 
L 388.73875 204.716275 
L 605.73875 45.419571 
" style="fill:none;stroke:#00ffff;stroke-linecap:square;stroke-width:4;"/>
   </g>
   <g id="line2d_16">
    <path clip-path="url(#pe5f940baa2)" d="M 47.73875 459.591 
L 109.73875 427.731659 
L 171.73875 395.872319 
L 202.73875 395.872319 
L 218.23875 364.012978 
L 295.73875 300.294297 
L 466.23875 172.856934 
L 466.23875 140.997593 
L 605.73875 45.419571 
" style="fill:none;stroke:#ff8c00;stroke-dasharray:4,6.6;stroke-dashoffset:0;stroke-width:4;"/>
   </g>
   <g id="line2d_17">
    <path clip-path="url(#pe5f940baa2)" d="M 47.73875 459.591 
L 78.73875 459.591 
L 94.23875 427.731659 
L 94.23875 395.872319 
L 171.73875 395.872319 
L 202.73875 364.012978 
L 249.23875 332.153637 
L 280.23875 332.153637 
L 326.73875 332.153637 
L 605.73875 45.419571 
" style="fill:none;stroke:#6495ed;stroke-linecap:square;stroke-width:4;"/>
   </g>
   <g id="line2d_18">
    <path clip-path="url(#pe5f940baa2)" d="M 47.73875 459.591 
L 63.23875 427.731659 
L 94.23875 427.731659 
L 109.73875 427.731659 
L 109.73875 395.872319 
L 125.23875 395.872319 
L 140.73875 364.012978 
L 156.23875 364.012978 
L 156.23875 332.153637 
L 187.23875 332.153637 
L 187.23875 268.434956 
L 202.73875 236.575615 
L 233.73875 236.575615 
L 233.73875 204.716275 
L 249.23875 204.716275 
L 280.23875 204.716275 
L 342.23875 204.716275 
L 357.73875 172.856934 
L 435.23875 172.856934 
L 481.73875 140.997593 
L 512.73875 140.997593 
L 559.23875 109.138253 
L 605.73875 45.419571 
" style="fill:none;stroke:#000000;stroke-dasharray:4,6.6;stroke-dashoffset:0;stroke-width:4;"/>
   </g>
   <g id="line2d_19">
    <path clip-path="url(#pe5f940baa2)" d="M 47.73875 459.591 
L 63.23875 427.731659 
L 78.73875 427.731659 
L 109.73875 364.012978 
L 156.23875 332.153637 
L 187.23875 332.153637 
L 187.23875 268.434956 
L 233.73875 236.575615 
L 264.73875 172.856934 
L 357.73875 172.856934 
L 373.23875 109.138253 
L 404.23875 109.138253 
L 481.73875 109.138253 
L 497.23875 77.278912 
L 512.73875 77.278912 
L 543.73875 77.278912 
L 605.73875 77.278912 
L 605.73875 45.419571 
" style="fill:none;stroke:#000080;stroke-linecap:square;stroke-width:4;"/>
   </g>
   <g id="line2d_20">
    <path clip-path="url(#pe5f940baa2)" d="M 47.73875 459.591 
L 47.73875 427.731659 
L 94.23875 427.731659 
L 94.23875 364.012978 
L 109.73875 332.153637 
L 140.73875 332.153637 
L 140.73875 268.434956 
L 171.73875 268.434956 
L 202.73875 268.434956 
L 233.73875 204.716275 
L 233.73875 172.856934 
L 326.73875 172.856934 
L 342.23875 172.856934 
L 357.73875 140.997593 
L 450.73875 140.997593 
L 466.23875 140.997593 
L 466.23875 77.278912 
L 481.73875 77.278912 
L 512.73875 77.278912 
L 528.23875 77.278912 
L 559.23875 77.278912 
L 559.23875 45.419571 
L 590.23875 45.419571 
L 605.73875 45.419571 
" style="fill:none;stroke:#00008b;stroke-dasharray:4,6.6;stroke-dashoffset:0;stroke-width:4;"/>
   </g>
   <g id="line2d_21">
    <path clip-path="url(#pe5f940baa2)" d="M 47.73875 459.591 
L 605.73875 45.419571 
" style="fill:none;stroke:#000000;stroke-dasharray:7.4,3.2;stroke-dashoffset:0;stroke-width:2;"/>
   </g>
   <g id="patch_3">
    <path d="M 47.73875 459.591 
L 47.73875 24.711 
" style="fill:none;stroke:#000000;stroke-linecap:square;stroke-linejoin:miter;stroke-width:0.8;"/>
   </g>
   <g id="patch_4">
    <path d="M 605.73875 459.591 
L 605.73875 24.711 
" style="fill:none;stroke:#000000;stroke-linecap:square;stroke-linejoin:miter;stroke-width:0.8;"/>
   </g>
   <g id="patch_5">
    <path d="M 47.73875 459.591 
L 605.73875 459.591 
" style="fill:none;stroke:#000000;stroke-linecap:square;stroke-linejoin:miter;stroke-width:0.8;"/>
   </g>
   <g id="patch_6">
    <path d="M 47.73875 24.711 
L 605.73875 24.711 
" style="fill:none;stroke:#000000;stroke-linecap:square;stroke-linejoin:miter;stroke-width:0.8;"/>
   </g>
   <g id="text_15">
    <!-- Model AUC -->
    <defs>
     <path d="M 78.171875 0 
L 78.171875 50.09375 
Q 78.171875 56.296875 78.90625 64.984375 
L 78.65625 64.984375 
Q 77.390625 59.515625 76.421875 57.375 
L 51.46875 0 
L 46.046875 0 
L 21.140625 56.9375 
Q 20.265625 58.890625 18.890625 64.984375 
L 18.609375 64.984375 
Q 19.09375 59.71875 19.09375 49.65625 
L 19.09375 0 
L 9.765625 0 
L 9.765625 75.640625 
L 23 75.640625 
L 45.3125 23.78125 
Q 47.859375 17.828125 48.6875 14.5 
L 49.03125 14.5 
Q 51.5625 21.484375 52.59375 23.96875 
L 75.296875 75.640625 
L 87.890625 75.640625 
L 87.890625 0 
z
" id="MicrosoftYaHei-77"/>
     <path d="M 4.9375 26.421875 
Q 4.9375 39.796875 12.40625 47.53125 
Q 19.875 55.28125 32.671875 55.28125 
Q 44.828125 55.28125 51.734375 47.828125 
Q 58.640625 40.375 58.640625 27.25 
Q 58.640625 14.453125 51.265625 6.59375 
Q 43.890625 -1.265625 31.5 -1.265625 
Q 19.390625 -1.265625 12.15625 6.34375 
Q 4.9375 13.96875 4.9375 26.421875 
z
M 14.703125 26.703125 
Q 14.703125 17.390625 19.40625 12.015625 
Q 24.125 6.640625 32.078125 6.640625 
Q 40.28125 6.640625 44.578125 11.890625 
Q 48.875 17.140625 48.875 26.953125 
Q 48.875 36.8125 44.578125 42.078125 
Q 40.28125 47.359375 32.078125 47.359375 
Q 24.03125 47.359375 19.359375 41.84375 
Q 14.703125 36.328125 14.703125 26.703125 
z
" id="MicrosoftYaHei-111"/>
     <path d="M 55.421875 0 
L 45.84375 0 
L 45.84375 8.984375 
L 45.65625 8.984375 
Q 39.75 -1.265625 27.296875 -1.265625 
Q 17.046875 -1.265625 10.984375 6.03125 
Q 4.9375 13.328125 4.9375 25.734375 
Q 4.9375 39.109375 11.765625 47.1875 
Q 18.609375 55.28125 29.640625 55.28125 
Q 40.671875 55.28125 45.65625 46.6875 
L 45.84375 46.6875 
L 45.84375 79.9375 
L 55.421875 79.9375 
z
M 45.90625 32.125 
Q 45.90625 38.625 41.625 42.984375 
Q 37.359375 47.359375 31.109375 47.359375 
Q 23.484375 47.359375 19.09375 41.671875 
Q 14.703125 35.984375 14.703125 26.171875 
Q 14.703125 17.140625 18.921875 11.890625 
Q 23.140625 6.640625 30.171875 6.640625 
Q 37.109375 6.640625 41.5 11.78125 
Q 45.90625 16.9375 45.90625 24.609375 
z
" id="MicrosoftYaHei-100"/>
     <path d="M 8.5 0 
L 8.5 79.9375 
L 18.0625 79.9375 
L 18.0625 0 
z
" id="MicrosoftYaHei-108"/>
     <path d="M 69.1875 0 
L 58.40625 0 
L 50.6875 20.703125 
L 19.1875 20.703125 
L 11.921875 0 
L 1.125 0 
L 29.9375 75.640625 
L 40.375 75.640625 
z
M 47.65625 29.25 
L 36.234375 60.6875 
Q 35.6875 62.203125 35.0625 65.96875 
L 34.8125 65.96875 
Q 34.28125 62.546875 33.59375 60.6875 
L 22.265625 29.25 
z
" id="MicrosoftYaHei-65"/>
     <path d="M 65.828125 30.8125 
Q 65.828125 -1.265625 36.71875 -1.265625 
Q 8.84375 -1.265625 8.84375 29.6875 
L 8.84375 75.640625 
L 18.609375 75.640625 
L 18.609375 30.125 
Q 18.609375 7.421875 37.640625 7.421875 
Q 56.0625 7.421875 56.0625 29.390625 
L 56.0625 75.640625 
L 65.828125 75.640625 
z
" id="MicrosoftYaHei-85"/>
     <path d="M 61.53125 3.125 
Q 53.171875 -1.265625 40.578125 -1.265625 
Q 24.3125 -1.265625 14.59375 9.0625 
Q 4.890625 19.390625 4.890625 36.375 
Q 4.890625 54.640625 15.828125 65.765625 
Q 26.765625 76.90625 43.609375 76.90625 
Q 54.4375 76.90625 61.53125 73.828125 
L 61.53125 63.625 
Q 53.421875 68.109375 43.703125 68.109375 
Q 31.0625 68.109375 23.09375 59.6875 
Q 15.140625 51.265625 15.140625 36.96875 
Q 15.140625 23.390625 22.5625 15.40625 
Q 29.984375 7.421875 42 7.421875 
Q 53.21875 7.421875 61.53125 12.5 
z
" id="MicrosoftYaHei-67"/>
    </defs>
    <g transform="translate(287.231 18.711)scale(0.144 -0.144)">
     <use xlink:href="#MicrosoftYaHei-77"/>
     <use x="97.705078" xlink:href="#MicrosoftYaHei-111"/>
     <use x="161.279297" xlink:href="#MicrosoftYaHei-100"/>
     <use x="225.244141" xlink:href="#MicrosoftYaHei-101"/>
     <use x="281.982422" xlink:href="#MicrosoftYaHei-108"/>
     <use x="308.59375" xlink:href="#MicrosoftYaHei-32"/>
     <use x="338.183594" xlink:href="#MicrosoftYaHei-65"/>
     <use x="407.169922" xlink:href="#MicrosoftYaHei-85"/>
     <use x="481.828125" xlink:href="#MicrosoftYaHei-67"/>
    </g>
   </g>
   <g id="legend_1">
    <g id="patch_7">
     <path d="M 290.28875 453.591 
L 597.33875 453.591 
Q 599.73875 453.591 599.73875 451.191 
L 599.73875 303.716625 
Q 599.73875 301.316625 597.33875 301.316625 
L 290.28875 301.316625 
Q 287.88875 301.316625 287.88875 303.716625 
L 287.88875 451.191 
Q 287.88875 453.591 290.28875 453.591 
z
" style="fill:#ffffff;opacity:0.8;stroke:#cccccc;stroke-linejoin:miter;"/>
    </g>
    <g id="line2d_22">
     <path d="M 292.68875 311.509125 
L 316.68875 311.509125 
" style="fill:none;stroke:#ff1493;stroke-linecap:square;stroke-width:4;"/>
    </g>
    <g id="line2d_23"/>
    <g id="text_16">
     <!-- LR AUC: 0.706 (95%CI 0.524-0.888) -->
     <defs>
      <path d="M 49.65625 0 
L 9.765625 0 
L 9.765625 75.640625 
L 19.53125 75.640625 
L 19.53125 8.640625 
L 49.65625 8.640625 
z
" id="MicrosoftYaHei-76"/>
      <path d="M 64.984375 0 
L 53.46875 0 
L 40.921875 21 
Q 37.15625 27.296875 34.03125 29.5625 
Q 30.90625 31.84375 26.5625 31.84375 
L 19.53125 31.84375 
L 19.53125 0 
L 9.765625 0 
L 9.765625 75.640625 
L 32.8125 75.640625 
Q 43.84375 75.640625 50.09375 70.3125 
Q 56.34375 64.984375 56.34375 55.421875 
Q 56.34375 39.703125 39.546875 35.015625 
L 39.546875 34.765625 
Q 42.671875 33.453125 44.9375 31 
Q 47.21875 28.5625 50.828125 22.65625 
z
M 19.53125 67.09375 
L 19.53125 40.375 
L 31.0625 40.375 
Q 37.75 40.375 41.921875 44.28125 
Q 46.09375 48.1875 46.09375 54.546875 
Q 46.09375 60.453125 42.28125 63.765625 
Q 38.484375 67.09375 31.203125 67.09375 
z
" id="MicrosoftYaHei-82"/>
      <path d="M 5.8125 48.96875 
Q 5.8125 51.609375 7.65625 53.359375 
Q 9.515625 55.125 12.109375 55.125 
Q 14.75 55.125 16.59375 53.34375 
Q 18.453125 51.5625 18.453125 48.96875 
Q 18.453125 46.390625 16.640625 44.578125 
Q 14.84375 42.78125 12.0625 42.78125 
Q 9.421875 42.78125 7.609375 44.578125 
Q 5.8125 46.390625 5.8125 48.96875 
z
M 5.8125 5.03125 
Q 5.8125 7.671875 7.609375 9.46875 
Q 9.421875 11.28125 12.109375 11.28125 
Q 14.84375 11.28125 16.640625 9.453125 
Q 18.453125 7.625 18.453125 5.03125 
Q 18.453125 2.484375 16.640625 0.65625 
Q 14.84375 -1.171875 12.0625 -1.171875 
Q 9.375 -1.171875 7.59375 0.65625 
Q 5.8125 2.484375 5.8125 5.03125 
z
" id="MicrosoftYaHei-58"/>
      <path d="M 53.46875 69.734375 
Q 41.546875 48.921875 34.734375 31.21875 
Q 27.9375 13.53125 26.3125 0 
L 16.359375 0 
Q 18.171875 13.328125 24.90625 30.421875 
Q 31.640625 47.515625 42.921875 67.1875 
L 5.421875 67.1875 
L 5.421875 75.640625 
L 53.46875 75.640625 
z
" id="MicrosoftYaHei-55"/>
      <path d="M 23.921875 -17.1875 
Q 7.46875 1.5625 7.46875 28.859375 
Q 7.46875 56.15625 23.921875 75.640625 
L 32.375 75.640625 
Q 15.875 55.375 15.875 28.953125 
Q 15.875 2.59375 32.28125 -17.1875 
z
" id="MicrosoftYaHei-40"/>
      <path d="M 9.03125 10.25 
Q 15.28125 6.640625 22.515625 6.640625 
Q 32.671875 6.640625 38.25 14.640625 
Q 43.84375 22.65625 43.84375 37.40625 
Q 43.75 37.3125 43.65625 37.40625 
Q 38.671875 27.9375 26.90625 27.9375 
Q 17.390625 27.9375 11.140625 34.46875 
Q 4.890625 41.015625 4.890625 51.46875 
Q 4.890625 62.59375 11.71875 69.75 
Q 18.5625 76.90625 29.4375 76.90625 
Q 40.71875 76.90625 47.0625 68.046875 
Q 53.421875 59.1875 53.421875 42.234375 
Q 53.421875 21.296875 45.21875 10.015625 
Q 37.015625 -1.265625 22.515625 -1.265625 
Q 14.546875 -1.265625 9.03125 1.3125 
z
M 14.546875 52.6875 
Q 14.546875 45.0625 18.453125 40.59375 
Q 22.359375 36.140625 29.25 36.140625 
Q 35.203125 36.140625 39.25 40.203125 
Q 43.3125 44.28125 43.3125 50.09375 
Q 43.3125 58.25 39.28125 63.59375 
Q 35.25 68.953125 28.65625 68.953125 
Q 22.5625 68.953125 18.546875 64.3125 
Q 14.546875 59.671875 14.546875 52.6875 
z
" id="MicrosoftYaHei-57"/>
      <path d="M 51.46875 23.34375 
Q 51.46875 12.25 44.109375 5.46875 
Q 36.765625 -1.3125 24.359375 -1.3125 
Q 13.71875 -1.3125 8.5 1.859375 
L 8.5 11.625 
Q 16.15625 6.640625 24.125 6.640625 
Q 32.03125 6.640625 36.890625 11 
Q 41.75 15.375 41.75 22.609375 
Q 41.75 29.828125 36.6875 33.859375 
Q 31.640625 37.890625 22.40625 37.890625 
Q 15.28125 37.890625 9.578125 37.25 
L 12.359375 75.640625 
L 47.703125 75.640625 
L 47.703125 67.234375 
L 20.40625 67.234375 
L 18.84375 45.796875 
L 25.734375 46.09375 
Q 37.75 46.09375 44.609375 40.109375 
Q 51.46875 34.125 51.46875 23.34375 
z
" id="MicrosoftYaHei-53"/>
      <path d="M 4.25 56.546875 
Q 4.25 65.828125 9.203125 71.296875 
Q 14.15625 76.765625 22.5625 76.765625 
Q 30.609375 76.765625 35.125 71.734375 
Q 39.65625 66.703125 39.65625 57.71875 
Q 39.65625 48.78125 34.671875 43.203125 
Q 29.6875 37.640625 21.4375 37.640625 
Q 13.625 37.640625 8.9375 42.8125 
Q 4.25 48 4.25 56.546875 
z
M 11.765625 57.03125 
Q 11.765625 50.734375 14.5 47.3125 
Q 17.234375 43.890625 21.96875 43.890625 
Q 26.859375 43.890625 29.515625 47.4375 
Q 32.171875 50.984375 32.171875 57.421875 
Q 32.171875 63.71875 29.5625 67.15625 
Q 26.953125 70.609375 22.21875 70.609375 
Q 17.390625 70.609375 14.578125 67.015625 
Q 11.765625 63.421875 11.765625 57.03125 
z
M 72.609375 75.640625 
L 24.03125 -0.484375 
L 15.875 -0.484375 
L 64.453125 75.640625 
z
M 49.5625 17.71875 
Q 49.5625 27 54.515625 32.546875 
Q 59.46875 38.09375 67.828125 38.09375 
Q 75.828125 38.09375 80.359375 33.03125 
Q 84.90625 27.984375 84.90625 18.796875 
Q 84.90625 9.90625 79.875 4.359375 
Q 74.859375 -1.171875 66.75 -1.171875 
Q 58.890625 -1.171875 54.21875 4.078125 
Q 49.5625 9.328125 49.5625 17.71875 
z
M 57.03125 18.171875 
Q 57.03125 12.015625 59.765625 8.5625 
Q 62.5 5.125 67.234375 5.125 
Q 72.125 5.125 74.78125 8.6875 
Q 77.4375 12.25 77.4375 18.65625 
Q 77.4375 25 74.78125 28.359375 
Q 72.125 31.734375 67.484375 31.734375 
Q 62.5 31.734375 59.765625 28.140625 
Q 57.03125 24.5625 57.03125 18.171875 
z
" id="MicrosoftYaHei-37"/>
      <path d="M 19.53125 75.640625 
L 19.53125 0 
L 9.765625 0 
L 9.765625 75.640625 
z
" id="MicrosoftYaHei-73"/>
      <path d="M 1.21875 -17.1875 
Q 17.671875 2.546875 17.671875 28.953125 
Q 17.671875 55.421875 1.125 75.640625 
L 9.625 75.640625 
Q 26.125 56.296875 26.125 28.859375 
Q 26.125 1.421875 9.625 -17.1875 
z
" id="MicrosoftYaHei-41"/>
     </defs>
     <g transform="translate(326.28875 315.709125)scale(0.12 -0.12)">
      <use xlink:href="#MicrosoftYaHei-76"/>
      <use x="51.318359" xlink:href="#MicrosoftYaHei-82"/>
      <use x="116.601562" xlink:href="#MicrosoftYaHei-32"/>
      <use x="146.191406" xlink:href="#MicrosoftYaHei-65"/>
      <use x="215.177734" xlink:href="#MicrosoftYaHei-85"/>
      <use x="289.835938" xlink:href="#MicrosoftYaHei-67"/>
      <use x="356.730469" xlink:href="#MicrosoftYaHei-58"/>
      <use x="380.802734" xlink:href="#MicrosoftYaHei-32"/>
      <use x="410.392578" xlink:href="#MicrosoftYaHei-48"/>
      <use x="469.035156" xlink:href="#MicrosoftYaHei-46"/>
      <use x="493.107422" xlink:href="#MicrosoftYaHei-55"/>
      <use x="551.75" xlink:href="#MicrosoftYaHei-48"/>
      <use x="610.392578" xlink:href="#MicrosoftYaHei-54"/>
      <use x="669.035156" xlink:href="#MicrosoftYaHei-32"/>
      <use x="698.625" xlink:href="#MicrosoftYaHei-40"/>
      <use x="732.023438" xlink:href="#MicrosoftYaHei-57"/>
      <use x="790.666016" xlink:href="#MicrosoftYaHei-53"/>
      <use x="849.308594" xlink:href="#MicrosoftYaHei-37"/>
      <use x="938.273438" xlink:href="#MicrosoftYaHei-67"/>
      <use x="1005.167969" xlink:href="#MicrosoftYaHei-73"/>
      <use x="1034.5625" xlink:href="#MicrosoftYaHei-32"/>
      <use x="1064.152344" xlink:href="#MicrosoftYaHei-48"/>
      <use x="1122.794922" xlink:href="#MicrosoftYaHei-46"/>
      <use x="1146.867188" xlink:href="#MicrosoftYaHei-53"/>
      <use x="1205.509766" xlink:href="#MicrosoftYaHei-50"/>
      <use x="1264.152344" xlink:href="#MicrosoftYaHei-52"/>
      <use x="1322.794922" xlink:href="#MicrosoftYaHei-45"/>
      <use x="1366.056641" xlink:href="#MicrosoftYaHei-48"/>
      <use x="1424.699219" xlink:href="#MicrosoftYaHei-46"/>
      <use x="1448.771484" xlink:href="#MicrosoftYaHei-56"/>
      <use x="1507.414062" xlink:href="#MicrosoftYaHei-56"/>
      <use x="1566.056641" xlink:href="#MicrosoftYaHei-56"/>
      <use x="1624.699219" xlink:href="#MicrosoftYaHei-41"/>
     </g>
    </g>
    <g id="line2d_24">
     <path d="M 292.68875 330.08475 
L 316.68875 330.08475 
" style="fill:none;stroke:#000080;stroke-dasharray:4,6.6;stroke-dashoffset:0;stroke-width:4;"/>
    </g>
    <g id="line2d_25"/>
    <g id="text_17">
     <!-- SVM AUC: 0.431 (95%CI 0.229-0.632) -->
     <defs>
      <path d="M 66.75 75.640625 
L 38.96875 0 
L 28.125 0 
L 0.875 75.640625 
L 11.71875 75.640625 
L 32.078125 16.5 
Q 33.109375 13.578125 33.59375 9.71875 
L 33.84375 9.71875 
Q 34.234375 13.09375 35.546875 16.609375 
L 56.296875 75.640625 
z
" id="MicrosoftYaHei-86"/>
      <path d="M 6.984375 12.640625 
Q 14.75 6.640625 24.515625 6.640625 
Q 32.328125 6.640625 36.890625 10.46875 
Q 41.453125 14.3125 41.453125 20.75 
Q 41.453125 35.109375 20.90625 35.109375 
L 14.59375 35.109375 
L 14.59375 43.015625 
L 20.609375 43.015625 
Q 38.8125 43.015625 38.8125 56.5 
Q 38.8125 68.953125 24.90625 68.953125 
Q 16.9375 68.953125 9.90625 63.578125 
L 9.90625 72.609375 
Q 17.328125 76.90625 27.25 76.90625 
Q 36.921875 76.90625 42.78125 71.84375 
Q 48.640625 66.796875 48.640625 58.734375 
Q 48.640625 43.890625 33.5 39.65625 
L 33.5 39.453125 
Q 41.703125 38.578125 46.453125 33.671875 
Q 51.21875 28.765625 51.21875 21.4375 
Q 51.21875 11.234375 43.875 4.984375 
Q 36.53125 -1.265625 24.3125 -1.265625 
Q 13.578125 -1.265625 6.984375 2.734375 
z
" id="MicrosoftYaHei-51"/>
     </defs>
     <g transform="translate(326.28875 334.28475)scale(0.12 -0.12)">
      <use xlink:href="#MicrosoftYaHei-83"/>
      <use x="57.714844" xlink:href="#MicrosoftYaHei-86"/>
      <use x="125.341797" xlink:href="#MicrosoftYaHei-77"/>
      <use x="223.046875" xlink:href="#MicrosoftYaHei-32"/>
      <use x="252.636719" xlink:href="#MicrosoftYaHei-65"/>
      <use x="321.623047" xlink:href="#MicrosoftYaHei-85"/>
      <use x="396.28125" xlink:href="#MicrosoftYaHei-67"/>
      <use x="463.175781" xlink:href="#MicrosoftYaHei-58"/>
      <use x="487.248047" xlink:href="#MicrosoftYaHei-32"/>
      <use x="516.837891" xlink:href="#MicrosoftYaHei-48"/>
      <use x="575.480469" xlink:href="#MicrosoftYaHei-46"/>
      <use x="599.552734" xlink:href="#MicrosoftYaHei-52"/>
      <use x="658.195312" xlink:href="#MicrosoftYaHei-51"/>
      <use x="716.837891" xlink:href="#MicrosoftYaHei-49"/>
      <use x="775.480469" xlink:href="#MicrosoftYaHei-32"/>
      <use x="805.070312" xlink:href="#MicrosoftYaHei-40"/>
      <use x="838.46875" xlink:href="#MicrosoftYaHei-57"/>
      <use x="897.111328" xlink:href="#MicrosoftYaHei-53"/>
      <use x="955.753906" xlink:href="#MicrosoftYaHei-37"/>
      <use x="1044.71875" xlink:href="#MicrosoftYaHei-67"/>
      <use x="1111.613281" xlink:href="#MicrosoftYaHei-73"/>
      <use x="1141.007812" xlink:href="#MicrosoftYaHei-32"/>
      <use x="1170.597656" xlink:href="#MicrosoftYaHei-48"/>
      <use x="1229.240234" xlink:href="#MicrosoftYaHei-46"/>
      <use x="1253.3125" xlink:href="#MicrosoftYaHei-50"/>
      <use x="1311.955078" xlink:href="#MicrosoftYaHei-50"/>
      <use x="1370.597656" xlink:href="#MicrosoftYaHei-57"/>
      <use x="1429.240234" xlink:href="#MicrosoftYaHei-45"/>
      <use x="1472.501953" xlink:href="#MicrosoftYaHei-48"/>
      <use x="1531.144531" xlink:href="#MicrosoftYaHei-46"/>
      <use x="1555.216797" xlink:href="#MicrosoftYaHei-54"/>
      <use x="1613.859375" xlink:href="#MicrosoftYaHei-51"/>
      <use x="1672.501953" xlink:href="#MicrosoftYaHei-50"/>
      <use x="1731.144531" xlink:href="#MicrosoftYaHei-41"/>
     </g>
    </g>
    <g id="line2d_26">
     <path d="M 292.68875 348.660375 
L 316.68875 348.660375 
" style="fill:none;stroke:#00ffff;stroke-linecap:square;stroke-width:4;"/>
    </g>
    <g id="line2d_27"/>
    <g id="text_18">
     <!-- KNN AUC: 0.478 (95%CI 0.293-0.662) -->
     <defs>
      <path d="M 63.578125 0 
L 50.203125 0 
L 21.78125 34.375 
Q 20.3125 36.1875 19.78125 37.203125 
L 19.53125 37.203125 
L 19.53125 0 
L 9.765625 0 
L 9.765625 75.640625 
L 19.53125 75.640625 
L 19.53125 40.046875 
L 19.78125 40.046875 
Q 20.609375 41.359375 21.78125 42.828125 
L 49.21875 75.640625 
L 61.28125 75.640625 
L 29.546875 39.359375 
z
" id="MicrosoftYaHei-75"/>
      <path d="M 71.53125 0 
L 59.96875 0 
L 21.921875 58.84375 
Q 20.3125 61.328125 19.34375 63.765625 
L 19.046875 63.765625 
Q 19.4375 61.234375 19.4375 53.171875 
L 19.4375 0 
L 9.765625 0 
L 9.765625 75.640625 
L 22.015625 75.640625 
L 59.03125 17.828125 
Q 61.671875 13.71875 62.15625 12.59375 
L 62.359375 12.59375 
Q 61.859375 15.828125 61.859375 23.640625 
L 61.859375 75.640625 
L 71.53125 75.640625 
z
" id="MicrosoftYaHei-78"/>
     </defs>
     <g transform="translate(326.28875 352.860375)scale(0.12 -0.12)">
      <use xlink:href="#MicrosoftYaHei-75"/>
      <use x="63.476562" xlink:href="#MicrosoftYaHei-78"/>
      <use x="144.775391" xlink:href="#MicrosoftYaHei-78"/>
      <use x="226.074219" xlink:href="#MicrosoftYaHei-32"/>
      <use x="255.664062" xlink:href="#MicrosoftYaHei-65"/>
      <use x="324.650391" xlink:href="#MicrosoftYaHei-85"/>
      <use x="399.308594" xlink:href="#MicrosoftYaHei-67"/>
      <use x="466.203125" xlink:href="#MicrosoftYaHei-58"/>
      <use x="490.275391" xlink:href="#MicrosoftYaHei-32"/>
      <use x="519.865234" xlink:href="#MicrosoftYaHei-48"/>
      <use x="578.507812" xlink:href="#MicrosoftYaHei-46"/>
      <use x="602.580078" xlink:href="#MicrosoftYaHei-52"/>
      <use x="661.222656" xlink:href="#MicrosoftYaHei-55"/>
      <use x="719.865234" xlink:href="#MicrosoftYaHei-56"/>
      <use x="778.507812" xlink:href="#MicrosoftYaHei-32"/>
      <use x="808.097656" xlink:href="#MicrosoftYaHei-40"/>
      <use x="841.496094" xlink:href="#MicrosoftYaHei-57"/>
      <use x="900.138672" xlink:href="#MicrosoftYaHei-53"/>
      <use x="958.78125" xlink:href="#MicrosoftYaHei-37"/>
      <use x="1047.746094" xlink:href="#MicrosoftYaHei-67"/>
      <use x="1114.640625" xlink:href="#MicrosoftYaHei-73"/>
      <use x="1144.035156" xlink:href="#MicrosoftYaHei-32"/>
      <use x="1173.625" xlink:href="#MicrosoftYaHei-48"/>
      <use x="1232.267578" xlink:href="#MicrosoftYaHei-46"/>
      <use x="1256.339844" xlink:href="#MicrosoftYaHei-50"/>
      <use x="1314.982422" xlink:href="#MicrosoftYaHei-57"/>
      <use x="1373.625" xlink:href="#MicrosoftYaHei-51"/>
      <use x="1432.267578" xlink:href="#MicrosoftYaHei-45"/>
      <use x="1475.529297" xlink:href="#MicrosoftYaHei-48"/>
      <use x="1534.171875" xlink:href="#MicrosoftYaHei-46"/>
      <use x="1558.244141" xlink:href="#MicrosoftYaHei-54"/>
      <use x="1616.886719" xlink:href="#MicrosoftYaHei-54"/>
      <use x="1675.529297" xlink:href="#MicrosoftYaHei-50"/>
      <use x="1734.171875" xlink:href="#MicrosoftYaHei-41"/>
     </g>
    </g>
    <g id="line2d_28">
     <path d="M 292.68875 367.236 
L 316.68875 367.236 
" style="fill:none;stroke:#ff8c00;stroke-dasharray:4,6.6;stroke-dashoffset:0;stroke-width:4;"/>
    </g>
    <g id="line2d_29"/>
    <g id="text_19">
     <!-- RandomForest AUC: 0.459 (95%CI 0.281-0.637) -->
     <defs>
      <path d="M 9.8125 50.25 
Q 17.875 55.28125 28.421875 55.28125 
Q 47.953125 55.28125 47.953125 34.765625 
L 47.953125 0 
L 38.484375 0 
L 38.484375 8.34375 
L 38.234375 8.34375 
Q 32.625 -1.265625 21.6875 -1.265625 
Q 13.8125 -1.265625 9.171875 2.984375 
Q 4.546875 7.234375 4.546875 14.453125 
Q 4.546875 29.59375 22.46875 32.078125 
L 38.484375 34.328125 
Q 38.484375 47.5625 27.546875 47.5625 
Q 17.828125 47.5625 9.8125 41.015625 
z
M 25.828125 25.390625 
Q 19.1875 24.515625 16.671875 22.0625 
Q 14.15625 19.625 14.15625 15.234375 
Q 14.15625 11.375 16.890625 8.9375 
Q 19.625 6.5 24.125 6.5 
Q 30.375 6.5 34.421875 10.890625 
Q 38.484375 15.28125 38.484375 21.921875 
L 38.484375 27.09375 
z
" id="MicrosoftYaHei-97"/>
      <path d="M 86.28125 0 
L 76.703125 0 
L 76.703125 31 
Q 76.703125 39.796875 73.96875 43.578125 
Q 71.234375 47.359375 64.984375 47.359375 
Q 59.71875 47.359375 55.953125 42.421875 
Q 52.203125 37.5 52.203125 30.765625 
L 52.203125 0 
L 42.625 0 
L 42.625 31.984375 
Q 42.625 47.359375 30.765625 47.359375 
Q 25.296875 47.359375 21.703125 42.671875 
Q 18.109375 37.984375 18.109375 30.71875 
L 18.109375 0 
L 8.546875 0 
L 8.546875 54 
L 18.109375 54 
L 18.109375 45.453125 
L 18.3125 45.453125 
Q 24.078125 55.28125 35.15625 55.28125 
Q 40.578125 55.28125 44.71875 52.296875 
Q 48.875 49.3125 50.484375 44.234375 
Q 56.5 55.28125 68.453125 55.28125 
Q 86.28125 55.28125 86.28125 33.296875 
z
" id="MicrosoftYaHei-109"/>
      <path d="M 48.734375 66.9375 
L 19.53125 66.9375 
L 19.53125 41.65625 
L 46.578125 41.65625 
L 46.578125 33.0625 
L 19.53125 33.0625 
L 19.53125 0 
L 9.765625 0 
L 9.765625 75.640625 
L 48.734375 75.640625 
z
" id="MicrosoftYaHei-70"/>
      <path d="M 37.5 44.53125 
Q 35.109375 46.234375 30.90625 46.234375 
Q 25.34375 46.234375 21.71875 41.03125 
Q 18.109375 35.84375 18.109375 27.34375 
L 18.109375 0 
L 8.546875 0 
L 8.546875 54 
L 18.109375 54 
L 18.109375 43.015625 
L 18.3125 43.015625 
Q 22.40625 54.9375 32.46875 54.9375 
Q 35.75 54.9375 37.5 54.203125 
z
" id="MicrosoftYaHei-114"/>
     </defs>
     <g transform="translate(326.28875 371.436)scale(0.12 -0.12)">
      <use xlink:href="#MicrosoftYaHei-82"/>
      <use x="65.283203" xlink:href="#MicrosoftYaHei-97"/>
      <use x="120.556641" xlink:href="#MicrosoftYaHei-110"/>
      <use x="182.177734" xlink:href="#MicrosoftYaHei-100"/>
      <use x="246.142578" xlink:href="#MicrosoftYaHei-111"/>
      <use x="309.716797" xlink:href="#MicrosoftYaHei-109"/>
      <use x="403.417969" xlink:href="#MicrosoftYaHei-70"/>
      <use x="456.542969" xlink:href="#MicrosoftYaHei-111"/>
      <use x="520.117188" xlink:href="#MicrosoftYaHei-114"/>
      <use x="556.925781" xlink:href="#MicrosoftYaHei-101"/>
      <use x="613.664062" xlink:href="#MicrosoftYaHei-115"/>
      <use x="659.953125" xlink:href="#MicrosoftYaHei-116"/>
      <use x="697.208984" xlink:href="#MicrosoftYaHei-32"/>
      <use x="726.798828" xlink:href="#MicrosoftYaHei-65"/>
      <use x="795.785156" xlink:href="#MicrosoftYaHei-85"/>
      <use x="870.443359" xlink:href="#MicrosoftYaHei-67"/>
      <use x="937.337891" xlink:href="#MicrosoftYaHei-58"/>
      <use x="961.410156" xlink:href="#MicrosoftYaHei-32"/>
      <use x="991" xlink:href="#MicrosoftYaHei-48"/>
      <use x="1049.642578" xlink:href="#MicrosoftYaHei-46"/>
      <use x="1073.714844" xlink:href="#MicrosoftYaHei-52"/>
      <use x="1132.357422" xlink:href="#MicrosoftYaHei-53"/>
      <use x="1191" xlink:href="#MicrosoftYaHei-57"/>
      <use x="1249.642578" xlink:href="#MicrosoftYaHei-32"/>
      <use x="1279.232422" xlink:href="#MicrosoftYaHei-40"/>
      <use x="1312.630859" xlink:href="#MicrosoftYaHei-57"/>
      <use x="1371.273438" xlink:href="#MicrosoftYaHei-53"/>
      <use x="1429.916016" xlink:href="#MicrosoftYaHei-37"/>
      <use x="1518.880859" xlink:href="#MicrosoftYaHei-67"/>
      <use x="1585.775391" xlink:href="#MicrosoftYaHei-73"/>
      <use x="1615.169922" xlink:href="#MicrosoftYaHei-32"/>
      <use x="1644.759766" xlink:href="#MicrosoftYaHei-48"/>
      <use x="1703.402344" xlink:href="#MicrosoftYaHei-46"/>
      <use x="1727.474609" xlink:href="#MicrosoftYaHei-50"/>
      <use x="1786.117188" xlink:href="#MicrosoftYaHei-56"/>
      <use x="1844.759766" xlink:href="#MicrosoftYaHei-49"/>
      <use x="1903.402344" xlink:href="#MicrosoftYaHei-45"/>
      <use x="1946.664062" xlink:href="#MicrosoftYaHei-48"/>
      <use x="2005.306641" xlink:href="#MicrosoftYaHei-46"/>
      <use x="2029.378906" xlink:href="#MicrosoftYaHei-54"/>
      <use x="2088.021484" xlink:href="#MicrosoftYaHei-51"/>
      <use x="2146.664062" xlink:href="#MicrosoftYaHei-55"/>
      <use x="2205.306641" xlink:href="#MicrosoftYaHei-41"/>
     </g>
    </g>
    <g id="line2d_30">
     <path d="M 292.68875 385.811625 
L 316.68875 385.811625 
" style="fill:none;stroke:#6495ed;stroke-linecap:square;stroke-width:4;"/>
    </g>
    <g id="line2d_31"/>
    <g id="text_20">
     <!-- ExtraTrees AUC: 0.425 (95%CI 0.253-0.597) -->
     <defs>
      <path d="M 50.4375 0 
L 9.765625 0 
L 9.765625 75.640625 
L 48.734375 75.640625 
L 48.734375 66.9375 
L 19.53125 66.9375 
L 19.53125 42.71875 
L 46.578125 42.71875 
L 46.578125 34.078125 
L 19.53125 34.078125 
L 19.53125 8.640625 
L 50.4375 8.640625 
z
" id="MicrosoftYaHei-69"/>
      <path d="M 49.421875 54 
L 31.34375 26.8125 
L 49.171875 0 
L 38.03125 0 
L 27.734375 17.1875 
Q 26.90625 18.5625 25.390625 21.390625 
L 25.203125 21.390625 
Q 25.140625 21.09375 22.75 17.1875 
L 12.25 0 
L 1.265625 0 
L 19.625 26.515625 
L 2.09375 54 
L 13.234375 54 
L 23.34375 35.9375 
Q 24.265625 34.28125 25.59375 31.640625 
L 25.78125 31.640625 
L 38.921875 54 
z
" id="MicrosoftYaHei-120"/>
      <path d="M 55.46875 66.9375 
L 33.640625 66.9375 
L 33.640625 0 
L 23.828125 0 
L 23.828125 66.9375 
L 2.09375 66.9375 
L 2.09375 75.640625 
L 55.46875 75.640625 
z
" id="MicrosoftYaHei-84"/>
     </defs>
     <g transform="translate(326.28875 390.011625)scale(0.12 -0.12)">
      <use xlink:href="#MicrosoftYaHei-69"/>
      <use x="54.980469" xlink:href="#MicrosoftYaHei-120"/>
      <use x="105.664062" xlink:href="#MicrosoftYaHei-116"/>
      <use x="142.919922" xlink:href="#MicrosoftYaHei-114"/>
      <use x="181.103516" xlink:href="#MicrosoftYaHei-97"/>
      <use x="236.376953" xlink:href="#MicrosoftYaHei-84"/>
      <use x="284.326172" xlink:href="#MicrosoftYaHei-114"/>
      <use x="321.134766" xlink:href="#MicrosoftYaHei-101"/>
      <use x="377.873047" xlink:href="#MicrosoftYaHei-101"/>
      <use x="434.611328" xlink:href="#MicrosoftYaHei-115"/>
      <use x="480.900391" xlink:href="#MicrosoftYaHei-32"/>
      <use x="510.490234" xlink:href="#MicrosoftYaHei-65"/>
      <use x="579.476562" xlink:href="#MicrosoftYaHei-85"/>
      <use x="654.134766" xlink:href="#MicrosoftYaHei-67"/>
      <use x="721.029297" xlink:href="#MicrosoftYaHei-58"/>
      <use x="745.101562" xlink:href="#MicrosoftYaHei-32"/>
      <use x="774.691406" xlink:href="#MicrosoftYaHei-48"/>
      <use x="833.333984" xlink:href="#MicrosoftYaHei-46"/>
      <use x="857.40625" xlink:href="#MicrosoftYaHei-52"/>
      <use x="916.048828" xlink:href="#MicrosoftYaHei-50"/>
      <use x="974.691406" xlink:href="#MicrosoftYaHei-53"/>
      <use x="1033.333984" xlink:href="#MicrosoftYaHei-32"/>
      <use x="1062.923828" xlink:href="#MicrosoftYaHei-40"/>
      <use x="1096.322266" xlink:href="#MicrosoftYaHei-57"/>
      <use x="1154.964844" xlink:href="#MicrosoftYaHei-53"/>
      <use x="1213.607422" xlink:href="#MicrosoftYaHei-37"/>
      <use x="1302.572266" xlink:href="#MicrosoftYaHei-67"/>
      <use x="1369.466797" xlink:href="#MicrosoftYaHei-73"/>
      <use x="1398.861328" xlink:href="#MicrosoftYaHei-32"/>
      <use x="1428.451172" xlink:href="#MicrosoftYaHei-48"/>
      <use x="1487.09375" xlink:href="#MicrosoftYaHei-46"/>
      <use x="1511.166016" xlink:href="#MicrosoftYaHei-50"/>
      <use x="1569.808594" xlink:href="#MicrosoftYaHei-53"/>
      <use x="1628.451172" xlink:href="#MicrosoftYaHei-51"/>
      <use x="1687.09375" xlink:href="#MicrosoftYaHei-45"/>
      <use x="1730.355469" xlink:href="#MicrosoftYaHei-48"/>
      <use x="1788.998047" xlink:href="#MicrosoftYaHei-46"/>
      <use x="1813.070312" xlink:href="#MicrosoftYaHei-53"/>
      <use x="1871.712891" xlink:href="#MicrosoftYaHei-57"/>
      <use x="1930.355469" xlink:href="#MicrosoftYaHei-55"/>
      <use x="1988.998047" xlink:href="#MicrosoftYaHei-41"/>
     </g>
    </g>
    <g id="line2d_32">
     <path d="M 292.68875 404.38725 
L 316.68875 404.38725 
" style="fill:none;stroke:#000000;stroke-dasharray:4,6.6;stroke-dashoffset:0;stroke-width:4;"/>
    </g>
    <g id="line2d_33"/>
    <g id="text_21">
     <!-- XGBoost AUC: 0.566 (95%CI 0.364-0.769) -->
     <defs>
      <path d="M 63.03125 0 
L 51.171875 0 
L 34.28125 28.46875 
Q 33.6875 29.4375 32.5625 32.375 
L 32.328125 32.375 
Q 32.234375 31.984375 30.5625 28.421875 
L 13.1875 0 
L 1.265625 0 
L 26.421875 37.984375 
L 3.265625 75.640625 
L 15.234375 75.640625 
L 30.171875 49.46875 
Q 31.5 47.171875 32.8125 44.09375 
L 33.015625 44.09375 
Q 34.1875 46.734375 35.890625 49.703125 
L 51.515625 75.640625 
L 62.703125 75.640625 
L 39.0625 38.140625 
z
" id="MicrosoftYaHei-88"/>
      <path d="M 66.9375 5.171875 
Q 55.609375 -1.265625 41.359375 -1.265625 
Q 24.953125 -1.265625 14.921875 9.109375 
Q 4.890625 19.484375 4.890625 36.8125 
Q 4.890625 54.34375 15.96875 65.625 
Q 27.046875 76.90625 44.390625 76.90625 
Q 56.640625 76.90625 65.140625 73 
L 65.140625 62.453125 
Q 56.0625 68.171875 43.5 68.171875 
Q 31.15625 68.171875 23.140625 59.71875 
Q 15.140625 51.265625 15.140625 37.453125 
Q 15.140625 23.25 22.515625 15.328125 
Q 29.890625 7.421875 42.4375 7.421875 
Q 51.078125 7.421875 57.125 10.75 
L 57.125 31.203125 
L 40.71875 31.203125 
L 40.71875 39.84375 
L 66.9375 39.84375 
z
" id="MicrosoftYaHei-71"/>
      <path d="M 9.765625 0 
L 9.765625 75.640625 
L 31.984375 75.640625 
Q 41.9375 75.640625 47.890625 70.875 
Q 53.859375 66.109375 53.859375 58.25 
Q 53.859375 52 50.3125 47.21875 
Q 46.78125 42.4375 40.578125 40.4375 
L 40.578125 40.234375 
Q 48.296875 39.359375 52.90625 34.390625 
Q 57.515625 29.4375 57.515625 21.828125 
Q 57.515625 12.0625 50.5 6.03125 
Q 43.5 0 32.5625 0 
z
M 19.53125 67.09375 
L 19.53125 43.40625 
L 28.421875 43.40625 
Q 35.5 43.40625 39.53125 46.84375 
Q 43.5625 50.296875 43.5625 56.390625 
Q 43.5625 67.09375 29.296875 67.09375 
z
M 19.53125 34.90625 
L 19.53125 8.546875 
L 31.25 8.546875 
Q 38.921875 8.546875 43.09375 12.078125 
Q 47.265625 15.625 47.265625 21.921875 
Q 47.265625 34.90625 29.640625 34.90625 
z
" id="MicrosoftYaHei-66"/>
     </defs>
     <g transform="translate(326.28875 408.58725)scale(0.12 -0.12)">
      <use xlink:href="#MicrosoftYaHei-88"/>
      <use x="63.251953" xlink:href="#MicrosoftYaHei-71"/>
      <use x="137.617188" xlink:href="#MicrosoftYaHei-66"/>
      <use x="200.361328" xlink:href="#MicrosoftYaHei-111"/>
      <use x="263.935547" xlink:href="#MicrosoftYaHei-111"/>
      <use x="327.509766" xlink:href="#MicrosoftYaHei-115"/>
      <use x="373.798828" xlink:href="#MicrosoftYaHei-116"/>
      <use x="411.054688" xlink:href="#MicrosoftYaHei-32"/>
      <use x="440.644531" xlink:href="#MicrosoftYaHei-65"/>
      <use x="509.630859" xlink:href="#MicrosoftYaHei-85"/>
      <use x="584.289062" xlink:href="#MicrosoftYaHei-67"/>
      <use x="651.183594" xlink:href="#MicrosoftYaHei-58"/>
      <use x="675.255859" xlink:href="#MicrosoftYaHei-32"/>
      <use x="704.845703" xlink:href="#MicrosoftYaHei-48"/>
      <use x="763.488281" xlink:href="#MicrosoftYaHei-46"/>
      <use x="787.560547" xlink:href="#MicrosoftYaHei-53"/>
      <use x="846.203125" xlink:href="#MicrosoftYaHei-54"/>
      <use x="904.845703" xlink:href="#MicrosoftYaHei-54"/>
      <use x="963.488281" xlink:href="#MicrosoftYaHei-32"/>
      <use x="993.078125" xlink:href="#MicrosoftYaHei-40"/>
      <use x="1026.476562" xlink:href="#MicrosoftYaHei-57"/>
      <use x="1085.119141" xlink:href="#MicrosoftYaHei-53"/>
      <use x="1143.761719" xlink:href="#MicrosoftYaHei-37"/>
      <use x="1232.726562" xlink:href="#MicrosoftYaHei-67"/>
      <use x="1299.621094" xlink:href="#MicrosoftYaHei-73"/>
      <use x="1329.015625" xlink:href="#MicrosoftYaHei-32"/>
      <use x="1358.605469" xlink:href="#MicrosoftYaHei-48"/>
      <use x="1417.248047" xlink:href="#MicrosoftYaHei-46"/>
      <use x="1441.320312" xlink:href="#MicrosoftYaHei-51"/>
      <use x="1499.962891" xlink:href="#MicrosoftYaHei-54"/>
      <use x="1558.605469" xlink:href="#MicrosoftYaHei-52"/>
      <use x="1617.248047" xlink:href="#MicrosoftYaHei-45"/>
      <use x="1660.509766" xlink:href="#MicrosoftYaHei-48"/>
      <use x="1719.152344" xlink:href="#MicrosoftYaHei-46"/>
      <use x="1743.224609" xlink:href="#MicrosoftYaHei-55"/>
      <use x="1801.867188" xlink:href="#MicrosoftYaHei-54"/>
      <use x="1860.509766" xlink:href="#MicrosoftYaHei-57"/>
      <use x="1919.152344" xlink:href="#MicrosoftYaHei-41"/>
     </g>
    </g>
    <g id="line2d_34">
     <path d="M 292.68875 422.962875 
L 316.68875 422.962875 
" style="fill:none;stroke:#000080;stroke-linecap:square;stroke-width:4;"/>
    </g>
    <g id="line2d_35"/>
    <g id="text_22">
     <!-- LightGBM AUC: 0.632 (95%CI 0.449-0.816) -->
     <defs>
      <path d="M 55.421875 4.546875 
Q 55.421875 -25.4375 26.3125 -25.4375 
Q 16.265625 -25.4375 8.84375 -21.6875 
L 8.84375 -12.453125 
Q 17.875 -17.484375 26.171875 -17.484375 
Q 45.84375 -17.484375 45.84375 3.21875 
L 45.84375 8.9375 
L 45.65625 8.9375 
Q 39.5 -1.265625 27.296875 -1.265625 
Q 17.140625 -1.265625 11.03125 6 
Q 4.9375 13.28125 4.9375 25.296875 
Q 4.9375 39.109375 11.671875 47.1875 
Q 18.40625 55.28125 29.640625 55.28125 
Q 40.4375 55.28125 45.65625 46.6875 
L 45.84375 46.6875 
L 45.84375 54 
L 55.421875 54 
z
M 45.84375 32.125 
Q 45.90625 38.375 41.65625 42.859375 
Q 37.40625 47.359375 31.203125 47.359375 
Q 23.390625 47.359375 19.046875 41.625 
Q 14.703125 35.890625 14.703125 25.875 
Q 14.703125 17.28125 18.890625 11.953125 
Q 23.09375 6.640625 30.03125 6.640625 
Q 37.015625 6.640625 41.453125 11.71875 
Q 45.90625 16.796875 45.84375 24.609375 
z
" id="MicrosoftYaHei-103"/>
      <path d="M 54.15625 0 
L 44.625 0 
L 44.625 31.0625 
Q 44.625 47.359375 32.515625 47.359375 
Q 26.3125 47.359375 22.203125 42.59375 
Q 18.109375 37.84375 18.109375 30.609375 
L 18.109375 0 
L 8.546875 0 
L 8.546875 79.9375 
L 18.109375 79.9375 
L 18.109375 45.125 
L 18.3125 45.125 
Q 24.515625 55.28125 35.9375 55.28125 
Q 54.15625 55.28125 54.15625 33.25 
z
" id="MicrosoftYaHei-104"/>
     </defs>
     <g transform="translate(326.28875 427.162875)scale(0.12 -0.12)">
      <use xlink:href="#MicrosoftYaHei-76"/>
      <use x="51.318359" xlink:href="#MicrosoftYaHei-105"/>
      <use x="77.929688" xlink:href="#MicrosoftYaHei-103"/>
      <use x="141.894531" xlink:href="#MicrosoftYaHei-104"/>
      <use x="203.466797" xlink:href="#MicrosoftYaHei-116"/>
      <use x="240.722656" xlink:href="#MicrosoftYaHei-71"/>
      <use x="315.087891" xlink:href="#MicrosoftYaHei-66"/>
      <use x="377.832031" xlink:href="#MicrosoftYaHei-77"/>
      <use x="475.537109" xlink:href="#MicrosoftYaHei-32"/>
      <use x="505.126953" xlink:href="#MicrosoftYaHei-65"/>
      <use x="574.113281" xlink:href="#MicrosoftYaHei-85"/>
      <use x="648.771484" xlink:href="#MicrosoftYaHei-67"/>
      <use x="715.666016" xlink:href="#MicrosoftYaHei-58"/>
      <use x="739.738281" xlink:href="#MicrosoftYaHei-32"/>
      <use x="769.328125" xlink:href="#MicrosoftYaHei-48"/>
      <use x="827.970703" xlink:href="#MicrosoftYaHei-46"/>
      <use x="852.042969" xlink:href="#MicrosoftYaHei-54"/>
      <use x="910.685547" xlink:href="#MicrosoftYaHei-51"/>
      <use x="969.328125" xlink:href="#MicrosoftYaHei-50"/>
      <use x="1027.970703" xlink:href="#MicrosoftYaHei-32"/>
      <use x="1057.560547" xlink:href="#MicrosoftYaHei-40"/>
      <use x="1090.958984" xlink:href="#MicrosoftYaHei-57"/>
      <use x="1149.601562" xlink:href="#MicrosoftYaHei-53"/>
      <use x="1208.244141" xlink:href="#MicrosoftYaHei-37"/>
      <use x="1297.208984" xlink:href="#MicrosoftYaHei-67"/>
      <use x="1364.103516" xlink:href="#MicrosoftYaHei-73"/>
      <use x="1393.498047" xlink:href="#MicrosoftYaHei-32"/>
      <use x="1423.087891" xlink:href="#MicrosoftYaHei-48"/>
      <use x="1481.730469" xlink:href="#MicrosoftYaHei-46"/>
      <use x="1505.802734" xlink:href="#MicrosoftYaHei-52"/>
      <use x="1564.445312" xlink:href="#MicrosoftYaHei-52"/>
      <use x="1623.087891" xlink:href="#MicrosoftYaHei-57"/>
      <use x="1681.730469" xlink:href="#MicrosoftYaHei-45"/>
      <use x="1724.992188" xlink:href="#MicrosoftYaHei-48"/>
      <use x="1783.634766" xlink:href="#MicrosoftYaHei-46"/>
      <use x="1807.707031" xlink:href="#MicrosoftYaHei-56"/>
      <use x="1866.349609" xlink:href="#MicrosoftYaHei-49"/>
      <use x="1924.992188" xlink:href="#MicrosoftYaHei-54"/>
      <use x="1983.634766" xlink:href="#MicrosoftYaHei-41"/>
     </g>
    </g>
    <g id="line2d_36">
     <path d="M 292.68875 441.607875 
L 316.68875 441.607875 
" style="fill:none;stroke:#00008b;stroke-dasharray:4,6.6;stroke-dashoffset:0;stroke-width:4;"/>
    </g>
    <g id="line2d_37"/>
    <g id="text_23">
     <!-- MLP AUC: 0.654 (95%CI 0.469-0.838) -->
     <defs>
      <path d="M 19.53125 28.265625 
L 19.53125 0 
L 9.765625 0 
L 9.765625 75.640625 
L 31.25 75.640625 
Q 43.5 75.640625 50.265625 69.71875 
Q 57.03125 63.8125 57.03125 52.828125 
Q 57.03125 41.703125 49.125 34.78125 
Q 41.21875 27.875 29.34375 28.265625 
z
M 19.53125 67.046875 
L 19.53125 36.859375 
L 28.5625 36.859375 
Q 37.5 36.859375 42.140625 40.890625 
Q 46.78125 44.921875 46.78125 52.4375 
Q 46.78125 67.046875 29.5 67.046875 
z
" id="MicrosoftYaHei-80"/>
     </defs>
     <g transform="translate(326.28875 445.807875)scale(0.12 -0.12)">
      <use xlink:href="#MicrosoftYaHei-77"/>
      <use x="97.705078" xlink:href="#MicrosoftYaHei-76"/>
      <use x="149.023438" xlink:href="#MicrosoftYaHei-80"/>
      <use x="210.205078" xlink:href="#MicrosoftYaHei-32"/>
      <use x="239.794922" xlink:href="#MicrosoftYaHei-65"/>
      <use x="308.78125" xlink:href="#MicrosoftYaHei-85"/>
      <use x="383.439453" xlink:href="#MicrosoftYaHei-67"/>
      <use x="450.333984" xlink:href="#MicrosoftYaHei-58"/>
      <use x="474.40625" xlink:href="#MicrosoftYaHei-32"/>
      <use x="503.996094" xlink:href="#MicrosoftYaHei-48"/>
      <use x="562.638672" xlink:href="#MicrosoftYaHei-46"/>
      <use x="586.710938" xlink:href="#MicrosoftYaHei-54"/>
      <use x="645.353516" xlink:href="#MicrosoftYaHei-53"/>
      <use x="703.996094" xlink:href="#MicrosoftYaHei-52"/>
      <use x="762.638672" xlink:href="#MicrosoftYaHei-32"/>
      <use x="792.228516" xlink:href="#MicrosoftYaHei-40"/>
      <use x="825.626953" xlink:href="#MicrosoftYaHei-57"/>
      <use x="884.269531" xlink:href="#MicrosoftYaHei-53"/>
      <use x="942.912109" xlink:href="#MicrosoftYaHei-37"/>
      <use x="1031.876953" xlink:href="#MicrosoftYaHei-67"/>
      <use x="1098.771484" xlink:href="#MicrosoftYaHei-73"/>
      <use x="1128.166016" xlink:href="#MicrosoftYaHei-32"/>
      <use x="1157.755859" xlink:href="#MicrosoftYaHei-48"/>
      <use x="1216.398438" xlink:href="#MicrosoftYaHei-46"/>
      <use x="1240.470703" xlink:href="#MicrosoftYaHei-52"/>
      <use x="1299.113281" xlink:href="#MicrosoftYaHei-54"/>
      <use x="1357.755859" xlink:href="#MicrosoftYaHei-57"/>
      <use x="1416.398438" xlink:href="#MicrosoftYaHei-45"/>
      <use x="1459.660156" xlink:href="#MicrosoftYaHei-48"/>
      <use x="1518.302734" xlink:href="#MicrosoftYaHei-46"/>
      <use x="1542.375" xlink:href="#MicrosoftYaHei-56"/>
      <use x="1601.017578" xlink:href="#MicrosoftYaHei-51"/>
      <use x="1659.660156" xlink:href="#MicrosoftYaHei-56"/>
      <use x="1718.302734" xlink:href="#MicrosoftYaHei-41"/>
     </g>
    </g>
   </g>
  </g>
 </g>
 <defs>
  <clipPath id="pe5f940baa2">
   <rect height="434.88" width="558" x="47.73875" y="24.711"/>
  </clipPath>
 </defs>
</svg>
