<?xml version="1.0" encoding="utf-8" standalone="no"?>
<!DOCTYPE svg PUBLIC "-//W3C//DTD SVG 1.1//EN"
  "http://www.w3.org/Graphics/SVG/1.1/DTD/svg11.dtd">
<!-- Created with matplotlib (https://matplotlib.org/) -->
<svg height="486.366625pt" version="1.1" viewBox="0 0 608.591875 486.366625" width="608.591875pt" xmlns="http://www.w3.org/2000/svg" xmlns:xlink="http://www.w3.org/1999/xlink">
 <defs>
  <style type="text/css">
*{stroke-linecap:butt;stroke-linejoin:round;}
  </style>
 </defs>
 <g id="figure_1">
  <g id="patch_1">
   <path d="M -0 486.366625 
L 608.591875 486.366625 
L 608.591875 0 
L -0 0 
z
" style="fill:#ffffff;"/>
  </g>
  <g id="axes_1">
   <g id="patch_2">
    <path d="M 43.391875 459.591 
L 601.391875 459.591 
L 601.391875 24.711 
L 43.391875 24.711 
z
" style="fill:#ffffff;"/>
   </g>
   <g id="patch_3">
    <path clip-path="url(#pa7cb1ee9fc)" d="M 68.755511 242.151 
L 70.916418 242.151 
L 70.916418 439.823727 
L 68.755511 439.823727 
z
" style="fill:#1f77b4;"/>
   </g>
   <g id="patch_4">
    <path clip-path="url(#pa7cb1ee9fc)" d="M 71.456644 242.151 
L 73.61755 242.151 
L 73.61755 438.508463 
L 71.456644 438.508463 
z
" style="fill:#1f77b4;"/>
   </g>
   <g id="patch_5">
    <path clip-path="url(#pa7cb1ee9fc)" d="M 74.157777 242.151 
L 76.318683 242.151 
L 76.318683 435.695348 
L 74.157777 435.695348 
z
" style="fill:#1f77b4;"/>
   </g>
   <g id="patch_6">
    <path clip-path="url(#pa7cb1ee9fc)" d="M 76.85891 242.151 
L 79.019816 242.151 
L 79.019816 435.308234 
L 76.85891 435.308234 
z
" style="fill:#1f77b4;"/>
   </g>
   <g id="patch_7">
    <path clip-path="url(#pa7cb1ee9fc)" d="M 79.560042 242.151 
L 81.720948 242.151 
L 81.720948 434.518991 
L 79.560042 434.518991 
z
" style="fill:#1f77b4;"/>
   </g>
   <g id="patch_8">
    <path clip-path="url(#pa7cb1ee9fc)" d="M 82.261175 242.151 
L 84.422081 242.151 
L 84.422081 433.714501 
L 82.261175 433.714501 
z
" style="fill:#1f77b4;"/>
   </g>
   <g id="patch_9">
    <path clip-path="url(#pa7cb1ee9fc)" d="M 87.66344 242.151 
L 89.824347 242.151 
L 89.824347 431.506984 
L 87.66344 431.506984 
z
" style="fill:#1f77b4;"/>
   </g>
   <g id="patch_10">
    <path clip-path="url(#pa7cb1ee9fc)" d="M 90.364573 242.151 
L 92.525479 242.151 
L 92.525479 430.924593 
L 90.364573 430.924593 
z
" style="fill:#1f77b4;"/>
   </g>
   <g id="patch_11">
    <path clip-path="url(#pa7cb1ee9fc)" d="M 93.065706 242.151 
L 95.226612 242.151 
L 95.226612 430.029903 
L 93.065706 430.029903 
z
" style="fill:#1f77b4;"/>
   </g>
   <g id="patch_12">
    <path clip-path="url(#pa7cb1ee9fc)" d="M 95.766839 242.151 
L 97.927745 242.151 
L 97.927745 429.94664 
L 95.766839 429.94664 
z
" style="fill:#1f77b4;"/>
   </g>
   <g id="patch_13">
    <path clip-path="url(#pa7cb1ee9fc)" d="M 98.467971 242.151 
L 100.628878 242.151 
L 100.628878 429.583501 
L 98.467971 429.583501 
z
" style="fill:#1f77b4;"/>
   </g>
   <g id="patch_14">
    <path clip-path="url(#pa7cb1ee9fc)" d="M 101.169104 242.151 
L 103.33001 242.151 
L 103.33001 429.025863 
L 101.169104 429.025863 
z
" style="fill:#1f77b4;"/>
   </g>
   <g id="patch_15">
    <path clip-path="url(#pa7cb1ee9fc)" d="M 103.870237 242.151 
L 106.031143 242.151 
L 106.031143 428.725744 
L 103.870237 428.725744 
z
" style="fill:#1f77b4;"/>
   </g>
   <g id="patch_16">
    <path clip-path="url(#pa7cb1ee9fc)" d="M 106.57137 242.151 
L 108.732276 242.151 
L 108.732276 428.518486 
L 106.57137 428.518486 
z
" style="fill:#1f77b4;"/>
   </g>
   <g id="patch_17">
    <path clip-path="url(#pa7cb1ee9fc)" d="M 109.272502 242.151 
L 111.433409 242.151 
L 111.433409 428.217905 
L 109.272502 428.217905 
z
" style="fill:#1f77b4;"/>
   </g>
   <g id="patch_18">
    <path clip-path="url(#pa7cb1ee9fc)" d="M 111.973635 242.151 
L 114.134541 242.151 
L 114.134541 427.943103 
L 111.973635 427.943103 
z
" style="fill:#1f77b4;"/>
   </g>
   <g id="patch_19">
    <path clip-path="url(#pa7cb1ee9fc)" d="M 114.674768 242.151 
L 116.835674 242.151 
L 116.835674 427.479742 
L 114.674768 427.479742 
z
" style="fill:#1f77b4;"/>
   </g>
   <g id="patch_20">
    <path clip-path="url(#pa7cb1ee9fc)" d="M 117.375901 242.151 
L 119.536807 242.151 
L 119.536807 427.381861 
L 117.375901 427.381861 
z
" style="fill:#1f77b4;"/>
   </g>
   <g id="patch_21">
    <path clip-path="url(#pa7cb1ee9fc)" d="M 120.077033 242.151 
L 122.237939 242.151 
L 122.237939 427.3198 
L 120.077033 427.3198 
z
" style="fill:#1f77b4;"/>
   </g>
   <g id="patch_22">
    <path clip-path="url(#pa7cb1ee9fc)" d="M 122.778166 242.151 
L 124.939072 242.151 
L 124.939072 426.732238 
L 122.778166 426.732238 
z
" style="fill:#1f77b4;"/>
   </g>
   <g id="patch_23">
    <path clip-path="url(#pa7cb1ee9fc)" d="M 125.479299 242.151 
L 127.640205 242.151 
L 127.640205 426.72307 
L 125.479299 426.72307 
z
" style="fill:#1f77b4;"/>
   </g>
   <g id="patch_24">
    <path clip-path="url(#pa7cb1ee9fc)" d="M 128.180431 242.151 
L 130.341338 242.151 
L 130.341338 426.702372 
L 128.180431 426.702372 
z
" style="fill:#1f77b4;"/>
   </g>
   <g id="patch_25">
    <path clip-path="url(#pa7cb1ee9fc)" d="M 130.881564 242.151 
L 133.04247 242.151 
L 133.04247 426.468694 
L 130.881564 426.468694 
z
" style="fill:#1f77b4;"/>
   </g>
   <g id="patch_26">
    <path clip-path="url(#pa7cb1ee9fc)" d="M 133.582697 242.151 
L 135.743603 242.151 
L 135.743603 425.698416 
L 133.582697 425.698416 
z
" style="fill:#1f77b4;"/>
   </g>
   <g id="patch_27">
    <path clip-path="url(#pa7cb1ee9fc)" d="M 136.28383 242.151 
L 138.444736 242.151 
L 138.444736 425.353587 
L 136.28383 425.353587 
z
" style="fill:#1f77b4;"/>
   </g>
   <g id="patch_28">
    <path clip-path="url(#pa7cb1ee9fc)" d="M 138.984962 242.151 
L 141.145869 242.151 
L 141.145869 425.037993 
L 138.984962 425.037993 
z
" style="fill:#1f77b4;"/>
   </g>
   <g id="patch_29">
    <path clip-path="url(#pa7cb1ee9fc)" d="M 141.686095 242.151 
L 143.847001 242.151 
L 143.847001 424.313279 
L 141.686095 424.313279 
z
" style="fill:#1f77b4;"/>
   </g>
   <g id="patch_30">
    <path clip-path="url(#pa7cb1ee9fc)" d="M 144.387228 242.151 
L 146.548134 242.151 
L 146.548134 424.006978 
L 144.387228 424.006978 
z
" style="fill:#1f77b4;"/>
   </g>
   <g id="patch_31">
    <path clip-path="url(#pa7cb1ee9fc)" d="M 147.088361 242.151 
L 149.249267 242.151 
L 149.249267 423.80526 
L 147.088361 423.80526 
z
" style="fill:#1f77b4;"/>
   </g>
   <g id="patch_32">
    <path clip-path="url(#pa7cb1ee9fc)" d="M 149.789493 242.151 
L 151.9504 242.151 
L 151.9504 423.727757 
L 149.789493 423.727757 
z
" style="fill:#1f77b4;"/>
   </g>
   <g id="patch_33">
    <path clip-path="url(#pa7cb1ee9fc)" d="M 152.490626 242.151 
L 154.651532 242.151 
L 154.651532 423.221554 
L 152.490626 423.221554 
z
" style="fill:#1f77b4;"/>
   </g>
   <g id="patch_34">
    <path clip-path="url(#pa7cb1ee9fc)" d="M 155.191759 242.151 
L 157.352665 242.151 
L 157.352665 422.898516 
L 155.191759 422.898516 
z
" style="fill:#1f77b4;"/>
   </g>
   <g id="patch_35">
    <path clip-path="url(#pa7cb1ee9fc)" d="M 160.594024 242.151 
L 162.75493 242.151 
L 162.75493 421.929082 
L 160.594024 421.929082 
z
" style="fill:#1f77b4;"/>
   </g>
   <g id="patch_36">
    <path clip-path="url(#pa7cb1ee9fc)" d="M 163.295157 242.151 
L 165.456063 242.151 
L 165.456063 421.888445 
L 163.295157 421.888445 
z
" style="fill:#1f77b4;"/>
   </g>
   <g id="patch_37">
    <path clip-path="url(#pa7cb1ee9fc)" d="M 165.99629 242.151 
L 168.157196 242.151 
L 168.157196 421.812971 
L 165.99629 421.812971 
z
" style="fill:#1f77b4;"/>
   </g>
   <g id="patch_38">
    <path clip-path="url(#pa7cb1ee9fc)" d="M 174.099688 242.151 
L 176.260594 242.151 
L 176.260594 421.206074 
L 174.099688 421.206074 
z
" style="fill:#1f77b4;"/>
   </g>
   <g id="patch_39">
    <path clip-path="url(#pa7cb1ee9fc)" d="M 176.800821 242.151 
L 178.961727 242.151 
L 178.961727 421.158416 
L 176.800821 421.158416 
z
" style="fill:#1f77b4;"/>
   </g>
   <g id="patch_40">
    <path clip-path="url(#pa7cb1ee9fc)" d="M 179.501953 242.151 
L 181.66286 242.151 
L 181.66286 421.075694 
L 179.501953 421.075694 
z
" style="fill:#1f77b4;"/>
   </g>
   <g id="patch_41">
    <path clip-path="url(#pa7cb1ee9fc)" d="M 182.203086 242.151 
L 184.363992 242.151 
L 184.363992 420.452451 
L 182.203086 420.452451 
z
" style="fill:#1f77b4;"/>
   </g>
   <g id="patch_42">
    <path clip-path="url(#pa7cb1ee9fc)" d="M 184.904219 242.151 
L 187.065125 242.151 
L 187.065125 420.245232 
L 184.904219 420.245232 
z
" style="fill:#1f77b4;"/>
   </g>
   <g id="patch_43">
    <path clip-path="url(#pa7cb1ee9fc)" d="M 187.605352 242.151 
L 189.766258 242.151 
L 189.766258 420.217682 
L 187.605352 420.217682 
z
" style="fill:#1f77b4;"/>
   </g>
   <g id="patch_44">
    <path clip-path="url(#pa7cb1ee9fc)" d="M 190.306484 242.151 
L 192.467391 242.151 
L 192.467391 420.205315 
L 190.306484 420.205315 
z
" style="fill:#1f77b4;"/>
   </g>
   <g id="patch_45">
    <path clip-path="url(#pa7cb1ee9fc)" d="M 193.007617 242.151 
L 195.168523 242.151 
L 195.168523 419.956336 
L 193.007617 419.956336 
z
" style="fill:#1f77b4;"/>
   </g>
   <g id="patch_46">
    <path clip-path="url(#pa7cb1ee9fc)" d="M 195.70875 242.151 
L 197.869656 242.151 
L 197.869656 419.690183 
L 195.70875 419.690183 
z
" style="fill:#1f77b4;"/>
   </g>
   <g id="patch_47">
    <path clip-path="url(#pa7cb1ee9fc)" d="M 198.409883 242.151 
L 200.570789 242.151 
L 200.570789 419.537956 
L 198.409883 419.537956 
z
" style="fill:#1f77b4;"/>
   </g>
   <g id="patch_48">
    <path clip-path="url(#pa7cb1ee9fc)" d="M 201.111015 242.151 
L 203.271921 242.151 
L 203.271921 418.778144 
L 201.111015 418.778144 
z
" style="fill:#1f77b4;"/>
   </g>
   <g id="patch_49">
    <path clip-path="url(#pa7cb1ee9fc)" d="M 203.812148 242.151 
L 205.973054 242.151 
L 205.973054 418.697116 
L 203.812148 418.697116 
z
" style="fill:#1f77b4;"/>
   </g>
   <g id="patch_50">
    <path clip-path="url(#pa7cb1ee9fc)" d="M 206.513281 242.151 
L 208.674187 242.151 
L 208.674187 418.669697 
L 206.513281 418.669697 
z
" style="fill:#1f77b4;"/>
   </g>
   <g id="patch_51">
    <path clip-path="url(#pa7cb1ee9fc)" d="M 209.214413 242.151 
L 211.37532 242.151 
L 211.37532 418.105871 
L 209.214413 418.105871 
z
" style="fill:#1f77b4;"/>
   </g>
   <g id="patch_52">
    <path clip-path="url(#pa7cb1ee9fc)" d="M 211.915546 242.151 
L 214.076452 242.151 
L 214.076452 417.901228 
L 211.915546 417.901228 
z
" style="fill:#1f77b4;"/>
   </g>
   <g id="patch_53">
    <path clip-path="url(#pa7cb1ee9fc)" d="M 214.616679 242.151 
L 216.777585 242.151 
L 216.777585 417.844879 
L 214.616679 417.844879 
z
" style="fill:#1f77b4;"/>
   </g>
   <g id="patch_54">
    <path clip-path="url(#pa7cb1ee9fc)" d="M 222.720077 242.151 
L 224.880983 242.151 
L 224.880983 417.138352 
L 222.720077 417.138352 
z
" style="fill:#1f77b4;"/>
   </g>
   <g id="patch_55">
    <path clip-path="url(#pa7cb1ee9fc)" d="M 225.42121 242.151 
L 227.582116 242.151 
L 227.582116 416.647555 
L 225.42121 416.647555 
z
" style="fill:#1f77b4;"/>
   </g>
   <g id="patch_56">
    <path clip-path="url(#pa7cb1ee9fc)" d="M 228.122343 242.151 
L 230.283249 242.151 
L 230.283249 416.368027 
L 228.122343 416.368027 
z
" style="fill:#1f77b4;"/>
   </g>
   <g id="patch_57">
    <path clip-path="url(#pa7cb1ee9fc)" d="M 230.823475 242.151 
L 232.984382 242.151 
L 232.984382 415.929528 
L 230.823475 415.929528 
z
" style="fill:#1f77b4;"/>
   </g>
   <g id="patch_58">
    <path clip-path="url(#pa7cb1ee9fc)" d="M 233.524608 242.151 
L 235.685514 242.151 
L 235.685514 415.673088 
L 233.524608 415.673088 
z
" style="fill:#1f77b4;"/>
   </g>
   <g id="patch_59">
    <path clip-path="url(#pa7cb1ee9fc)" d="M 236.225741 242.151 
L 238.386647 242.151 
L 238.386647 415.603797 
L 236.225741 415.603797 
z
" style="fill:#1f77b4;"/>
   </g>
   <g id="patch_60">
    <path clip-path="url(#pa7cb1ee9fc)" d="M 238.926874 242.151 
L 241.08778 242.151 
L 241.08778 415.46929 
L 238.926874 415.46929 
z
" style="fill:#1f77b4;"/>
   </g>
   <g id="patch_61">
    <path clip-path="url(#pa7cb1ee9fc)" d="M 244.329139 242.151 
L 246.490045 242.151 
L 246.490045 414.968429 
L 244.329139 414.968429 
z
" style="fill:#1f77b4;"/>
   </g>
   <g id="patch_62">
    <path clip-path="url(#pa7cb1ee9fc)" d="M 249.731404 242.151 
L 251.892311 242.151 
L 251.892311 414.905224 
L 249.731404 414.905224 
z
" style="fill:#1f77b4;"/>
   </g>
   <g id="patch_63">
    <path clip-path="url(#pa7cb1ee9fc)" d="M 252.432537 242.151 
L 254.593443 242.151 
L 254.593443 413.824434 
L 252.432537 413.824434 
z
" style="fill:#1f77b4;"/>
   </g>
   <g id="patch_64">
    <path clip-path="url(#pa7cb1ee9fc)" d="M 257.834803 242.151 
L 259.995709 242.151 
L 259.995709 413.194518 
L 257.834803 413.194518 
z
" style="fill:#1f77b4;"/>
   </g>
   <g id="patch_65">
    <path clip-path="url(#pa7cb1ee9fc)" d="M 263.237068 242.151 
L 265.397974 242.151 
L 265.397974 412.591408 
L 263.237068 412.591408 
z
" style="fill:#1f77b4;"/>
   </g>
   <g id="patch_66">
    <path clip-path="url(#pa7cb1ee9fc)" d="M 265.938201 242.151 
L 268.099107 242.151 
L 268.099107 412.590562 
L 265.938201 412.590562 
z
" style="fill:#1f77b4;"/>
   </g>
   <g id="patch_67">
    <path clip-path="url(#pa7cb1ee9fc)" d="M 268.639334 242.151 
L 270.80024 242.151 
L 270.80024 412.58811 
L 268.639334 412.58811 
z
" style="fill:#1f77b4;"/>
   </g>
   <g id="patch_68">
    <path clip-path="url(#pa7cb1ee9fc)" d="M 271.340466 242.151 
L 273.501373 242.151 
L 273.501373 412.578616 
L 271.340466 412.578616 
z
" style="fill:#1f77b4;"/>
   </g>
   <g id="patch_69">
    <path clip-path="url(#pa7cb1ee9fc)" d="M 274.041599 242.151 
L 276.202505 242.151 
L 276.202505 412.570588 
L 274.041599 412.570588 
z
" style="fill:#1f77b4;"/>
   </g>
   <g id="patch_70">
    <path clip-path="url(#pa7cb1ee9fc)" d="M 276.742732 242.151 
L 278.903638 242.151 
L 278.903638 412.568229 
L 276.742732 412.568229 
z
" style="fill:#1f77b4;"/>
   </g>
   <g id="patch_71">
    <path clip-path="url(#pa7cb1ee9fc)" d="M 279.443865 242.151 
L 281.604771 242.151 
L 281.604771 412.56638 
L 279.443865 412.56638 
z
" style="fill:#1f77b4;"/>
   </g>
   <g id="patch_72">
    <path clip-path="url(#pa7cb1ee9fc)" d="M 282.144997 242.151 
L 284.305903 242.151 
L 284.305903 412.56289 
L 282.144997 412.56289 
z
" style="fill:#1f77b4;"/>
   </g>
   <g id="patch_73">
    <path clip-path="url(#pa7cb1ee9fc)" d="M 284.84613 242.151 
L 287.007036 242.151 
L 287.007036 412.558664 
L 284.84613 412.558664 
z
" style="fill:#1f77b4;"/>
   </g>
   <g id="patch_74">
    <path clip-path="url(#pa7cb1ee9fc)" d="M 287.547263 242.151 
L 289.708169 242.151 
L 289.708169 412.557493 
L 287.547263 412.557493 
z
" style="fill:#1f77b4;"/>
   </g>
   <g id="patch_75">
    <path clip-path="url(#pa7cb1ee9fc)" d="M 290.248395 242.151 
L 292.409302 242.151 
L 292.409302 412.55497 
L 290.248395 412.55497 
z
" style="fill:#1f77b4;"/>
   </g>
   <g id="patch_76">
    <path clip-path="url(#pa7cb1ee9fc)" d="M 292.949528 242.151 
L 295.110434 242.151 
L 295.110434 412.553657 
L 292.949528 412.553657 
z
" style="fill:#1f77b4;"/>
   </g>
   <g id="patch_77">
    <path clip-path="url(#pa7cb1ee9fc)" d="M 295.650661 242.151 
L 297.811567 242.151 
L 297.811567 412.542027 
L 295.650661 412.542027 
z
" style="fill:#1f77b4;"/>
   </g>
   <g id="patch_78">
    <path clip-path="url(#pa7cb1ee9fc)" d="M 298.351794 242.151 
L 300.5127 242.151 
L 300.5127 412.540892 
L 298.351794 412.540892 
z
" style="fill:#1f77b4;"/>
   </g>
   <g id="patch_79">
    <path clip-path="url(#pa7cb1ee9fc)" d="M 301.052926 242.151 
L 303.213833 242.151 
L 303.213833 412.520198 
L 301.052926 412.520198 
z
" style="fill:#1f77b4;"/>
   </g>
   <g id="patch_80">
    <path clip-path="url(#pa7cb1ee9fc)" d="M 303.754059 242.151 
L 305.914965 242.151 
L 305.914965 412.505329 
L 303.754059 412.505329 
z
" style="fill:#1f77b4;"/>
   </g>
   <g id="patch_81">
    <path clip-path="url(#pa7cb1ee9fc)" d="M 306.455192 242.151 
L 308.616098 242.151 
L 308.616098 412.498733 
L 306.455192 412.498733 
z
" style="fill:#1f77b4;"/>
   </g>
   <g id="patch_82">
    <path clip-path="url(#pa7cb1ee9fc)" d="M 309.156325 242.151 
L 311.317231 242.151 
L 311.317231 412.480042 
L 309.156325 412.480042 
z
" style="fill:#1f77b4;"/>
   </g>
   <g id="patch_83">
    <path clip-path="url(#pa7cb1ee9fc)" d="M 311.857457 242.151 
L 314.018364 242.151 
L 314.018364 412.466768 
L 311.857457 412.466768 
z
" style="fill:#1f77b4;"/>
   </g>
   <g id="patch_84">
    <path clip-path="url(#pa7cb1ee9fc)" d="M 314.55859 242.151 
L 316.719496 242.151 
L 316.719496 412.465088 
L 314.55859 412.465088 
z
" style="fill:#1f77b4;"/>
   </g>
   <g id="patch_85">
    <path clip-path="url(#pa7cb1ee9fc)" d="M 317.259723 242.151 
L 319.420629 242.151 
L 319.420629 412.460735 
L 317.259723 412.460735 
z
" style="fill:#1f77b4;"/>
   </g>
   <g id="patch_86">
    <path clip-path="url(#pa7cb1ee9fc)" d="M 319.960856 242.151 
L 322.121762 242.151 
L 322.121762 412.454556 
L 319.960856 412.454556 
z
" style="fill:#1f77b4;"/>
   </g>
   <g id="patch_87">
    <path clip-path="url(#pa7cb1ee9fc)" d="M 322.661988 242.151 
L 324.822894 242.151 
L 324.822894 412.208821 
L 322.661988 412.208821 
z
" style="fill:#1f77b4;"/>
   </g>
   <g id="patch_88">
    <path clip-path="url(#pa7cb1ee9fc)" d="M 325.363121 242.151 
L 327.524027 242.151 
L 327.524027 411.743239 
L 325.363121 411.743239 
z
" style="fill:#1f77b4;"/>
   </g>
   <g id="patch_89">
    <path clip-path="url(#pa7cb1ee9fc)" d="M 333.466519 242.151 
L 335.627425 242.151 
L 335.627425 411.253265 
L 333.466519 411.253265 
z
" style="fill:#1f77b4;"/>
   </g>
   <g id="patch_90">
    <path clip-path="url(#pa7cb1ee9fc)" d="M 336.167652 242.151 
L 338.328558 242.151 
L 338.328558 411.142636 
L 336.167652 411.142636 
z
" style="fill:#1f77b4;"/>
   </g>
   <g id="patch_91">
    <path clip-path="url(#pa7cb1ee9fc)" d="M 338.868785 242.151 
L 341.029691 242.151 
L 341.029691 410.479933 
L 338.868785 410.479933 
z
" style="fill:#1f77b4;"/>
   </g>
   <g id="patch_92">
    <path clip-path="url(#pa7cb1ee9fc)" d="M 341.569917 242.151 
L 343.730824 242.151 
L 343.730824 409.758341 
L 341.569917 409.758341 
z
" style="fill:#1f77b4;"/>
   </g>
   <g id="patch_93">
    <path clip-path="url(#pa7cb1ee9fc)" d="M 344.27105 242.151 
L 346.431956 242.151 
L 346.431956 409.002517 
L 344.27105 409.002517 
z
" style="fill:#1f77b4;"/>
   </g>
   <g id="patch_94">
    <path clip-path="url(#pa7cb1ee9fc)" d="M 349.673316 242.151 
L 351.834222 242.151 
L 351.834222 406.454698 
L 349.673316 406.454698 
z
" style="fill:#1f77b4;"/>
   </g>
   <g id="patch_95">
    <path clip-path="url(#pa7cb1ee9fc)" d="M 352.374448 242.151 
L 354.535355 242.151 
L 354.535355 406.161453 
L 352.374448 406.161453 
z
" style="fill:#1f77b4;"/>
   </g>
   <g id="patch_96">
    <path clip-path="url(#pa7cb1ee9fc)" d="M 355.075581 242.151 
L 357.236487 242.151 
L 357.236487 405.444353 
L 355.075581 405.444353 
z
" style="fill:#1f77b4;"/>
   </g>
   <g id="patch_97">
    <path clip-path="url(#pa7cb1ee9fc)" d="M 357.776714 242.151 
L 359.93762 242.151 
L 359.93762 403.016097 
L 357.776714 403.016097 
z
" style="fill:#1f77b4;"/>
   </g>
   <g id="patch_98">
    <path clip-path="url(#pa7cb1ee9fc)" d="M 360.477847 242.151 
L 362.638753 242.151 
L 362.638753 402.429272 
L 360.477847 402.429272 
z
" style="fill:#1f77b4;"/>
   </g>
   <g id="patch_99">
    <path clip-path="url(#pa7cb1ee9fc)" d="M 368.581245 242.151 
L 370.742151 242.151 
L 370.742151 398.048054 
L 368.581245 398.048054 
z
" style="fill:#1f77b4;"/>
   </g>
   <g id="patch_100">
    <path clip-path="url(#pa7cb1ee9fc)" d="M 371.282377 242.151 
L 373.443284 242.151 
L 373.443284 397.088613 
L 371.282377 397.088613 
z
" style="fill:#1f77b4;"/>
   </g>
   <g id="patch_101">
    <path clip-path="url(#pa7cb1ee9fc)" d="M 376.684643 242.151 
L 378.845549 242.151 
L 378.845549 391.109876 
L 376.684643 391.109876 
z
" style="fill:#1f77b4;"/>
   </g>
   <g id="patch_102">
    <path clip-path="url(#pa7cb1ee9fc)" d="M 379.385776 242.151 
L 381.546682 242.151 
L 381.546682 391.043778 
L 379.385776 391.043778 
z
" style="fill:#1f77b4;"/>
   </g>
   <g id="patch_103">
    <path clip-path="url(#pa7cb1ee9fc)" d="M 384.788041 242.151 
L 386.948947 242.151 
L 386.948947 389.505318 
L 384.788041 389.505318 
z
" style="fill:#1f77b4;"/>
   </g>
   <g id="patch_104">
    <path clip-path="url(#pa7cb1ee9fc)" d="M 392.891439 242.151 
L 395.052346 242.151 
L 395.052346 385.654709 
L 392.891439 385.654709 
z
" style="fill:#1f77b4;"/>
   </g>
   <g id="patch_105">
    <path clip-path="url(#pa7cb1ee9fc)" d="M 398.293705 242.151 
L 400.454611 242.151 
L 400.454611 385.228323 
L 398.293705 385.228323 
z
" style="fill:#1f77b4;"/>
   </g>
   <g id="patch_106">
    <path clip-path="url(#pa7cb1ee9fc)" d="M 400.994838 242.151 
L 403.155744 242.151 
L 403.155744 384.131364 
L 400.994838 384.131364 
z
" style="fill:#1f77b4;"/>
   </g>
   <g id="patch_107">
    <path clip-path="url(#pa7cb1ee9fc)" d="M 406.397103 242.151 
L 408.558009 242.151 
L 408.558009 380.875516 
L 406.397103 380.875516 
z
" style="fill:#1f77b4;"/>
   </g>
   <g id="patch_108">
    <path clip-path="url(#pa7cb1ee9fc)" d="M 409.098236 242.151 
L 411.259142 242.151 
L 411.259142 377.444458 
L 409.098236 377.444458 
z
" style="fill:#1f77b4;"/>
   </g>
   <g id="patch_109">
    <path clip-path="url(#pa7cb1ee9fc)" d="M 417.201634 242.151 
L 419.36254 242.151 
L 419.36254 372.392269 
L 417.201634 372.392269 
z
" style="fill:#1f77b4;"/>
   </g>
   <g id="patch_110">
    <path clip-path="url(#pa7cb1ee9fc)" d="M 422.603899 242.151 
L 424.764806 242.151 
L 424.764806 371.703286 
L 422.603899 371.703286 
z
" style="fill:#1f77b4;"/>
   </g>
   <g id="patch_111">
    <path clip-path="url(#pa7cb1ee9fc)" d="M 425.305032 242.151 
L 427.465938 242.151 
L 427.465938 371.622494 
L 425.305032 371.622494 
z
" style="fill:#1f77b4;"/>
   </g>
   <g id="patch_112">
    <path clip-path="url(#pa7cb1ee9fc)" d="M 430.707298 242.151 
L 432.868204 242.151 
L 432.868204 367.025066 
L 430.707298 367.025066 
z
" style="fill:#1f77b4;"/>
   </g>
   <g id="patch_113">
    <path clip-path="url(#pa7cb1ee9fc)" d="M 433.40843 242.151 
L 435.569337 242.151 
L 435.569337 365.232188 
L 433.40843 365.232188 
z
" style="fill:#1f77b4;"/>
   </g>
   <g id="patch_114">
    <path clip-path="url(#pa7cb1ee9fc)" d="M 441.511829 242.151 
L 443.672735 242.151 
L 443.672735 356.759056 
L 441.511829 356.759056 
z
" style="fill:#1f77b4;"/>
   </g>
   <g id="patch_115">
    <path clip-path="url(#pa7cb1ee9fc)" d="M 444.212961 242.151 
L 446.373867 242.151 
L 446.373867 356.519563 
L 444.212961 356.519563 
z
" style="fill:#1f77b4;"/>
   </g>
   <g id="patch_116">
    <path clip-path="url(#pa7cb1ee9fc)" d="M 449.615227 242.151 
L 451.776133 242.151 
L 451.776133 336.594847 
L 449.615227 336.594847 
z
" style="fill:#1f77b4;"/>
   </g>
   <g id="patch_117">
    <path clip-path="url(#pa7cb1ee9fc)" d="M 457.718625 242.151 
L 459.879531 242.151 
L 459.879531 317.571994 
L 457.718625 317.571994 
z
" style="fill:#1f77b4;"/>
   </g>
   <g id="patch_118">
    <path clip-path="url(#pa7cb1ee9fc)" d="M 460.419758 242.151 
L 462.580664 242.151 
L 462.580664 316.725177 
L 460.419758 316.725177 
z
" style="fill:#1f77b4;"/>
   </g>
   <g id="patch_119">
    <path clip-path="url(#pa7cb1ee9fc)" d="M 463.12089 242.151 
L 465.281797 242.151 
L 465.281797 312.76813 
L 463.12089 312.76813 
z
" style="fill:#1f77b4;"/>
   </g>
   <g id="patch_120">
    <path clip-path="url(#pa7cb1ee9fc)" d="M 465.822023 242.151 
L 467.982929 242.151 
L 467.982929 312.695764 
L 465.822023 312.695764 
z
" style="fill:#1f77b4;"/>
   </g>
   <g id="patch_121">
    <path clip-path="url(#pa7cb1ee9fc)" d="M 473.925421 242.151 
L 476.086328 242.151 
L 476.086328 301.06068 
L 473.925421 301.06068 
z
" style="fill:#1f77b4;"/>
   </g>
   <g id="patch_122">
    <path clip-path="url(#pa7cb1ee9fc)" d="M 476.626554 242.151 
L 478.78746 242.151 
L 478.78746 297.72228 
L 476.626554 297.72228 
z
" style="fill:#1f77b4;"/>
   </g>
   <g id="patch_123">
    <path clip-path="url(#pa7cb1ee9fc)" d="M 482.02882 242.151 
L 484.189726 242.151 
L 484.189726 285.257057 
L 482.02882 285.257057 
z
" style="fill:#1f77b4;"/>
   </g>
   <g id="patch_124">
    <path clip-path="url(#pa7cb1ee9fc)" d="M 484.729952 242.151 
L 486.890858 242.151 
L 486.890858 278.339724 
L 484.729952 278.339724 
z
" style="fill:#1f77b4;"/>
   </g>
   <g id="patch_125">
    <path clip-path="url(#pa7cb1ee9fc)" d="M 487.431085 242.151 
L 489.591991 242.151 
L 489.591991 275.823535 
L 487.431085 275.823535 
z
" style="fill:#1f77b4;"/>
   </g>
   <g id="patch_126">
    <path clip-path="url(#pa7cb1ee9fc)" d="M 490.132218 242.151 
L 492.293124 242.151 
L 492.293124 257.998238 
L 490.132218 257.998238 
z
" style="fill:#1f77b4;"/>
   </g>
   <g id="patch_127">
    <path clip-path="url(#pa7cb1ee9fc)" d="M 503.637881 242.151 
L 505.798788 242.151 
L 505.798788 190.183216 
L 503.637881 190.183216 
z
" style="fill:#1f77b4;"/>
   </g>
   <g id="patch_128">
    <path clip-path="url(#pa7cb1ee9fc)" d="M 506.339014 242.151 
L 508.49992 242.151 
L 508.49992 189.451008 
L 506.339014 189.451008 
z
" style="fill:#1f77b4;"/>
   </g>
   <g id="patch_129">
    <path clip-path="url(#pa7cb1ee9fc)" d="M 84.962308 242.151 
L 87.123214 242.151 
L 87.123214 433.549287 
L 84.962308 433.549287 
z
" style="fill:#ff7f0e;"/>
   </g>
   <g id="patch_130">
    <path clip-path="url(#pa7cb1ee9fc)" d="M 157.892892 242.151 
L 160.053798 242.151 
L 160.053798 422.554592 
L 157.892892 422.554592 
z
" style="fill:#ff7f0e;"/>
   </g>
   <g id="patch_131">
    <path clip-path="url(#pa7cb1ee9fc)" d="M 168.697422 242.151 
L 170.858329 242.151 
L 170.858329 421.381208 
L 168.697422 421.381208 
z
" style="fill:#ff7f0e;"/>
   </g>
   <g id="patch_132">
    <path clip-path="url(#pa7cb1ee9fc)" d="M 171.398555 242.151 
L 173.559461 242.151 
L 173.559461 421.213232 
L 171.398555 421.213232 
z
" style="fill:#ff7f0e;"/>
   </g>
   <g id="patch_133">
    <path clip-path="url(#pa7cb1ee9fc)" d="M 217.317812 242.151 
L 219.478718 242.151 
L 219.478718 417.803071 
L 217.317812 417.803071 
z
" style="fill:#ff7f0e;"/>
   </g>
   <g id="patch_134">
    <path clip-path="url(#pa7cb1ee9fc)" d="M 220.018944 242.151 
L 222.179851 242.151 
L 222.179851 417.769919 
L 220.018944 417.769919 
z
" style="fill:#ff7f0e;"/>
   </g>
   <g id="patch_135">
    <path clip-path="url(#pa7cb1ee9fc)" d="M 241.628006 242.151 
L 243.788912 242.151 
L 243.788912 415.343095 
L 241.628006 415.343095 
z
" style="fill:#ff7f0e;"/>
   </g>
   <g id="patch_136">
    <path clip-path="url(#pa7cb1ee9fc)" d="M 247.030272 242.151 
L 249.191178 242.151 
L 249.191178 414.938716 
L 247.030272 414.938716 
z
" style="fill:#ff7f0e;"/>
   </g>
   <g id="patch_137">
    <path clip-path="url(#pa7cb1ee9fc)" d="M 255.13367 242.151 
L 257.294576 242.151 
L 257.294576 413.321944 
L 255.13367 413.321944 
z
" style="fill:#ff7f0e;"/>
   </g>
   <g id="patch_138">
    <path clip-path="url(#pa7cb1ee9fc)" d="M 260.535935 242.151 
L 262.696842 242.151 
L 262.696842 412.786716 
L 260.535935 412.786716 
z
" style="fill:#ff7f0e;"/>
   </g>
   <g id="patch_139">
    <path clip-path="url(#pa7cb1ee9fc)" d="M 328.064254 242.151 
L 330.22516 242.151 
L 330.22516 411.67143 
L 328.064254 411.67143 
z
" style="fill:#ff7f0e;"/>
   </g>
   <g id="patch_140">
    <path clip-path="url(#pa7cb1ee9fc)" d="M 330.765386 242.151 
L 332.926293 242.151 
L 332.926293 411.54076 
L 330.765386 411.54076 
z
" style="fill:#ff7f0e;"/>
   </g>
   <g id="patch_141">
    <path clip-path="url(#pa7cb1ee9fc)" d="M 346.972183 242.151 
L 349.133089 242.151 
L 349.133089 408.343134 
L 346.972183 408.343134 
z
" style="fill:#ff7f0e;"/>
   </g>
   <g id="patch_142">
    <path clip-path="url(#pa7cb1ee9fc)" d="M 363.178979 242.151 
L 365.339885 242.151 
L 365.339885 400.873423 
L 363.178979 400.873423 
z
" style="fill:#ff7f0e;"/>
   </g>
   <g id="patch_143">
    <path clip-path="url(#pa7cb1ee9fc)" d="M 365.880112 242.151 
L 368.041018 242.151 
L 368.041018 399.350868 
L 365.880112 399.350868 
z
" style="fill:#ff7f0e;"/>
   </g>
   <g id="patch_144">
    <path clip-path="url(#pa7cb1ee9fc)" d="M 373.98351 242.151 
L 376.144416 242.151 
L 376.144416 392.748631 
L 373.98351 392.748631 
z
" style="fill:#ff7f0e;"/>
   </g>
   <g id="patch_145">
    <path clip-path="url(#pa7cb1ee9fc)" d="M 382.086908 242.151 
L 384.247815 242.151 
L 384.247815 389.724447 
L 382.086908 389.724447 
z
" style="fill:#ff7f0e;"/>
   </g>
   <g id="patch_146">
    <path clip-path="url(#pa7cb1ee9fc)" d="M 387.489174 242.151 
L 389.65008 242.151 
L 389.65008 389.443359 
L 387.489174 389.443359 
z
" style="fill:#ff7f0e;"/>
   </g>
   <g id="patch_147">
    <path clip-path="url(#pa7cb1ee9fc)" d="M 390.190307 242.151 
L 392.351213 242.151 
L 392.351213 386.53389 
L 390.190307 386.53389 
z
" style="fill:#ff7f0e;"/>
   </g>
   <g id="patch_148">
    <path clip-path="url(#pa7cb1ee9fc)" d="M 395.592572 242.151 
L 397.753478 242.151 
L 397.753478 385.41898 
L 395.592572 385.41898 
z
" style="fill:#ff7f0e;"/>
   </g>
   <g id="patch_149">
    <path clip-path="url(#pa7cb1ee9fc)" d="M 403.69597 242.151 
L 405.856876 242.151 
L 405.856876 380.957378 
L 403.69597 380.957378 
z
" style="fill:#ff7f0e;"/>
   </g>
   <g id="patch_150">
    <path clip-path="url(#pa7cb1ee9fc)" d="M 411.799368 242.151 
L 413.960275 242.151 
L 413.960275 372.780217 
L 411.799368 372.780217 
z
" style="fill:#ff7f0e;"/>
   </g>
   <g id="patch_151">
    <path clip-path="url(#pa7cb1ee9fc)" d="M 414.500501 242.151 
L 416.661407 242.151 
L 416.661407 372.743304 
L 414.500501 372.743304 
z
" style="fill:#ff7f0e;"/>
   </g>
   <g id="patch_152">
    <path clip-path="url(#pa7cb1ee9fc)" d="M 419.902767 242.151 
L 422.063673 242.151 
L 422.063673 372.27965 
L 419.902767 372.27965 
z
" style="fill:#ff7f0e;"/>
   </g>
   <g id="patch_153">
    <path clip-path="url(#pa7cb1ee9fc)" d="M 428.006165 242.151 
L 430.167071 242.151 
L 430.167071 368.059484 
L 428.006165 368.059484 
z
" style="fill:#ff7f0e;"/>
   </g>
   <g id="patch_154">
    <path clip-path="url(#pa7cb1ee9fc)" d="M 436.109563 242.151 
L 438.270469 242.151 
L 438.270469 360.280015 
L 436.109563 360.280015 
z
" style="fill:#ff7f0e;"/>
   </g>
   <g id="patch_155">
    <path clip-path="url(#pa7cb1ee9fc)" d="M 438.810696 242.151 
L 440.971602 242.151 
L 440.971602 359.17949 
L 438.810696 359.17949 
z
" style="fill:#ff7f0e;"/>
   </g>
   <g id="patch_156">
    <path clip-path="url(#pa7cb1ee9fc)" d="M 446.914094 242.151 
L 449.075 242.151 
L 449.075 339.052871 
L 446.914094 339.052871 
z
" style="fill:#ff7f0e;"/>
   </g>
   <g id="patch_157">
    <path clip-path="url(#pa7cb1ee9fc)" d="M 452.316359 242.151 
L 454.477266 242.151 
L 454.477266 329.884626 
L 452.316359 329.884626 
z
" style="fill:#ff7f0e;"/>
   </g>
   <g id="patch_158">
    <path clip-path="url(#pa7cb1ee9fc)" d="M 455.017492 242.151 
L 457.178398 242.151 
L 457.178398 329.231496 
L 455.017492 329.231496 
z
" style="fill:#ff7f0e;"/>
   </g>
   <g id="patch_159">
    <path clip-path="url(#pa7cb1ee9fc)" d="M 468.523156 242.151 
L 470.684062 242.151 
L 470.684062 307.026039 
L 468.523156 307.026039 
z
" style="fill:#ff7f0e;"/>
   </g>
   <g id="patch_160">
    <path clip-path="url(#pa7cb1ee9fc)" d="M 471.224289 242.151 
L 473.385195 242.151 
L 473.385195 302.777023 
L 471.224289 302.777023 
z
" style="fill:#ff7f0e;"/>
   </g>
   <g id="patch_161">
    <path clip-path="url(#pa7cb1ee9fc)" d="M 479.327687 242.151 
L 481.488593 242.151 
L 481.488593 289.255449 
L 479.327687 289.255449 
z
" style="fill:#ff7f0e;"/>
   </g>
   <g id="patch_162">
    <path clip-path="url(#pa7cb1ee9fc)" d="M 492.83335 242.151 
L 494.994257 242.151 
L 494.994257 250.616103 
L 492.83335 250.616103 
z
" style="fill:#ff7f0e;"/>
   </g>
   <g id="patch_163">
    <path clip-path="url(#pa7cb1ee9fc)" d="M 495.534483 242.151 
L 497.695389 242.151 
L 497.695389 214.798654 
L 495.534483 214.798654 
z
" style="fill:#ff7f0e;"/>
   </g>
   <g id="patch_164">
    <path clip-path="url(#pa7cb1ee9fc)" d="M 498.235616 242.151 
L 500.396522 242.151 
L 500.396522 205.07768 
L 498.235616 205.07768 
z
" style="fill:#ff7f0e;"/>
   </g>
   <g id="patch_165">
    <path clip-path="url(#pa7cb1ee9fc)" d="M 500.936749 242.151 
L 503.097655 242.151 
L 503.097655 204.592522 
L 500.936749 204.592522 
z
" style="fill:#ff7f0e;"/>
   </g>
   <g id="patch_166">
    <path clip-path="url(#pa7cb1ee9fc)" d="M 509.040147 242.151 
L 511.201053 242.151 
L 511.201053 178.316852 
L 509.040147 178.316852 
z
" style="fill:#ff7f0e;"/>
   </g>
   <g id="patch_167">
    <path clip-path="url(#pa7cb1ee9fc)" d="M 511.74128 242.151 
L 513.902186 242.151 
L 513.902186 166.333428 
L 511.74128 166.333428 
z
" style="fill:#ff7f0e;"/>
   </g>
   <g id="patch_168">
    <path clip-path="url(#pa7cb1ee9fc)" d="M 514.442412 242.151 
L 516.603319 242.151 
L 516.603319 138.983925 
L 514.442412 138.983925 
z
" style="fill:#ff7f0e;"/>
   </g>
   <g id="patch_169">
    <path clip-path="url(#pa7cb1ee9fc)" d="M 517.143545 242.151 
L 519.304451 242.151 
L 519.304451 116.122664 
L 517.143545 116.122664 
z
" style="fill:#ff7f0e;"/>
   </g>
   <g id="patch_170">
    <path clip-path="url(#pa7cb1ee9fc)" d="M 519.844678 242.151 
L 522.005584 242.151 
L 522.005584 108.782903 
L 519.844678 108.782903 
z
" style="fill:#ff7f0e;"/>
   </g>
   <g id="patch_171">
    <path clip-path="url(#pa7cb1ee9fc)" d="M 522.545811 242.151 
L 524.706717 242.151 
L 524.706717 84.906556 
L 522.545811 84.906556 
z
" style="fill:#ff7f0e;"/>
   </g>
   <g id="patch_172">
    <path clip-path="url(#pa7cb1ee9fc)" d="M 525.246943 242.151 
L 527.407849 242.151 
L 527.407849 76.010439 
L 525.246943 76.010439 
z
" style="fill:#ff7f0e;"/>
   </g>
   <g id="patch_173">
    <path clip-path="url(#pa7cb1ee9fc)" d="M 527.948076 242.151 
L 530.108982 242.151 
L 530.108982 73.887065 
L 527.948076 73.887065 
z
" style="fill:#ff7f0e;"/>
   </g>
   <g id="patch_174">
    <path clip-path="url(#pa7cb1ee9fc)" d="M 530.649209 242.151 
L 532.810115 242.151 
L 532.810115 62.446185 
L 530.649209 62.446185 
z
" style="fill:#ff7f0e;"/>
   </g>
   <g id="patch_175">
    <path clip-path="url(#pa7cb1ee9fc)" d="M 533.350341 242.151 
L 535.511248 242.151 
L 535.511248 62.439699 
L 533.350341 62.439699 
z
" style="fill:#ff7f0e;"/>
   </g>
   <g id="patch_176">
    <path clip-path="url(#pa7cb1ee9fc)" d="M 536.051474 242.151 
L 538.21238 242.151 
L 538.21238 62.422278 
L 536.051474 62.422278 
z
" style="fill:#ff7f0e;"/>
   </g>
   <g id="patch_177">
    <path clip-path="url(#pa7cb1ee9fc)" d="M 538.752607 242.151 
L 540.913513 242.151 
L 540.913513 62.414112 
L 538.752607 62.414112 
z
" style="fill:#ff7f0e;"/>
   </g>
   <g id="patch_178">
    <path clip-path="url(#pa7cb1ee9fc)" d="M 541.45374 242.151 
L 543.614646 242.151 
L 543.614646 62.41102 
L 541.45374 62.41102 
z
" style="fill:#ff7f0e;"/>
   </g>
   <g id="patch_179">
    <path clip-path="url(#pa7cb1ee9fc)" d="M 544.154872 242.151 
L 546.315779 242.151 
L 546.315779 62.407188 
L 544.154872 62.407188 
z
" style="fill:#ff7f0e;"/>
   </g>
   <g id="patch_180">
    <path clip-path="url(#pa7cb1ee9fc)" d="M 546.856005 242.151 
L 549.016911 242.151 
L 549.016911 62.403463 
L 546.856005 62.403463 
z
" style="fill:#ff7f0e;"/>
   </g>
   <g id="patch_181">
    <path clip-path="url(#pa7cb1ee9fc)" d="M 549.557138 242.151 
L 551.718044 242.151 
L 551.718044 62.397494 
L 549.557138 62.397494 
z
" style="fill:#ff7f0e;"/>
   </g>
   <g id="patch_182">
    <path clip-path="url(#pa7cb1ee9fc)" d="M 552.258271 242.151 
L 554.419177 242.151 
L 554.419177 62.396321 
L 552.258271 62.396321 
z
" style="fill:#ff7f0e;"/>
   </g>
   <g id="patch_183">
    <path clip-path="url(#pa7cb1ee9fc)" d="M 554.959403 242.151 
L 557.12031 242.151 
L 557.12031 62.396319 
L 554.959403 62.396319 
z
" style="fill:#ff7f0e;"/>
   </g>
   <g id="patch_184">
    <path clip-path="url(#pa7cb1ee9fc)" d="M 557.660536 242.151 
L 559.821442 242.151 
L 559.821442 62.394688 
L 557.660536 62.394688 
z
" style="fill:#ff7f0e;"/>
   </g>
   <g id="patch_185">
    <path clip-path="url(#pa7cb1ee9fc)" d="M 560.361669 242.151 
L 562.522575 242.151 
L 562.522575 62.385399 
L 560.361669 62.385399 
z
" style="fill:#ff7f0e;"/>
   </g>
   <g id="patch_186">
    <path clip-path="url(#pa7cb1ee9fc)" d="M 563.062802 242.151 
L 565.223708 242.151 
L 565.223708 62.377006 
L 563.062802 62.377006 
z
" style="fill:#ff7f0e;"/>
   </g>
   <g id="patch_187">
    <path clip-path="url(#pa7cb1ee9fc)" d="M 565.763934 242.151 
L 567.92484 242.151 
L 567.92484 56.833936 
L 565.763934 56.833936 
z
" style="fill:#ff7f0e;"/>
   </g>
   <g id="patch_188">
    <path clip-path="url(#pa7cb1ee9fc)" d="M 568.465067 242.151 
L 570.625973 242.151 
L 570.625973 48.321884 
L 568.465067 48.321884 
z
" style="fill:#ff7f0e;"/>
   </g>
   <g id="patch_189">
    <path clip-path="url(#pa7cb1ee9fc)" d="M 571.1662 242.151 
L 573.327106 242.151 
L 573.327106 47.011101 
L 571.1662 47.011101 
z
" style="fill:#ff7f0e;"/>
   </g>
   <g id="patch_190">
    <path clip-path="url(#pa7cb1ee9fc)" d="M 573.867332 242.151 
L 576.028239 242.151 
L 576.028239 44.478273 
L 573.867332 44.478273 
z
" style="fill:#ff7f0e;"/>
   </g>
   <g id="matplotlib.axis_1">
    <g id="xtick_1">
     <g id="line2d_1">
      <defs>
       <path d="M 0 0 
L 0 3.5 
" id="m22ec66bb83" style="stroke:#000000;stroke-width:0.8;"/>
      </defs>
      <g>
       <use style="stroke:#000000;stroke-width:0.8;" x="69.835964" xlink:href="#m22ec66bb83" y="459.591"/>
      </g>
     </g>
     <g id="text_1">
      <!-- 0 -->
      <defs>
       <path d="M 4.4375 36.328125 
Q 4.4375 56.34375 11.078125 66.625 
Q 17.71875 76.90625 30.328125 76.90625 
Q 54.34375 76.90625 54.34375 38.140625 
Q 54.34375 19 47.578125 8.859375 
Q 40.828125 -1.265625 28.609375 -1.265625 
Q 17.09375 -1.265625 10.765625 8.34375 
Q 4.4375 17.96875 4.4375 36.328125 
z
M 14.203125 36.765625 
Q 14.203125 6.640625 29.5 6.640625 
Q 44.53125 6.640625 44.53125 37.25 
Q 44.53125 68.953125 29.78125 68.953125 
Q 14.203125 68.953125 14.203125 36.765625 
z
" id="MicrosoftYaHei-48"/>
      </defs>
      <g transform="translate(66.317527 476.1835)scale(0.12 -0.12)">
       <use xlink:href="#MicrosoftYaHei-48"/>
      </g>
     </g>
    </g>
    <g id="xtick_2">
     <g id="line2d_2">
      <g>
       <use style="stroke:#000000;stroke-width:0.8;" x="137.364283" xlink:href="#m22ec66bb83" y="459.591"/>
      </g>
     </g>
     <g id="text_2">
      <!-- 25 -->
      <defs>
       <path d="M 41.65625 55.8125 
Q 41.65625 61.921875 37.796875 65.40625 
Q 33.9375 68.890625 27.296875 68.890625 
Q 22.609375 68.890625 17.8125 66.5 
Q 13.03125 64.109375 8.890625 59.671875 
L 8.890625 68.953125 
Q 12.59375 72.796875 17.296875 74.84375 
Q 22.015625 76.90625 28.375 76.90625 
Q 38.625 76.90625 44.875 71.40625 
Q 51.125 65.921875 51.125 56.546875 
Q 51.125 48.1875 47.28125 42.078125 
Q 43.453125 35.984375 34.1875 29.59375 
Q 24.703125 23.046875 21.5 20.21875 
Q 18.3125 17.390625 17.03125 14.796875 
Q 15.765625 12.203125 15.765625 8.5 
L 53.375 8.5 
L 53.375 0 
L 5.8125 0 
L 5.8125 3.765625 
Q 5.8125 10.296875 7.59375 14.859375 
Q 9.375 19.4375 13.46875 23.75 
Q 17.578125 28.078125 26.265625 34.125 
Q 35.15625 40.375 38.40625 45.09375 
Q 41.65625 49.8125 41.65625 55.8125 
z
" id="MicrosoftYaHei-50"/>
       <path d="M 51.46875 23.34375 
Q 51.46875 12.25 44.109375 5.46875 
Q 36.765625 -1.3125 24.359375 -1.3125 
Q 13.71875 -1.3125 8.5 1.859375 
L 8.5 11.625 
Q 16.15625 6.640625 24.125 6.640625 
Q 32.03125 6.640625 36.890625 11 
Q 41.75 15.375 41.75 22.609375 
Q 41.75 29.828125 36.6875 33.859375 
Q 31.640625 37.890625 22.40625 37.890625 
Q 15.28125 37.890625 9.578125 37.25 
L 12.359375 75.640625 
L 47.703125 75.640625 
L 47.703125 67.234375 
L 20.40625 67.234375 
L 18.84375 45.796875 
L 25.734375 46.09375 
Q 37.75 46.09375 44.609375 40.109375 
Q 51.46875 34.125 51.46875 23.34375 
z
" id="MicrosoftYaHei-53"/>
      </defs>
      <g transform="translate(130.327408 476.1835)scale(0.12 -0.12)">
       <use xlink:href="#MicrosoftYaHei-50"/>
       <use x="58.642578" xlink:href="#MicrosoftYaHei-53"/>
      </g>
     </g>
    </g>
    <g id="xtick_3">
     <g id="line2d_3">
      <g>
       <use style="stroke:#000000;stroke-width:0.8;" x="204.892601" xlink:href="#m22ec66bb83" y="459.591"/>
      </g>
     </g>
     <g id="text_3">
      <!-- 50 -->
      <g transform="translate(197.855726 476.1835)scale(0.12 -0.12)">
       <use xlink:href="#MicrosoftYaHei-53"/>
       <use x="58.642578" xlink:href="#MicrosoftYaHei-48"/>
      </g>
     </g>
    </g>
    <g id="xtick_4">
     <g id="line2d_4">
      <g>
       <use style="stroke:#000000;stroke-width:0.8;" x="272.420919" xlink:href="#m22ec66bb83" y="459.591"/>
      </g>
     </g>
     <g id="text_4">
      <!-- 75 -->
      <defs>
       <path d="M 53.46875 69.734375 
Q 41.546875 48.921875 34.734375 31.21875 
Q 27.9375 13.53125 26.3125 0 
L 16.359375 0 
Q 18.171875 13.328125 24.90625 30.421875 
Q 31.640625 47.515625 42.921875 67.1875 
L 5.421875 67.1875 
L 5.421875 75.640625 
L 53.46875 75.640625 
z
" id="MicrosoftYaHei-55"/>
      </defs>
      <g transform="translate(265.384044 476.1835)scale(0.12 -0.12)">
       <use xlink:href="#MicrosoftYaHei-55"/>
       <use x="58.642578" xlink:href="#MicrosoftYaHei-53"/>
      </g>
     </g>
    </g>
    <g id="xtick_5">
     <g id="line2d_5">
      <g>
       <use style="stroke:#000000;stroke-width:0.8;" x="339.949238" xlink:href="#m22ec66bb83" y="459.591"/>
      </g>
     </g>
     <g id="text_5">
      <!-- 100 -->
      <defs>
       <path d="M 27.828125 0 
L 27.828125 64.703125 
Q 25.59375 62.453125 20.234375 59.671875 
Q 14.890625 56.890625 10.359375 55.765625 
L 10.359375 65.140625 
Q 16.359375 66.796875 23.1875 70.4375 
Q 30.03125 74.078125 33.6875 77.296875 
L 37.3125 77.296875 
L 37.3125 0 
z
" id="MicrosoftYaHei-49"/>
      </defs>
      <g transform="translate(329.393925 476.1835)scale(0.12 -0.12)">
       <use xlink:href="#MicrosoftYaHei-49"/>
       <use x="58.642578" xlink:href="#MicrosoftYaHei-48"/>
       <use x="117.285156" xlink:href="#MicrosoftYaHei-48"/>
      </g>
     </g>
    </g>
    <g id="xtick_6">
     <g id="line2d_6">
      <g>
       <use style="stroke:#000000;stroke-width:0.8;" x="407.477556" xlink:href="#m22ec66bb83" y="459.591"/>
      </g>
     </g>
     <g id="text_6">
      <!-- 125 -->
      <g transform="translate(396.922244 476.1835)scale(0.12 -0.12)">
       <use xlink:href="#MicrosoftYaHei-49"/>
       <use x="58.642578" xlink:href="#MicrosoftYaHei-50"/>
       <use x="117.285156" xlink:href="#MicrosoftYaHei-53"/>
      </g>
     </g>
    </g>
    <g id="xtick_7">
     <g id="line2d_7">
      <g>
       <use style="stroke:#000000;stroke-width:0.8;" x="475.005874" xlink:href="#m22ec66bb83" y="459.591"/>
      </g>
     </g>
     <g id="text_7">
      <!-- 150 -->
      <g transform="translate(464.450562 476.1835)scale(0.12 -0.12)">
       <use xlink:href="#MicrosoftYaHei-49"/>
       <use x="58.642578" xlink:href="#MicrosoftYaHei-53"/>
       <use x="117.285156" xlink:href="#MicrosoftYaHei-48"/>
      </g>
     </g>
    </g>
    <g id="xtick_8">
     <g id="line2d_8">
      <g>
       <use style="stroke:#000000;stroke-width:0.8;" x="542.534193" xlink:href="#m22ec66bb83" y="459.591"/>
      </g>
     </g>
     <g id="text_8">
      <!-- 175 -->
      <g transform="translate(531.97888 476.1835)scale(0.12 -0.12)">
       <use xlink:href="#MicrosoftYaHei-49"/>
       <use x="58.642578" xlink:href="#MicrosoftYaHei-55"/>
       <use x="117.285156" xlink:href="#MicrosoftYaHei-53"/>
      </g>
     </g>
    </g>
   </g>
   <g id="matplotlib.axis_2">
    <g id="ytick_1">
     <g id="line2d_9">
      <defs>
       <path d="M 0 0 
L -3.5 0 
" id="md70d2c849c" style="stroke:#000000;stroke-width:0.8;"/>
      </defs>
      <g>
       <use style="stroke:#000000;stroke-width:0.8;" x="43.391875" xlink:href="#md70d2c849c" y="439.823727"/>
      </g>
     </g>
     <g id="text_9">
      <!-- -1.00 -->
      <defs>
       <path d="M 36.375 26.265625 
L 7.625 26.265625 
L 7.625 33.640625 
L 36.375 33.640625 
z
" id="MicrosoftYaHei-45"/>
       <path d="M 5.8125 5.03125 
Q 5.8125 7.671875 7.609375 9.46875 
Q 9.421875 11.28125 12.109375 11.28125 
Q 14.84375 11.28125 16.640625 9.453125 
Q 18.453125 7.625 18.453125 5.03125 
Q 18.453125 2.484375 16.640625 0.65625 
Q 14.84375 -1.171875 12.0625 -1.171875 
Q 9.375 -1.171875 7.59375 0.65625 
Q 5.8125 2.484375 5.8125 5.03125 
z
" id="MicrosoftYaHei-46"/>
      </defs>
      <g transform="translate(7.2 444.619977)scale(0.12 -0.12)">
       <use xlink:href="#MicrosoftYaHei-45"/>
       <use x="43.261719" xlink:href="#MicrosoftYaHei-49"/>
       <use x="101.904297" xlink:href="#MicrosoftYaHei-46"/>
       <use x="125.976562" xlink:href="#MicrosoftYaHei-48"/>
       <use x="184.619141" xlink:href="#MicrosoftYaHei-48"/>
      </g>
     </g>
    </g>
    <g id="ytick_2">
     <g id="line2d_10">
      <g>
       <use style="stroke:#000000;stroke-width:0.8;" x="43.391875" xlink:href="#md70d2c849c" y="390.405545"/>
      </g>
     </g>
     <g id="text_10">
      <!-- -0.75 -->
      <g transform="translate(7.2 395.201795)scale(0.12 -0.12)">
       <use xlink:href="#MicrosoftYaHei-45"/>
       <use x="43.261719" xlink:href="#MicrosoftYaHei-48"/>
       <use x="101.904297" xlink:href="#MicrosoftYaHei-46"/>
       <use x="125.976562" xlink:href="#MicrosoftYaHei-55"/>
       <use x="184.619141" xlink:href="#MicrosoftYaHei-53"/>
      </g>
     </g>
    </g>
    <g id="ytick_3">
     <g id="line2d_11">
      <g>
       <use style="stroke:#000000;stroke-width:0.8;" x="43.391875" xlink:href="#md70d2c849c" y="340.987364"/>
      </g>
     </g>
     <g id="text_11">
      <!-- -0.50 -->
      <g transform="translate(7.2 345.783614)scale(0.12 -0.12)">
       <use xlink:href="#MicrosoftYaHei-45"/>
       <use x="43.261719" xlink:href="#MicrosoftYaHei-48"/>
       <use x="101.904297" xlink:href="#MicrosoftYaHei-46"/>
       <use x="125.976562" xlink:href="#MicrosoftYaHei-53"/>
       <use x="184.619141" xlink:href="#MicrosoftYaHei-48"/>
      </g>
     </g>
    </g>
    <g id="ytick_4">
     <g id="line2d_12">
      <g>
       <use style="stroke:#000000;stroke-width:0.8;" x="43.391875" xlink:href="#md70d2c849c" y="291.569182"/>
      </g>
     </g>
     <g id="text_12">
      <!-- -0.25 -->
      <g transform="translate(7.2 296.365432)scale(0.12 -0.12)">
       <use xlink:href="#MicrosoftYaHei-45"/>
       <use x="43.261719" xlink:href="#MicrosoftYaHei-48"/>
       <use x="101.904297" xlink:href="#MicrosoftYaHei-46"/>
       <use x="125.976562" xlink:href="#MicrosoftYaHei-50"/>
       <use x="184.619141" xlink:href="#MicrosoftYaHei-53"/>
      </g>
     </g>
    </g>
    <g id="ytick_5">
     <g id="line2d_13">
      <g>
       <use style="stroke:#000000;stroke-width:0.8;" x="43.391875" xlink:href="#md70d2c849c" y="242.151"/>
      </g>
     </g>
     <g id="text_13">
      <!-- 0.00 -->
      <g transform="translate(12.391875 246.94725)scale(0.12 -0.12)">
       <use xlink:href="#MicrosoftYaHei-48"/>
       <use x="58.642578" xlink:href="#MicrosoftYaHei-46"/>
       <use x="82.714844" xlink:href="#MicrosoftYaHei-48"/>
       <use x="141.357422" xlink:href="#MicrosoftYaHei-48"/>
      </g>
     </g>
    </g>
    <g id="ytick_6">
     <g id="line2d_14">
      <g>
       <use style="stroke:#000000;stroke-width:0.8;" x="43.391875" xlink:href="#md70d2c849c" y="192.732818"/>
      </g>
     </g>
     <g id="text_14">
      <!-- 0.25 -->
      <g transform="translate(12.391875 197.529068)scale(0.12 -0.12)">
       <use xlink:href="#MicrosoftYaHei-48"/>
       <use x="58.642578" xlink:href="#MicrosoftYaHei-46"/>
       <use x="82.714844" xlink:href="#MicrosoftYaHei-50"/>
       <use x="141.357422" xlink:href="#MicrosoftYaHei-53"/>
      </g>
     </g>
    </g>
    <g id="ytick_7">
     <g id="line2d_15">
      <g>
       <use style="stroke:#000000;stroke-width:0.8;" x="43.391875" xlink:href="#md70d2c849c" y="143.314636"/>
      </g>
     </g>
     <g id="text_15">
      <!-- 0.50 -->
      <g transform="translate(12.391875 148.110886)scale(0.12 -0.12)">
       <use xlink:href="#MicrosoftYaHei-48"/>
       <use x="58.642578" xlink:href="#MicrosoftYaHei-46"/>
       <use x="82.714844" xlink:href="#MicrosoftYaHei-53"/>
       <use x="141.357422" xlink:href="#MicrosoftYaHei-48"/>
      </g>
     </g>
    </g>
    <g id="ytick_8">
     <g id="line2d_16">
      <g>
       <use style="stroke:#000000;stroke-width:0.8;" x="43.391875" xlink:href="#md70d2c849c" y="93.896455"/>
      </g>
     </g>
     <g id="text_16">
      <!-- 0.75 -->
      <g transform="translate(12.391875 98.692705)scale(0.12 -0.12)">
       <use xlink:href="#MicrosoftYaHei-48"/>
       <use x="58.642578" xlink:href="#MicrosoftYaHei-46"/>
       <use x="82.714844" xlink:href="#MicrosoftYaHei-55"/>
       <use x="141.357422" xlink:href="#MicrosoftYaHei-53"/>
      </g>
     </g>
    </g>
    <g id="ytick_9">
     <g id="line2d_17">
      <g>
       <use style="stroke:#000000;stroke-width:0.8;" x="43.391875" xlink:href="#md70d2c849c" y="44.478273"/>
      </g>
     </g>
     <g id="text_17">
      <!-- 1.00 -->
      <g transform="translate(12.391875 49.274523)scale(0.12 -0.12)">
       <use xlink:href="#MicrosoftYaHei-49"/>
       <use x="58.642578" xlink:href="#MicrosoftYaHei-46"/>
       <use x="82.714844" xlink:href="#MicrosoftYaHei-48"/>
       <use x="141.357422" xlink:href="#MicrosoftYaHei-48"/>
      </g>
     </g>
    </g>
   </g>
   <g id="patch_191">
    <path d="M 43.391875 459.591 
L 43.391875 24.711 
" style="fill:none;stroke:#000000;stroke-linecap:square;stroke-linejoin:miter;stroke-width:0.8;"/>
   </g>
   <g id="patch_192">
    <path d="M 601.391875 459.591 
L 601.391875 24.711 
" style="fill:none;stroke:#000000;stroke-linecap:square;stroke-linejoin:miter;stroke-width:0.8;"/>
   </g>
   <g id="patch_193">
    <path d="M 43.391875 459.591 
L 601.391875 459.591 
" style="fill:none;stroke:#000000;stroke-linecap:square;stroke-linejoin:miter;stroke-width:0.8;"/>
   </g>
   <g id="patch_194">
    <path d="M 43.391875 24.711 
L 601.391875 24.711 
" style="fill:none;stroke:#000000;stroke-linecap:square;stroke-linejoin:miter;stroke-width:0.8;"/>
   </g>
   <g id="text_18">
    <!-- SVM sample predict score -->
    <defs>
     <path d="M 6.25 14.203125 
Q 9.71875 11.1875 15.53125 9.234375 
Q 21.34375 7.28125 26.5625 7.28125 
Q 42.484375 7.28125 42.484375 18.609375 
Q 42.484375 21.78125 40.765625 24.3125 
Q 39.0625 26.859375 36.078125 28.8125 
Q 33.109375 30.765625 24.90625 34.8125 
Q 13.53125 40.484375 9.90625 45.34375 
Q 6.296875 50.203125 6.296875 56.453125 
Q 6.296875 65.875 13.859375 71.390625 
Q 21.4375 76.90625 32.953125 76.90625 
Q 44.234375 76.90625 49.515625 74.171875 
L 49.515625 63.53125 
Q 42.671875 68.265625 32.234375 68.265625 
Q 25.296875 68.265625 20.921875 65.359375 
Q 16.546875 62.453125 16.546875 57.28125 
Q 16.546875 52.6875 19.578125 49.796875 
Q 22.609375 46.921875 32.71875 41.9375 
Q 43.84375 36.625 48.28125 31.296875 
Q 52.734375 25.984375 52.734375 19.34375 
Q 52.734375 9.375 45.5 4.046875 
Q 38.28125 -1.265625 25.4375 -1.265625 
Q 20.953125 -1.265625 14.96875 -0.015625 
Q 8.984375 1.21875 6.25 3.078125 
z
" id="MicrosoftYaHei-83"/>
     <path d="M 66.75 75.640625 
L 38.96875 0 
L 28.125 0 
L 0.875 75.640625 
L 11.71875 75.640625 
L 32.078125 16.5 
Q 33.109375 13.578125 33.59375 9.71875 
L 33.84375 9.71875 
Q 34.234375 13.09375 35.546875 16.609375 
L 56.296875 75.640625 
z
" id="MicrosoftYaHei-86"/>
     <path d="M 78.171875 0 
L 78.171875 50.09375 
Q 78.171875 56.296875 78.90625 64.984375 
L 78.65625 64.984375 
Q 77.390625 59.515625 76.421875 57.375 
L 51.46875 0 
L 46.046875 0 
L 21.140625 56.9375 
Q 20.265625 58.890625 18.890625 64.984375 
L 18.609375 64.984375 
Q 19.09375 59.71875 19.09375 49.65625 
L 19.09375 0 
L 9.765625 0 
L 9.765625 75.640625 
L 23 75.640625 
L 45.3125 23.78125 
Q 47.859375 17.828125 48.6875 14.5 
L 49.03125 14.5 
Q 51.5625 21.484375 52.59375 23.96875 
L 75.296875 75.640625 
L 87.890625 75.640625 
L 87.890625 0 
z
" id="MicrosoftYaHei-77"/>
     <path id="MicrosoftYaHei-32"/>
     <path d="M 5.515625 11.671875 
Q 12.75 6.453125 21.09375 6.453125 
Q 32.28125 6.453125 32.28125 13.765625 
Q 32.28125 16.890625 29.828125 18.921875 
Q 27.390625 20.953125 19.921875 23.734375 
Q 10.9375 27.34375 8.25 30.875 
Q 5.5625 34.421875 5.5625 39.453125 
Q 5.5625 46.625 11.640625 50.953125 
Q 17.71875 55.28125 26.609375 55.28125 
Q 33.5 55.28125 39.40625 52.875 
L 39.40625 43.65625 
Q 33.34375 47.5625 25.6875 47.5625 
Q 21.09375 47.5625 18.203125 45.5625 
Q 15.328125 43.5625 15.328125 40.28125 
Q 15.328125 37.0625 17.40625 35.25 
Q 19.484375 33.453125 26.609375 30.609375 
Q 35.640625 27.25 38.8125 23.625 
Q 42 20.015625 42 14.703125 
Q 42 7.28125 35.90625 3 
Q 29.828125 -1.265625 20.171875 -1.265625 
Q 11.765625 -1.265625 5.515625 1.90625 
z
" id="MicrosoftYaHei-115"/>
     <path d="M 9.8125 50.25 
Q 17.875 55.28125 28.421875 55.28125 
Q 47.953125 55.28125 47.953125 34.765625 
L 47.953125 0 
L 38.484375 0 
L 38.484375 8.34375 
L 38.234375 8.34375 
Q 32.625 -1.265625 21.6875 -1.265625 
Q 13.8125 -1.265625 9.171875 2.984375 
Q 4.546875 7.234375 4.546875 14.453125 
Q 4.546875 29.59375 22.46875 32.078125 
L 38.484375 34.328125 
Q 38.484375 47.5625 27.546875 47.5625 
Q 17.828125 47.5625 9.8125 41.015625 
z
M 25.828125 25.390625 
Q 19.1875 24.515625 16.671875 22.0625 
Q 14.15625 19.625 14.15625 15.234375 
Q 14.15625 11.375 16.890625 8.9375 
Q 19.625 6.5 24.125 6.5 
Q 30.375 6.5 34.421875 10.890625 
Q 38.484375 15.28125 38.484375 21.921875 
L 38.484375 27.09375 
z
" id="MicrosoftYaHei-97"/>
     <path d="M 86.28125 0 
L 76.703125 0 
L 76.703125 31 
Q 76.703125 39.796875 73.96875 43.578125 
Q 71.234375 47.359375 64.984375 47.359375 
Q 59.71875 47.359375 55.953125 42.421875 
Q 52.203125 37.5 52.203125 30.765625 
L 52.203125 0 
L 42.625 0 
L 42.625 31.984375 
Q 42.625 47.359375 30.765625 47.359375 
Q 25.296875 47.359375 21.703125 42.671875 
Q 18.109375 37.984375 18.109375 30.71875 
L 18.109375 0 
L 8.546875 0 
L 8.546875 54 
L 18.109375 54 
L 18.109375 45.453125 
L 18.3125 45.453125 
Q 24.078125 55.28125 35.15625 55.28125 
Q 40.578125 55.28125 44.71875 52.296875 
Q 48.875 49.3125 50.484375 44.234375 
Q 56.5 55.28125 68.453125 55.28125 
Q 86.28125 55.28125 86.28125 33.296875 
z
" id="MicrosoftYaHei-109"/>
     <path d="M 18.109375 7.625 
L 18.109375 -24.859375 
L 8.546875 -24.859375 
L 8.546875 54 
L 18.109375 54 
L 18.109375 44.671875 
L 18.3125 44.671875 
Q 24.65625 55.28125 36.859375 55.28125 
Q 47.21875 55.28125 53.09375 48.015625 
Q 58.984375 40.765625 58.984375 28.5625 
Q 58.984375 15.09375 52.3125 6.90625 
Q 45.65625 -1.265625 34.375 -1.265625 
Q 23.96875 -1.265625 18.3125 7.625 
z
M 18.0625 22.265625 
Q 18.0625 15.671875 22.3125 11.15625 
Q 26.5625 6.640625 32.953125 6.640625 
Q 40.578125 6.640625 44.875 12.5 
Q 49.171875 18.359375 49.171875 28.71875 
Q 49.171875 37.453125 45.15625 42.40625 
Q 41.15625 47.359375 34.234375 47.359375 
Q 27.15625 47.359375 22.609375 42.328125 
Q 18.0625 37.3125 18.0625 29.4375 
z
" id="MicrosoftYaHei-112"/>
     <path d="M 8.5 0 
L 8.5 79.9375 
L 18.0625 79.9375 
L 18.0625 0 
z
" id="MicrosoftYaHei-108"/>
     <path d="M 52.546875 24.5625 
L 14.75 24.5625 
Q 14.984375 15.921875 19.46875 11.203125 
Q 23.96875 6.5 32.03125 6.5 
Q 41.109375 6.5 48.6875 12.3125 
L 48.6875 3.765625 
Q 41.546875 -1.265625 29.78125 -1.265625 
Q 18.0625 -1.265625 11.5 6.15625 
Q 4.9375 13.578125 4.9375 26.765625 
Q 4.9375 39.15625 12.140625 47.21875 
Q 19.34375 55.28125 30.03125 55.28125 
Q 40.625 55.28125 46.578125 48.46875 
Q 52.546875 41.65625 52.546875 29.390625 
z
M 42.96875 32.234375 
Q 42.921875 39.546875 39.5 43.546875 
Q 36.078125 47.5625 29.890625 47.5625 
Q 24.171875 47.5625 20 43.3125 
Q 15.828125 39.0625 14.75 32.234375 
z
" id="MicrosoftYaHei-101"/>
     <path d="M 37.5 44.53125 
Q 35.109375 46.234375 30.90625 46.234375 
Q 25.34375 46.234375 21.71875 41.03125 
Q 18.109375 35.84375 18.109375 27.34375 
L 18.109375 0 
L 8.546875 0 
L 8.546875 54 
L 18.109375 54 
L 18.109375 43.015625 
L 18.3125 43.015625 
Q 22.40625 54.9375 32.46875 54.9375 
Q 35.75 54.9375 37.5 54.203125 
z
" id="MicrosoftYaHei-114"/>
     <path d="M 55.421875 0 
L 45.84375 0 
L 45.84375 8.984375 
L 45.65625 8.984375 
Q 39.75 -1.265625 27.296875 -1.265625 
Q 17.046875 -1.265625 10.984375 6.03125 
Q 4.9375 13.328125 4.9375 25.734375 
Q 4.9375 39.109375 11.765625 47.1875 
Q 18.609375 55.28125 29.640625 55.28125 
Q 40.671875 55.28125 45.65625 46.6875 
L 45.84375 46.6875 
L 45.84375 79.9375 
L 55.421875 79.9375 
z
M 45.90625 32.125 
Q 45.90625 38.625 41.625 42.984375 
Q 37.359375 47.359375 31.109375 47.359375 
Q 23.484375 47.359375 19.09375 41.671875 
Q 14.703125 35.984375 14.703125 26.171875 
Q 14.703125 17.140625 18.921875 11.890625 
Q 23.140625 6.640625 30.171875 6.640625 
Q 37.109375 6.640625 41.5 11.78125 
Q 45.90625 16.9375 45.90625 24.609375 
z
" id="MicrosoftYaHei-100"/>
     <path d="M 7.375 73.046875 
Q 7.375 75.59375 9.109375 77.3125 
Q 10.84375 79.046875 13.375 79.046875 
Q 15.96875 79.046875 17.75 77.34375 
Q 19.53125 75.640625 19.53125 73.046875 
Q 19.53125 70.515625 17.75 68.828125 
Q 15.96875 67.140625 13.375 67.140625 
Q 10.796875 67.140625 9.078125 68.828125 
Q 7.375 70.515625 7.375 73.046875 
z
M 8.5 0 
L 8.5 54 
L 18.0625 54 
L 18.0625 0 
z
" id="MicrosoftYaHei-105"/>
     <path d="M 45.84375 2.4375 
Q 39.65625 -1.265625 30.90625 -1.265625 
Q 19.1875 -1.265625 12.0625 6.25 
Q 4.9375 13.765625 4.9375 25.734375 
Q 4.9375 39.015625 12.625 47.140625 
Q 20.3125 55.28125 33.203125 55.28125 
Q 40.625 55.28125 45.90625 52.640625 
L 45.90625 43.171875 
Q 40.1875 47.359375 33.203125 47.359375 
Q 25 47.359375 19.84375 41.671875 
Q 14.703125 35.984375 14.703125 26.515625 
Q 14.703125 17.1875 19.5625 11.90625 
Q 24.421875 6.640625 32.671875 6.640625 
Q 39.65625 6.640625 45.84375 11.234375 
z
" id="MicrosoftYaHei-99"/>
     <path d="M 34.46875 0.53125 
Q 31.34375 -1.171875 26.03125 -1.171875 
Q 11.53125 -1.171875 11.53125 14.890625 
L 11.53125 46.09375 
L 2.25 46.09375 
L 2.25 54 
L 11.53125 54 
L 11.53125 67 
L 21.046875 70.015625 
L 21.046875 54 
L 34.46875 54 
L 34.46875 46.09375 
L 21.046875 46.09375 
L 21.046875 16.609375 
Q 21.046875 11.28125 22.84375 8.984375 
Q 24.65625 6.6875 28.859375 6.6875 
Q 32.078125 6.6875 34.46875 8.5 
z
" id="MicrosoftYaHei-116"/>
     <path d="M 4.9375 26.421875 
Q 4.9375 39.796875 12.40625 47.53125 
Q 19.875 55.28125 32.671875 55.28125 
Q 44.828125 55.28125 51.734375 47.828125 
Q 58.640625 40.375 58.640625 27.25 
Q 58.640625 14.453125 51.265625 6.59375 
Q 43.890625 -1.265625 31.5 -1.265625 
Q 19.390625 -1.265625 12.15625 6.34375 
Q 4.9375 13.96875 4.9375 26.421875 
z
M 14.703125 26.703125 
Q 14.703125 17.390625 19.40625 12.015625 
Q 24.125 6.640625 32.078125 6.640625 
Q 40.28125 6.640625 44.578125 11.890625 
Q 48.875 17.140625 48.875 26.953125 
Q 48.875 36.8125 44.578125 42.078125 
Q 40.28125 47.359375 32.078125 47.359375 
Q 24.03125 47.359375 19.359375 41.84375 
Q 14.703125 36.328125 14.703125 26.703125 
z
" id="MicrosoftYaHei-111"/>
    </defs>
    <g transform="translate(232.875625 18.711)scale(0.144 -0.144)">
     <use xlink:href="#MicrosoftYaHei-83"/>
     <use x="57.714844" xlink:href="#MicrosoftYaHei-86"/>
     <use x="125.341797" xlink:href="#MicrosoftYaHei-77"/>
     <use x="223.046875" xlink:href="#MicrosoftYaHei-32"/>
     <use x="252.636719" xlink:href="#MicrosoftYaHei-115"/>
     <use x="298.925781" xlink:href="#MicrosoftYaHei-97"/>
     <use x="354.199219" xlink:href="#MicrosoftYaHei-109"/>
     <use x="447.900391" xlink:href="#MicrosoftYaHei-112"/>
     <use x="511.767578" xlink:href="#MicrosoftYaHei-108"/>
     <use x="538.378906" xlink:href="#MicrosoftYaHei-101"/>
     <use x="595.117188" xlink:href="#MicrosoftYaHei-32"/>
     <use x="624.707031" xlink:href="#MicrosoftYaHei-112"/>
     <use x="688.574219" xlink:href="#MicrosoftYaHei-114"/>
     <use x="725.382812" xlink:href="#MicrosoftYaHei-101"/>
     <use x="782.121094" xlink:href="#MicrosoftYaHei-100"/>
     <use x="846.085938" xlink:href="#MicrosoftYaHei-105"/>
     <use x="872.697266" xlink:href="#MicrosoftYaHei-99"/>
     <use x="922.84375" xlink:href="#MicrosoftYaHei-116"/>
     <use x="960.099609" xlink:href="#MicrosoftYaHei-32"/>
     <use x="989.689453" xlink:href="#MicrosoftYaHei-115"/>
     <use x="1035.978516" xlink:href="#MicrosoftYaHei-99"/>
     <use x="1086.125" xlink:href="#MicrosoftYaHei-111"/>
     <use x="1149.699219" xlink:href="#MicrosoftYaHei-114"/>
     <use x="1186.507812" xlink:href="#MicrosoftYaHei-101"/>
    </g>
   </g>
   <g id="legend_1">
    <g id="patch_195">
     <path d="M 511.16125 453.591 
L 592.991875 453.591 
Q 595.391875 453.591 595.391875 451.191 
L 595.391875 415.23975 
Q 595.391875 412.83975 592.991875 412.83975 
L 511.16125 412.83975 
Q 508.76125 412.83975 508.76125 415.23975 
L 508.76125 451.191 
Q 508.76125 453.591 511.16125 453.591 
z
" style="fill:#ffffff;opacity:0.8;stroke:#cccccc;stroke-linejoin:miter;"/>
    </g>
    <g id="patch_196">
     <path d="M 513.56125 427.23225 
L 537.56125 427.23225 
L 537.56125 418.83225 
L 513.56125 418.83225 
z
" style="fill:#1f77b4;"/>
    </g>
    <g id="text_19">
     <!-- label=0 -->
     <defs>
      <path d="M 18.109375 7.625 
L 18.109375 0 
L 8.546875 0 
L 8.546875 79.9375 
L 18.109375 79.9375 
L 18.109375 44.671875 
L 18.3125 44.671875 
Q 24.65625 55.28125 36.859375 55.28125 
Q 47.015625 55.28125 53 48.125 
Q 58.984375 40.96875 58.984375 28.5625 
Q 58.984375 14.890625 52.265625 6.8125 
Q 45.5625 -1.265625 34.375 -1.265625 
Q 23.828125 -1.265625 18.3125 7.625 
z
M 18.0625 22.21875 
Q 18.0625 15.671875 22.3125 11.15625 
Q 26.5625 6.640625 32.953125 6.640625 
Q 40.578125 6.640625 44.875 12.5 
Q 49.171875 18.359375 49.171875 28.71875 
Q 49.171875 37.25 45.15625 42.296875 
Q 41.15625 47.359375 34.234375 47.359375 
Q 27.203125 47.359375 22.625 42.328125 
Q 18.0625 37.3125 18.0625 29.546875 
z
" id="MicrosoftYaHei-98"/>
      <path d="M 62.0625 39.015625 
L 12.3125 39.015625 
L 12.3125 46.390625 
L 62.0625 46.390625 
z
M 62.0625 16.453125 
L 12.3125 16.453125 
L 12.3125 23.828125 
L 62.0625 23.828125 
z
" id="MicrosoftYaHei-61"/>
     </defs>
     <g transform="translate(547.16125 427.23225)scale(0.12 -0.12)">
      <use xlink:href="#MicrosoftYaHei-108"/>
      <use x="26.611328" xlink:href="#MicrosoftYaHei-97"/>
      <use x="81.884766" xlink:href="#MicrosoftYaHei-98"/>
      <use x="145.751953" xlink:href="#MicrosoftYaHei-101"/>
      <use x="202.490234" xlink:href="#MicrosoftYaHei-108"/>
      <use x="229.101562" xlink:href="#MicrosoftYaHei-61"/>
      <use x="303.271484" xlink:href="#MicrosoftYaHei-48"/>
     </g>
    </g>
    <g id="patch_197">
     <path d="M 513.56125 445.807875 
L 537.56125 445.807875 
L 537.56125 437.407875 
L 513.56125 437.407875 
z
" style="fill:#ff7f0e;"/>
    </g>
    <g id="text_20">
     <!-- label=1 -->
     <g transform="translate(547.16125 445.807875)scale(0.12 -0.12)">
      <use xlink:href="#MicrosoftYaHei-108"/>
      <use x="26.611328" xlink:href="#MicrosoftYaHei-97"/>
      <use x="81.884766" xlink:href="#MicrosoftYaHei-98"/>
      <use x="145.751953" xlink:href="#MicrosoftYaHei-101"/>
      <use x="202.490234" xlink:href="#MicrosoftYaHei-108"/>
      <use x="229.101562" xlink:href="#MicrosoftYaHei-61"/>
      <use x="303.271484" xlink:href="#MicrosoftYaHei-49"/>
     </g>
    </g>
   </g>
  </g>
 </g>
 <defs>
  <clipPath id="pa7cb1ee9fc">
   <rect height="434.88" width="558" x="43.391875" y="24.711"/>
  </clipPath>
 </defs>
</svg>
