<?xml version="1.0" encoding="utf-8" standalone="no"?>
<!DOCTYPE svg PUBLIC "-//W3C//DTD SVG 1.1//EN"
  "http://www.w3.org/Graphics/SVG/1.1/DTD/svg11.dtd">
<!-- Created with matplotlib (https://matplotlib.org/) -->
<svg height="501.2885pt" version="1.1" viewBox="0 0 626.780937 501.2885" width="626.780937pt" xmlns="http://www.w3.org/2000/svg" xmlns:xlink="http://www.w3.org/1999/xlink">
 <defs>
  <style type="text/css">
*{stroke-linecap:butt;stroke-linejoin:round;}
  </style>
 </defs>
 <g id="figure_1">
  <g id="patch_1">
   <path d="M 0 501.2885 
L 626.780937 501.2885 
L 626.780937 0 
L 0 0 
z
" style="fill:#ffffff;"/>
  </g>
  <g id="axes_1">
   <g id="patch_2">
    <path d="M 53.099375 459.591 
L 611.099375 459.591 
L 611.099375 24.711 
L 53.099375 24.711 
z
" style="fill:#ffffff;"/>
   </g>
   <g id="PolyCollection_1">
    <defs>
     <path d="M 53.099375 -259.1375 
L 53.099375 -259.1375 
L 58.679375 -259.1375 
L 64.259375 -259.1375 
L 69.839375 -259.1375 
L 75.419375 -259.1375 
L 80.999375 -259.1375 
L 86.579375 -259.1375 
L 92.159375 -259.1375 
L 97.739375 -259.1375 
L 103.319375 -259.1375 
L 108.899375 -259.1375 
L 114.479375 -259.1375 
L 120.059375 -259.1375 
L 125.639375 -259.1375 
L 131.219375 -259.1375 
L 136.799375 -259.1375 
L 142.379375 -259.1375 
L 147.959375 -259.1375 
L 153.539375 -259.1375 
L 159.119375 -259.1375 
L 164.699375 -259.1375 
L 170.279375 -259.1375 
L 175.859375 -259.1375 
L 181.439375 -259.1375 
L 187.019375 -259.1375 
L 192.599375 -259.1375 
L 198.179375 -259.1375 
L 203.759375 -259.1375 
L 209.339375 -259.1375 
L 214.919375 -259.1375 
L 220.499375 -259.1375 
L 226.079375 -259.1375 
L 231.659375 -259.1375 
L 237.239375 -259.1375 
L 242.819375 -259.1375 
L 248.399375 -259.1375 
L 253.979375 -259.1375 
L 259.559375 -259.1375 
L 265.139375 -259.1375 
L 270.719375 -259.1375 
L 276.299375 -259.1375 
L 281.879375 -259.1375 
L 287.459375 -259.1375 
L 293.039375 -259.1375 
L 298.619375 -259.1375 
L 304.199375 -259.1375 
L 309.779375 -259.1375 
L 315.359375 -259.1375 
L 320.939375 -259.1375 
L 326.519375 -259.1375 
L 332.099375 -259.1375 
L 337.679375 -259.1375 
L 343.259375 -259.1375 
L 348.839375 -259.1375 
L 354.419375 -259.1375 
L 359.999375 -259.1375 
L 365.579375 -259.1375 
L 371.159375 -259.1375 
L 376.739375 -259.1375 
L 382.319375 -259.1375 
L 387.899375 -259.1375 
L 393.479375 -259.1375 
L 399.059375 -259.1375 
L 404.639375 -259.1375 
L 410.219375 -259.1375 
L 415.799375 -259.1375 
L 421.379375 -259.1375 
L 426.959375 -259.1375 
L 432.539375 -259.1375 
L 438.119375 -259.1375 
L 443.699375 -259.1375 
L 449.279375 -259.1375 
L 454.859375 -259.1375 
L 460.439375 -259.1375 
L 466.019375 -259.1375 
L 471.599375 -259.1375 
L 477.179375 -259.1375 
L 482.759375 -259.1375 
L 488.339375 -259.1375 
L 493.919375 -259.1375 
L 499.499375 -259.1375 
L 505.079375 -259.1375 
L 510.659375 -259.1375 
L 516.239375 -259.1375 
L 521.819375 -259.1375 
L 527.399375 -259.1375 
L 532.979375 -259.1375 
L 538.559375 -259.1375 
L 544.139375 -259.1375 
L 549.719375 -259.1375 
L 555.299375 -259.1375 
L 560.879375 -259.1375 
L 566.459375 -259.1375 
L 572.039375 -259.1375 
L 577.619375 -259.1375 
L 583.199375 -259.1375 
L 588.779375 -259.1375 
L 594.359375 -259.1375 
L 599.939375 -259.1375 
L 605.519375 -259.1375 
L 605.519375 218.922074 
L 605.519375 218.922074 
L 599.939375 218.922074 
L 594.359375 218.922074 
L 588.779375 218.922074 
L 583.199375 218.922074 
L 577.619375 218.922074 
L 572.039375 218.922074 
L 566.459375 218.922074 
L 560.879375 218.922074 
L 555.299375 218.922074 
L 549.719375 218.922074 
L 544.139375 218.922074 
L 538.559375 218.922074 
L 532.979375 218.922074 
L 527.399375 218.922074 
L 521.819375 218.922074 
L 516.239375 218.922074 
L 510.659375 218.922074 
L 505.079375 218.922074 
L 499.499375 218.922074 
L 493.919375 218.922074 
L 488.339375 218.922074 
L 482.759375 218.922074 
L 477.179375 218.922074 
L 471.599375 218.922074 
L 466.019375 218.922074 
L 460.439375 218.922074 
L 454.859375 218.922074 
L 449.279375 218.922074 
L 443.699375 218.922074 
L 438.119375 218.922074 
L 432.539375 218.922074 
L 426.959375 218.922074 
L 421.379375 218.922074 
L 415.799375 218.922074 
L 410.219375 218.922074 
L 404.639375 218.922074 
L 399.059375 218.922074 
L 393.479375 218.922074 
L 387.899375 218.922074 
L 382.319375 218.922074 
L 376.739375 218.922074 
L 371.159375 218.922074 
L 365.579375 218.922074 
L 359.999375 218.922074 
L 354.419375 218.922074 
L 348.839375 218.922074 
L 343.259375 218.922074 
L 337.679375 218.922074 
L 332.099375 218.922074 
L 326.519375 218.922074 
L 320.939375 218.922074 
L 315.359375 218.922074 
L 309.779375 218.922074 
L 304.199375 218.922074 
L 298.619375 218.922074 
L 293.039375 218.922074 
L 287.459375 218.922074 
L 281.879375 218.922074 
L 276.299375 218.922074 
L 270.719375 218.922074 
L 265.139375 218.922074 
L 259.559375 218.922074 
L 253.979375 218.922074 
L 248.399375 218.922074 
L 242.819375 218.922074 
L 237.239375 218.922074 
L 231.659375 198.057994 
L 226.079375 177.351677 
L 220.499375 157.236968 
L 214.919375 137.688871 
L 209.339375 118.683777 
L 203.759375 100.19937 
L 198.179375 82.214541 
L 192.599375 64.709309 
L 187.019375 47.66474 
L 181.439375 31.062887 
L 175.859375 14.886723 
L 170.279375 -0.879919 
L 164.699375 -16.252394 
L 159.119375 -31.245301 
L 153.539375 -45.872529 
L 147.959375 -60.147292 
L 142.379375 -74.082181 
L 136.799375 -87.68919 
L 131.219375 -100.979756 
L 125.639375 -113.964793 
L 120.059375 -126.654715 
L 114.479375 -139.05947 
L 108.899375 -151.188564 
L 103.319375 -163.051084 
L 97.739375 -174.655724 
L 92.159375 -186.010801 
L 86.579375 -197.124281 
L 80.999375 -208.003793 
L 75.419375 -218.656649 
L 69.839375 -229.089858 
L 64.259375 -239.310144 
L 58.679375 -249.32396 
L 53.099375 -259.1375 
z
" id="mab2011640a" style="stroke:#dc143c;stroke-opacity:0.2;"/>
    </defs>
    <g clip-path="url(#pf481c9e7da)">
     <use style="fill:#dc143c;fill-opacity:0.2;stroke:#dc143c;stroke-opacity:0.2;" x="0" xlink:href="#mab2011640a" y="501.2885"/>
    </g>
   </g>
   <g id="matplotlib.axis_1">
    <g id="xtick_1">
     <g id="line2d_1">
      <path clip-path="url(#pf481c9e7da)" d="M 53.099375 459.591 
L 53.099375 24.711 
" style="fill:none;stroke:#b0b0b0;stroke-linecap:square;stroke-width:0.8;"/>
     </g>
     <g id="line2d_2">
      <defs>
       <path d="M 0 0 
L 0 3.5 
" id="m438e6303ea" style="stroke:#000000;stroke-width:0.8;"/>
      </defs>
      <g>
       <use style="stroke:#000000;stroke-width:0.8;" x="53.099375" xlink:href="#m438e6303ea" y="459.591"/>
      </g>
     </g>
     <g id="text_1">
      <!-- 0.0 -->
      <defs>
       <path d="M 4.4375 36.328125 
Q 4.4375 56.34375 11.078125 66.625 
Q 17.71875 76.90625 30.328125 76.90625 
Q 54.34375 76.90625 54.34375 38.140625 
Q 54.34375 19 47.578125 8.859375 
Q 40.828125 -1.265625 28.609375 -1.265625 
Q 17.09375 -1.265625 10.765625 8.34375 
Q 4.4375 17.96875 4.4375 36.328125 
z
M 14.203125 36.765625 
Q 14.203125 6.640625 29.5 6.640625 
Q 44.53125 6.640625 44.53125 37.25 
Q 44.53125 68.953125 29.78125 68.953125 
Q 14.203125 68.953125 14.203125 36.765625 
z
" id="MicrosoftYaHei-48"/>
       <path d="M 5.8125 5.03125 
Q 5.8125 7.671875 7.609375 9.46875 
Q 9.421875 11.28125 12.109375 11.28125 
Q 14.84375 11.28125 16.640625 9.453125 
Q 18.453125 7.625 18.453125 5.03125 
Q 18.453125 2.484375 16.640625 0.65625 
Q 14.84375 -1.171875 12.0625 -1.171875 
Q 9.375 -1.171875 7.59375 0.65625 
Q 5.8125 2.484375 5.8125 5.03125 
z
" id="MicrosoftYaHei-46"/>
      </defs>
      <g transform="translate(44.617812 476.1835)scale(0.12 -0.12)">
       <use xlink:href="#MicrosoftYaHei-48"/>
       <use x="58.642578" xlink:href="#MicrosoftYaHei-46"/>
       <use x="82.714844" xlink:href="#MicrosoftYaHei-48"/>
      </g>
     </g>
    </g>
    <g id="xtick_2">
     <g id="line2d_3">
      <path clip-path="url(#pf481c9e7da)" d="M 164.699375 459.591 
L 164.699375 24.711 
" style="fill:none;stroke:#b0b0b0;stroke-linecap:square;stroke-width:0.8;"/>
     </g>
     <g id="line2d_4">
      <g>
       <use style="stroke:#000000;stroke-width:0.8;" x="164.699375" xlink:href="#m438e6303ea" y="459.591"/>
      </g>
     </g>
     <g id="text_2">
      <!-- 0.2 -->
      <defs>
       <path d="M 41.65625 55.8125 
Q 41.65625 61.921875 37.796875 65.40625 
Q 33.9375 68.890625 27.296875 68.890625 
Q 22.609375 68.890625 17.8125 66.5 
Q 13.03125 64.109375 8.890625 59.671875 
L 8.890625 68.953125 
Q 12.59375 72.796875 17.296875 74.84375 
Q 22.015625 76.90625 28.375 76.90625 
Q 38.625 76.90625 44.875 71.40625 
Q 51.125 65.921875 51.125 56.546875 
Q 51.125 48.1875 47.28125 42.078125 
Q 43.453125 35.984375 34.1875 29.59375 
Q 24.703125 23.046875 21.5 20.21875 
Q 18.3125 17.390625 17.03125 14.796875 
Q 15.765625 12.203125 15.765625 8.5 
L 53.375 8.5 
L 53.375 0 
L 5.8125 0 
L 5.8125 3.765625 
Q 5.8125 10.296875 7.59375 14.859375 
Q 9.375 19.4375 13.46875 23.75 
Q 17.578125 28.078125 26.265625 34.125 
Q 35.15625 40.375 38.40625 45.09375 
Q 41.65625 49.8125 41.65625 55.8125 
z
" id="MicrosoftYaHei-50"/>
      </defs>
      <g transform="translate(156.217813 476.1835)scale(0.12 -0.12)">
       <use xlink:href="#MicrosoftYaHei-48"/>
       <use x="58.642578" xlink:href="#MicrosoftYaHei-46"/>
       <use x="82.714844" xlink:href="#MicrosoftYaHei-50"/>
      </g>
     </g>
    </g>
    <g id="xtick_3">
     <g id="line2d_5">
      <path clip-path="url(#pf481c9e7da)" d="M 276.299375 459.591 
L 276.299375 24.711 
" style="fill:none;stroke:#b0b0b0;stroke-linecap:square;stroke-width:0.8;"/>
     </g>
     <g id="line2d_6">
      <g>
       <use style="stroke:#000000;stroke-width:0.8;" x="276.299375" xlink:href="#m438e6303ea" y="459.591"/>
      </g>
     </g>
     <g id="text_3">
      <!-- 0.4 -->
      <defs>
       <path d="M 45.40625 75.640625 
L 45.40625 25.6875 
L 56.734375 25.6875 
L 56.734375 17.78125 
L 45.40625 17.78125 
L 45.40625 0 
L 36.140625 0 
L 36.140625 17.78125 
L 0.828125 17.78125 
L 0.828125 25.25 
Q 10.25 35.84375 19.765625 49.65625 
Q 29.296875 63.484375 35.5 75.640625 
z
M 11.578125 25.6875 
L 36.140625 25.6875 
L 36.140625 61.71875 
Q 31.0625 52.59375 25.25 44.015625 
Q 19.4375 35.453125 11.578125 25.6875 
z
" id="MicrosoftYaHei-52"/>
      </defs>
      <g transform="translate(267.817813 476.1835)scale(0.12 -0.12)">
       <use xlink:href="#MicrosoftYaHei-48"/>
       <use x="58.642578" xlink:href="#MicrosoftYaHei-46"/>
       <use x="82.714844" xlink:href="#MicrosoftYaHei-52"/>
      </g>
     </g>
    </g>
    <g id="xtick_4">
     <g id="line2d_7">
      <path clip-path="url(#pf481c9e7da)" d="M 387.899375 459.591 
L 387.899375 24.711 
" style="fill:none;stroke:#b0b0b0;stroke-linecap:square;stroke-width:0.8;"/>
     </g>
     <g id="line2d_8">
      <g>
       <use style="stroke:#000000;stroke-width:0.8;" x="387.899375" xlink:href="#m438e6303ea" y="459.591"/>
      </g>
     </g>
     <g id="text_4">
      <!-- 0.6 -->
      <defs>
       <path d="M 49.703125 65.921875 
Q 43.796875 68.953125 37.359375 68.953125 
Q 27.546875 68.953125 21.578125 60.40625 
Q 15.625 51.859375 15.53125 37.0625 
L 15.765625 37.0625 
Q 21.140625 47.46875 32.90625 47.46875 
Q 42.71875 47.46875 48.578125 41.0625 
Q 54.4375 34.671875 54.4375 24.078125 
Q 54.4375 12.984375 47.671875 5.859375 
Q 40.921875 -1.265625 30.421875 -1.265625 
Q 18.890625 -1.265625 12.328125 7.734375 
Q 5.765625 16.75 5.765625 33.296875 
Q 5.765625 53.328125 14.375 65.109375 
Q 23 76.90625 37.0625 76.90625 
Q 45.125 76.90625 49.703125 74.703125 
z
M 16.109375 24.75 
Q 16.109375 17.28125 20.09375 11.953125 
Q 24.078125 6.640625 30.671875 6.640625 
Q 36.921875 6.640625 40.828125 11.234375 
Q 44.734375 15.828125 44.734375 23.046875 
Q 44.734375 30.859375 41.046875 35.203125 
Q 37.359375 39.546875 30.5625 39.546875 
Q 24.125 39.546875 20.109375 35.15625 
Q 16.109375 30.765625 16.109375 24.75 
z
" id="MicrosoftYaHei-54"/>
      </defs>
      <g transform="translate(379.417813 476.1835)scale(0.12 -0.12)">
       <use xlink:href="#MicrosoftYaHei-48"/>
       <use x="58.642578" xlink:href="#MicrosoftYaHei-46"/>
       <use x="82.714844" xlink:href="#MicrosoftYaHei-54"/>
      </g>
     </g>
    </g>
    <g id="xtick_5">
     <g id="line2d_9">
      <path clip-path="url(#pf481c9e7da)" d="M 499.499375 459.591 
L 499.499375 24.711 
" style="fill:none;stroke:#b0b0b0;stroke-linecap:square;stroke-width:0.8;"/>
     </g>
     <g id="line2d_10">
      <g>
       <use style="stroke:#000000;stroke-width:0.8;" x="499.499375" xlink:href="#m438e6303ea" y="459.591"/>
      </g>
     </g>
     <g id="text_5">
      <!-- 0.8 -->
      <defs>
       <path d="M 4.78125 21.09375 
Q 4.78125 27.640625 8.6875 33.15625 
Q 12.59375 38.671875 18.75 41.015625 
Q 13.8125 43.796875 10.9375 48.140625 
Q 8.0625 52.484375 8.0625 57.5625 
Q 8.0625 62.9375 10.8125 67.375 
Q 13.578125 71.828125 18.484375 74.359375 
Q 23.390625 76.90625 29.296875 76.90625 
Q 35.25 76.90625 40.1875 74.390625 
Q 45.125 71.875 47.859375 67.421875 
Q 50.59375 62.984375 50.59375 57.5625 
Q 50.59375 52.59375 47.78125 48.21875 
Q 44.96875 43.84375 39.984375 41.015625 
Q 46.140625 38.625 50 33.109375 
Q 53.859375 27.59375 53.859375 21.09375 
Q 53.859375 14.65625 50.78125 9.546875 
Q 47.703125 4.4375 42.03125 1.609375 
Q 36.375 -1.21875 29.296875 -1.21875 
Q 22.265625 -1.21875 16.640625 1.609375 
Q 11.03125 4.4375 7.90625 9.5625 
Q 4.78125 14.703125 4.78125 21.09375 
z
M 14.15625 21.53125 
Q 14.15625 14.796875 18.3125 10.734375 
Q 22.46875 6.6875 29.34375 6.6875 
Q 36.078125 6.6875 40.34375 10.8125 
Q 44.625 14.9375 44.625 21.53125 
Q 44.625 27.78125 40.296875 32.046875 
Q 35.984375 36.328125 29.34375 36.328125 
Q 22.75 36.328125 18.453125 32.15625 
Q 14.15625 27.984375 14.15625 21.53125 
z
M 16.890625 56.78125 
Q 16.890625 51.703125 20.5 48.0625 
Q 24.125 44.4375 29.34375 44.4375 
Q 34.46875 44.4375 38.203125 48.09375 
Q 41.9375 51.765625 41.9375 56.78125 
Q 41.9375 61.921875 38.34375 65.484375 
Q 34.765625 69.046875 29.34375 69.046875 
Q 23.96875 69.046875 20.421875 65.546875 
Q 16.890625 62.0625 16.890625 56.78125 
z
" id="MicrosoftYaHei-56"/>
      </defs>
      <g transform="translate(491.017813 476.1835)scale(0.12 -0.12)">
       <use xlink:href="#MicrosoftYaHei-48"/>
       <use x="58.642578" xlink:href="#MicrosoftYaHei-46"/>
       <use x="82.714844" xlink:href="#MicrosoftYaHei-56"/>
      </g>
     </g>
    </g>
    <g id="xtick_6">
     <g id="line2d_11">
      <path clip-path="url(#pf481c9e7da)" d="M 611.099375 459.591 
L 611.099375 24.711 
" style="fill:none;stroke:#b0b0b0;stroke-linecap:square;stroke-width:0.8;"/>
     </g>
     <g id="line2d_12">
      <g>
       <use style="stroke:#000000;stroke-width:0.8;" x="611.099375" xlink:href="#m438e6303ea" y="459.591"/>
      </g>
     </g>
     <g id="text_6">
      <!-- 1.0 -->
      <defs>
       <path d="M 27.828125 0 
L 27.828125 64.703125 
Q 25.59375 62.453125 20.234375 59.671875 
Q 14.890625 56.890625 10.359375 55.765625 
L 10.359375 65.140625 
Q 16.359375 66.796875 23.1875 70.4375 
Q 30.03125 74.078125 33.6875 77.296875 
L 37.3125 77.296875 
L 37.3125 0 
z
" id="MicrosoftYaHei-49"/>
      </defs>
      <g transform="translate(602.617813 476.1835)scale(0.12 -0.12)">
       <use xlink:href="#MicrosoftYaHei-49"/>
       <use x="58.642578" xlink:href="#MicrosoftYaHei-46"/>
       <use x="82.714844" xlink:href="#MicrosoftYaHei-48"/>
      </g>
     </g>
    </g>
    <g id="text_7">
     <!-- Threshold Probability -->
     <defs>
      <path d="M 57.859375 66.21875 
L 58.59375 50.6875 
L 56.734375 50.6875 
Q 56.203125 54.78125 55.28125 56.546875 
Q 53.765625 59.375 51.25 60.71875 
Q 48.734375 62.0625 44.625 62.0625 
L 35.296875 62.0625 
L 35.296875 11.46875 
Q 35.296875 5.375 36.625 3.859375 
Q 38.484375 1.8125 42.328125 1.8125 
L 44.625 1.8125 
L 44.625 0 
L 16.546875 0 
L 16.546875 1.8125 
L 18.890625 1.8125 
Q 23.09375 1.8125 24.859375 4.34375 
Q 25.921875 5.90625 25.921875 11.46875 
L 25.921875 62.0625 
L 17.96875 62.0625 
Q 13.328125 62.0625 11.375 61.375 
Q 8.84375 60.453125 7.03125 57.8125 
Q 5.21875 55.171875 4.890625 50.6875 
L 3.03125 50.6875 
L 3.8125 66.21875 
z
" id="TimesNewRomanPSMT-84"/>
      <path d="M 16.265625 69.4375 
L 16.265625 36.71875 
Q 21.6875 42.671875 24.859375 44.359375 
Q 28.03125 46.046875 31.203125 46.046875 
Q 35.015625 46.046875 37.75 43.9375 
Q 40.484375 41.84375 41.796875 37.359375 
Q 42.71875 34.234375 42.71875 25.921875 
L 42.71875 10.109375 
Q 42.71875 5.859375 43.40625 4.296875 
Q 43.890625 3.125 45.0625 2.4375 
Q 46.234375 1.765625 49.359375 1.765625 
L 49.359375 0 
L 27.390625 0 
L 27.390625 1.765625 
L 28.421875 1.765625 
Q 31.546875 1.765625 32.765625 2.703125 
Q 33.984375 3.65625 34.46875 5.515625 
Q 34.625 6.296875 34.625 10.109375 
L 34.625 25.921875 
Q 34.625 33.25 33.859375 35.546875 
Q 33.109375 37.84375 31.4375 38.984375 
Q 29.78125 40.140625 27.4375 40.140625 
Q 25.046875 40.140625 22.453125 38.859375 
Q 19.875 37.59375 16.265625 33.734375 
L 16.265625 10.109375 
Q 16.265625 5.515625 16.765625 4.390625 
Q 17.28125 3.265625 18.671875 2.515625 
Q 20.0625 1.765625 23.484375 1.765625 
L 23.484375 0 
L 1.3125 0 
L 1.3125 1.765625 
Q 4.296875 1.765625 6 2.6875 
Q 6.984375 3.171875 7.5625 4.53125 
Q 8.15625 5.90625 8.15625 10.109375 
L 8.15625 50.59375 
Q 8.15625 58.25 7.78125 60 
Q 7.421875 61.765625 6.65625 62.390625 
Q 5.90625 63.03125 4.640625 63.03125 
Q 3.609375 63.03125 1.3125 62.25 
L 0.640625 63.96875 
L 14.015625 69.4375 
z
" id="TimesNewRomanPSMT-104"/>
      <path d="M 16.21875 46.046875 
L 16.21875 35.984375 
Q 21.828125 46.046875 27.734375 46.046875 
Q 30.421875 46.046875 32.171875 44.40625 
Q 33.9375 42.78125 33.9375 40.625 
Q 33.9375 38.71875 32.65625 37.390625 
Q 31.390625 36.078125 29.640625 36.078125 
Q 27.9375 36.078125 25.8125 37.765625 
Q 23.6875 39.453125 22.65625 39.453125 
Q 21.78125 39.453125 20.75 38.484375 
Q 18.5625 36.46875 16.21875 31.890625 
L 16.21875 10.453125 
Q 16.21875 6.734375 17.140625 4.828125 
Q 17.78125 3.515625 19.390625 2.640625 
Q 21 1.765625 24.03125 1.765625 
L 24.03125 0 
L 1.125 0 
L 1.125 1.765625 
Q 4.546875 1.765625 6.203125 2.828125 
Q 7.421875 3.609375 7.90625 5.328125 
Q 8.15625 6.15625 8.15625 10.0625 
L 8.15625 27.390625 
Q 8.15625 35.203125 7.828125 36.6875 
Q 7.515625 38.1875 6.65625 38.859375 
Q 5.8125 39.546875 4.546875 39.546875 
Q 3.03125 39.546875 1.125 38.8125 
L 0.640625 40.578125 
L 14.15625 46.046875 
z
" id="TimesNewRomanPSMT-114"/>
      <path d="M 10.640625 27.875 
Q 10.59375 17.921875 15.484375 12.25 
Q 20.359375 6.59375 26.953125 6.59375 
Q 31.34375 6.59375 34.59375 9 
Q 37.84375 11.421875 40.046875 17.28125 
L 41.546875 16.3125 
Q 40.53125 9.625 35.59375 4.125 
Q 30.671875 -1.375 23.25 -1.375 
Q 15.1875 -1.375 9.453125 4.90625 
Q 3.71875 11.1875 3.71875 21.78125 
Q 3.71875 33.25 9.59375 39.671875 
Q 15.484375 46.09375 24.359375 46.09375 
Q 31.890625 46.09375 36.71875 41.140625 
Q 41.546875 36.1875 41.546875 27.875 
z
M 10.640625 30.71875 
L 31.34375 30.71875 
Q 31.109375 35.015625 30.328125 36.765625 
Q 29.109375 39.5 26.6875 41.0625 
Q 24.265625 42.625 21.625 42.625 
Q 17.578125 42.625 14.375 39.46875 
Q 11.1875 36.328125 10.640625 30.71875 
z
" id="TimesNewRomanPSMT-101"/>
      <path d="M 32.03125 46.046875 
L 32.03125 30.8125 
L 30.421875 30.8125 
Q 28.5625 37.984375 25.65625 40.578125 
Q 22.75 43.171875 18.265625 43.171875 
Q 14.84375 43.171875 12.734375 41.359375 
Q 10.640625 39.546875 10.640625 37.359375 
Q 10.640625 34.625 12.203125 32.671875 
Q 13.71875 30.671875 18.359375 28.421875 
L 25.484375 24.953125 
Q 35.40625 20.125 35.40625 12.203125 
Q 35.40625 6.109375 30.78125 2.359375 
Q 26.171875 -1.375 20.453125 -1.375 
Q 16.359375 -1.375 11.078125 0.09375 
Q 9.46875 0.59375 8.453125 0.59375 
Q 7.328125 0.59375 6.6875 -0.6875 
L 5.078125 -0.6875 
L 5.078125 15.28125 
L 6.6875 15.28125 
Q 8.0625 8.453125 11.90625 4.984375 
Q 15.765625 1.515625 20.5625 1.515625 
Q 23.921875 1.515625 26.046875 3.484375 
Q 28.171875 5.46875 28.171875 8.25 
Q 28.171875 11.625 25.796875 13.921875 
Q 23.4375 16.21875 16.359375 19.734375 
Q 9.28125 23.25 7.078125 26.078125 
Q 4.890625 28.859375 4.890625 33.109375 
Q 4.890625 38.625 8.671875 42.328125 
Q 12.453125 46.046875 18.453125 46.046875 
Q 21.09375 46.046875 24.859375 44.921875 
Q 27.34375 44.1875 28.171875 44.1875 
Q 28.953125 44.1875 29.390625 44.53125 
Q 29.828125 44.875 30.421875 46.046875 
z
" id="TimesNewRomanPSMT-115"/>
      <path d="M 25 46.046875 
Q 35.15625 46.046875 41.3125 38.328125 
Q 46.53125 31.734375 46.53125 23.1875 
Q 46.53125 17.1875 43.640625 11.03125 
Q 40.765625 4.890625 35.71875 1.75 
Q 30.671875 -1.375 24.46875 -1.375 
Q 14.359375 -1.375 8.40625 6.6875 
Q 3.375 13.484375 3.375 21.921875 
Q 3.375 28.078125 6.421875 34.15625 
Q 9.46875 40.234375 14.453125 43.140625 
Q 19.4375 46.046875 25 46.046875 
z
M 23.484375 42.875 
Q 20.90625 42.875 18.28125 41.328125 
Q 15.671875 39.796875 14.0625 35.9375 
Q 12.453125 32.078125 12.453125 26.03125 
Q 12.453125 16.265625 16.328125 9.171875 
Q 20.21875 2.09375 26.5625 2.09375 
Q 31.296875 2.09375 34.375 6 
Q 37.453125 9.90625 37.453125 19.4375 
Q 37.453125 31.34375 32.328125 38.1875 
Q 28.859375 42.875 23.484375 42.875 
z
" id="TimesNewRomanPSMT-111"/>
      <path d="M 18.5 69.4375 
L 18.5 10.109375 
Q 18.5 5.90625 19.109375 4.53125 
Q 19.734375 3.171875 21 2.46875 
Q 22.265625 1.765625 25.734375 1.765625 
L 25.734375 0 
L 3.8125 0 
L 3.8125 1.765625 
Q 6.890625 1.765625 8 2.390625 
Q 9.125 3.03125 9.765625 4.484375 
Q 10.40625 5.953125 10.40625 10.109375 
L 10.40625 50.734375 
Q 10.40625 58.296875 10.0625 60.03125 
Q 9.71875 61.765625 8.953125 62.390625 
Q 8.203125 63.03125 7.03125 63.03125 
Q 5.765625 63.03125 3.8125 62.25 
L 2.984375 63.96875 
L 16.3125 69.4375 
z
" id="TimesNewRomanPSMT-108"/>
      <path d="M 34.71875 5.03125 
Q 31.453125 1.609375 28.328125 0.109375 
Q 25.203125 -1.375 21.578125 -1.375 
Q 14.265625 -1.375 8.796875 4.75 
Q 3.328125 10.890625 3.328125 20.515625 
Q 3.328125 30.125 9.375 38.109375 
Q 15.4375 46.09375 24.953125 46.09375 
Q 30.859375 46.09375 34.71875 42.328125 
L 34.71875 50.59375 
Q 34.71875 58.25 34.34375 60 
Q 33.984375 61.765625 33.203125 62.390625 
Q 32.421875 63.03125 31.25 63.03125 
Q 29.984375 63.03125 27.875 62.25 
L 27.25 63.96875 
L 40.578125 69.4375 
L 42.78125 69.4375 
L 42.78125 17.71875 
Q 42.78125 9.859375 43.140625 8.125 
Q 43.5 6.390625 44.3125 5.703125 
Q 45.125 5.03125 46.1875 5.03125 
Q 47.515625 5.03125 49.703125 5.859375 
L 50.25 4.15625 
L 36.96875 -1.375 
L 34.71875 -1.375 
z
M 34.71875 8.453125 
L 34.71875 31.5 
Q 34.421875 34.8125 32.953125 37.546875 
Q 31.5 40.28125 29.078125 41.671875 
Q 26.65625 43.0625 24.359375 43.0625 
Q 20.0625 43.0625 16.703125 39.203125 
Q 12.25 34.125 12.25 24.359375 
Q 12.25 14.5 16.546875 9.25 
Q 20.84375 4 26.125 4 
Q 30.5625 4 34.71875 8.453125 
z
" id="TimesNewRomanPSMT-100"/>
      <path id="TimesNewRomanPSMT-32"/>
      <path d="M 20.515625 31 
L 20.515625 11.71875 
Q 20.515625 5.46875 21.875 3.953125 
Q 23.734375 1.8125 27.484375 1.8125 
L 30.03125 1.8125 
L 30.03125 0 
L 1.65625 0 
L 1.65625 1.8125 
L 4.15625 1.8125 
Q 8.34375 1.8125 10.15625 4.546875 
Q 11.140625 6.0625 11.140625 11.71875 
L 11.140625 54.5 
Q 11.140625 60.75 9.8125 62.25 
Q 7.90625 64.40625 4.15625 64.40625 
L 1.65625 64.40625 
L 1.65625 66.21875 
L 25.921875 66.21875 
Q 34.8125 66.21875 39.9375 64.375 
Q 45.0625 62.546875 48.578125 58.203125 
Q 52.09375 53.859375 52.09375 47.90625 
Q 52.09375 39.796875 46.75 34.71875 
Q 41.40625 29.640625 31.640625 29.640625 
Q 29.25 29.640625 26.46875 29.984375 
Q 23.6875 30.328125 20.515625 31 
z
M 20.515625 33.796875 
Q 23.09375 33.296875 25.09375 33.046875 
Q 27.09375 32.8125 28.515625 32.8125 
Q 33.59375 32.8125 37.28125 36.734375 
Q 40.96875 40.671875 40.96875 46.921875 
Q 40.96875 51.21875 39.203125 54.90625 
Q 37.453125 58.59375 34.21875 60.421875 
Q 31 62.25 26.90625 62.25 
Q 24.421875 62.25 20.515625 61.328125 
z
" id="TimesNewRomanPSMT-80"/>
      <path d="M 15.375 37.015625 
Q 21.875 46.046875 29.390625 46.046875 
Q 36.28125 46.046875 41.40625 40.15625 
Q 46.53125 34.28125 46.53125 24.078125 
Q 46.53125 12.15625 38.625 4.890625 
Q 31.84375 -1.375 23.484375 -1.375 
Q 19.578125 -1.375 15.546875 0.046875 
Q 11.53125 1.46875 7.328125 4.296875 
L 7.328125 50.640625 
Q 7.328125 58.25 6.953125 60 
Q 6.59375 61.765625 5.8125 62.390625 
Q 5.03125 63.03125 3.859375 63.03125 
Q 2.484375 63.03125 0.4375 62.25 
L -0.25 63.96875 
L 13.1875 69.4375 
L 15.375 69.4375 
z
M 15.375 33.890625 
L 15.375 7.125 
Q 17.875 4.6875 20.53125 3.4375 
Q 23.1875 2.203125 25.984375 2.203125 
Q 30.421875 2.203125 34.25 7.078125 
Q 38.09375 11.96875 38.09375 21.296875 
Q 38.09375 29.890625 34.25 34.5 
Q 30.421875 39.109375 25.53125 39.109375 
Q 22.953125 39.109375 20.359375 37.796875 
Q 18.40625 36.8125 15.375 33.890625 
z
" id="TimesNewRomanPSMT-98"/>
      <path d="M 28.46875 6.453125 
Q 21.578125 1.125 19.828125 0.296875 
Q 17.1875 -0.921875 14.203125 -0.921875 
Q 9.578125 -0.921875 6.5625 2.25 
Q 3.5625 5.421875 3.5625 10.59375 
Q 3.5625 13.875 5.03125 16.265625 
Q 7.03125 19.578125 11.984375 22.5 
Q 16.9375 25.4375 28.46875 29.640625 
L 28.46875 31.390625 
Q 28.46875 38.09375 26.34375 40.578125 
Q 24.21875 43.0625 20.171875 43.0625 
Q 17.09375 43.0625 15.28125 41.40625 
Q 13.421875 39.75 13.421875 37.59375 
L 13.53125 34.765625 
Q 13.53125 32.515625 12.375 31.296875 
Q 11.234375 30.078125 9.375 30.078125 
Q 7.5625 30.078125 6.421875 31.34375 
Q 5.28125 32.625 5.28125 34.8125 
Q 5.28125 39.015625 9.578125 42.53125 
Q 13.875 46.046875 21.625 46.046875 
Q 27.59375 46.046875 31.390625 44.046875 
Q 34.28125 42.53125 35.640625 39.3125 
Q 36.53125 37.203125 36.53125 30.71875 
L 36.53125 15.53125 
Q 36.53125 9.125 36.765625 7.6875 
Q 37.015625 6.25 37.578125 5.765625 
Q 38.140625 5.28125 38.875 5.28125 
Q 39.65625 5.28125 40.234375 5.609375 
Q 41.265625 6.25 44.1875 9.1875 
L 44.1875 6.453125 
Q 38.71875 -0.875 33.734375 -0.875 
Q 31.34375 -0.875 29.921875 0.78125 
Q 28.515625 2.4375 28.46875 6.453125 
z
M 28.46875 9.625 
L 28.46875 26.65625 
Q 21.09375 23.734375 18.953125 22.515625 
Q 15.09375 20.359375 13.421875 18.015625 
Q 11.765625 15.671875 11.765625 12.890625 
Q 11.765625 9.375 13.859375 7.046875 
Q 15.96875 4.734375 18.703125 4.734375 
Q 22.40625 4.734375 28.46875 9.625 
z
" id="TimesNewRomanPSMT-97"/>
      <path d="M 14.5 69.4375 
Q 16.546875 69.4375 17.984375 67.984375 
Q 19.4375 66.546875 19.4375 64.5 
Q 19.4375 62.453125 17.984375 60.984375 
Q 16.546875 59.515625 14.5 59.515625 
Q 12.453125 59.515625 10.984375 60.984375 
Q 9.515625 62.453125 9.515625 64.5 
Q 9.515625 66.546875 10.953125 67.984375 
Q 12.40625 69.4375 14.5 69.4375 
z
M 18.5625 46.046875 
L 18.5625 10.109375 
Q 18.5625 5.90625 19.171875 4.515625 
Q 19.78125 3.125 20.96875 2.4375 
Q 22.171875 1.765625 25.34375 1.765625 
L 25.34375 0 
L 3.609375 0 
L 3.609375 1.765625 
Q 6.890625 1.765625 8 2.390625 
Q 9.125 3.03125 9.78125 4.484375 
Q 10.453125 5.953125 10.453125 10.109375 
L 10.453125 27.34375 
Q 10.453125 34.625 10.015625 36.765625 
Q 9.671875 38.328125 8.9375 38.9375 
Q 8.203125 39.546875 6.9375 39.546875 
Q 5.5625 39.546875 3.609375 38.8125 
L 2.9375 40.578125 
L 16.40625 46.046875 
z
" id="TimesNewRomanPSMT-105"/>
      <path d="M 16.109375 59.421875 
L 16.109375 44.734375 
L 26.5625 44.734375 
L 26.5625 41.3125 
L 16.109375 41.3125 
L 16.109375 12.3125 
Q 16.109375 7.953125 17.359375 6.4375 
Q 18.609375 4.9375 20.5625 4.9375 
Q 22.171875 4.9375 23.6875 5.9375 
Q 25.203125 6.9375 26.03125 8.890625 
L 27.9375 8.890625 
Q 26.21875 4.109375 23.09375 1.6875 
Q 19.96875 -0.734375 16.65625 -0.734375 
Q 14.40625 -0.734375 12.25 0.515625 
Q 10.109375 1.765625 9.078125 4.078125 
Q 8.0625 6.390625 8.0625 11.234375 
L 8.0625 41.3125 
L 0.984375 41.3125 
L 0.984375 42.921875 
Q 3.65625 44 6.46875 46.5625 
Q 9.28125 49.125 11.46875 52.640625 
Q 12.59375 54.5 14.59375 59.421875 
z
" id="TimesNewRomanPSMT-116"/>
      <path d="M 0.59375 44.734375 
L 21.4375 44.734375 
L 21.4375 42.921875 
L 20.40625 42.921875 
Q 18.21875 42.921875 17.109375 41.96875 
Q 16.015625 41.015625 16.015625 39.59375 
Q 16.015625 37.703125 17.625 34.328125 
L 28.515625 11.765625 
L 38.53125 36.46875 
Q 39.359375 38.484375 39.359375 40.4375 
Q 39.359375 41.3125 39.015625 41.75 
Q 38.625 42.28125 37.796875 42.59375 
Q 36.96875 42.921875 34.859375 42.921875 
L 34.859375 44.734375 
L 49.421875 44.734375 
L 49.421875 42.921875 
Q 47.609375 42.71875 46.625 42.125 
Q 45.65625 41.546875 44.484375 39.9375 
Q 44.046875 39.265625 42.828125 36.1875 
L 24.609375 -8.453125 
Q 21.96875 -14.9375 17.6875 -18.25 
Q 13.421875 -21.578125 9.46875 -21.578125 
Q 6.59375 -21.578125 4.734375 -19.921875 
Q 2.875 -18.265625 2.875 -16.109375 
Q 2.875 -14.0625 4.21875 -12.8125 
Q 5.5625 -11.578125 7.90625 -11.578125 
Q 9.515625 -11.578125 12.3125 -12.640625 
Q 14.265625 -13.375 14.75 -13.375 
Q 16.21875 -13.375 17.9375 -11.859375 
Q 19.671875 -10.359375 21.4375 -6 
L 24.609375 1.765625 
L 8.546875 35.5 
Q 7.8125 37.015625 6.203125 39.265625 
Q 4.984375 40.96875 4.203125 41.546875 
Q 3.078125 42.328125 0.59375 42.921875 
z
" id="TimesNewRomanPSMT-121"/>
     </defs>
     <g transform="translate(279.605937 491.499125)scale(0.12 -0.12)">
      <use xlink:href="#TimesNewRomanPSMT-84"/>
      <use x="61.083984" xlink:href="#TimesNewRomanPSMT-104"/>
      <use x="111.083984" xlink:href="#TimesNewRomanPSMT-114"/>
      <use x="144.384766" xlink:href="#TimesNewRomanPSMT-101"/>
      <use x="188.769531" xlink:href="#TimesNewRomanPSMT-115"/>
      <use x="227.685547" xlink:href="#TimesNewRomanPSMT-104"/>
      <use x="277.685547" xlink:href="#TimesNewRomanPSMT-111"/>
      <use x="327.685547" xlink:href="#TimesNewRomanPSMT-108"/>
      <use x="355.46875" xlink:href="#TimesNewRomanPSMT-100"/>
      <use x="405.46875" xlink:href="#TimesNewRomanPSMT-32"/>
      <use x="430.46875" xlink:href="#TimesNewRomanPSMT-80"/>
      <use x="486.083984" xlink:href="#TimesNewRomanPSMT-114"/>
      <use x="519.384766" xlink:href="#TimesNewRomanPSMT-111"/>
      <use x="569.384766" xlink:href="#TimesNewRomanPSMT-98"/>
      <use x="619.384766" xlink:href="#TimesNewRomanPSMT-97"/>
      <use x="663.769531" xlink:href="#TimesNewRomanPSMT-98"/>
      <use x="713.769531" xlink:href="#TimesNewRomanPSMT-105"/>
      <use x="741.552734" xlink:href="#TimesNewRomanPSMT-108"/>
      <use x="769.335938" xlink:href="#TimesNewRomanPSMT-105"/>
      <use x="797.119141" xlink:href="#TimesNewRomanPSMT-116"/>
      <use x="824.902344" xlink:href="#TimesNewRomanPSMT-121"/>
     </g>
    </g>
   </g>
   <g id="matplotlib.axis_2">
    <g id="ytick_1">
     <g id="line2d_13">
      <path clip-path="url(#pf481c9e7da)" d="M 53.099375 430.290574 
L 611.099375 430.290574 
" style="fill:none;stroke:#b0b0b0;stroke-linecap:square;stroke-width:0.8;"/>
     </g>
     <g id="line2d_14">
      <defs>
       <path d="M 0 0 
L -3.5 0 
" id="m5a058628e3" style="stroke:#000000;stroke-width:0.8;"/>
      </defs>
      <g>
       <use style="stroke:#000000;stroke-width:0.8;" x="53.099375" xlink:href="#m5a058628e3" y="430.290574"/>
      </g>
     </g>
     <g id="text_8">
      <!-- 0.20 -->
      <g transform="translate(22.099375 435.086824)scale(0.12 -0.12)">
       <use xlink:href="#MicrosoftYaHei-48"/>
       <use x="58.642578" xlink:href="#MicrosoftYaHei-46"/>
       <use x="82.714844" xlink:href="#MicrosoftYaHei-50"/>
       <use x="141.357422" xlink:href="#MicrosoftYaHei-48"/>
      </g>
     </g>
    </g>
    <g id="ytick_2">
     <g id="line2d_15">
      <path clip-path="url(#pf481c9e7da)" d="M 53.099375 357.810574 
L 611.099375 357.810574 
" style="fill:none;stroke:#b0b0b0;stroke-linecap:square;stroke-width:0.8;"/>
     </g>
     <g id="line2d_16">
      <g>
       <use style="stroke:#000000;stroke-width:0.8;" x="53.099375" xlink:href="#m5a058628e3" y="357.810574"/>
      </g>
     </g>
     <g id="text_9">
      <!-- 0.25 -->
      <defs>
       <path d="M 51.46875 23.34375 
Q 51.46875 12.25 44.109375 5.46875 
Q 36.765625 -1.3125 24.359375 -1.3125 
Q 13.71875 -1.3125 8.5 1.859375 
L 8.5 11.625 
Q 16.15625 6.640625 24.125 6.640625 
Q 32.03125 6.640625 36.890625 11 
Q 41.75 15.375 41.75 22.609375 
Q 41.75 29.828125 36.6875 33.859375 
Q 31.640625 37.890625 22.40625 37.890625 
Q 15.28125 37.890625 9.578125 37.25 
L 12.359375 75.640625 
L 47.703125 75.640625 
L 47.703125 67.234375 
L 20.40625 67.234375 
L 18.84375 45.796875 
L 25.734375 46.09375 
Q 37.75 46.09375 44.609375 40.109375 
Q 51.46875 34.125 51.46875 23.34375 
z
" id="MicrosoftYaHei-53"/>
      </defs>
      <g transform="translate(22.099375 362.606824)scale(0.12 -0.12)">
       <use xlink:href="#MicrosoftYaHei-48"/>
       <use x="58.642578" xlink:href="#MicrosoftYaHei-46"/>
       <use x="82.714844" xlink:href="#MicrosoftYaHei-50"/>
       <use x="141.357422" xlink:href="#MicrosoftYaHei-53"/>
      </g>
     </g>
    </g>
    <g id="ytick_3">
     <g id="line2d_17">
      <path clip-path="url(#pf481c9e7da)" d="M 53.099375 285.330574 
L 611.099375 285.330574 
" style="fill:none;stroke:#b0b0b0;stroke-linecap:square;stroke-width:0.8;"/>
     </g>
     <g id="line2d_18">
      <g>
       <use style="stroke:#000000;stroke-width:0.8;" x="53.099375" xlink:href="#m5a058628e3" y="285.330574"/>
      </g>
     </g>
     <g id="text_10">
      <!-- 0.30 -->
      <defs>
       <path d="M 6.984375 12.640625 
Q 14.75 6.640625 24.515625 6.640625 
Q 32.328125 6.640625 36.890625 10.46875 
Q 41.453125 14.3125 41.453125 20.75 
Q 41.453125 35.109375 20.90625 35.109375 
L 14.59375 35.109375 
L 14.59375 43.015625 
L 20.609375 43.015625 
Q 38.8125 43.015625 38.8125 56.5 
Q 38.8125 68.953125 24.90625 68.953125 
Q 16.9375 68.953125 9.90625 63.578125 
L 9.90625 72.609375 
Q 17.328125 76.90625 27.25 76.90625 
Q 36.921875 76.90625 42.78125 71.84375 
Q 48.640625 66.796875 48.640625 58.734375 
Q 48.640625 43.890625 33.5 39.65625 
L 33.5 39.453125 
Q 41.703125 38.578125 46.453125 33.671875 
Q 51.21875 28.765625 51.21875 21.4375 
Q 51.21875 11.234375 43.875 4.984375 
Q 36.53125 -1.265625 24.3125 -1.265625 
Q 13.578125 -1.265625 6.984375 2.734375 
z
" id="MicrosoftYaHei-51"/>
      </defs>
      <g transform="translate(22.099375 290.126824)scale(0.12 -0.12)">
       <use xlink:href="#MicrosoftYaHei-48"/>
       <use x="58.642578" xlink:href="#MicrosoftYaHei-46"/>
       <use x="82.714844" xlink:href="#MicrosoftYaHei-51"/>
       <use x="141.357422" xlink:href="#MicrosoftYaHei-48"/>
      </g>
     </g>
    </g>
    <g id="ytick_4">
     <g id="line2d_19">
      <path clip-path="url(#pf481c9e7da)" d="M 53.099375 212.850574 
L 611.099375 212.850574 
" style="fill:none;stroke:#b0b0b0;stroke-linecap:square;stroke-width:0.8;"/>
     </g>
     <g id="line2d_20">
      <g>
       <use style="stroke:#000000;stroke-width:0.8;" x="53.099375" xlink:href="#m5a058628e3" y="212.850574"/>
      </g>
     </g>
     <g id="text_11">
      <!-- 0.35 -->
      <g transform="translate(22.099375 217.646824)scale(0.12 -0.12)">
       <use xlink:href="#MicrosoftYaHei-48"/>
       <use x="58.642578" xlink:href="#MicrosoftYaHei-46"/>
       <use x="82.714844" xlink:href="#MicrosoftYaHei-51"/>
       <use x="141.357422" xlink:href="#MicrosoftYaHei-53"/>
      </g>
     </g>
    </g>
    <g id="ytick_5">
     <g id="line2d_21">
      <path clip-path="url(#pf481c9e7da)" d="M 53.099375 140.370574 
L 611.099375 140.370574 
" style="fill:none;stroke:#b0b0b0;stroke-linecap:square;stroke-width:0.8;"/>
     </g>
     <g id="line2d_22">
      <g>
       <use style="stroke:#000000;stroke-width:0.8;" x="53.099375" xlink:href="#m5a058628e3" y="140.370574"/>
      </g>
     </g>
     <g id="text_12">
      <!-- 0.40 -->
      <g transform="translate(22.099375 145.166824)scale(0.12 -0.12)">
       <use xlink:href="#MicrosoftYaHei-48"/>
       <use x="58.642578" xlink:href="#MicrosoftYaHei-46"/>
       <use x="82.714844" xlink:href="#MicrosoftYaHei-52"/>
       <use x="141.357422" xlink:href="#MicrosoftYaHei-48"/>
      </g>
     </g>
    </g>
    <g id="ytick_6">
     <g id="line2d_23">
      <path clip-path="url(#pf481c9e7da)" d="M 53.099375 67.890574 
L 611.099375 67.890574 
" style="fill:none;stroke:#b0b0b0;stroke-linecap:square;stroke-width:0.8;"/>
     </g>
     <g id="line2d_24">
      <g>
       <use style="stroke:#000000;stroke-width:0.8;" x="53.099375" xlink:href="#m5a058628e3" y="67.890574"/>
      </g>
     </g>
     <g id="text_13">
      <!-- 0.45 -->
      <g transform="translate(22.099375 72.686824)scale(0.12 -0.12)">
       <use xlink:href="#MicrosoftYaHei-48"/>
       <use x="58.642578" xlink:href="#MicrosoftYaHei-46"/>
       <use x="82.714844" xlink:href="#MicrosoftYaHei-52"/>
       <use x="141.357422" xlink:href="#MicrosoftYaHei-53"/>
      </g>
     </g>
    </g>
    <g id="text_14">
     <!-- Net Benefit -->
     <defs>
      <path d="M -1.3125 66.21875 
L 16.65625 66.21875 
L 57.125 16.546875 
L 57.125 54.734375 
Q 57.125 60.84375 55.765625 62.359375 
Q 53.953125 64.40625 50.046875 64.40625 
L 47.75 64.40625 
L 47.75 66.21875 
L 70.796875 66.21875 
L 70.796875 64.40625 
L 68.453125 64.40625 
Q 64.265625 64.40625 62.5 61.859375 
Q 61.421875 60.296875 61.421875 54.734375 
L 61.421875 -1.078125 
L 59.671875 -1.078125 
L 16.015625 52.25 
L 16.015625 11.46875 
Q 16.015625 5.375 17.328125 3.859375 
Q 19.1875 1.8125 23.046875 1.8125 
L 25.390625 1.8125 
L 25.390625 0 
L 2.34375 0 
L 2.34375 1.8125 
L 4.640625 1.8125 
Q 8.890625 1.8125 10.640625 4.34375 
Q 11.71875 5.90625 11.71875 11.46875 
L 11.71875 57.515625 
Q 8.84375 60.890625 7.34375 61.953125 
Q 5.859375 63.03125 2.984375 63.96875 
Q 1.5625 64.40625 -1.3125 64.40625 
z
" id="TimesNewRomanPSMT-78"/>
      <path d="M 46.1875 33.796875 
Q 53.078125 32.328125 56.5 29.109375 
Q 61.234375 24.609375 61.234375 18.109375 
Q 61.234375 13.1875 58.109375 8.671875 
Q 54.984375 4.15625 49.53125 2.078125 
Q 44.09375 0 32.90625 0 
L 1.65625 0 
L 1.65625 1.8125 
L 4.15625 1.8125 
Q 8.296875 1.8125 10.109375 4.4375 
Q 11.234375 6.15625 11.234375 11.71875 
L 11.234375 54.5 
Q 11.234375 60.640625 9.8125 62.25 
Q 7.90625 64.40625 4.15625 64.40625 
L 1.65625 64.40625 
L 1.65625 66.21875 
L 30.28125 66.21875 
Q 38.28125 66.21875 43.109375 65.046875 
Q 50.4375 63.28125 54.296875 58.8125 
Q 58.15625 54.34375 58.15625 48.53125 
Q 58.15625 43.5625 55.125 39.625 
Q 52.09375 35.6875 46.1875 33.796875 
z
M 20.609375 36.421875 
Q 22.40625 36.078125 24.71875 35.90625 
Q 27.046875 35.75 29.828125 35.75 
Q 36.96875 35.75 40.546875 37.28125 
Q 44.140625 38.8125 46.046875 41.984375 
Q 47.953125 45.171875 47.953125 48.921875 
Q 47.953125 54.734375 43.21875 58.828125 
Q 38.484375 62.9375 29.390625 62.9375 
Q 24.515625 62.9375 20.609375 61.859375 
z
M 20.609375 4.78125 
Q 26.265625 3.46875 31.78125 3.46875 
Q 40.625 3.46875 45.265625 7.4375 
Q 49.90625 11.421875 49.90625 17.28125 
Q 49.90625 21.140625 47.796875 24.703125 
Q 45.703125 28.265625 40.96875 30.3125 
Q 36.234375 32.375 29.25 32.375 
Q 26.21875 32.375 24.0625 32.265625 
Q 21.921875 32.171875 20.609375 31.9375 
z
" id="TimesNewRomanPSMT-66"/>
      <path d="M 16.15625 36.578125 
Q 24.03125 46.046875 31.15625 46.046875 
Q 34.8125 46.046875 37.453125 44.21875 
Q 40.09375 42.390625 41.65625 38.1875 
Q 42.71875 35.25 42.71875 29.203125 
L 42.71875 10.109375 
Q 42.71875 5.859375 43.40625 4.34375 
Q 43.953125 3.125 45.140625 2.4375 
Q 46.34375 1.765625 49.5625 1.765625 
L 49.5625 0 
L 27.4375 0 
L 27.4375 1.765625 
L 28.375 1.765625 
Q 31.5 1.765625 32.734375 2.703125 
Q 33.984375 3.65625 34.46875 5.515625 
Q 34.671875 6.25 34.671875 10.109375 
L 34.671875 28.421875 
Q 34.671875 34.515625 33.078125 37.28125 
Q 31.5 40.046875 27.734375 40.046875 
Q 21.921875 40.046875 16.15625 33.6875 
L 16.15625 10.109375 
Q 16.15625 5.5625 16.703125 4.5 
Q 17.390625 3.078125 18.578125 2.421875 
Q 19.78125 1.765625 23.4375 1.765625 
L 23.4375 0 
L 1.3125 0 
L 1.3125 1.765625 
L 2.296875 1.765625 
Q 5.71875 1.765625 6.90625 3.484375 
Q 8.109375 5.21875 8.109375 10.109375 
L 8.109375 26.703125 
Q 8.109375 34.765625 7.734375 36.515625 
Q 7.375 38.28125 6.609375 38.90625 
Q 5.859375 39.546875 4.59375 39.546875 
Q 3.21875 39.546875 1.3125 38.8125 
L 0.59375 40.578125 
L 14.0625 46.046875 
L 16.15625 46.046875 
z
" id="TimesNewRomanPSMT-110"/>
      <path d="M 20.609375 41.21875 
L 20.609375 11.8125 
Q 20.609375 5.5625 21.96875 3.90625 
Q 23.78125 1.765625 26.8125 1.765625 
L 30.859375 1.765625 
L 30.859375 0 
L 4.15625 0 
L 4.15625 1.765625 
L 6.15625 1.765625 
Q 8.109375 1.765625 9.71875 2.734375 
Q 11.328125 3.71875 11.9375 5.375 
Q 12.546875 7.03125 12.546875 11.8125 
L 12.546875 41.21875 
L 3.859375 41.21875 
L 3.859375 44.734375 
L 12.546875 44.734375 
L 12.546875 47.65625 
Q 12.546875 54.34375 14.6875 58.984375 
Q 16.84375 63.625 21.265625 66.484375 
Q 25.6875 69.34375 31.203125 69.34375 
Q 36.328125 69.34375 40.625 66.015625 
Q 43.453125 63.8125 43.453125 61.078125 
Q 43.453125 59.625 42.1875 58.328125 
Q 40.921875 57.03125 39.453125 57.03125 
Q 38.328125 57.03125 37.078125 57.828125 
Q 35.84375 58.640625 34.03125 61.296875 
Q 32.234375 63.96875 30.71875 64.890625 
Q 29.203125 65.828125 27.34375 65.828125 
Q 25.09375 65.828125 23.53125 64.625 
Q 21.96875 63.421875 21.28125 60.90625 
Q 20.609375 58.40625 20.609375 47.953125 
L 20.609375 44.734375 
L 32.125 44.734375 
L 32.125 41.21875 
z
" id="TimesNewRomanPSMT-102"/>
     </defs>
     <g transform="translate(15.5325 269.975062)rotate(-90)scale(0.12 -0.12)">
      <use xlink:href="#TimesNewRomanPSMT-78"/>
      <use x="72.216797" xlink:href="#TimesNewRomanPSMT-101"/>
      <use x="116.601562" xlink:href="#TimesNewRomanPSMT-116"/>
      <use x="144.384766" xlink:href="#TimesNewRomanPSMT-32"/>
      <use x="169.384766" xlink:href="#TimesNewRomanPSMT-66"/>
      <use x="236.083984" xlink:href="#TimesNewRomanPSMT-101"/>
      <use x="280.46875" xlink:href="#TimesNewRomanPSMT-110"/>
      <use x="330.46875" xlink:href="#TimesNewRomanPSMT-101"/>
      <use x="374.853516" xlink:href="#TimesNewRomanPSMT-102"/>
      <use x="408.154297" xlink:href="#TimesNewRomanPSMT-105"/>
      <use x="435.9375" xlink:href="#TimesNewRomanPSMT-116"/>
     </g>
    </g>
   </g>
   <g id="line2d_25">
    <path clip-path="url(#pf481c9e7da)" d="M 53.099375 242.151 
L 58.679375 242.151 
L 64.259375 242.151 
L 69.839375 242.151 
L 75.419375 242.151 
L 80.999375 242.151 
L 86.579375 242.151 
L 92.159375 242.151 
L 97.739375 242.151 
L 103.319375 242.151 
L 108.899375 242.151 
L 114.479375 242.151 
L 120.059375 242.151 
L 125.639375 242.151 
L 131.219375 242.151 
L 136.799375 242.151 
L 142.379375 242.151 
L 147.959375 242.151 
L 153.539375 242.151 
L 159.119375 242.151 
L 164.699375 242.151 
L 170.279375 242.151 
L 175.859375 242.151 
L 181.439375 242.151 
L 187.019375 242.151 
L 192.599375 242.151 
L 198.179375 242.151 
L 203.759375 242.151 
L 209.339375 242.151 
L 214.919375 242.151 
L 220.499375 242.151 
L 226.079375 242.151 
L 231.659375 242.151 
L 237.239375 242.151 
L 242.819375 242.151 
L 248.399375 242.151 
L 253.979375 242.151 
L 259.559375 242.151 
L 265.139375 242.151 
L 270.719375 242.151 
L 276.299375 242.151 
L 281.879375 242.151 
L 287.459375 242.151 
L 293.039375 242.151 
L 298.619375 242.151 
L 304.199375 242.151 
L 309.779375 242.151 
L 315.359375 242.151 
L 320.939375 242.151 
L 326.519375 242.151 
L 332.099375 242.151 
L 337.679375 242.151 
L 343.259375 242.151 
L 348.839375 242.151 
L 354.419375 242.151 
L 359.999375 242.151 
L 365.579375 242.151 
L 371.159375 242.151 
L 376.739375 242.151 
L 382.319375 242.151 
L 387.899375 242.151 
L 393.479375 242.151 
L 399.059375 242.151 
L 404.639375 242.151 
L 410.219375 242.151 
L 415.799375 242.151 
L 421.379375 242.151 
L 426.959375 242.151 
L 432.539375 242.151 
L 438.119375 242.151 
L 443.699375 242.151 
L 449.279375 242.151 
L 454.859375 242.151 
L 460.439375 242.151 
L 466.019375 242.151 
L 471.599375 242.151 
L 477.179375 242.151 
L 482.759375 242.151 
L 488.339375 242.151 
L 493.919375 242.151 
L 499.499375 242.151 
L 505.079375 242.151 
L 510.659375 242.151 
L 516.239375 242.151 
L 521.819375 242.151 
L 527.399375 242.151 
L 532.979375 242.151 
L 538.559375 242.151 
L 544.139375 242.151 
L 549.719375 242.151 
L 555.299375 242.151 
L 560.879375 242.151 
L 566.459375 242.151 
L 572.039375 242.151 
L 577.619375 242.151 
L 583.199375 242.151 
L 588.779375 242.151 
L 594.359375 242.151 
L 599.939375 242.151 
L 605.519375 242.151 
" style="fill:none;stroke:#1f77b4;stroke-linecap:square;stroke-width:1.5;"/>
   </g>
   <g id="line2d_26">
    <path clip-path="url(#pf481c9e7da)" d="M 53.099375 242.151 
L 58.679375 251.96454 
L 64.259375 261.978356 
L 69.839375 272.198642 
L 75.419375 282.631851 
L 80.999375 293.284707 
L 86.579375 304.164219 
L 92.159375 315.277699 
L 97.739375 326.632776 
L 103.319375 338.237416 
L 108.899375 350.099936 
L 114.479375 362.22903 
L 120.059375 374.633785 
L 125.639375 387.323707 
L 131.219375 400.308744 
L 136.799375 413.59931 
L 142.379375 427.206319 
L 147.959375 441.141208 
L 153.539375 455.415971 
L 159.119375 470.043199 
L 164.699375 485.036106 
L 170.279375 500.408581 
L 170.9447 502.2885 
" style="fill:none;stroke:#000000;stroke-linecap:square;stroke-width:1.5;"/>
   </g>
   <g id="line2d_27">
    <path clip-path="url(#pf481c9e7da)" style="fill:none;stroke:#000000;stroke-dasharray:1.5,2.475;stroke-dashoffset:0;stroke-width:1.5;"/>
   </g>
   <g id="patch_3">
    <path d="M 53.099375 459.591 
L 53.099375 24.711 
" style="fill:none;stroke:#000000;stroke-linecap:square;stroke-linejoin:miter;stroke-width:0.8;"/>
   </g>
   <g id="patch_4">
    <path d="M 611.099375 459.591 
L 611.099375 24.711 
" style="fill:none;stroke:#cccccc;stroke-linecap:square;stroke-linejoin:miter;stroke-width:0.8;"/>
   </g>
   <g id="patch_5">
    <path d="M 53.099375 459.591 
L 611.099375 459.591 
" style="fill:none;stroke:#000000;stroke-linecap:square;stroke-linejoin:miter;stroke-width:0.8;"/>
   </g>
   <g id="patch_6">
    <path d="M 53.099375 24.711 
L 611.099375 24.711 
" style="fill:none;stroke:#cccccc;stroke-linecap:square;stroke-linejoin:miter;stroke-width:0.8;"/>
   </g>
   <g id="text_15">
    <!-- Model ExtraTrees DCA -->
    <defs>
     <path d="M 78.171875 0 
L 78.171875 50.09375 
Q 78.171875 56.296875 78.90625 64.984375 
L 78.65625 64.984375 
Q 77.390625 59.515625 76.421875 57.375 
L 51.46875 0 
L 46.046875 0 
L 21.140625 56.9375 
Q 20.265625 58.890625 18.890625 64.984375 
L 18.609375 64.984375 
Q 19.09375 59.71875 19.09375 49.65625 
L 19.09375 0 
L 9.765625 0 
L 9.765625 75.640625 
L 23 75.640625 
L 45.3125 23.78125 
Q 47.859375 17.828125 48.6875 14.5 
L 49.03125 14.5 
Q 51.5625 21.484375 52.59375 23.96875 
L 75.296875 75.640625 
L 87.890625 75.640625 
L 87.890625 0 
z
" id="MicrosoftYaHei-77"/>
     <path d="M 4.9375 26.421875 
Q 4.9375 39.796875 12.40625 47.53125 
Q 19.875 55.28125 32.671875 55.28125 
Q 44.828125 55.28125 51.734375 47.828125 
Q 58.640625 40.375 58.640625 27.25 
Q 58.640625 14.453125 51.265625 6.59375 
Q 43.890625 -1.265625 31.5 -1.265625 
Q 19.390625 -1.265625 12.15625 6.34375 
Q 4.9375 13.96875 4.9375 26.421875 
z
M 14.703125 26.703125 
Q 14.703125 17.390625 19.40625 12.015625 
Q 24.125 6.640625 32.078125 6.640625 
Q 40.28125 6.640625 44.578125 11.890625 
Q 48.875 17.140625 48.875 26.953125 
Q 48.875 36.8125 44.578125 42.078125 
Q 40.28125 47.359375 32.078125 47.359375 
Q 24.03125 47.359375 19.359375 41.84375 
Q 14.703125 36.328125 14.703125 26.703125 
z
" id="MicrosoftYaHei-111"/>
     <path d="M 55.421875 0 
L 45.84375 0 
L 45.84375 8.984375 
L 45.65625 8.984375 
Q 39.75 -1.265625 27.296875 -1.265625 
Q 17.046875 -1.265625 10.984375 6.03125 
Q 4.9375 13.328125 4.9375 25.734375 
Q 4.9375 39.109375 11.765625 47.1875 
Q 18.609375 55.28125 29.640625 55.28125 
Q 40.671875 55.28125 45.65625 46.6875 
L 45.84375 46.6875 
L 45.84375 79.9375 
L 55.421875 79.9375 
z
M 45.90625 32.125 
Q 45.90625 38.625 41.625 42.984375 
Q 37.359375 47.359375 31.109375 47.359375 
Q 23.484375 47.359375 19.09375 41.671875 
Q 14.703125 35.984375 14.703125 26.171875 
Q 14.703125 17.140625 18.921875 11.890625 
Q 23.140625 6.640625 30.171875 6.640625 
Q 37.109375 6.640625 41.5 11.78125 
Q 45.90625 16.9375 45.90625 24.609375 
z
" id="MicrosoftYaHei-100"/>
     <path d="M 52.546875 24.5625 
L 14.75 24.5625 
Q 14.984375 15.921875 19.46875 11.203125 
Q 23.96875 6.5 32.03125 6.5 
Q 41.109375 6.5 48.6875 12.3125 
L 48.6875 3.765625 
Q 41.546875 -1.265625 29.78125 -1.265625 
Q 18.0625 -1.265625 11.5 6.15625 
Q 4.9375 13.578125 4.9375 26.765625 
Q 4.9375 39.15625 12.140625 47.21875 
Q 19.34375 55.28125 30.03125 55.28125 
Q 40.625 55.28125 46.578125 48.46875 
Q 52.546875 41.65625 52.546875 29.390625 
z
M 42.96875 32.234375 
Q 42.921875 39.546875 39.5 43.546875 
Q 36.078125 47.5625 29.890625 47.5625 
Q 24.171875 47.5625 20 43.3125 
Q 15.828125 39.0625 14.75 32.234375 
z
" id="MicrosoftYaHei-101"/>
     <path d="M 8.5 0 
L 8.5 79.9375 
L 18.0625 79.9375 
L 18.0625 0 
z
" id="MicrosoftYaHei-108"/>
     <path id="MicrosoftYaHei-32"/>
     <path d="M 50.4375 0 
L 9.765625 0 
L 9.765625 75.640625 
L 48.734375 75.640625 
L 48.734375 66.9375 
L 19.53125 66.9375 
L 19.53125 42.71875 
L 46.578125 42.71875 
L 46.578125 34.078125 
L 19.53125 34.078125 
L 19.53125 8.640625 
L 50.4375 8.640625 
z
" id="MicrosoftYaHei-69"/>
     <path d="M 49.421875 54 
L 31.34375 26.8125 
L 49.171875 0 
L 38.03125 0 
L 27.734375 17.1875 
Q 26.90625 18.5625 25.390625 21.390625 
L 25.203125 21.390625 
Q 25.140625 21.09375 22.75 17.1875 
L 12.25 0 
L 1.265625 0 
L 19.625 26.515625 
L 2.09375 54 
L 13.234375 54 
L 23.34375 35.9375 
Q 24.265625 34.28125 25.59375 31.640625 
L 25.78125 31.640625 
L 38.921875 54 
z
" id="MicrosoftYaHei-120"/>
     <path d="M 34.46875 0.53125 
Q 31.34375 -1.171875 26.03125 -1.171875 
Q 11.53125 -1.171875 11.53125 14.890625 
L 11.53125 46.09375 
L 2.25 46.09375 
L 2.25 54 
L 11.53125 54 
L 11.53125 67 
L 21.046875 70.015625 
L 21.046875 54 
L 34.46875 54 
L 34.46875 46.09375 
L 21.046875 46.09375 
L 21.046875 16.609375 
Q 21.046875 11.28125 22.84375 8.984375 
Q 24.65625 6.6875 28.859375 6.6875 
Q 32.078125 6.6875 34.46875 8.5 
z
" id="MicrosoftYaHei-116"/>
     <path d="M 37.5 44.53125 
Q 35.109375 46.234375 30.90625 46.234375 
Q 25.34375 46.234375 21.71875 41.03125 
Q 18.109375 35.84375 18.109375 27.34375 
L 18.109375 0 
L 8.546875 0 
L 8.546875 54 
L 18.109375 54 
L 18.109375 43.015625 
L 18.3125 43.015625 
Q 22.40625 54.9375 32.46875 54.9375 
Q 35.75 54.9375 37.5 54.203125 
z
" id="MicrosoftYaHei-114"/>
     <path d="M 9.8125 50.25 
Q 17.875 55.28125 28.421875 55.28125 
Q 47.953125 55.28125 47.953125 34.765625 
L 47.953125 0 
L 38.484375 0 
L 38.484375 8.34375 
L 38.234375 8.34375 
Q 32.625 -1.265625 21.6875 -1.265625 
Q 13.8125 -1.265625 9.171875 2.984375 
Q 4.546875 7.234375 4.546875 14.453125 
Q 4.546875 29.59375 22.46875 32.078125 
L 38.484375 34.328125 
Q 38.484375 47.5625 27.546875 47.5625 
Q 17.828125 47.5625 9.8125 41.015625 
z
M 25.828125 25.390625 
Q 19.1875 24.515625 16.671875 22.0625 
Q 14.15625 19.625 14.15625 15.234375 
Q 14.15625 11.375 16.890625 8.9375 
Q 19.625 6.5 24.125 6.5 
Q 30.375 6.5 34.421875 10.890625 
Q 38.484375 15.28125 38.484375 21.921875 
L 38.484375 27.09375 
z
" id="MicrosoftYaHei-97"/>
     <path d="M 55.46875 66.9375 
L 33.640625 66.9375 
L 33.640625 0 
L 23.828125 0 
L 23.828125 66.9375 
L 2.09375 66.9375 
L 2.09375 75.640625 
L 55.46875 75.640625 
z
" id="MicrosoftYaHei-84"/>
     <path d="M 5.515625 11.671875 
Q 12.75 6.453125 21.09375 6.453125 
Q 32.28125 6.453125 32.28125 13.765625 
Q 32.28125 16.890625 29.828125 18.921875 
Q 27.390625 20.953125 19.921875 23.734375 
Q 10.9375 27.34375 8.25 30.875 
Q 5.5625 34.421875 5.5625 39.453125 
Q 5.5625 46.625 11.640625 50.953125 
Q 17.71875 55.28125 26.609375 55.28125 
Q 33.5 55.28125 39.40625 52.875 
L 39.40625 43.65625 
Q 33.34375 47.5625 25.6875 47.5625 
Q 21.09375 47.5625 18.203125 45.5625 
Q 15.328125 43.5625 15.328125 40.28125 
Q 15.328125 37.0625 17.40625 35.25 
Q 19.484375 33.453125 26.609375 30.609375 
Q 35.640625 27.25 38.8125 23.625 
Q 42 20.015625 42 14.703125 
Q 42 7.28125 35.90625 3 
Q 29.828125 -1.265625 20.171875 -1.265625 
Q 11.765625 -1.265625 5.515625 1.90625 
z
" id="MicrosoftYaHei-115"/>
     <path d="M 9.765625 0 
L 9.765625 75.640625 
L 31.34375 75.640625 
Q 48.53125 75.640625 59.9375 65.625 
Q 71.34375 55.609375 71.34375 38.765625 
Q 71.34375 21.1875 59.9375 10.59375 
Q 48.53125 0 30.5625 0 
z
M 19.53125 66.9375 
L 19.53125 8.640625 
L 30.515625 8.640625 
Q 44.921875 8.640625 53 16.5 
Q 61.078125 24.359375 61.078125 38.53125 
Q 61.078125 52.6875 52.78125 59.8125 
Q 44.484375 66.9375 30.953125 66.9375 
z
" id="MicrosoftYaHei-68"/>
     <path d="M 61.53125 3.125 
Q 53.171875 -1.265625 40.578125 -1.265625 
Q 24.3125 -1.265625 14.59375 9.0625 
Q 4.890625 19.390625 4.890625 36.375 
Q 4.890625 54.640625 15.828125 65.765625 
Q 26.765625 76.90625 43.609375 76.90625 
Q 54.4375 76.90625 61.53125 73.828125 
L 61.53125 63.625 
Q 53.421875 68.109375 43.703125 68.109375 
Q 31.0625 68.109375 23.09375 59.6875 
Q 15.140625 51.265625 15.140625 36.96875 
Q 15.140625 23.390625 22.5625 15.40625 
Q 29.984375 7.421875 42 7.421875 
Q 53.21875 7.421875 61.53125 12.5 
z
" id="MicrosoftYaHei-67"/>
     <path d="M 69.1875 0 
L 58.40625 0 
L 50.6875 20.703125 
L 19.1875 20.703125 
L 11.921875 0 
L 1.125 0 
L 29.9375 75.640625 
L 40.375 75.640625 
z
M 47.65625 29.25 
L 36.234375 60.6875 
Q 35.6875 62.203125 35.0625 65.96875 
L 34.8125 65.96875 
Q 34.28125 62.546875 33.59375 60.6875 
L 22.265625 29.25 
z
" id="MicrosoftYaHei-65"/>
    </defs>
    <g transform="translate(255.626375 18.711)scale(0.144 -0.144)">
     <use xlink:href="#MicrosoftYaHei-77"/>
     <use x="97.705078" xlink:href="#MicrosoftYaHei-111"/>
     <use x="161.279297" xlink:href="#MicrosoftYaHei-100"/>
     <use x="225.244141" xlink:href="#MicrosoftYaHei-101"/>
     <use x="281.982422" xlink:href="#MicrosoftYaHei-108"/>
     <use x="308.59375" xlink:href="#MicrosoftYaHei-32"/>
     <use x="338.183594" xlink:href="#MicrosoftYaHei-69"/>
     <use x="393.164062" xlink:href="#MicrosoftYaHei-120"/>
     <use x="443.847656" xlink:href="#MicrosoftYaHei-116"/>
     <use x="481.103516" xlink:href="#MicrosoftYaHei-114"/>
     <use x="519.287109" xlink:href="#MicrosoftYaHei-97"/>
     <use x="574.560547" xlink:href="#MicrosoftYaHei-84"/>
     <use x="622.509766" xlink:href="#MicrosoftYaHei-114"/>
     <use x="659.318359" xlink:href="#MicrosoftYaHei-101"/>
     <use x="716.056641" xlink:href="#MicrosoftYaHei-101"/>
     <use x="772.794922" xlink:href="#MicrosoftYaHei-115"/>
     <use x="819.083984" xlink:href="#MicrosoftYaHei-32"/>
     <use x="848.673828" xlink:href="#MicrosoftYaHei-68"/>
     <use x="924.845703" xlink:href="#MicrosoftYaHei-67"/>
     <use x="991.740234" xlink:href="#MicrosoftYaHei-65"/>
    </g>
   </g>
   <g id="legend_1">
    <g id="patch_7">
     <path d="M 503.436875 90.037875 
L 602.699375 90.037875 
Q 605.099375 90.037875 605.099375 87.637875 
L 605.099375 33.111 
Q 605.099375 30.711 602.699375 30.711 
L 503.436875 30.711 
Q 501.036875 30.711 501.036875 33.111 
L 501.036875 87.637875 
Q 501.036875 90.037875 503.436875 90.037875 
z
" style="fill:#ffffff;opacity:0.8;stroke:#cccccc;stroke-linejoin:miter;"/>
    </g>
    <g id="line2d_28">
     <path d="M 505.836875 40.9035 
L 529.836875 40.9035 
" style="fill:none;stroke:#1f77b4;stroke-linecap:square;stroke-width:1.5;"/>
    </g>
    <g id="line2d_29"/>
    <g id="text_16">
     <!-- Model -->
     <g transform="translate(539.436875 45.1035)scale(0.12 -0.12)">
      <use xlink:href="#MicrosoftYaHei-77"/>
      <use x="97.705078" xlink:href="#MicrosoftYaHei-111"/>
      <use x="161.279297" xlink:href="#MicrosoftYaHei-100"/>
      <use x="225.244141" xlink:href="#MicrosoftYaHei-101"/>
      <use x="281.982422" xlink:href="#MicrosoftYaHei-108"/>
     </g>
    </g>
    <g id="line2d_30">
     <path d="M 505.836875 59.479125 
L 529.836875 59.479125 
" style="fill:none;stroke:#000000;stroke-linecap:square;stroke-width:1.5;"/>
    </g>
    <g id="line2d_31"/>
    <g id="text_17">
     <!-- Treat all -->
     <g transform="translate(539.436875 63.679125)scale(0.12 -0.12)">
      <use xlink:href="#MicrosoftYaHei-84"/>
      <use x="47.949219" xlink:href="#MicrosoftYaHei-114"/>
      <use x="84.757812" xlink:href="#MicrosoftYaHei-101"/>
      <use x="141.496094" xlink:href="#MicrosoftYaHei-97"/>
      <use x="196.769531" xlink:href="#MicrosoftYaHei-116"/>
      <use x="234.025391" xlink:href="#MicrosoftYaHei-32"/>
      <use x="263.615234" xlink:href="#MicrosoftYaHei-97"/>
      <use x="318.888672" xlink:href="#MicrosoftYaHei-108"/>
      <use x="345.5" xlink:href="#MicrosoftYaHei-108"/>
     </g>
    </g>
    <g id="line2d_32">
     <path d="M 505.836875 78.05475 
L 529.836875 78.05475 
" style="fill:none;stroke:#000000;stroke-dasharray:1.5,2.475;stroke-dashoffset:0;stroke-width:1.5;"/>
    </g>
    <g id="line2d_33"/>
    <g id="text_18">
     <!-- Treat none -->
     <defs>
      <path d="M 54.203125 0 
L 44.671875 0 
L 44.671875 30.71875 
Q 44.671875 47.359375 32.515625 47.359375 
Q 26.21875 47.359375 22.15625 42.671875 
Q 18.109375 37.984375 18.109375 30.8125 
L 18.109375 0 
L 8.546875 0 
L 8.546875 54 
L 18.109375 54 
L 18.109375 45.0625 
L 18.3125 45.0625 
Q 24.421875 55.28125 36.03125 55.28125 
Q 44.921875 55.28125 49.5625 49.578125 
Q 54.203125 43.890625 54.203125 33.015625 
z
" id="MicrosoftYaHei-110"/>
     </defs>
     <g transform="translate(539.436875 82.25475)scale(0.12 -0.12)">
      <use xlink:href="#MicrosoftYaHei-84"/>
      <use x="47.949219" xlink:href="#MicrosoftYaHei-114"/>
      <use x="84.757812" xlink:href="#MicrosoftYaHei-101"/>
      <use x="141.496094" xlink:href="#MicrosoftYaHei-97"/>
      <use x="196.769531" xlink:href="#MicrosoftYaHei-116"/>
      <use x="234.025391" xlink:href="#MicrosoftYaHei-32"/>
      <use x="263.615234" xlink:href="#MicrosoftYaHei-110"/>
      <use x="325.236328" xlink:href="#MicrosoftYaHei-111"/>
      <use x="388.810547" xlink:href="#MicrosoftYaHei-110"/>
      <use x="450.431641" xlink:href="#MicrosoftYaHei-101"/>
     </g>
    </g>
   </g>
  </g>
 </g>
 <defs>
  <clipPath id="pf481c9e7da">
   <rect height="434.88" width="558" x="53.099375" y="24.711"/>
  </clipPath>
 </defs>
</svg>
