<?xml version="1.0" encoding="utf-8" standalone="no"?>
<!DOCTYPE svg PUBLIC "-//W3C//DTD SVG 1.1//EN"
  "http://www.w3.org/Graphics/SVG/1.1/DTD/svg11.dtd">
<!-- Created with matplotlib (https://matplotlib.org/) -->
<svg height="486.366625pt" version="1.1" viewBox="0 0 608.591875 486.366625" width="608.591875pt" xmlns="http://www.w3.org/2000/svg" xmlns:xlink="http://www.w3.org/1999/xlink">
 <defs>
  <style type="text/css">
*{stroke-linecap:butt;stroke-linejoin:round;}
  </style>
 </defs>
 <g id="figure_1">
  <g id="patch_1">
   <path d="M -0 486.366625 
L 608.591875 486.366625 
L 608.591875 0 
L -0 0 
z
" style="fill:#ffffff;"/>
  </g>
  <g id="axes_1">
   <g id="patch_2">
    <path d="M 43.391875 459.591 
L 601.391875 459.591 
L 601.391875 24.711 
L 43.391875 24.711 
z
" style="fill:#ffffff;"/>
   </g>
   <g id="patch_3">
    <path clip-path="url(#p0a9d449a95)" d="M 68.755511 242.151 
L 70.916418 242.151 
L 70.916418 439.823727 
L 68.755511 439.823727 
z
" style="fill:#1f77b4;"/>
   </g>
   <g id="patch_4">
    <path clip-path="url(#p0a9d449a95)" d="M 71.456644 242.151 
L 73.61755 242.151 
L 73.61755 436.164764 
L 71.456644 436.164764 
z
" style="fill:#1f77b4;"/>
   </g>
   <g id="patch_5">
    <path clip-path="url(#p0a9d449a95)" d="M 74.157777 242.151 
L 76.318683 242.151 
L 76.318683 426.940392 
L 74.157777 426.940392 
z
" style="fill:#1f77b4;"/>
   </g>
   <g id="patch_6">
    <path clip-path="url(#p0a9d449a95)" d="M 76.85891 242.151 
L 79.019816 242.151 
L 79.019816 424.879463 
L 76.85891 424.879463 
z
" style="fill:#1f77b4;"/>
   </g>
   <g id="patch_7">
    <path clip-path="url(#p0a9d449a95)" d="M 79.560042 242.151 
L 81.720948 242.151 
L 81.720948 424.532659 
L 79.560042 424.532659 
z
" style="fill:#1f77b4;"/>
   </g>
   <g id="patch_8">
    <path clip-path="url(#p0a9d449a95)" d="M 82.261175 242.151 
L 84.422081 242.151 
L 84.422081 421.778603 
L 82.261175 421.778603 
z
" style="fill:#1f77b4;"/>
   </g>
   <g id="patch_9">
    <path clip-path="url(#p0a9d449a95)" d="M 84.962308 242.151 
L 87.123214 242.151 
L 87.123214 420.8532 
L 84.962308 420.8532 
z
" style="fill:#1f77b4;"/>
   </g>
   <g id="patch_10">
    <path clip-path="url(#p0a9d449a95)" d="M 87.66344 242.151 
L 89.824347 242.151 
L 89.824347 420.717656 
L 87.66344 420.717656 
z
" style="fill:#1f77b4;"/>
   </g>
   <g id="patch_11">
    <path clip-path="url(#p0a9d449a95)" d="M 90.364573 242.151 
L 92.525479 242.151 
L 92.525479 420.70318 
L 90.364573 420.70318 
z
" style="fill:#1f77b4;"/>
   </g>
   <g id="patch_12">
    <path clip-path="url(#p0a9d449a95)" d="M 95.766839 242.151 
L 97.927745 242.151 
L 97.927745 416.72476 
L 95.766839 416.72476 
z
" style="fill:#1f77b4;"/>
   </g>
   <g id="patch_13">
    <path clip-path="url(#p0a9d449a95)" d="M 98.467971 242.151 
L 100.628878 242.151 
L 100.628878 414.874089 
L 98.467971 414.874089 
z
" style="fill:#1f77b4;"/>
   </g>
   <g id="patch_14">
    <path clip-path="url(#p0a9d449a95)" d="M 101.169104 242.151 
L 103.33001 242.151 
L 103.33001 414.843493 
L 101.169104 414.843493 
z
" style="fill:#1f77b4;"/>
   </g>
   <g id="patch_15">
    <path clip-path="url(#p0a9d449a95)" d="M 103.870237 242.151 
L 106.031143 242.151 
L 106.031143 414.146575 
L 103.870237 414.146575 
z
" style="fill:#1f77b4;"/>
   </g>
   <g id="patch_16">
    <path clip-path="url(#p0a9d449a95)" d="M 106.57137 242.151 
L 108.732276 242.151 
L 108.732276 413.860537 
L 106.57137 413.860537 
z
" style="fill:#1f77b4;"/>
   </g>
   <g id="patch_17">
    <path clip-path="url(#p0a9d449a95)" d="M 109.272502 242.151 
L 111.433409 242.151 
L 111.433409 413.705045 
L 109.272502 413.705045 
z
" style="fill:#1f77b4;"/>
   </g>
   <g id="patch_18">
    <path clip-path="url(#p0a9d449a95)" d="M 111.973635 242.151 
L 114.134541 242.151 
L 114.134541 413.229243 
L 111.973635 413.229243 
z
" style="fill:#1f77b4;"/>
   </g>
   <g id="patch_19">
    <path clip-path="url(#p0a9d449a95)" d="M 114.674768 242.151 
L 116.835674 242.151 
L 116.835674 412.769291 
L 114.674768 412.769291 
z
" style="fill:#1f77b4;"/>
   </g>
   <g id="patch_20">
    <path clip-path="url(#p0a9d449a95)" d="M 117.375901 242.151 
L 119.536807 242.151 
L 119.536807 412.162614 
L 117.375901 412.162614 
z
" style="fill:#1f77b4;"/>
   </g>
   <g id="patch_21">
    <path clip-path="url(#p0a9d449a95)" d="M 120.077033 242.151 
L 122.237939 242.151 
L 122.237939 411.42524 
L 120.077033 411.42524 
z
" style="fill:#1f77b4;"/>
   </g>
   <g id="patch_22">
    <path clip-path="url(#p0a9d449a95)" d="M 122.778166 242.151 
L 124.939072 242.151 
L 124.939072 411.22569 
L 122.778166 411.22569 
z
" style="fill:#1f77b4;"/>
   </g>
   <g id="patch_23">
    <path clip-path="url(#p0a9d449a95)" d="M 125.479299 242.151 
L 127.640205 242.151 
L 127.640205 410.413034 
L 125.479299 410.413034 
z
" style="fill:#1f77b4;"/>
   </g>
   <g id="patch_24">
    <path clip-path="url(#p0a9d449a95)" d="M 128.180431 242.151 
L 130.341338 242.151 
L 130.341338 409.960992 
L 128.180431 409.960992 
z
" style="fill:#1f77b4;"/>
   </g>
   <g id="patch_25">
    <path clip-path="url(#p0a9d449a95)" d="M 130.881564 242.151 
L 133.04247 242.151 
L 133.04247 409.354231 
L 130.881564 409.354231 
z
" style="fill:#1f77b4;"/>
   </g>
   <g id="patch_26">
    <path clip-path="url(#p0a9d449a95)" d="M 133.582697 242.151 
L 135.743603 242.151 
L 135.743603 408.876924 
L 133.582697 408.876924 
z
" style="fill:#1f77b4;"/>
   </g>
   <g id="patch_27">
    <path clip-path="url(#p0a9d449a95)" d="M 136.28383 242.151 
L 138.444736 242.151 
L 138.444736 407.78179 
L 136.28383 407.78179 
z
" style="fill:#1f77b4;"/>
   </g>
   <g id="patch_28">
    <path clip-path="url(#p0a9d449a95)" d="M 138.984962 242.151 
L 141.145869 242.151 
L 141.145869 407.432922 
L 138.984962 407.432922 
z
" style="fill:#1f77b4;"/>
   </g>
   <g id="patch_29">
    <path clip-path="url(#p0a9d449a95)" d="M 141.686095 242.151 
L 143.847001 242.151 
L 143.847001 406.38631 
L 141.686095 406.38631 
z
" style="fill:#1f77b4;"/>
   </g>
   <g id="patch_30">
    <path clip-path="url(#p0a9d449a95)" d="M 144.387228 242.151 
L 146.548134 242.151 
L 146.548134 405.197296 
L 144.387228 405.197296 
z
" style="fill:#1f77b4;"/>
   </g>
   <g id="patch_31">
    <path clip-path="url(#p0a9d449a95)" d="M 147.088361 242.151 
L 149.249267 242.151 
L 149.249267 403.61938 
L 147.088361 403.61938 
z
" style="fill:#1f77b4;"/>
   </g>
   <g id="patch_32">
    <path clip-path="url(#p0a9d449a95)" d="M 149.789493 242.151 
L 151.9504 242.151 
L 151.9504 403.1716 
L 149.789493 403.1716 
z
" style="fill:#1f77b4;"/>
   </g>
   <g id="patch_33">
    <path clip-path="url(#p0a9d449a95)" d="M 152.490626 242.151 
L 154.651532 242.151 
L 154.651532 401.965671 
L 152.490626 401.965671 
z
" style="fill:#1f77b4;"/>
   </g>
   <g id="patch_34">
    <path clip-path="url(#p0a9d449a95)" d="M 155.191759 242.151 
L 157.352665 242.151 
L 157.352665 401.451757 
L 155.191759 401.451757 
z
" style="fill:#1f77b4;"/>
   </g>
   <g id="patch_35">
    <path clip-path="url(#p0a9d449a95)" d="M 157.892892 242.151 
L 160.053798 242.151 
L 160.053798 401.150047 
L 157.892892 401.150047 
z
" style="fill:#1f77b4;"/>
   </g>
   <g id="patch_36">
    <path clip-path="url(#p0a9d449a95)" d="M 160.594024 242.151 
L 162.75493 242.151 
L 162.75493 400.903604 
L 160.594024 400.903604 
z
" style="fill:#1f77b4;"/>
   </g>
   <g id="patch_37">
    <path clip-path="url(#p0a9d449a95)" d="M 163.295157 242.151 
L 165.456063 242.151 
L 165.456063 400.518076 
L 163.295157 400.518076 
z
" style="fill:#1f77b4;"/>
   </g>
   <g id="patch_38">
    <path clip-path="url(#p0a9d449a95)" d="M 165.99629 242.151 
L 168.157196 242.151 
L 168.157196 399.387873 
L 165.99629 399.387873 
z
" style="fill:#1f77b4;"/>
   </g>
   <g id="patch_39">
    <path clip-path="url(#p0a9d449a95)" d="M 168.697422 242.151 
L 170.858329 242.151 
L 170.858329 398.234717 
L 168.697422 398.234717 
z
" style="fill:#1f77b4;"/>
   </g>
   <g id="patch_40">
    <path clip-path="url(#p0a9d449a95)" d="M 171.398555 242.151 
L 173.559461 242.151 
L 173.559461 396.720838 
L 171.398555 396.720838 
z
" style="fill:#1f77b4;"/>
   </g>
   <g id="patch_41">
    <path clip-path="url(#p0a9d449a95)" d="M 174.099688 242.151 
L 176.260594 242.151 
L 176.260594 395.916248 
L 174.099688 395.916248 
z
" style="fill:#1f77b4;"/>
   </g>
   <g id="patch_42">
    <path clip-path="url(#p0a9d449a95)" d="M 176.800821 242.151 
L 178.961727 242.151 
L 178.961727 395.015604 
L 176.800821 395.015604 
z
" style="fill:#1f77b4;"/>
   </g>
   <g id="patch_43">
    <path clip-path="url(#p0a9d449a95)" d="M 179.501953 242.151 
L 181.66286 242.151 
L 181.66286 394.719966 
L 179.501953 394.719966 
z
" style="fill:#1f77b4;"/>
   </g>
   <g id="patch_44">
    <path clip-path="url(#p0a9d449a95)" d="M 182.203086 242.151 
L 184.363992 242.151 
L 184.363992 394.600124 
L 182.203086 394.600124 
z
" style="fill:#1f77b4;"/>
   </g>
   <g id="patch_45">
    <path clip-path="url(#p0a9d449a95)" d="M 187.605352 242.151 
L 189.766258 242.151 
L 189.766258 393.36938 
L 187.605352 393.36938 
z
" style="fill:#1f77b4;"/>
   </g>
   <g id="patch_46">
    <path clip-path="url(#p0a9d449a95)" d="M 190.306484 242.151 
L 192.467391 242.151 
L 192.467391 392.453722 
L 190.306484 392.453722 
z
" style="fill:#1f77b4;"/>
   </g>
   <g id="patch_47">
    <path clip-path="url(#p0a9d449a95)" d="M 193.007617 242.151 
L 195.168523 242.151 
L 195.168523 389.717272 
L 193.007617 389.717272 
z
" style="fill:#1f77b4;"/>
   </g>
   <g id="patch_48">
    <path clip-path="url(#p0a9d449a95)" d="M 195.70875 242.151 
L 197.869656 242.151 
L 197.869656 389.111318 
L 195.70875 389.111318 
z
" style="fill:#1f77b4;"/>
   </g>
   <g id="patch_49">
    <path clip-path="url(#p0a9d449a95)" d="M 198.409883 242.151 
L 200.570789 242.151 
L 200.570789 388.925805 
L 198.409883 388.925805 
z
" style="fill:#1f77b4;"/>
   </g>
   <g id="patch_50">
    <path clip-path="url(#p0a9d449a95)" d="M 206.513281 242.151 
L 208.674187 242.151 
L 208.674187 387.613597 
L 206.513281 387.613597 
z
" style="fill:#1f77b4;"/>
   </g>
   <g id="patch_51">
    <path clip-path="url(#p0a9d449a95)" d="M 211.915546 242.151 
L 214.076452 242.151 
L 214.076452 385.13415 
L 211.915546 385.13415 
z
" style="fill:#1f77b4;"/>
   </g>
   <g id="patch_52">
    <path clip-path="url(#p0a9d449a95)" d="M 214.616679 242.151 
L 216.777585 242.151 
L 216.777585 385.107743 
L 214.616679 385.107743 
z
" style="fill:#1f77b4;"/>
   </g>
   <g id="patch_53">
    <path clip-path="url(#p0a9d449a95)" d="M 217.317812 242.151 
L 219.478718 242.151 
L 219.478718 383.104988 
L 217.317812 383.104988 
z
" style="fill:#1f77b4;"/>
   </g>
   <g id="patch_54">
    <path clip-path="url(#p0a9d449a95)" d="M 220.018944 242.151 
L 222.179851 242.151 
L 222.179851 382.624854 
L 220.018944 382.624854 
z
" style="fill:#1f77b4;"/>
   </g>
   <g id="patch_55">
    <path clip-path="url(#p0a9d449a95)" d="M 222.720077 242.151 
L 224.880983 242.151 
L 224.880983 382.383601 
L 222.720077 382.383601 
z
" style="fill:#1f77b4;"/>
   </g>
   <g id="patch_56">
    <path clip-path="url(#p0a9d449a95)" d="M 225.42121 242.151 
L 227.582116 242.151 
L 227.582116 381.444293 
L 225.42121 381.444293 
z
" style="fill:#1f77b4;"/>
   </g>
   <g id="patch_57">
    <path clip-path="url(#p0a9d449a95)" d="M 236.225741 242.151 
L 238.386647 242.151 
L 238.386647 374.866913 
L 236.225741 374.866913 
z
" style="fill:#1f77b4;"/>
   </g>
   <g id="patch_58">
    <path clip-path="url(#p0a9d449a95)" d="M 238.926874 242.151 
L 241.08778 242.151 
L 241.08778 372.933654 
L 238.926874 372.933654 
z
" style="fill:#1f77b4;"/>
   </g>
   <g id="patch_59">
    <path clip-path="url(#p0a9d449a95)" d="M 241.628006 242.151 
L 243.788912 242.151 
L 243.788912 372.263678 
L 241.628006 372.263678 
z
" style="fill:#1f77b4;"/>
   </g>
   <g id="patch_60">
    <path clip-path="url(#p0a9d449a95)" d="M 247.030272 242.151 
L 249.191178 242.151 
L 249.191178 370.675158 
L 247.030272 370.675158 
z
" style="fill:#1f77b4;"/>
   </g>
   <g id="patch_61">
    <path clip-path="url(#p0a9d449a95)" d="M 249.731404 242.151 
L 251.892311 242.151 
L 251.892311 368.853018 
L 249.731404 368.853018 
z
" style="fill:#1f77b4;"/>
   </g>
   <g id="patch_62">
    <path clip-path="url(#p0a9d449a95)" d="M 252.432537 242.151 
L 254.593443 242.151 
L 254.593443 368.017075 
L 252.432537 368.017075 
z
" style="fill:#1f77b4;"/>
   </g>
   <g id="patch_63">
    <path clip-path="url(#p0a9d449a95)" d="M 257.834803 242.151 
L 259.995709 242.151 
L 259.995709 366.046689 
L 257.834803 366.046689 
z
" style="fill:#1f77b4;"/>
   </g>
   <g id="patch_64">
    <path clip-path="url(#p0a9d449a95)" d="M 260.535935 242.151 
L 262.696842 242.151 
L 262.696842 365.932564 
L 260.535935 365.932564 
z
" style="fill:#1f77b4;"/>
   </g>
   <g id="patch_65">
    <path clip-path="url(#p0a9d449a95)" d="M 263.237068 242.151 
L 265.397974 242.151 
L 265.397974 364.960786 
L 263.237068 364.960786 
z
" style="fill:#1f77b4;"/>
   </g>
   <g id="patch_66">
    <path clip-path="url(#p0a9d449a95)" d="M 265.938201 242.151 
L 268.099107 242.151 
L 268.099107 364.375034 
L 265.938201 364.375034 
z
" style="fill:#1f77b4;"/>
   </g>
   <g id="patch_67">
    <path clip-path="url(#p0a9d449a95)" d="M 268.639334 242.151 
L 270.80024 242.151 
L 270.80024 364.324866 
L 268.639334 364.324866 
z
" style="fill:#1f77b4;"/>
   </g>
   <g id="patch_68">
    <path clip-path="url(#p0a9d449a95)" d="M 271.340466 242.151 
L 273.501373 242.151 
L 273.501373 362.933589 
L 271.340466 362.933589 
z
" style="fill:#1f77b4;"/>
   </g>
   <g id="patch_69">
    <path clip-path="url(#p0a9d449a95)" d="M 274.041599 242.151 
L 276.202505 242.151 
L 276.202505 362.910008 
L 274.041599 362.910008 
z
" style="fill:#1f77b4;"/>
   </g>
   <g id="patch_70">
    <path clip-path="url(#p0a9d449a95)" d="M 276.742732 242.151 
L 278.903638 242.151 
L 278.903638 362.854296 
L 276.742732 362.854296 
z
" style="fill:#1f77b4;"/>
   </g>
   <g id="patch_71">
    <path clip-path="url(#p0a9d449a95)" d="M 279.443865 242.151 
L 281.604771 242.151 
L 281.604771 361.023812 
L 279.443865 361.023812 
z
" style="fill:#1f77b4;"/>
   </g>
   <g id="patch_72">
    <path clip-path="url(#p0a9d449a95)" d="M 287.547263 242.151 
L 289.708169 242.151 
L 289.708169 357.215945 
L 287.547263 357.215945 
z
" style="fill:#1f77b4;"/>
   </g>
   <g id="patch_73">
    <path clip-path="url(#p0a9d449a95)" d="M 290.248395 242.151 
L 292.409302 242.151 
L 292.409302 356.963891 
L 290.248395 356.963891 
z
" style="fill:#1f77b4;"/>
   </g>
   <g id="patch_74">
    <path clip-path="url(#p0a9d449a95)" d="M 292.949528 242.151 
L 295.110434 242.151 
L 295.110434 355.551111 
L 292.949528 355.551111 
z
" style="fill:#1f77b4;"/>
   </g>
   <g id="patch_75">
    <path clip-path="url(#p0a9d449a95)" d="M 295.650661 242.151 
L 297.811567 242.151 
L 297.811567 352.784454 
L 295.650661 352.784454 
z
" style="fill:#1f77b4;"/>
   </g>
   <g id="patch_76">
    <path clip-path="url(#p0a9d449a95)" d="M 298.351794 242.151 
L 300.5127 242.151 
L 300.5127 351.442448 
L 298.351794 351.442448 
z
" style="fill:#1f77b4;"/>
   </g>
   <g id="patch_77">
    <path clip-path="url(#p0a9d449a95)" d="M 301.052926 242.151 
L 303.213833 242.151 
L 303.213833 351.414851 
L 301.052926 351.414851 
z
" style="fill:#1f77b4;"/>
   </g>
   <g id="patch_78">
    <path clip-path="url(#p0a9d449a95)" d="M 303.754059 242.151 
L 305.914965 242.151 
L 305.914965 350.476704 
L 303.754059 350.476704 
z
" style="fill:#1f77b4;"/>
   </g>
   <g id="patch_79">
    <path clip-path="url(#p0a9d449a95)" d="M 309.156325 242.151 
L 311.317231 242.151 
L 311.317231 349.073562 
L 309.156325 349.073562 
z
" style="fill:#1f77b4;"/>
   </g>
   <g id="patch_80">
    <path clip-path="url(#p0a9d449a95)" d="M 311.857457 242.151 
L 314.018364 242.151 
L 314.018364 348.943371 
L 311.857457 348.943371 
z
" style="fill:#1f77b4;"/>
   </g>
   <g id="patch_81">
    <path clip-path="url(#p0a9d449a95)" d="M 314.55859 242.151 
L 316.719496 242.151 
L 316.719496 348.927507 
L 314.55859 348.927507 
z
" style="fill:#1f77b4;"/>
   </g>
   <g id="patch_82">
    <path clip-path="url(#p0a9d449a95)" d="M 317.259723 242.151 
L 319.420629 242.151 
L 319.420629 348.380715 
L 317.259723 348.380715 
z
" style="fill:#1f77b4;"/>
   </g>
   <g id="patch_83">
    <path clip-path="url(#p0a9d449a95)" d="M 322.661988 242.151 
L 324.822894 242.151 
L 324.822894 345.147149 
L 322.661988 345.147149 
z
" style="fill:#1f77b4;"/>
   </g>
   <g id="patch_84">
    <path clip-path="url(#p0a9d449a95)" d="M 328.064254 242.151 
L 330.22516 242.151 
L 330.22516 342.421105 
L 328.064254 342.421105 
z
" style="fill:#1f77b4;"/>
   </g>
   <g id="patch_85">
    <path clip-path="url(#p0a9d449a95)" d="M 336.167652 242.151 
L 338.328558 242.151 
L 338.328558 339.468287 
L 336.167652 339.468287 
z
" style="fill:#1f77b4;"/>
   </g>
   <g id="patch_86">
    <path clip-path="url(#p0a9d449a95)" d="M 338.868785 242.151 
L 341.029691 242.151 
L 341.029691 338.092607 
L 338.868785 338.092607 
z
" style="fill:#1f77b4;"/>
   </g>
   <g id="patch_87">
    <path clip-path="url(#p0a9d449a95)" d="M 344.27105 242.151 
L 346.431956 242.151 
L 346.431956 336.779203 
L 344.27105 336.779203 
z
" style="fill:#1f77b4;"/>
   </g>
   <g id="patch_88">
    <path clip-path="url(#p0a9d449a95)" d="M 352.374448 242.151 
L 354.535355 242.151 
L 354.535355 333.939485 
L 352.374448 333.939485 
z
" style="fill:#1f77b4;"/>
   </g>
   <g id="patch_89">
    <path clip-path="url(#p0a9d449a95)" d="M 355.075581 242.151 
L 357.236487 242.151 
L 357.236487 333.932103 
L 355.075581 333.932103 
z
" style="fill:#1f77b4;"/>
   </g>
   <g id="patch_90">
    <path clip-path="url(#p0a9d449a95)" d="M 360.477847 242.151 
L 362.638753 242.151 
L 362.638753 332.811357 
L 360.477847 332.811357 
z
" style="fill:#1f77b4;"/>
   </g>
   <g id="patch_91">
    <path clip-path="url(#p0a9d449a95)" d="M 363.178979 242.151 
L 365.339885 242.151 
L 365.339885 327.020631 
L 363.178979 327.020631 
z
" style="fill:#1f77b4;"/>
   </g>
   <g id="patch_92">
    <path clip-path="url(#p0a9d449a95)" d="M 365.880112 242.151 
L 368.041018 242.151 
L 368.041018 325.025776 
L 365.880112 325.025776 
z
" style="fill:#1f77b4;"/>
   </g>
   <g id="patch_93">
    <path clip-path="url(#p0a9d449a95)" d="M 368.581245 242.151 
L 370.742151 242.151 
L 370.742151 322.972488 
L 368.581245 322.972488 
z
" style="fill:#1f77b4;"/>
   </g>
   <g id="patch_94">
    <path clip-path="url(#p0a9d449a95)" d="M 371.282377 242.151 
L 373.443284 242.151 
L 373.443284 322.777849 
L 371.282377 322.777849 
z
" style="fill:#1f77b4;"/>
   </g>
   <g id="patch_95">
    <path clip-path="url(#p0a9d449a95)" d="M 373.98351 242.151 
L 376.144416 242.151 
L 376.144416 322.705808 
L 373.98351 322.705808 
z
" style="fill:#1f77b4;"/>
   </g>
   <g id="patch_96">
    <path clip-path="url(#p0a9d449a95)" d="M 392.891439 242.151 
L 395.052346 242.151 
L 395.052346 314.928789 
L 392.891439 314.928789 
z
" style="fill:#1f77b4;"/>
   </g>
   <g id="patch_97">
    <path clip-path="url(#p0a9d449a95)" d="M 395.592572 242.151 
L 397.753478 242.151 
L 397.753478 312.897605 
L 395.592572 312.897605 
z
" style="fill:#1f77b4;"/>
   </g>
   <g id="patch_98">
    <path clip-path="url(#p0a9d449a95)" d="M 398.293705 242.151 
L 400.454611 242.151 
L 400.454611 312.592923 
L 398.293705 312.592923 
z
" style="fill:#1f77b4;"/>
   </g>
   <g id="patch_99">
    <path clip-path="url(#p0a9d449a95)" d="M 400.994838 242.151 
L 403.155744 242.151 
L 403.155744 312.312046 
L 400.994838 312.312046 
z
" style="fill:#1f77b4;"/>
   </g>
   <g id="patch_100">
    <path clip-path="url(#p0a9d449a95)" d="M 403.69597 242.151 
L 405.856876 242.151 
L 405.856876 308.823841 
L 403.69597 308.823841 
z
" style="fill:#1f77b4;"/>
   </g>
   <g id="patch_101">
    <path clip-path="url(#p0a9d449a95)" d="M 406.397103 242.151 
L 408.558009 242.151 
L 408.558009 308.534547 
L 406.397103 308.534547 
z
" style="fill:#1f77b4;"/>
   </g>
   <g id="patch_102">
    <path clip-path="url(#p0a9d449a95)" d="M 409.098236 242.151 
L 411.259142 242.151 
L 411.259142 301.454389 
L 409.098236 301.454389 
z
" style="fill:#1f77b4;"/>
   </g>
   <g id="patch_103">
    <path clip-path="url(#p0a9d449a95)" d="M 411.799368 242.151 
L 413.960275 242.151 
L 413.960275 300.812283 
L 411.799368 300.812283 
z
" style="fill:#1f77b4;"/>
   </g>
   <g id="patch_104">
    <path clip-path="url(#p0a9d449a95)" d="M 414.500501 242.151 
L 416.661407 242.151 
L 416.661407 297.965441 
L 414.500501 297.965441 
z
" style="fill:#1f77b4;"/>
   </g>
   <g id="patch_105">
    <path clip-path="url(#p0a9d449a95)" d="M 417.201634 242.151 
L 419.36254 242.151 
L 419.36254 296.689851 
L 417.201634 296.689851 
z
" style="fill:#1f77b4;"/>
   </g>
   <g id="patch_106">
    <path clip-path="url(#p0a9d449a95)" d="M 419.902767 242.151 
L 422.063673 242.151 
L 422.063673 294.512685 
L 419.902767 294.512685 
z
" style="fill:#1f77b4;"/>
   </g>
   <g id="patch_107">
    <path clip-path="url(#p0a9d449a95)" d="M 425.305032 242.151 
L 427.465938 242.151 
L 427.465938 289.961827 
L 425.305032 289.961827 
z
" style="fill:#1f77b4;"/>
   </g>
   <g id="patch_108">
    <path clip-path="url(#p0a9d449a95)" d="M 428.006165 242.151 
L 430.167071 242.151 
L 430.167071 287.626364 
L 428.006165 287.626364 
z
" style="fill:#1f77b4;"/>
   </g>
   <g id="patch_109">
    <path clip-path="url(#p0a9d449a95)" d="M 430.707298 242.151 
L 432.868204 242.151 
L 432.868204 283.221683 
L 430.707298 283.221683 
z
" style="fill:#1f77b4;"/>
   </g>
   <g id="patch_110">
    <path clip-path="url(#p0a9d449a95)" d="M 433.40843 242.151 
L 435.569337 242.151 
L 435.569337 283.036141 
L 433.40843 283.036141 
z
" style="fill:#1f77b4;"/>
   </g>
   <g id="patch_111">
    <path clip-path="url(#p0a9d449a95)" d="M 436.109563 242.151 
L 438.270469 242.151 
L 438.270469 281.65034 
L 436.109563 281.65034 
z
" style="fill:#1f77b4;"/>
   </g>
   <g id="patch_112">
    <path clip-path="url(#p0a9d449a95)" d="M 438.810696 242.151 
L 440.971602 242.151 
L 440.971602 281.368299 
L 438.810696 281.368299 
z
" style="fill:#1f77b4;"/>
   </g>
   <g id="patch_113">
    <path clip-path="url(#p0a9d449a95)" d="M 441.511829 242.151 
L 443.672735 242.151 
L 443.672735 279.2862 
L 441.511829 279.2862 
z
" style="fill:#1f77b4;"/>
   </g>
   <g id="patch_114">
    <path clip-path="url(#p0a9d449a95)" d="M 446.914094 242.151 
L 449.075 242.151 
L 449.075 268.204421 
L 446.914094 268.204421 
z
" style="fill:#1f77b4;"/>
   </g>
   <g id="patch_115">
    <path clip-path="url(#p0a9d449a95)" d="M 452.316359 242.151 
L 454.477266 242.151 
L 454.477266 260.948566 
L 452.316359 260.948566 
z
" style="fill:#1f77b4;"/>
   </g>
   <g id="patch_116">
    <path clip-path="url(#p0a9d449a95)" d="M 457.718625 242.151 
L 459.879531 242.151 
L 459.879531 254.856472 
L 457.718625 254.856472 
z
" style="fill:#1f77b4;"/>
   </g>
   <g id="patch_117">
    <path clip-path="url(#p0a9d449a95)" d="M 460.419758 242.151 
L 462.580664 242.151 
L 462.580664 252.444744 
L 460.419758 252.444744 
z
" style="fill:#1f77b4;"/>
   </g>
   <g id="patch_118">
    <path clip-path="url(#p0a9d449a95)" d="M 465.822023 242.151 
L 467.982929 242.151 
L 467.982929 250.175239 
L 465.822023 250.175239 
z
" style="fill:#1f77b4;"/>
   </g>
   <g id="patch_119">
    <path clip-path="url(#p0a9d449a95)" d="M 468.523156 242.151 
L 470.684062 242.151 
L 470.684062 240.733076 
L 468.523156 240.733076 
z
" style="fill:#1f77b4;"/>
   </g>
   <g id="patch_120">
    <path clip-path="url(#p0a9d449a95)" d="M 479.327687 242.151 
L 481.488593 242.151 
L 481.488593 230.608031 
L 479.327687 230.608031 
z
" style="fill:#1f77b4;"/>
   </g>
   <g id="patch_121">
    <path clip-path="url(#p0a9d449a95)" d="M 482.02882 242.151 
L 484.189726 242.151 
L 484.189726 228.764754 
L 482.02882 228.764754 
z
" style="fill:#1f77b4;"/>
   </g>
   <g id="patch_122">
    <path clip-path="url(#p0a9d449a95)" d="M 495.534483 242.151 
L 497.695389 242.151 
L 497.695389 207.004711 
L 495.534483 207.004711 
z
" style="fill:#1f77b4;"/>
   </g>
   <g id="patch_123">
    <path clip-path="url(#p0a9d449a95)" d="M 498.235616 242.151 
L 500.396522 242.151 
L 500.396522 202.680275 
L 498.235616 202.680275 
z
" style="fill:#1f77b4;"/>
   </g>
   <g id="patch_124">
    <path clip-path="url(#p0a9d449a95)" d="M 500.936749 242.151 
L 503.097655 242.151 
L 503.097655 201.009405 
L 500.936749 201.009405 
z
" style="fill:#1f77b4;"/>
   </g>
   <g id="patch_125">
    <path clip-path="url(#p0a9d449a95)" d="M 538.752607 242.151 
L 540.913513 242.151 
L 540.913513 144.570116 
L 538.752607 144.570116 
z
" style="fill:#1f77b4;"/>
   </g>
   <g id="patch_126">
    <path clip-path="url(#p0a9d449a95)" d="M 544.154872 242.151 
L 546.315779 242.151 
L 546.315779 119.858237 
L 544.154872 119.858237 
z
" style="fill:#1f77b4;"/>
   </g>
   <g id="patch_127">
    <path clip-path="url(#p0a9d449a95)" d="M 546.856005 242.151 
L 549.016911 242.151 
L 549.016911 119.7491 
L 546.856005 119.7491 
z
" style="fill:#1f77b4;"/>
   </g>
   <g id="patch_128">
    <path clip-path="url(#p0a9d449a95)" d="M 552.258271 242.151 
L 554.419177 242.151 
L 554.419177 107.077851 
L 552.258271 107.077851 
z
" style="fill:#1f77b4;"/>
   </g>
   <g id="patch_129">
    <path clip-path="url(#p0a9d449a95)" d="M 93.065706 242.151 
L 95.226612 242.151 
L 95.226612 417.460162 
L 93.065706 417.460162 
z
" style="fill:#ff7f0e;"/>
   </g>
   <g id="patch_130">
    <path clip-path="url(#p0a9d449a95)" d="M 184.904219 242.151 
L 187.065125 242.151 
L 187.065125 394.414944 
L 184.904219 394.414944 
z
" style="fill:#ff7f0e;"/>
   </g>
   <g id="patch_131">
    <path clip-path="url(#p0a9d449a95)" d="M 201.111015 242.151 
L 203.271921 242.151 
L 203.271921 388.484383 
L 201.111015 388.484383 
z
" style="fill:#ff7f0e;"/>
   </g>
   <g id="patch_132">
    <path clip-path="url(#p0a9d449a95)" d="M 203.812148 242.151 
L 205.973054 242.151 
L 205.973054 387.759416 
L 203.812148 387.759416 
z
" style="fill:#ff7f0e;"/>
   </g>
   <g id="patch_133">
    <path clip-path="url(#p0a9d449a95)" d="M 209.214413 242.151 
L 211.37532 242.151 
L 211.37532 387.586788 
L 209.214413 387.586788 
z
" style="fill:#ff7f0e;"/>
   </g>
   <g id="patch_134">
    <path clip-path="url(#p0a9d449a95)" d="M 228.122343 242.151 
L 230.283249 242.151 
L 230.283249 379.502513 
L 228.122343 379.502513 
z
" style="fill:#ff7f0e;"/>
   </g>
   <g id="patch_135">
    <path clip-path="url(#p0a9d449a95)" d="M 230.823475 242.151 
L 232.984382 242.151 
L 232.984382 375.681401 
L 230.823475 375.681401 
z
" style="fill:#ff7f0e;"/>
   </g>
   <g id="patch_136">
    <path clip-path="url(#p0a9d449a95)" d="M 233.524608 242.151 
L 235.685514 242.151 
L 235.685514 375.538632 
L 233.524608 375.538632 
z
" style="fill:#ff7f0e;"/>
   </g>
   <g id="patch_137">
    <path clip-path="url(#p0a9d449a95)" d="M 244.329139 242.151 
L 246.490045 242.151 
L 246.490045 370.741148 
L 244.329139 370.741148 
z
" style="fill:#ff7f0e;"/>
   </g>
   <g id="patch_138">
    <path clip-path="url(#p0a9d449a95)" d="M 255.13367 242.151 
L 257.294576 242.151 
L 257.294576 367.905334 
L 255.13367 367.905334 
z
" style="fill:#ff7f0e;"/>
   </g>
   <g id="patch_139">
    <path clip-path="url(#p0a9d449a95)" d="M 282.144997 242.151 
L 284.305903 242.151 
L 284.305903 358.994541 
L 282.144997 358.994541 
z
" style="fill:#ff7f0e;"/>
   </g>
   <g id="patch_140">
    <path clip-path="url(#p0a9d449a95)" d="M 284.84613 242.151 
L 287.007036 242.151 
L 287.007036 357.44737 
L 284.84613 357.44737 
z
" style="fill:#ff7f0e;"/>
   </g>
   <g id="patch_141">
    <path clip-path="url(#p0a9d449a95)" d="M 306.455192 242.151 
L 308.616098 242.151 
L 308.616098 350.336473 
L 306.455192 350.336473 
z
" style="fill:#ff7f0e;"/>
   </g>
   <g id="patch_142">
    <path clip-path="url(#p0a9d449a95)" d="M 319.960856 242.151 
L 322.121762 242.151 
L 322.121762 346.54637 
L 319.960856 346.54637 
z
" style="fill:#ff7f0e;"/>
   </g>
   <g id="patch_143">
    <path clip-path="url(#p0a9d449a95)" d="M 325.363121 242.151 
L 327.524027 242.151 
L 327.524027 345.119195 
L 325.363121 345.119195 
z
" style="fill:#ff7f0e;"/>
   </g>
   <g id="patch_144">
    <path clip-path="url(#p0a9d449a95)" d="M 330.765386 242.151 
L 332.926293 242.151 
L 332.926293 341.894987 
L 330.765386 341.894987 
z
" style="fill:#ff7f0e;"/>
   </g>
   <g id="patch_145">
    <path clip-path="url(#p0a9d449a95)" d="M 333.466519 242.151 
L 335.627425 242.151 
L 335.627425 339.769381 
L 333.466519 339.769381 
z
" style="fill:#ff7f0e;"/>
   </g>
   <g id="patch_146">
    <path clip-path="url(#p0a9d449a95)" d="M 341.569917 242.151 
L 343.730824 242.151 
L 343.730824 337.15962 
L 341.569917 337.15962 
z
" style="fill:#ff7f0e;"/>
   </g>
   <g id="patch_147">
    <path clip-path="url(#p0a9d449a95)" d="M 346.972183 242.151 
L 349.133089 242.151 
L 349.133089 336.278694 
L 346.972183 336.278694 
z
" style="fill:#ff7f0e;"/>
   </g>
   <g id="patch_148">
    <path clip-path="url(#p0a9d449a95)" d="M 349.673316 242.151 
L 351.834222 242.151 
L 351.834222 335.061882 
L 349.673316 335.061882 
z
" style="fill:#ff7f0e;"/>
   </g>
   <g id="patch_149">
    <path clip-path="url(#p0a9d449a95)" d="M 357.776714 242.151 
L 359.93762 242.151 
L 359.93762 333.468598 
L 357.776714 333.468598 
z
" style="fill:#ff7f0e;"/>
   </g>
   <g id="patch_150">
    <path clip-path="url(#p0a9d449a95)" d="M 376.684643 242.151 
L 378.845549 242.151 
L 378.845549 319.796473 
L 376.684643 319.796473 
z
" style="fill:#ff7f0e;"/>
   </g>
   <g id="patch_151">
    <path clip-path="url(#p0a9d449a95)" d="M 379.385776 242.151 
L 381.546682 242.151 
L 381.546682 319.701832 
L 379.385776 319.701832 
z
" style="fill:#ff7f0e;"/>
   </g>
   <g id="patch_152">
    <path clip-path="url(#p0a9d449a95)" d="M 382.086908 242.151 
L 384.247815 242.151 
L 384.247815 316.593212 
L 382.086908 316.593212 
z
" style="fill:#ff7f0e;"/>
   </g>
   <g id="patch_153">
    <path clip-path="url(#p0a9d449a95)" d="M 384.788041 242.151 
L 386.948947 242.151 
L 386.948947 316.37674 
L 384.788041 316.37674 
z
" style="fill:#ff7f0e;"/>
   </g>
   <g id="patch_154">
    <path clip-path="url(#p0a9d449a95)" d="M 387.489174 242.151 
L 389.65008 242.151 
L 389.65008 315.895164 
L 387.489174 315.895164 
z
" style="fill:#ff7f0e;"/>
   </g>
   <g id="patch_155">
    <path clip-path="url(#p0a9d449a95)" d="M 390.190307 242.151 
L 392.351213 242.151 
L 392.351213 315.450801 
L 390.190307 315.450801 
z
" style="fill:#ff7f0e;"/>
   </g>
   <g id="patch_156">
    <path clip-path="url(#p0a9d449a95)" d="M 422.603899 242.151 
L 424.764806 242.151 
L 424.764806 291.129475 
L 422.603899 291.129475 
z
" style="fill:#ff7f0e;"/>
   </g>
   <g id="patch_157">
    <path clip-path="url(#p0a9d449a95)" d="M 444.212961 242.151 
L 446.373867 242.151 
L 446.373867 271.858738 
L 444.212961 271.858738 
z
" style="fill:#ff7f0e;"/>
   </g>
   <g id="patch_158">
    <path clip-path="url(#p0a9d449a95)" d="M 449.615227 242.151 
L 451.776133 242.151 
L 451.776133 261.223545 
L 449.615227 261.223545 
z
" style="fill:#ff7f0e;"/>
   </g>
   <g id="patch_159">
    <path clip-path="url(#p0a9d449a95)" d="M 455.017492 242.151 
L 457.178398 242.151 
L 457.178398 258.831746 
L 455.017492 258.831746 
z
" style="fill:#ff7f0e;"/>
   </g>
   <g id="patch_160">
    <path clip-path="url(#p0a9d449a95)" d="M 463.12089 242.151 
L 465.281797 242.151 
L 465.281797 252.356587 
L 463.12089 252.356587 
z
" style="fill:#ff7f0e;"/>
   </g>
   <g id="patch_161">
    <path clip-path="url(#p0a9d449a95)" d="M 471.224289 242.151 
L 473.385195 242.151 
L 473.385195 233.419225 
L 471.224289 233.419225 
z
" style="fill:#ff7f0e;"/>
   </g>
   <g id="patch_162">
    <path clip-path="url(#p0a9d449a95)" d="M 473.925421 242.151 
L 476.086328 242.151 
L 476.086328 232.025314 
L 473.925421 232.025314 
z
" style="fill:#ff7f0e;"/>
   </g>
   <g id="patch_163">
    <path clip-path="url(#p0a9d449a95)" d="M 476.626554 242.151 
L 478.78746 242.151 
L 478.78746 230.943452 
L 476.626554 230.943452 
z
" style="fill:#ff7f0e;"/>
   </g>
   <g id="patch_164">
    <path clip-path="url(#p0a9d449a95)" d="M 484.729952 242.151 
L 486.890858 242.151 
L 486.890858 225.164873 
L 484.729952 225.164873 
z
" style="fill:#ff7f0e;"/>
   </g>
   <g id="patch_165">
    <path clip-path="url(#p0a9d449a95)" d="M 487.431085 242.151 
L 489.591991 242.151 
L 489.591991 222.085431 
L 487.431085 222.085431 
z
" style="fill:#ff7f0e;"/>
   </g>
   <g id="patch_166">
    <path clip-path="url(#p0a9d449a95)" d="M 490.132218 242.151 
L 492.293124 242.151 
L 492.293124 217.269172 
L 490.132218 217.269172 
z
" style="fill:#ff7f0e;"/>
   </g>
   <g id="patch_167">
    <path clip-path="url(#p0a9d449a95)" d="M 492.83335 242.151 
L 494.994257 242.151 
L 494.994257 216.804182 
L 492.83335 216.804182 
z
" style="fill:#ff7f0e;"/>
   </g>
   <g id="patch_168">
    <path clip-path="url(#p0a9d449a95)" d="M 503.637881 242.151 
L 505.798788 242.151 
L 505.798788 200.028871 
L 503.637881 200.028871 
z
" style="fill:#ff7f0e;"/>
   </g>
   <g id="patch_169">
    <path clip-path="url(#p0a9d449a95)" d="M 506.339014 242.151 
L 508.49992 242.151 
L 508.49992 194.656189 
L 506.339014 194.656189 
z
" style="fill:#ff7f0e;"/>
   </g>
   <g id="patch_170">
    <path clip-path="url(#p0a9d449a95)" d="M 509.040147 242.151 
L 511.201053 242.151 
L 511.201053 178.623246 
L 509.040147 178.623246 
z
" style="fill:#ff7f0e;"/>
   </g>
   <g id="patch_171">
    <path clip-path="url(#p0a9d449a95)" d="M 511.74128 242.151 
L 513.902186 242.151 
L 513.902186 178.225905 
L 511.74128 178.225905 
z
" style="fill:#ff7f0e;"/>
   </g>
   <g id="patch_172">
    <path clip-path="url(#p0a9d449a95)" d="M 514.442412 242.151 
L 516.603319 242.151 
L 516.603319 177.164205 
L 514.442412 177.164205 
z
" style="fill:#ff7f0e;"/>
   </g>
   <g id="patch_173">
    <path clip-path="url(#p0a9d449a95)" d="M 517.143545 242.151 
L 519.304451 242.151 
L 519.304451 174.251136 
L 517.143545 174.251136 
z
" style="fill:#ff7f0e;"/>
   </g>
   <g id="patch_174">
    <path clip-path="url(#p0a9d449a95)" d="M 519.844678 242.151 
L 522.005584 242.151 
L 522.005584 172.154213 
L 519.844678 172.154213 
z
" style="fill:#ff7f0e;"/>
   </g>
   <g id="patch_175">
    <path clip-path="url(#p0a9d449a95)" d="M 522.545811 242.151 
L 524.706717 242.151 
L 524.706717 163.276469 
L 522.545811 163.276469 
z
" style="fill:#ff7f0e;"/>
   </g>
   <g id="patch_176">
    <path clip-path="url(#p0a9d449a95)" d="M 525.246943 242.151 
L 527.407849 242.151 
L 527.407849 161.009817 
L 525.246943 161.009817 
z
" style="fill:#ff7f0e;"/>
   </g>
   <g id="patch_177">
    <path clip-path="url(#p0a9d449a95)" d="M 527.948076 242.151 
L 530.108982 242.151 
L 530.108982 157.546577 
L 527.948076 157.546577 
z
" style="fill:#ff7f0e;"/>
   </g>
   <g id="patch_178">
    <path clip-path="url(#p0a9d449a95)" d="M 530.649209 242.151 
L 532.810115 242.151 
L 532.810115 146.946427 
L 530.649209 146.946427 
z
" style="fill:#ff7f0e;"/>
   </g>
   <g id="patch_179">
    <path clip-path="url(#p0a9d449a95)" d="M 533.350341 242.151 
L 535.511248 242.151 
L 535.511248 145.913263 
L 533.350341 145.913263 
z
" style="fill:#ff7f0e;"/>
   </g>
   <g id="patch_180">
    <path clip-path="url(#p0a9d449a95)" d="M 536.051474 242.151 
L 538.21238 242.151 
L 538.21238 145.562973 
L 536.051474 145.562973 
z
" style="fill:#ff7f0e;"/>
   </g>
   <g id="patch_181">
    <path clip-path="url(#p0a9d449a95)" d="M 541.45374 242.151 
L 543.614646 242.151 
L 543.614646 130.890869 
L 541.45374 130.890869 
z
" style="fill:#ff7f0e;"/>
   </g>
   <g id="patch_182">
    <path clip-path="url(#p0a9d449a95)" d="M 549.557138 242.151 
L 551.718044 242.151 
L 551.718044 107.843751 
L 549.557138 107.843751 
z
" style="fill:#ff7f0e;"/>
   </g>
   <g id="patch_183">
    <path clip-path="url(#p0a9d449a95)" d="M 554.959403 242.151 
L 557.12031 242.151 
L 557.12031 90.558729 
L 554.959403 90.558729 
z
" style="fill:#ff7f0e;"/>
   </g>
   <g id="patch_184">
    <path clip-path="url(#p0a9d449a95)" d="M 557.660536 242.151 
L 559.821442 242.151 
L 559.821442 82.897663 
L 557.660536 82.897663 
z
" style="fill:#ff7f0e;"/>
   </g>
   <g id="patch_185">
    <path clip-path="url(#p0a9d449a95)" d="M 560.361669 242.151 
L 562.522575 242.151 
L 562.522575 71.761737 
L 560.361669 71.761737 
z
" style="fill:#ff7f0e;"/>
   </g>
   <g id="patch_186">
    <path clip-path="url(#p0a9d449a95)" d="M 563.062802 242.151 
L 565.223708 242.151 
L 565.223708 69.689638 
L 563.062802 69.689638 
z
" style="fill:#ff7f0e;"/>
   </g>
   <g id="patch_187">
    <path clip-path="url(#p0a9d449a95)" d="M 565.763934 242.151 
L 567.92484 242.151 
L 567.92484 64.073042 
L 565.763934 64.073042 
z
" style="fill:#ff7f0e;"/>
   </g>
   <g id="patch_188">
    <path clip-path="url(#p0a9d449a95)" d="M 568.465067 242.151 
L 570.625973 242.151 
L 570.625973 63.457394 
L 568.465067 63.457394 
z
" style="fill:#ff7f0e;"/>
   </g>
   <g id="patch_189">
    <path clip-path="url(#p0a9d449a95)" d="M 571.1662 242.151 
L 573.327106 242.151 
L 573.327106 56.893892 
L 571.1662 56.893892 
z
" style="fill:#ff7f0e;"/>
   </g>
   <g id="patch_190">
    <path clip-path="url(#p0a9d449a95)" d="M 573.867332 242.151 
L 576.028239 242.151 
L 576.028239 44.478273 
L 573.867332 44.478273 
z
" style="fill:#ff7f0e;"/>
   </g>
   <g id="matplotlib.axis_1">
    <g id="xtick_1">
     <g id="line2d_1">
      <defs>
       <path d="M 0 0 
L 0 3.5 
" id="m190b8f7924" style="stroke:#000000;stroke-width:0.8;"/>
      </defs>
      <g>
       <use style="stroke:#000000;stroke-width:0.8;" x="69.835964" xlink:href="#m190b8f7924" y="459.591"/>
      </g>
     </g>
     <g id="text_1">
      <!-- 0 -->
      <defs>
       <path d="M 4.4375 36.328125 
Q 4.4375 56.34375 11.078125 66.625 
Q 17.71875 76.90625 30.328125 76.90625 
Q 54.34375 76.90625 54.34375 38.140625 
Q 54.34375 19 47.578125 8.859375 
Q 40.828125 -1.265625 28.609375 -1.265625 
Q 17.09375 -1.265625 10.765625 8.34375 
Q 4.4375 17.96875 4.4375 36.328125 
z
M 14.203125 36.765625 
Q 14.203125 6.640625 29.5 6.640625 
Q 44.53125 6.640625 44.53125 37.25 
Q 44.53125 68.953125 29.78125 68.953125 
Q 14.203125 68.953125 14.203125 36.765625 
z
" id="MicrosoftYaHei-48"/>
      </defs>
      <g transform="translate(66.317527 476.1835)scale(0.12 -0.12)">
       <use xlink:href="#MicrosoftYaHei-48"/>
      </g>
     </g>
    </g>
    <g id="xtick_2">
     <g id="line2d_2">
      <g>
       <use style="stroke:#000000;stroke-width:0.8;" x="137.364283" xlink:href="#m190b8f7924" y="459.591"/>
      </g>
     </g>
     <g id="text_2">
      <!-- 25 -->
      <defs>
       <path d="M 41.65625 55.8125 
Q 41.65625 61.921875 37.796875 65.40625 
Q 33.9375 68.890625 27.296875 68.890625 
Q 22.609375 68.890625 17.8125 66.5 
Q 13.03125 64.109375 8.890625 59.671875 
L 8.890625 68.953125 
Q 12.59375 72.796875 17.296875 74.84375 
Q 22.015625 76.90625 28.375 76.90625 
Q 38.625 76.90625 44.875 71.40625 
Q 51.125 65.921875 51.125 56.546875 
Q 51.125 48.1875 47.28125 42.078125 
Q 43.453125 35.984375 34.1875 29.59375 
Q 24.703125 23.046875 21.5 20.21875 
Q 18.3125 17.390625 17.03125 14.796875 
Q 15.765625 12.203125 15.765625 8.5 
L 53.375 8.5 
L 53.375 0 
L 5.8125 0 
L 5.8125 3.765625 
Q 5.8125 10.296875 7.59375 14.859375 
Q 9.375 19.4375 13.46875 23.75 
Q 17.578125 28.078125 26.265625 34.125 
Q 35.15625 40.375 38.40625 45.09375 
Q 41.65625 49.8125 41.65625 55.8125 
z
" id="MicrosoftYaHei-50"/>
       <path d="M 51.46875 23.34375 
Q 51.46875 12.25 44.109375 5.46875 
Q 36.765625 -1.3125 24.359375 -1.3125 
Q 13.71875 -1.3125 8.5 1.859375 
L 8.5 11.625 
Q 16.15625 6.640625 24.125 6.640625 
Q 32.03125 6.640625 36.890625 11 
Q 41.75 15.375 41.75 22.609375 
Q 41.75 29.828125 36.6875 33.859375 
Q 31.640625 37.890625 22.40625 37.890625 
Q 15.28125 37.890625 9.578125 37.25 
L 12.359375 75.640625 
L 47.703125 75.640625 
L 47.703125 67.234375 
L 20.40625 67.234375 
L 18.84375 45.796875 
L 25.734375 46.09375 
Q 37.75 46.09375 44.609375 40.109375 
Q 51.46875 34.125 51.46875 23.34375 
z
" id="MicrosoftYaHei-53"/>
      </defs>
      <g transform="translate(130.327408 476.1835)scale(0.12 -0.12)">
       <use xlink:href="#MicrosoftYaHei-50"/>
       <use x="58.642578" xlink:href="#MicrosoftYaHei-53"/>
      </g>
     </g>
    </g>
    <g id="xtick_3">
     <g id="line2d_3">
      <g>
       <use style="stroke:#000000;stroke-width:0.8;" x="204.892601" xlink:href="#m190b8f7924" y="459.591"/>
      </g>
     </g>
     <g id="text_3">
      <!-- 50 -->
      <g transform="translate(197.855726 476.1835)scale(0.12 -0.12)">
       <use xlink:href="#MicrosoftYaHei-53"/>
       <use x="58.642578" xlink:href="#MicrosoftYaHei-48"/>
      </g>
     </g>
    </g>
    <g id="xtick_4">
     <g id="line2d_4">
      <g>
       <use style="stroke:#000000;stroke-width:0.8;" x="272.420919" xlink:href="#m190b8f7924" y="459.591"/>
      </g>
     </g>
     <g id="text_4">
      <!-- 75 -->
      <defs>
       <path d="M 53.46875 69.734375 
Q 41.546875 48.921875 34.734375 31.21875 
Q 27.9375 13.53125 26.3125 0 
L 16.359375 0 
Q 18.171875 13.328125 24.90625 30.421875 
Q 31.640625 47.515625 42.921875 67.1875 
L 5.421875 67.1875 
L 5.421875 75.640625 
L 53.46875 75.640625 
z
" id="MicrosoftYaHei-55"/>
      </defs>
      <g transform="translate(265.384044 476.1835)scale(0.12 -0.12)">
       <use xlink:href="#MicrosoftYaHei-55"/>
       <use x="58.642578" xlink:href="#MicrosoftYaHei-53"/>
      </g>
     </g>
    </g>
    <g id="xtick_5">
     <g id="line2d_5">
      <g>
       <use style="stroke:#000000;stroke-width:0.8;" x="339.949238" xlink:href="#m190b8f7924" y="459.591"/>
      </g>
     </g>
     <g id="text_5">
      <!-- 100 -->
      <defs>
       <path d="M 27.828125 0 
L 27.828125 64.703125 
Q 25.59375 62.453125 20.234375 59.671875 
Q 14.890625 56.890625 10.359375 55.765625 
L 10.359375 65.140625 
Q 16.359375 66.796875 23.1875 70.4375 
Q 30.03125 74.078125 33.6875 77.296875 
L 37.3125 77.296875 
L 37.3125 0 
z
" id="MicrosoftYaHei-49"/>
      </defs>
      <g transform="translate(329.393925 476.1835)scale(0.12 -0.12)">
       <use xlink:href="#MicrosoftYaHei-49"/>
       <use x="58.642578" xlink:href="#MicrosoftYaHei-48"/>
       <use x="117.285156" xlink:href="#MicrosoftYaHei-48"/>
      </g>
     </g>
    </g>
    <g id="xtick_6">
     <g id="line2d_6">
      <g>
       <use style="stroke:#000000;stroke-width:0.8;" x="407.477556" xlink:href="#m190b8f7924" y="459.591"/>
      </g>
     </g>
     <g id="text_6">
      <!-- 125 -->
      <g transform="translate(396.922244 476.1835)scale(0.12 -0.12)">
       <use xlink:href="#MicrosoftYaHei-49"/>
       <use x="58.642578" xlink:href="#MicrosoftYaHei-50"/>
       <use x="117.285156" xlink:href="#MicrosoftYaHei-53"/>
      </g>
     </g>
    </g>
    <g id="xtick_7">
     <g id="line2d_7">
      <g>
       <use style="stroke:#000000;stroke-width:0.8;" x="475.005874" xlink:href="#m190b8f7924" y="459.591"/>
      </g>
     </g>
     <g id="text_7">
      <!-- 150 -->
      <g transform="translate(464.450562 476.1835)scale(0.12 -0.12)">
       <use xlink:href="#MicrosoftYaHei-49"/>
       <use x="58.642578" xlink:href="#MicrosoftYaHei-53"/>
       <use x="117.285156" xlink:href="#MicrosoftYaHei-48"/>
      </g>
     </g>
    </g>
    <g id="xtick_8">
     <g id="line2d_8">
      <g>
       <use style="stroke:#000000;stroke-width:0.8;" x="542.534193" xlink:href="#m190b8f7924" y="459.591"/>
      </g>
     </g>
     <g id="text_8">
      <!-- 175 -->
      <g transform="translate(531.97888 476.1835)scale(0.12 -0.12)">
       <use xlink:href="#MicrosoftYaHei-49"/>
       <use x="58.642578" xlink:href="#MicrosoftYaHei-55"/>
       <use x="117.285156" xlink:href="#MicrosoftYaHei-53"/>
      </g>
     </g>
    </g>
   </g>
   <g id="matplotlib.axis_2">
    <g id="ytick_1">
     <g id="line2d_9">
      <defs>
       <path d="M 0 0 
L -3.5 0 
" id="m75b302980d" style="stroke:#000000;stroke-width:0.8;"/>
      </defs>
      <g>
       <use style="stroke:#000000;stroke-width:0.8;" x="43.391875" xlink:href="#m75b302980d" y="439.823727"/>
      </g>
     </g>
     <g id="text_9">
      <!-- -1.00 -->
      <defs>
       <path d="M 36.375 26.265625 
L 7.625 26.265625 
L 7.625 33.640625 
L 36.375 33.640625 
z
" id="MicrosoftYaHei-45"/>
       <path d="M 5.8125 5.03125 
Q 5.8125 7.671875 7.609375 9.46875 
Q 9.421875 11.28125 12.109375 11.28125 
Q 14.84375 11.28125 16.640625 9.453125 
Q 18.453125 7.625 18.453125 5.03125 
Q 18.453125 2.484375 16.640625 0.65625 
Q 14.84375 -1.171875 12.0625 -1.171875 
Q 9.375 -1.171875 7.59375 0.65625 
Q 5.8125 2.484375 5.8125 5.03125 
z
" id="MicrosoftYaHei-46"/>
      </defs>
      <g transform="translate(7.2 444.619977)scale(0.12 -0.12)">
       <use xlink:href="#MicrosoftYaHei-45"/>
       <use x="43.261719" xlink:href="#MicrosoftYaHei-49"/>
       <use x="101.904297" xlink:href="#MicrosoftYaHei-46"/>
       <use x="125.976562" xlink:href="#MicrosoftYaHei-48"/>
       <use x="184.619141" xlink:href="#MicrosoftYaHei-48"/>
      </g>
     </g>
    </g>
    <g id="ytick_2">
     <g id="line2d_10">
      <g>
       <use style="stroke:#000000;stroke-width:0.8;" x="43.391875" xlink:href="#m75b302980d" y="390.405545"/>
      </g>
     </g>
     <g id="text_10">
      <!-- -0.75 -->
      <g transform="translate(7.2 395.201795)scale(0.12 -0.12)">
       <use xlink:href="#MicrosoftYaHei-45"/>
       <use x="43.261719" xlink:href="#MicrosoftYaHei-48"/>
       <use x="101.904297" xlink:href="#MicrosoftYaHei-46"/>
       <use x="125.976562" xlink:href="#MicrosoftYaHei-55"/>
       <use x="184.619141" xlink:href="#MicrosoftYaHei-53"/>
      </g>
     </g>
    </g>
    <g id="ytick_3">
     <g id="line2d_11">
      <g>
       <use style="stroke:#000000;stroke-width:0.8;" x="43.391875" xlink:href="#m75b302980d" y="340.987364"/>
      </g>
     </g>
     <g id="text_11">
      <!-- -0.50 -->
      <g transform="translate(7.2 345.783614)scale(0.12 -0.12)">
       <use xlink:href="#MicrosoftYaHei-45"/>
       <use x="43.261719" xlink:href="#MicrosoftYaHei-48"/>
       <use x="101.904297" xlink:href="#MicrosoftYaHei-46"/>
       <use x="125.976562" xlink:href="#MicrosoftYaHei-53"/>
       <use x="184.619141" xlink:href="#MicrosoftYaHei-48"/>
      </g>
     </g>
    </g>
    <g id="ytick_4">
     <g id="line2d_12">
      <g>
       <use style="stroke:#000000;stroke-width:0.8;" x="43.391875" xlink:href="#m75b302980d" y="291.569182"/>
      </g>
     </g>
     <g id="text_12">
      <!-- -0.25 -->
      <g transform="translate(7.2 296.365432)scale(0.12 -0.12)">
       <use xlink:href="#MicrosoftYaHei-45"/>
       <use x="43.261719" xlink:href="#MicrosoftYaHei-48"/>
       <use x="101.904297" xlink:href="#MicrosoftYaHei-46"/>
       <use x="125.976562" xlink:href="#MicrosoftYaHei-50"/>
       <use x="184.619141" xlink:href="#MicrosoftYaHei-53"/>
      </g>
     </g>
    </g>
    <g id="ytick_5">
     <g id="line2d_13">
      <g>
       <use style="stroke:#000000;stroke-width:0.8;" x="43.391875" xlink:href="#m75b302980d" y="242.151"/>
      </g>
     </g>
     <g id="text_13">
      <!-- 0.00 -->
      <g transform="translate(12.391875 246.94725)scale(0.12 -0.12)">
       <use xlink:href="#MicrosoftYaHei-48"/>
       <use x="58.642578" xlink:href="#MicrosoftYaHei-46"/>
       <use x="82.714844" xlink:href="#MicrosoftYaHei-48"/>
       <use x="141.357422" xlink:href="#MicrosoftYaHei-48"/>
      </g>
     </g>
    </g>
    <g id="ytick_6">
     <g id="line2d_14">
      <g>
       <use style="stroke:#000000;stroke-width:0.8;" x="43.391875" xlink:href="#m75b302980d" y="192.732818"/>
      </g>
     </g>
     <g id="text_14">
      <!-- 0.25 -->
      <g transform="translate(12.391875 197.529068)scale(0.12 -0.12)">
       <use xlink:href="#MicrosoftYaHei-48"/>
       <use x="58.642578" xlink:href="#MicrosoftYaHei-46"/>
       <use x="82.714844" xlink:href="#MicrosoftYaHei-50"/>
       <use x="141.357422" xlink:href="#MicrosoftYaHei-53"/>
      </g>
     </g>
    </g>
    <g id="ytick_7">
     <g id="line2d_15">
      <g>
       <use style="stroke:#000000;stroke-width:0.8;" x="43.391875" xlink:href="#m75b302980d" y="143.314636"/>
      </g>
     </g>
     <g id="text_15">
      <!-- 0.50 -->
      <g transform="translate(12.391875 148.110886)scale(0.12 -0.12)">
       <use xlink:href="#MicrosoftYaHei-48"/>
       <use x="58.642578" xlink:href="#MicrosoftYaHei-46"/>
       <use x="82.714844" xlink:href="#MicrosoftYaHei-53"/>
       <use x="141.357422" xlink:href="#MicrosoftYaHei-48"/>
      </g>
     </g>
    </g>
    <g id="ytick_8">
     <g id="line2d_16">
      <g>
       <use style="stroke:#000000;stroke-width:0.8;" x="43.391875" xlink:href="#m75b302980d" y="93.896455"/>
      </g>
     </g>
     <g id="text_16">
      <!-- 0.75 -->
      <g transform="translate(12.391875 98.692705)scale(0.12 -0.12)">
       <use xlink:href="#MicrosoftYaHei-48"/>
       <use x="58.642578" xlink:href="#MicrosoftYaHei-46"/>
       <use x="82.714844" xlink:href="#MicrosoftYaHei-55"/>
       <use x="141.357422" xlink:href="#MicrosoftYaHei-53"/>
      </g>
     </g>
    </g>
    <g id="ytick_9">
     <g id="line2d_17">
      <g>
       <use style="stroke:#000000;stroke-width:0.8;" x="43.391875" xlink:href="#m75b302980d" y="44.478273"/>
      </g>
     </g>
     <g id="text_17">
      <!-- 1.00 -->
      <g transform="translate(12.391875 49.274523)scale(0.12 -0.12)">
       <use xlink:href="#MicrosoftYaHei-49"/>
       <use x="58.642578" xlink:href="#MicrosoftYaHei-46"/>
       <use x="82.714844" xlink:href="#MicrosoftYaHei-48"/>
       <use x="141.357422" xlink:href="#MicrosoftYaHei-48"/>
      </g>
     </g>
    </g>
   </g>
   <g id="patch_191">
    <path d="M 43.391875 459.591 
L 43.391875 24.711 
" style="fill:none;stroke:#000000;stroke-linecap:square;stroke-linejoin:miter;stroke-width:0.8;"/>
   </g>
   <g id="patch_192">
    <path d="M 601.391875 459.591 
L 601.391875 24.711 
" style="fill:none;stroke:#000000;stroke-linecap:square;stroke-linejoin:miter;stroke-width:0.8;"/>
   </g>
   <g id="patch_193">
    <path d="M 43.391875 459.591 
L 601.391875 459.591 
" style="fill:none;stroke:#000000;stroke-linecap:square;stroke-linejoin:miter;stroke-width:0.8;"/>
   </g>
   <g id="patch_194">
    <path d="M 43.391875 24.711 
L 601.391875 24.711 
" style="fill:none;stroke:#000000;stroke-linecap:square;stroke-linejoin:miter;stroke-width:0.8;"/>
   </g>
   <g id="text_18">
    <!-- LR sample predict score -->
    <defs>
     <path d="M 49.65625 0 
L 9.765625 0 
L 9.765625 75.640625 
L 19.53125 75.640625 
L 19.53125 8.640625 
L 49.65625 8.640625 
z
" id="MicrosoftYaHei-76"/>
     <path d="M 64.984375 0 
L 53.46875 0 
L 40.921875 21 
Q 37.15625 27.296875 34.03125 29.5625 
Q 30.90625 31.84375 26.5625 31.84375 
L 19.53125 31.84375 
L 19.53125 0 
L 9.765625 0 
L 9.765625 75.640625 
L 32.8125 75.640625 
Q 43.84375 75.640625 50.09375 70.3125 
Q 56.34375 64.984375 56.34375 55.421875 
Q 56.34375 39.703125 39.546875 35.015625 
L 39.546875 34.765625 
Q 42.671875 33.453125 44.9375 31 
Q 47.21875 28.5625 50.828125 22.65625 
z
M 19.53125 67.09375 
L 19.53125 40.375 
L 31.0625 40.375 
Q 37.75 40.375 41.921875 44.28125 
Q 46.09375 48.1875 46.09375 54.546875 
Q 46.09375 60.453125 42.28125 63.765625 
Q 38.484375 67.09375 31.203125 67.09375 
z
" id="MicrosoftYaHei-82"/>
     <path id="MicrosoftYaHei-32"/>
     <path d="M 5.515625 11.671875 
Q 12.75 6.453125 21.09375 6.453125 
Q 32.28125 6.453125 32.28125 13.765625 
Q 32.28125 16.890625 29.828125 18.921875 
Q 27.390625 20.953125 19.921875 23.734375 
Q 10.9375 27.34375 8.25 30.875 
Q 5.5625 34.421875 5.5625 39.453125 
Q 5.5625 46.625 11.640625 50.953125 
Q 17.71875 55.28125 26.609375 55.28125 
Q 33.5 55.28125 39.40625 52.875 
L 39.40625 43.65625 
Q 33.34375 47.5625 25.6875 47.5625 
Q 21.09375 47.5625 18.203125 45.5625 
Q 15.328125 43.5625 15.328125 40.28125 
Q 15.328125 37.0625 17.40625 35.25 
Q 19.484375 33.453125 26.609375 30.609375 
Q 35.640625 27.25 38.8125 23.625 
Q 42 20.015625 42 14.703125 
Q 42 7.28125 35.90625 3 
Q 29.828125 -1.265625 20.171875 -1.265625 
Q 11.765625 -1.265625 5.515625 1.90625 
z
" id="MicrosoftYaHei-115"/>
     <path d="M 9.8125 50.25 
Q 17.875 55.28125 28.421875 55.28125 
Q 47.953125 55.28125 47.953125 34.765625 
L 47.953125 0 
L 38.484375 0 
L 38.484375 8.34375 
L 38.234375 8.34375 
Q 32.625 -1.265625 21.6875 -1.265625 
Q 13.8125 -1.265625 9.171875 2.984375 
Q 4.546875 7.234375 4.546875 14.453125 
Q 4.546875 29.59375 22.46875 32.078125 
L 38.484375 34.328125 
Q 38.484375 47.5625 27.546875 47.5625 
Q 17.828125 47.5625 9.8125 41.015625 
z
M 25.828125 25.390625 
Q 19.1875 24.515625 16.671875 22.0625 
Q 14.15625 19.625 14.15625 15.234375 
Q 14.15625 11.375 16.890625 8.9375 
Q 19.625 6.5 24.125 6.5 
Q 30.375 6.5 34.421875 10.890625 
Q 38.484375 15.28125 38.484375 21.921875 
L 38.484375 27.09375 
z
" id="MicrosoftYaHei-97"/>
     <path d="M 86.28125 0 
L 76.703125 0 
L 76.703125 31 
Q 76.703125 39.796875 73.96875 43.578125 
Q 71.234375 47.359375 64.984375 47.359375 
Q 59.71875 47.359375 55.953125 42.421875 
Q 52.203125 37.5 52.203125 30.765625 
L 52.203125 0 
L 42.625 0 
L 42.625 31.984375 
Q 42.625 47.359375 30.765625 47.359375 
Q 25.296875 47.359375 21.703125 42.671875 
Q 18.109375 37.984375 18.109375 30.71875 
L 18.109375 0 
L 8.546875 0 
L 8.546875 54 
L 18.109375 54 
L 18.109375 45.453125 
L 18.3125 45.453125 
Q 24.078125 55.28125 35.15625 55.28125 
Q 40.578125 55.28125 44.71875 52.296875 
Q 48.875 49.3125 50.484375 44.234375 
Q 56.5 55.28125 68.453125 55.28125 
Q 86.28125 55.28125 86.28125 33.296875 
z
" id="MicrosoftYaHei-109"/>
     <path d="M 18.109375 7.625 
L 18.109375 -24.859375 
L 8.546875 -24.859375 
L 8.546875 54 
L 18.109375 54 
L 18.109375 44.671875 
L 18.3125 44.671875 
Q 24.65625 55.28125 36.859375 55.28125 
Q 47.21875 55.28125 53.09375 48.015625 
Q 58.984375 40.765625 58.984375 28.5625 
Q 58.984375 15.09375 52.3125 6.90625 
Q 45.65625 -1.265625 34.375 -1.265625 
Q 23.96875 -1.265625 18.3125 7.625 
z
M 18.0625 22.265625 
Q 18.0625 15.671875 22.3125 11.15625 
Q 26.5625 6.640625 32.953125 6.640625 
Q 40.578125 6.640625 44.875 12.5 
Q 49.171875 18.359375 49.171875 28.71875 
Q 49.171875 37.453125 45.15625 42.40625 
Q 41.15625 47.359375 34.234375 47.359375 
Q 27.15625 47.359375 22.609375 42.328125 
Q 18.0625 37.3125 18.0625 29.4375 
z
" id="MicrosoftYaHei-112"/>
     <path d="M 8.5 0 
L 8.5 79.9375 
L 18.0625 79.9375 
L 18.0625 0 
z
" id="MicrosoftYaHei-108"/>
     <path d="M 52.546875 24.5625 
L 14.75 24.5625 
Q 14.984375 15.921875 19.46875 11.203125 
Q 23.96875 6.5 32.03125 6.5 
Q 41.109375 6.5 48.6875 12.3125 
L 48.6875 3.765625 
Q 41.546875 -1.265625 29.78125 -1.265625 
Q 18.0625 -1.265625 11.5 6.15625 
Q 4.9375 13.578125 4.9375 26.765625 
Q 4.9375 39.15625 12.140625 47.21875 
Q 19.34375 55.28125 30.03125 55.28125 
Q 40.625 55.28125 46.578125 48.46875 
Q 52.546875 41.65625 52.546875 29.390625 
z
M 42.96875 32.234375 
Q 42.921875 39.546875 39.5 43.546875 
Q 36.078125 47.5625 29.890625 47.5625 
Q 24.171875 47.5625 20 43.3125 
Q 15.828125 39.0625 14.75 32.234375 
z
" id="MicrosoftYaHei-101"/>
     <path d="M 37.5 44.53125 
Q 35.109375 46.234375 30.90625 46.234375 
Q 25.34375 46.234375 21.71875 41.03125 
Q 18.109375 35.84375 18.109375 27.34375 
L 18.109375 0 
L 8.546875 0 
L 8.546875 54 
L 18.109375 54 
L 18.109375 43.015625 
L 18.3125 43.015625 
Q 22.40625 54.9375 32.46875 54.9375 
Q 35.75 54.9375 37.5 54.203125 
z
" id="MicrosoftYaHei-114"/>
     <path d="M 55.421875 0 
L 45.84375 0 
L 45.84375 8.984375 
L 45.65625 8.984375 
Q 39.75 -1.265625 27.296875 -1.265625 
Q 17.046875 -1.265625 10.984375 6.03125 
Q 4.9375 13.328125 4.9375 25.734375 
Q 4.9375 39.109375 11.765625 47.1875 
Q 18.609375 55.28125 29.640625 55.28125 
Q 40.671875 55.28125 45.65625 46.6875 
L 45.84375 46.6875 
L 45.84375 79.9375 
L 55.421875 79.9375 
z
M 45.90625 32.125 
Q 45.90625 38.625 41.625 42.984375 
Q 37.359375 47.359375 31.109375 47.359375 
Q 23.484375 47.359375 19.09375 41.671875 
Q 14.703125 35.984375 14.703125 26.171875 
Q 14.703125 17.140625 18.921875 11.890625 
Q 23.140625 6.640625 30.171875 6.640625 
Q 37.109375 6.640625 41.5 11.78125 
Q 45.90625 16.9375 45.90625 24.609375 
z
" id="MicrosoftYaHei-100"/>
     <path d="M 7.375 73.046875 
Q 7.375 75.59375 9.109375 77.3125 
Q 10.84375 79.046875 13.375 79.046875 
Q 15.96875 79.046875 17.75 77.34375 
Q 19.53125 75.640625 19.53125 73.046875 
Q 19.53125 70.515625 17.75 68.828125 
Q 15.96875 67.140625 13.375 67.140625 
Q 10.796875 67.140625 9.078125 68.828125 
Q 7.375 70.515625 7.375 73.046875 
z
M 8.5 0 
L 8.5 54 
L 18.0625 54 
L 18.0625 0 
z
" id="MicrosoftYaHei-105"/>
     <path d="M 45.84375 2.4375 
Q 39.65625 -1.265625 30.90625 -1.265625 
Q 19.1875 -1.265625 12.0625 6.25 
Q 4.9375 13.765625 4.9375 25.734375 
Q 4.9375 39.015625 12.625 47.140625 
Q 20.3125 55.28125 33.203125 55.28125 
Q 40.625 55.28125 45.90625 52.640625 
L 45.90625 43.171875 
Q 40.1875 47.359375 33.203125 47.359375 
Q 25 47.359375 19.84375 41.671875 
Q 14.703125 35.984375 14.703125 26.515625 
Q 14.703125 17.1875 19.5625 11.90625 
Q 24.421875 6.640625 32.671875 6.640625 
Q 39.65625 6.640625 45.84375 11.234375 
z
" id="MicrosoftYaHei-99"/>
     <path d="M 34.46875 0.53125 
Q 31.34375 -1.171875 26.03125 -1.171875 
Q 11.53125 -1.171875 11.53125 14.890625 
L 11.53125 46.09375 
L 2.25 46.09375 
L 2.25 54 
L 11.53125 54 
L 11.53125 67 
L 21.046875 70.015625 
L 21.046875 54 
L 34.46875 54 
L 34.46875 46.09375 
L 21.046875 46.09375 
L 21.046875 16.609375 
Q 21.046875 11.28125 22.84375 8.984375 
Q 24.65625 6.6875 28.859375 6.6875 
Q 32.078125 6.6875 34.46875 8.5 
z
" id="MicrosoftYaHei-116"/>
     <path d="M 4.9375 26.421875 
Q 4.9375 39.796875 12.40625 47.53125 
Q 19.875 55.28125 32.671875 55.28125 
Q 44.828125 55.28125 51.734375 47.828125 
Q 58.640625 40.375 58.640625 27.25 
Q 58.640625 14.453125 51.265625 6.59375 
Q 43.890625 -1.265625 31.5 -1.265625 
Q 19.390625 -1.265625 12.15625 6.34375 
Q 4.9375 13.96875 4.9375 26.421875 
z
M 14.703125 26.703125 
Q 14.703125 17.390625 19.40625 12.015625 
Q 24.125 6.640625 32.078125 6.640625 
Q 40.28125 6.640625 44.578125 11.890625 
Q 48.875 17.140625 48.875 26.953125 
Q 48.875 36.8125 44.578125 42.078125 
Q 40.28125 47.359375 32.078125 47.359375 
Q 24.03125 47.359375 19.359375 41.84375 
Q 14.703125 36.328125 14.703125 26.703125 
z
" id="MicrosoftYaHei-111"/>
    </defs>
    <g transform="translate(240.54025 18.711)scale(0.144 -0.144)">
     <use xlink:href="#MicrosoftYaHei-76"/>
     <use x="51.318359" xlink:href="#MicrosoftYaHei-82"/>
     <use x="116.601562" xlink:href="#MicrosoftYaHei-32"/>
     <use x="146.191406" xlink:href="#MicrosoftYaHei-115"/>
     <use x="192.480469" xlink:href="#MicrosoftYaHei-97"/>
     <use x="247.753906" xlink:href="#MicrosoftYaHei-109"/>
     <use x="341.455078" xlink:href="#MicrosoftYaHei-112"/>
     <use x="405.322266" xlink:href="#MicrosoftYaHei-108"/>
     <use x="431.933594" xlink:href="#MicrosoftYaHei-101"/>
     <use x="488.671875" xlink:href="#MicrosoftYaHei-32"/>
     <use x="518.261719" xlink:href="#MicrosoftYaHei-112"/>
     <use x="582.128906" xlink:href="#MicrosoftYaHei-114"/>
     <use x="618.9375" xlink:href="#MicrosoftYaHei-101"/>
     <use x="675.675781" xlink:href="#MicrosoftYaHei-100"/>
     <use x="739.640625" xlink:href="#MicrosoftYaHei-105"/>
     <use x="766.251953" xlink:href="#MicrosoftYaHei-99"/>
     <use x="816.398438" xlink:href="#MicrosoftYaHei-116"/>
     <use x="853.654297" xlink:href="#MicrosoftYaHei-32"/>
     <use x="883.244141" xlink:href="#MicrosoftYaHei-115"/>
     <use x="929.533203" xlink:href="#MicrosoftYaHei-99"/>
     <use x="979.679688" xlink:href="#MicrosoftYaHei-111"/>
     <use x="1043.253906" xlink:href="#MicrosoftYaHei-114"/>
     <use x="1080.0625" xlink:href="#MicrosoftYaHei-101"/>
    </g>
   </g>
   <g id="legend_1">
    <g id="patch_195">
     <path d="M 511.16125 453.591 
L 592.991875 453.591 
Q 595.391875 453.591 595.391875 451.191 
L 595.391875 415.23975 
Q 595.391875 412.83975 592.991875 412.83975 
L 511.16125 412.83975 
Q 508.76125 412.83975 508.76125 415.23975 
L 508.76125 451.191 
Q 508.76125 453.591 511.16125 453.591 
z
" style="fill:#ffffff;opacity:0.8;stroke:#cccccc;stroke-linejoin:miter;"/>
    </g>
    <g id="patch_196">
     <path d="M 513.56125 427.23225 
L 537.56125 427.23225 
L 537.56125 418.83225 
L 513.56125 418.83225 
z
" style="fill:#1f77b4;"/>
    </g>
    <g id="text_19">
     <!-- label=0 -->
     <defs>
      <path d="M 18.109375 7.625 
L 18.109375 0 
L 8.546875 0 
L 8.546875 79.9375 
L 18.109375 79.9375 
L 18.109375 44.671875 
L 18.3125 44.671875 
Q 24.65625 55.28125 36.859375 55.28125 
Q 47.015625 55.28125 53 48.125 
Q 58.984375 40.96875 58.984375 28.5625 
Q 58.984375 14.890625 52.265625 6.8125 
Q 45.5625 -1.265625 34.375 -1.265625 
Q 23.828125 -1.265625 18.3125 7.625 
z
M 18.0625 22.21875 
Q 18.0625 15.671875 22.3125 11.15625 
Q 26.5625 6.640625 32.953125 6.640625 
Q 40.578125 6.640625 44.875 12.5 
Q 49.171875 18.359375 49.171875 28.71875 
Q 49.171875 37.25 45.15625 42.296875 
Q 41.15625 47.359375 34.234375 47.359375 
Q 27.203125 47.359375 22.625 42.328125 
Q 18.0625 37.3125 18.0625 29.546875 
z
" id="MicrosoftYaHei-98"/>
      <path d="M 62.0625 39.015625 
L 12.3125 39.015625 
L 12.3125 46.390625 
L 62.0625 46.390625 
z
M 62.0625 16.453125 
L 12.3125 16.453125 
L 12.3125 23.828125 
L 62.0625 23.828125 
z
" id="MicrosoftYaHei-61"/>
     </defs>
     <g transform="translate(547.16125 427.23225)scale(0.12 -0.12)">
      <use xlink:href="#MicrosoftYaHei-108"/>
      <use x="26.611328" xlink:href="#MicrosoftYaHei-97"/>
      <use x="81.884766" xlink:href="#MicrosoftYaHei-98"/>
      <use x="145.751953" xlink:href="#MicrosoftYaHei-101"/>
      <use x="202.490234" xlink:href="#MicrosoftYaHei-108"/>
      <use x="229.101562" xlink:href="#MicrosoftYaHei-61"/>
      <use x="303.271484" xlink:href="#MicrosoftYaHei-48"/>
     </g>
    </g>
    <g id="patch_197">
     <path d="M 513.56125 445.807875 
L 537.56125 445.807875 
L 537.56125 437.407875 
L 513.56125 437.407875 
z
" style="fill:#ff7f0e;"/>
    </g>
    <g id="text_20">
     <!-- label=1 -->
     <g transform="translate(547.16125 445.807875)scale(0.12 -0.12)">
      <use xlink:href="#MicrosoftYaHei-108"/>
      <use x="26.611328" xlink:href="#MicrosoftYaHei-97"/>
      <use x="81.884766" xlink:href="#MicrosoftYaHei-98"/>
      <use x="145.751953" xlink:href="#MicrosoftYaHei-101"/>
      <use x="202.490234" xlink:href="#MicrosoftYaHei-108"/>
      <use x="229.101562" xlink:href="#MicrosoftYaHei-61"/>
      <use x="303.271484" xlink:href="#MicrosoftYaHei-49"/>
     </g>
    </g>
   </g>
  </g>
 </g>
 <defs>
  <clipPath id="p0a9d449a95">
   <rect height="434.88" width="558" x="43.391875" y="24.711"/>
  </clipPath>
 </defs>
</svg>
