<?xml version="1.0" encoding="utf-8" standalone="no"?>
<!DOCTYPE svg PUBLIC "-//W3C//DTD SVG 1.1//EN"
  "http://www.w3.org/Graphics/SVG/1.1/DTD/svg11.dtd">
<!-- Created with matplotlib (https://matplotlib.org/) -->
<svg height="485.43125pt" version="1.1" viewBox="0 0 612.93875 485.43125" width="612.93875pt" xmlns="http://www.w3.org/2000/svg" xmlns:xlink="http://www.w3.org/1999/xlink">
 <defs>
  <style type="text/css">
*{stroke-linecap:butt;stroke-linejoin:round;}
  </style>
 </defs>
 <g id="figure_1">
  <g id="patch_1">
   <path d="M 0 485.43125 
L 612.93875 485.43125 
L 612.93875 0 
L 0 0 
z
" style="fill:#ffffff;"/>
  </g>
  <g id="axes_1">
   <g id="patch_2">
    <path d="M 47.73875 442.08 
L 605.73875 442.08 
L 605.73875 7.2 
L 47.73875 7.2 
z
" style="fill:#ffffff;"/>
   </g>
   <g id="matplotlib.axis_1">
    <g id="xtick_1">
     <g id="line2d_1">
      <defs>
       <path d="M 0 0 
L 0 3.5 
" id="m686892eeb6" style="stroke:#000000;stroke-width:0.8;"/>
      </defs>
      <g>
       <use style="stroke:#000000;stroke-width:0.8;" x="73.102386" xlink:href="#m686892eeb6" y="442.08"/>
      </g>
     </g>
     <g id="text_1">
      <!-- $\mathdefault{10^{-3}}$ -->
      <defs>
       <path d="M 27.828125 0 
L 27.828125 64.703125 
Q 25.59375 62.453125 20.234375 59.671875 
Q 14.890625 56.890625 10.359375 55.765625 
L 10.359375 65.140625 
Q 16.359375 66.796875 23.1875 70.4375 
Q 30.03125 74.078125 33.6875 77.296875 
L 37.3125 77.296875 
L 37.3125 0 
z
" id="MicrosoftYaHei-49"/>
       <path d="M 4.4375 36.328125 
Q 4.4375 56.34375 11.078125 66.625 
Q 17.71875 76.90625 30.328125 76.90625 
Q 54.34375 76.90625 54.34375 38.140625 
Q 54.34375 19 47.578125 8.859375 
Q 40.828125 -1.265625 28.609375 -1.265625 
Q 17.09375 -1.265625 10.765625 8.34375 
Q 4.4375 17.96875 4.4375 36.328125 
z
M 14.203125 36.765625 
Q 14.203125 6.640625 29.5 6.640625 
Q 44.53125 6.640625 44.53125 37.25 
Q 44.53125 68.953125 29.78125 68.953125 
Q 14.203125 68.953125 14.203125 36.765625 
z
" id="MicrosoftYaHei-48"/>
       <path d="M 62.0625 27.6875 
L 12.3125 27.6875 
L 12.3125 35.15625 
L 62.0625 35.15625 
z
" id="MicrosoftYaHei-8722"/>
       <path d="M 6.984375 12.640625 
Q 14.75 6.640625 24.515625 6.640625 
Q 32.328125 6.640625 36.890625 10.46875 
Q 41.453125 14.3125 41.453125 20.75 
Q 41.453125 35.109375 20.90625 35.109375 
L 14.59375 35.109375 
L 14.59375 43.015625 
L 20.609375 43.015625 
Q 38.8125 43.015625 38.8125 56.5 
Q 38.8125 68.953125 24.90625 68.953125 
Q 16.9375 68.953125 9.90625 63.578125 
L 9.90625 72.609375 
Q 17.328125 76.90625 27.25 76.90625 
Q 36.921875 76.90625 42.78125 71.84375 
Q 48.640625 66.796875 48.640625 58.734375 
Q 48.640625 43.890625 33.5 39.65625 
L 33.5 39.453125 
Q 41.703125 38.578125 46.453125 33.671875 
Q 51.21875 28.765625 51.21875 21.4375 
Q 51.21875 11.234375 43.875 4.984375 
Q 36.53125 -1.265625 24.3125 -1.265625 
Q 13.578125 -1.265625 6.984375 2.734375 
z
" id="MicrosoftYaHei-51"/>
      </defs>
      <g transform="translate(60.262386 458.6725)scale(0.12 -0.12)">
       <use transform="translate(0 0.365625)" xlink:href="#MicrosoftYaHei-49"/>
       <use transform="translate(58.642578 0.365625)" xlink:href="#MicrosoftYaHei-48"/>
       <use transform="translate(118.230156 38.165625)scale(0.7)" xlink:href="#MicrosoftYaHei-8722"/>
       <use transform="translate(170.149102 38.165625)scale(0.7)" xlink:href="#MicrosoftYaHei-51"/>
      </g>
     </g>
    </g>
    <g id="xtick_2">
     <g id="line2d_2">
      <g>
       <use style="stroke:#000000;stroke-width:0.8;" x="242.193295" xlink:href="#m686892eeb6" y="442.08"/>
      </g>
     </g>
     <g id="text_2">
      <!-- $\mathdefault{10^{-2}}$ -->
      <defs>
       <path d="M 41.65625 55.8125 
Q 41.65625 61.921875 37.796875 65.40625 
Q 33.9375 68.890625 27.296875 68.890625 
Q 22.609375 68.890625 17.8125 66.5 
Q 13.03125 64.109375 8.890625 59.671875 
L 8.890625 68.953125 
Q 12.59375 72.796875 17.296875 74.84375 
Q 22.015625 76.90625 28.375 76.90625 
Q 38.625 76.90625 44.875 71.40625 
Q 51.125 65.921875 51.125 56.546875 
Q 51.125 48.1875 47.28125 42.078125 
Q 43.453125 35.984375 34.1875 29.59375 
Q 24.703125 23.046875 21.5 20.21875 
Q 18.3125 17.390625 17.03125 14.796875 
Q 15.765625 12.203125 15.765625 8.5 
L 53.375 8.5 
L 53.375 0 
L 5.8125 0 
L 5.8125 3.765625 
Q 5.8125 10.296875 7.59375 14.859375 
Q 9.375 19.4375 13.46875 23.75 
Q 17.578125 28.078125 26.265625 34.125 
Q 35.15625 40.375 38.40625 45.09375 
Q 41.65625 49.8125 41.65625 55.8125 
z
" id="MicrosoftYaHei-50"/>
      </defs>
      <g transform="translate(229.353295 458.6725)scale(0.12 -0.12)">
       <use transform="translate(0 0.365625)" xlink:href="#MicrosoftYaHei-49"/>
       <use transform="translate(58.642578 0.365625)" xlink:href="#MicrosoftYaHei-48"/>
       <use transform="translate(118.230156 38.165625)scale(0.7)" xlink:href="#MicrosoftYaHei-8722"/>
       <use transform="translate(170.149102 38.165625)scale(0.7)" xlink:href="#MicrosoftYaHei-50"/>
      </g>
     </g>
    </g>
    <g id="xtick_3">
     <g id="line2d_3">
      <g>
       <use style="stroke:#000000;stroke-width:0.8;" x="411.284205" xlink:href="#m686892eeb6" y="442.08"/>
      </g>
     </g>
     <g id="text_3">
      <!-- $\mathdefault{10^{-1}}$ -->
      <g transform="translate(398.444205 458.6725)scale(0.12 -0.12)">
       <use transform="translate(0 0.092188)" xlink:href="#MicrosoftYaHei-49"/>
       <use transform="translate(58.642578 0.092188)" xlink:href="#MicrosoftYaHei-48"/>
       <use transform="translate(118.230156 37.892188)scale(0.7)" xlink:href="#MicrosoftYaHei-8722"/>
       <use transform="translate(170.149102 37.892188)scale(0.7)" xlink:href="#MicrosoftYaHei-49"/>
      </g>
     </g>
    </g>
    <g id="xtick_4">
     <g id="line2d_4">
      <g>
       <use style="stroke:#000000;stroke-width:0.8;" x="580.375114" xlink:href="#m686892eeb6" y="442.08"/>
      </g>
     </g>
     <g id="text_4">
      <!-- $\mathdefault{10^{0}}$ -->
      <g transform="translate(570.655114 458.6725)scale(0.12 -0.12)">
       <use transform="translate(0 0.365625)" xlink:href="#MicrosoftYaHei-49"/>
       <use transform="translate(58.642578 0.365625)" xlink:href="#MicrosoftYaHei-48"/>
       <use transform="translate(118.230156 38.165625)scale(0.7)" xlink:href="#MicrosoftYaHei-48"/>
      </g>
     </g>
    </g>
    <g id="xtick_5">
     <g id="line2d_5">
      <defs>
       <path d="M 0 0 
L 0 2 
" id="m067695c8f8" style="stroke:#000000;stroke-width:0.6;"/>
      </defs>
      <g>
       <use style="stroke:#000000;stroke-width:0.6;" x="56.715784" xlink:href="#m067695c8f8" y="442.08"/>
      </g>
     </g>
    </g>
    <g id="xtick_6">
     <g id="line2d_6">
      <g>
       <use style="stroke:#000000;stroke-width:0.6;" x="65.365211" xlink:href="#m067695c8f8" y="442.08"/>
      </g>
     </g>
    </g>
    <g id="xtick_7">
     <g id="line2d_7">
      <g>
       <use style="stroke:#000000;stroke-width:0.6;" x="124.003822" xlink:href="#m067695c8f8" y="442.08"/>
      </g>
     </g>
    </g>
    <g id="xtick_8">
     <g id="line2d_8">
      <g>
       <use style="stroke:#000000;stroke-width:0.6;" x="153.779253" xlink:href="#m067695c8f8" y="442.08"/>
      </g>
     </g>
    </g>
    <g id="xtick_9">
     <g id="line2d_9">
      <g>
       <use style="stroke:#000000;stroke-width:0.6;" x="174.905258" xlink:href="#m067695c8f8" y="442.08"/>
      </g>
     </g>
    </g>
    <g id="xtick_10">
     <g id="line2d_10">
      <g>
       <use style="stroke:#000000;stroke-width:0.6;" x="191.29186" xlink:href="#m067695c8f8" y="442.08"/>
      </g>
     </g>
    </g>
    <g id="xtick_11">
     <g id="line2d_11">
      <g>
       <use style="stroke:#000000;stroke-width:0.6;" x="204.680689" xlink:href="#m067695c8f8" y="442.08"/>
      </g>
     </g>
    </g>
    <g id="xtick_12">
     <g id="line2d_12">
      <g>
       <use style="stroke:#000000;stroke-width:0.6;" x="216.000782" xlink:href="#m067695c8f8" y="442.08"/>
      </g>
     </g>
    </g>
    <g id="xtick_13">
     <g id="line2d_13">
      <g>
       <use style="stroke:#000000;stroke-width:0.6;" x="225.806693" xlink:href="#m067695c8f8" y="442.08"/>
      </g>
     </g>
    </g>
    <g id="xtick_14">
     <g id="line2d_14">
      <g>
       <use style="stroke:#000000;stroke-width:0.6;" x="234.45612" xlink:href="#m067695c8f8" y="442.08"/>
      </g>
     </g>
    </g>
    <g id="xtick_15">
     <g id="line2d_15">
      <g>
       <use style="stroke:#000000;stroke-width:0.6;" x="293.094731" xlink:href="#m067695c8f8" y="442.08"/>
      </g>
     </g>
    </g>
    <g id="xtick_16">
     <g id="line2d_16">
      <g>
       <use style="stroke:#000000;stroke-width:0.6;" x="322.870162" xlink:href="#m067695c8f8" y="442.08"/>
      </g>
     </g>
    </g>
    <g id="xtick_17">
     <g id="line2d_17">
      <g>
       <use style="stroke:#000000;stroke-width:0.6;" x="343.996167" xlink:href="#m067695c8f8" y="442.08"/>
      </g>
     </g>
    </g>
    <g id="xtick_18">
     <g id="line2d_18">
      <g>
       <use style="stroke:#000000;stroke-width:0.6;" x="360.382769" xlink:href="#m067695c8f8" y="442.08"/>
      </g>
     </g>
    </g>
    <g id="xtick_19">
     <g id="line2d_19">
      <g>
       <use style="stroke:#000000;stroke-width:0.6;" x="373.771598" xlink:href="#m067695c8f8" y="442.08"/>
      </g>
     </g>
    </g>
    <g id="xtick_20">
     <g id="line2d_20">
      <g>
       <use style="stroke:#000000;stroke-width:0.6;" x="385.091691" xlink:href="#m067695c8f8" y="442.08"/>
      </g>
     </g>
    </g>
    <g id="xtick_21">
     <g id="line2d_21">
      <g>
       <use style="stroke:#000000;stroke-width:0.6;" x="394.897602" xlink:href="#m067695c8f8" y="442.08"/>
      </g>
     </g>
    </g>
    <g id="xtick_22">
     <g id="line2d_22">
      <g>
       <use style="stroke:#000000;stroke-width:0.6;" x="403.547029" xlink:href="#m067695c8f8" y="442.08"/>
      </g>
     </g>
    </g>
    <g id="xtick_23">
     <g id="line2d_23">
      <g>
       <use style="stroke:#000000;stroke-width:0.6;" x="462.18564" xlink:href="#m067695c8f8" y="442.08"/>
      </g>
     </g>
    </g>
    <g id="xtick_24">
     <g id="line2d_24">
      <g>
       <use style="stroke:#000000;stroke-width:0.6;" x="491.961071" xlink:href="#m067695c8f8" y="442.08"/>
      </g>
     </g>
    </g>
    <g id="xtick_25">
     <g id="line2d_25">
      <g>
       <use style="stroke:#000000;stroke-width:0.6;" x="513.087076" xlink:href="#m067695c8f8" y="442.08"/>
      </g>
     </g>
    </g>
    <g id="xtick_26">
     <g id="line2d_26">
      <g>
       <use style="stroke:#000000;stroke-width:0.6;" x="529.473678" xlink:href="#m067695c8f8" y="442.08"/>
      </g>
     </g>
    </g>
    <g id="xtick_27">
     <g id="line2d_27">
      <g>
       <use style="stroke:#000000;stroke-width:0.6;" x="542.862507" xlink:href="#m067695c8f8" y="442.08"/>
      </g>
     </g>
    </g>
    <g id="xtick_28">
     <g id="line2d_28">
      <g>
       <use style="stroke:#000000;stroke-width:0.6;" x="554.1826" xlink:href="#m067695c8f8" y="442.08"/>
      </g>
     </g>
    </g>
    <g id="xtick_29">
     <g id="line2d_29">
      <g>
       <use style="stroke:#000000;stroke-width:0.6;" x="563.988511" xlink:href="#m067695c8f8" y="442.08"/>
      </g>
     </g>
    </g>
    <g id="xtick_30">
     <g id="line2d_30">
      <g>
       <use style="stroke:#000000;stroke-width:0.6;" x="572.637938" xlink:href="#m067695c8f8" y="442.08"/>
      </g>
     </g>
    </g>
    <g id="text_5">
     <!-- Lambda(λ=0.0295) -->
     <defs>
      <path d="M 49.65625 0 
L 9.765625 0 
L 9.765625 75.640625 
L 19.53125 75.640625 
L 19.53125 8.640625 
L 49.65625 8.640625 
z
" id="MicrosoftYaHei-76"/>
      <path d="M 9.8125 50.25 
Q 17.875 55.28125 28.421875 55.28125 
Q 47.953125 55.28125 47.953125 34.765625 
L 47.953125 0 
L 38.484375 0 
L 38.484375 8.34375 
L 38.234375 8.34375 
Q 32.625 -1.265625 21.6875 -1.265625 
Q 13.8125 -1.265625 9.171875 2.984375 
Q 4.546875 7.234375 4.546875 14.453125 
Q 4.546875 29.59375 22.46875 32.078125 
L 38.484375 34.328125 
Q 38.484375 47.5625 27.546875 47.5625 
Q 17.828125 47.5625 9.8125 41.015625 
z
M 25.828125 25.390625 
Q 19.1875 24.515625 16.671875 22.0625 
Q 14.15625 19.625 14.15625 15.234375 
Q 14.15625 11.375 16.890625 8.9375 
Q 19.625 6.5 24.125 6.5 
Q 30.375 6.5 34.421875 10.890625 
Q 38.484375 15.28125 38.484375 21.921875 
L 38.484375 27.09375 
z
" id="MicrosoftYaHei-97"/>
      <path d="M 86.28125 0 
L 76.703125 0 
L 76.703125 31 
Q 76.703125 39.796875 73.96875 43.578125 
Q 71.234375 47.359375 64.984375 47.359375 
Q 59.71875 47.359375 55.953125 42.421875 
Q 52.203125 37.5 52.203125 30.765625 
L 52.203125 0 
L 42.625 0 
L 42.625 31.984375 
Q 42.625 47.359375 30.765625 47.359375 
Q 25.296875 47.359375 21.703125 42.671875 
Q 18.109375 37.984375 18.109375 30.71875 
L 18.109375 0 
L 8.546875 0 
L 8.546875 54 
L 18.109375 54 
L 18.109375 45.453125 
L 18.3125 45.453125 
Q 24.078125 55.28125 35.15625 55.28125 
Q 40.578125 55.28125 44.71875 52.296875 
Q 48.875 49.3125 50.484375 44.234375 
Q 56.5 55.28125 68.453125 55.28125 
Q 86.28125 55.28125 86.28125 33.296875 
z
" id="MicrosoftYaHei-109"/>
      <path d="M 18.109375 7.625 
L 18.109375 0 
L 8.546875 0 
L 8.546875 79.9375 
L 18.109375 79.9375 
L 18.109375 44.671875 
L 18.3125 44.671875 
Q 24.65625 55.28125 36.859375 55.28125 
Q 47.015625 55.28125 53 48.125 
Q 58.984375 40.96875 58.984375 28.5625 
Q 58.984375 14.890625 52.265625 6.8125 
Q 45.5625 -1.265625 34.375 -1.265625 
Q 23.828125 -1.265625 18.3125 7.625 
z
M 18.0625 22.21875 
Q 18.0625 15.671875 22.3125 11.15625 
Q 26.5625 6.640625 32.953125 6.640625 
Q 40.578125 6.640625 44.875 12.5 
Q 49.171875 18.359375 49.171875 28.71875 
Q 49.171875 37.25 45.15625 42.296875 
Q 41.15625 47.359375 34.234375 47.359375 
Q 27.203125 47.359375 22.625 42.328125 
Q 18.0625 37.3125 18.0625 29.546875 
z
" id="MicrosoftYaHei-98"/>
      <path d="M 55.421875 0 
L 45.84375 0 
L 45.84375 8.984375 
L 45.65625 8.984375 
Q 39.75 -1.265625 27.296875 -1.265625 
Q 17.046875 -1.265625 10.984375 6.03125 
Q 4.9375 13.328125 4.9375 25.734375 
Q 4.9375 39.109375 11.765625 47.1875 
Q 18.609375 55.28125 29.640625 55.28125 
Q 40.671875 55.28125 45.65625 46.6875 
L 45.84375 46.6875 
L 45.84375 79.9375 
L 55.421875 79.9375 
z
M 45.90625 32.125 
Q 45.90625 38.625 41.625 42.984375 
Q 37.359375 47.359375 31.109375 47.359375 
Q 23.484375 47.359375 19.09375 41.671875 
Q 14.703125 35.984375 14.703125 26.171875 
Q 14.703125 17.140625 18.921875 11.890625 
Q 23.140625 6.640625 30.171875 6.640625 
Q 37.109375 6.640625 41.5 11.78125 
Q 45.90625 16.9375 45.90625 24.609375 
z
" id="MicrosoftYaHei-100"/>
      <path d="M 23.921875 -17.1875 
Q 7.46875 1.5625 7.46875 28.859375 
Q 7.46875 56.15625 23.921875 75.640625 
L 32.375 75.640625 
Q 15.875 55.375 15.875 28.953125 
Q 15.875 2.59375 32.28125 -17.1875 
z
" id="MicrosoftYaHei-40"/>
      <path d="M 52.9375 0 
L 42.671875 0 
L 28.46875 42.921875 
L 10.40625 0 
L -0.046875 0 
L 24.265625 53.5625 
L 20.90625 63.421875 
Q 18.171875 71.4375 12.703125 71.4375 
Q 9.96875 71.4375 6.109375 70.3125 
L 6.109375 79.25 
Q 9.625 79.984375 13.375 79.984375 
Q 20.015625 79.984375 23.546875 76.4375 
Q 27.09375 72.90625 30.46875 63.578125 
z
" id="MicrosoftYaHei-955"/>
      <path d="M 62.0625 39.015625 
L 12.3125 39.015625 
L 12.3125 46.390625 
L 62.0625 46.390625 
z
M 62.0625 16.453125 
L 12.3125 16.453125 
L 12.3125 23.828125 
L 62.0625 23.828125 
z
" id="MicrosoftYaHei-61"/>
      <path d="M 5.8125 5.03125 
Q 5.8125 7.671875 7.609375 9.46875 
Q 9.421875 11.28125 12.109375 11.28125 
Q 14.84375 11.28125 16.640625 9.453125 
Q 18.453125 7.625 18.453125 5.03125 
Q 18.453125 2.484375 16.640625 0.65625 
Q 14.84375 -1.171875 12.0625 -1.171875 
Q 9.375 -1.171875 7.59375 0.65625 
Q 5.8125 2.484375 5.8125 5.03125 
z
" id="MicrosoftYaHei-46"/>
      <path d="M 9.03125 10.25 
Q 15.28125 6.640625 22.515625 6.640625 
Q 32.671875 6.640625 38.25 14.640625 
Q 43.84375 22.65625 43.84375 37.40625 
Q 43.75 37.3125 43.65625 37.40625 
Q 38.671875 27.9375 26.90625 27.9375 
Q 17.390625 27.9375 11.140625 34.46875 
Q 4.890625 41.015625 4.890625 51.46875 
Q 4.890625 62.59375 11.71875 69.75 
Q 18.5625 76.90625 29.4375 76.90625 
Q 40.71875 76.90625 47.0625 68.046875 
Q 53.421875 59.1875 53.421875 42.234375 
Q 53.421875 21.296875 45.21875 10.015625 
Q 37.015625 -1.265625 22.515625 -1.265625 
Q 14.546875 -1.265625 9.03125 1.3125 
z
M 14.546875 52.6875 
Q 14.546875 45.0625 18.453125 40.59375 
Q 22.359375 36.140625 29.25 36.140625 
Q 35.203125 36.140625 39.25 40.203125 
Q 43.3125 44.28125 43.3125 50.09375 
Q 43.3125 58.25 39.28125 63.59375 
Q 35.25 68.953125 28.65625 68.953125 
Q 22.5625 68.953125 18.546875 64.3125 
Q 14.546875 59.671875 14.546875 52.6875 
z
" id="MicrosoftYaHei-57"/>
      <path d="M 51.46875 23.34375 
Q 51.46875 12.25 44.109375 5.46875 
Q 36.765625 -1.3125 24.359375 -1.3125 
Q 13.71875 -1.3125 8.5 1.859375 
L 8.5 11.625 
Q 16.15625 6.640625 24.125 6.640625 
Q 32.03125 6.640625 36.890625 11 
Q 41.75 15.375 41.75 22.609375 
Q 41.75 29.828125 36.6875 33.859375 
Q 31.640625 37.890625 22.40625 37.890625 
Q 15.28125 37.890625 9.578125 37.25 
L 12.359375 75.640625 
L 47.703125 75.640625 
L 47.703125 67.234375 
L 20.40625 67.234375 
L 18.84375 45.796875 
L 25.734375 46.09375 
Q 37.75 46.09375 44.609375 40.109375 
Q 51.46875 34.125 51.46875 23.34375 
z
" id="MicrosoftYaHei-53"/>
      <path d="M 1.21875 -17.1875 
Q 17.671875 2.546875 17.671875 28.953125 
Q 17.671875 55.421875 1.125 75.640625 
L 9.625 75.640625 
Q 26.125 56.296875 26.125 28.859375 
Q 26.125 1.421875 9.625 -17.1875 
z
" id="MicrosoftYaHei-41"/>
     </defs>
     <g transform="translate(272.97125 475.248125)scale(0.12 -0.12)">
      <use xlink:href="#MicrosoftYaHei-76"/>
      <use x="51.318359" xlink:href="#MicrosoftYaHei-97"/>
      <use x="106.591797" xlink:href="#MicrosoftYaHei-109"/>
      <use x="200.292969" xlink:href="#MicrosoftYaHei-98"/>
      <use x="264.160156" xlink:href="#MicrosoftYaHei-100"/>
      <use x="328.125" xlink:href="#MicrosoftYaHei-97"/>
      <use x="383.398438" xlink:href="#MicrosoftYaHei-40"/>
      <use x="416.796875" xlink:href="#MicrosoftYaHei-955"/>
      <use x="471.240234" xlink:href="#MicrosoftYaHei-61"/>
      <use x="545.410156" xlink:href="#MicrosoftYaHei-48"/>
      <use x="604.052734" xlink:href="#MicrosoftYaHei-46"/>
      <use x="628.125" xlink:href="#MicrosoftYaHei-48"/>
      <use x="686.767578" xlink:href="#MicrosoftYaHei-50"/>
      <use x="745.410156" xlink:href="#MicrosoftYaHei-57"/>
      <use x="804.052734" xlink:href="#MicrosoftYaHei-53"/>
      <use x="862.695312" xlink:href="#MicrosoftYaHei-41"/>
     </g>
    </g>
   </g>
   <g id="matplotlib.axis_2">
    <g id="ytick_1">
     <g id="line2d_31">
      <defs>
       <path d="M 0 0 
L -3.5 0 
" id="mf3c57ed603" style="stroke:#000000;stroke-width:0.8;"/>
      </defs>
      <g>
       <use style="stroke:#000000;stroke-width:0.8;" x="47.73875" xlink:href="#mf3c57ed603" y="288.748796"/>
      </g>
     </g>
     <g id="text_6">
      <!-- 0.2 -->
      <g transform="translate(23.775625 293.545046)scale(0.12 -0.12)">
       <use xlink:href="#MicrosoftYaHei-48"/>
       <use x="58.642578" xlink:href="#MicrosoftYaHei-46"/>
       <use x="82.714844" xlink:href="#MicrosoftYaHei-50"/>
      </g>
     </g>
    </g>
    <g id="ytick_2">
     <g id="line2d_32">
      <g>
       <use style="stroke:#000000;stroke-width:0.8;" x="47.73875" xlink:href="#mf3c57ed603" y="59.139472"/>
      </g>
     </g>
     <g id="text_7">
      <!-- 0.3 -->
      <g transform="translate(23.775625 63.935722)scale(0.12 -0.12)">
       <use xlink:href="#MicrosoftYaHei-48"/>
       <use x="58.642578" xlink:href="#MicrosoftYaHei-46"/>
       <use x="82.714844" xlink:href="#MicrosoftYaHei-51"/>
      </g>
     </g>
    </g>
    <g id="text_8">
     <!-- MSE -->
     <defs>
      <path d="M 78.171875 0 
L 78.171875 50.09375 
Q 78.171875 56.296875 78.90625 64.984375 
L 78.65625 64.984375 
Q 77.390625 59.515625 76.421875 57.375 
L 51.46875 0 
L 46.046875 0 
L 21.140625 56.9375 
Q 20.265625 58.890625 18.890625 64.984375 
L 18.609375 64.984375 
Q 19.09375 59.71875 19.09375 49.65625 
L 19.09375 0 
L 9.765625 0 
L 9.765625 75.640625 
L 23 75.640625 
L 45.3125 23.78125 
Q 47.859375 17.828125 48.6875 14.5 
L 49.03125 14.5 
Q 51.5625 21.484375 52.59375 23.96875 
L 75.296875 75.640625 
L 87.890625 75.640625 
L 87.890625 0 
z
" id="MicrosoftYaHei-77"/>
      <path d="M 6.25 14.203125 
Q 9.71875 11.1875 15.53125 9.234375 
Q 21.34375 7.28125 26.5625 7.28125 
Q 42.484375 7.28125 42.484375 18.609375 
Q 42.484375 21.78125 40.765625 24.3125 
Q 39.0625 26.859375 36.078125 28.8125 
Q 33.109375 30.765625 24.90625 34.8125 
Q 13.53125 40.484375 9.90625 45.34375 
Q 6.296875 50.203125 6.296875 56.453125 
Q 6.296875 65.875 13.859375 71.390625 
Q 21.4375 76.90625 32.953125 76.90625 
Q 44.234375 76.90625 49.515625 74.171875 
L 49.515625 63.53125 
Q 42.671875 68.265625 32.234375 68.265625 
Q 25.296875 68.265625 20.921875 65.359375 
Q 16.546875 62.453125 16.546875 57.28125 
Q 16.546875 52.6875 19.578125 49.796875 
Q 22.609375 46.921875 32.71875 41.9375 
Q 43.84375 36.625 48.28125 31.296875 
Q 52.734375 25.984375 52.734375 19.34375 
Q 52.734375 9.375 45.5 4.046875 
Q 38.28125 -1.265625 25.4375 -1.265625 
Q 20.953125 -1.265625 14.96875 -0.015625 
Q 8.984375 1.21875 6.25 3.078125 
z
" id="MicrosoftYaHei-83"/>
      <path d="M 50.4375 0 
L 9.765625 0 
L 9.765625 75.640625 
L 48.734375 75.640625 
L 48.734375 66.9375 
L 19.53125 66.9375 
L 19.53125 42.71875 
L 46.578125 42.71875 
L 46.578125 34.078125 
L 19.53125 34.078125 
L 19.53125 8.640625 
L 50.4375 8.640625 
z
" id="MicrosoftYaHei-69"/>
     </defs>
     <g transform="translate(16.7925 237.264375)rotate(-90)scale(0.12 -0.12)">
      <use xlink:href="#MicrosoftYaHei-77"/>
      <use x="97.705078" xlink:href="#MicrosoftYaHei-83"/>
      <use x="155.419922" xlink:href="#MicrosoftYaHei-69"/>
     </g>
    </g>
   </g>
   <g id="LineCollection_1">
    <path clip-path="url(#p6eea126f3c)" d="M 580.375114 309.302653 
L 580.375114 161.314372 
" style="fill:none;stroke:#0000ff;stroke-width:2;"/>
    <path clip-path="url(#p6eea126f3c)" d="M 570.022609 309.302653 
L 570.022609 161.314372 
" style="fill:none;stroke:#0000ff;stroke-width:2;"/>
    <path clip-path="url(#p6eea126f3c)" d="M 559.670104 309.302653 
L 559.670104 161.314372 
" style="fill:none;stroke:#0000ff;stroke-width:2;"/>
    <path clip-path="url(#p6eea126f3c)" d="M 549.3176 309.302653 
L 549.3176 161.314372 
" style="fill:none;stroke:#0000ff;stroke-width:2;"/>
    <path clip-path="url(#p6eea126f3c)" d="M 538.965095 309.302653 
L 538.965095 161.314372 
" style="fill:none;stroke:#0000ff;stroke-width:2;"/>
    <path clip-path="url(#p6eea126f3c)" d="M 528.61259 309.302653 
L 528.61259 161.314372 
" style="fill:none;stroke:#0000ff;stroke-width:2;"/>
    <path clip-path="url(#p6eea126f3c)" d="M 518.260086 309.302653 
L 518.260086 161.314372 
" style="fill:none;stroke:#0000ff;stroke-width:2;"/>
    <path clip-path="url(#p6eea126f3c)" d="M 507.907581 309.302653 
L 507.907581 161.314372 
" style="fill:none;stroke:#0000ff;stroke-width:2;"/>
    <path clip-path="url(#p6eea126f3c)" d="M 497.555077 309.302653 
L 497.555077 161.314372 
" style="fill:none;stroke:#0000ff;stroke-width:2;"/>
    <path clip-path="url(#p6eea126f3c)" d="M 487.202572 309.302653 
L 487.202572 161.314372 
" style="fill:none;stroke:#0000ff;stroke-width:2;"/>
    <path clip-path="url(#p6eea126f3c)" d="M 476.850067 309.302653 
L 476.850067 161.314372 
" style="fill:none;stroke:#0000ff;stroke-width:2;"/>
    <path clip-path="url(#p6eea126f3c)" d="M 466.497563 309.302653 
L 466.497563 161.314372 
" style="fill:none;stroke:#0000ff;stroke-width:2;"/>
    <path clip-path="url(#p6eea126f3c)" d="M 456.145058 309.290016 
L 456.145058 161.151885 
" style="fill:none;stroke:#0000ff;stroke-width:2;"/>
    <path clip-path="url(#p6eea126f3c)" d="M 445.792553 316.498068 
L 445.792553 170.032857 
" style="fill:none;stroke:#0000ff;stroke-width:2;"/>
    <path clip-path="url(#p6eea126f3c)" d="M 435.440049 326.594336 
L 435.440049 181.83568 
" style="fill:none;stroke:#0000ff;stroke-width:2;"/>
    <path clip-path="url(#p6eea126f3c)" d="M 425.087544 337.862116 
L 425.087544 191.673935 
" style="fill:none;stroke:#0000ff;stroke-width:2;"/>
    <path clip-path="url(#p6eea126f3c)" d="M 414.735039 348.221865 
L 414.735039 198.667218 
" style="fill:none;stroke:#0000ff;stroke-width:2;"/>
    <path clip-path="url(#p6eea126f3c)" d="M 404.382535 355.989398 
L 404.382535 207.020165 
" style="fill:none;stroke:#0000ff;stroke-width:2;"/>
    <path clip-path="url(#p6eea126f3c)" d="M 394.03003 364.441336 
L 394.03003 214.259044 
" style="fill:none;stroke:#0000ff;stroke-width:2;"/>
    <path clip-path="url(#p6eea126f3c)" d="M 383.677526 373.32599 
L 383.677526 219.06329 
" style="fill:none;stroke:#0000ff;stroke-width:2;"/>
    <path clip-path="url(#p6eea126f3c)" d="M 373.325021 380.616356 
L 373.325021 222.247226 
" style="fill:none;stroke:#0000ff;stroke-width:2;"/>
    <path clip-path="url(#p6eea126f3c)" d="M 362.972516 386.304611 
L 362.972516 223.413347 
" style="fill:none;stroke:#0000ff;stroke-width:2;"/>
    <path clip-path="url(#p6eea126f3c)" d="M 352.620012 390.711866 
L 352.620012 222.150156 
" style="fill:none;stroke:#0000ff;stroke-width:2;"/>
    <path clip-path="url(#p6eea126f3c)" d="M 342.267507 395.012185 
L 342.267507 220.336161 
" style="fill:none;stroke:#0000ff;stroke-width:2;"/>
    <path clip-path="url(#p6eea126f3c)" d="M 331.915002 398.788778 
L 331.915002 218.307075 
" style="fill:none;stroke:#0000ff;stroke-width:2;"/>
    <path clip-path="url(#p6eea126f3c)" d="M 321.562498 401.679932 
L 321.562498 215.546439 
" style="fill:none;stroke:#0000ff;stroke-width:2;"/>
    <path clip-path="url(#p6eea126f3c)" d="M 311.209993 403.586775 
L 311.209993 212.847839 
" style="fill:none;stroke:#0000ff;stroke-width:2;"/>
    <path clip-path="url(#p6eea126f3c)" d="M 300.857488 405.152311 
L 300.857488 210.156021 
" style="fill:none;stroke:#0000ff;stroke-width:2;"/>
    <path clip-path="url(#p6eea126f3c)" d="M 290.504984 406.086586 
L 290.504984 208.087797 
" style="fill:none;stroke:#0000ff;stroke-width:2;"/>
    <path clip-path="url(#p6eea126f3c)" d="M 280.152479 406.243619 
L 280.152479 206.006132 
" style="fill:none;stroke:#0000ff;stroke-width:2;"/>
    <path clip-path="url(#p6eea126f3c)" d="M 269.799974 406.37951 
L 269.799974 202.595817 
" style="fill:none;stroke:#0000ff;stroke-width:2;"/>
    <path clip-path="url(#p6eea126f3c)" d="M 259.44747 406.825751 
L 259.44747 199.318106 
" style="fill:none;stroke:#0000ff;stroke-width:2;"/>
    <path clip-path="url(#p6eea126f3c)" d="M 249.094965 407.221388 
L 249.094965 193.018089 
" style="fill:none;stroke:#0000ff;stroke-width:2;"/>
    <path clip-path="url(#p6eea126f3c)" d="M 238.742461 408.573094 
L 238.742461 174.620619 
" style="fill:none;stroke:#0000ff;stroke-width:2;"/>
    <path clip-path="url(#p6eea126f3c)" d="M 228.389956 410.043322 
L 228.389956 159.070978 
" style="fill:none;stroke:#0000ff;stroke-width:2;"/>
    <path clip-path="url(#p6eea126f3c)" d="M 218.037451 411.725874 
L 218.037451 146.088416 
" style="fill:none;stroke:#0000ff;stroke-width:2;"/>
    <path clip-path="url(#p6eea126f3c)" d="M 207.684947 413.24155 
L 207.684947 136.113248 
" style="fill:none;stroke:#0000ff;stroke-width:2;"/>
    <path clip-path="url(#p6eea126f3c)" d="M 197.332442 416.301825 
L 197.332442 125.999001 
" style="fill:none;stroke:#0000ff;stroke-width:2;"/>
    <path clip-path="url(#p6eea126f3c)" d="M 186.979937 419.940952 
L 186.979937 114.984911 
" style="fill:none;stroke:#0000ff;stroke-width:2;"/>
    <path clip-path="url(#p6eea126f3c)" d="M 176.627433 422.312727 
L 176.627433 102.820628 
" style="fill:none;stroke:#0000ff;stroke-width:2;"/>
    <path clip-path="url(#p6eea126f3c)" d="M 166.274928 422.204724 
L 166.274928 90.629473 
" style="fill:none;stroke:#0000ff;stroke-width:2;"/>
    <path clip-path="url(#p6eea126f3c)" d="M 155.922423 421.32698 
L 155.922423 77.92409 
" style="fill:none;stroke:#0000ff;stroke-width:2;"/>
    <path clip-path="url(#p6eea126f3c)" d="M 145.569919 419.810855 
L 145.569919 65.536845 
" style="fill:none;stroke:#0000ff;stroke-width:2;"/>
    <path clip-path="url(#p6eea126f3c)" d="M 135.217414 415.982611 
L 135.217414 56.839602 
" style="fill:none;stroke:#0000ff;stroke-width:2;"/>
    <path clip-path="url(#p6eea126f3c)" d="M 124.86491 411.427331 
L 124.86491 49.667257 
" style="fill:none;stroke:#0000ff;stroke-width:2;"/>
    <path clip-path="url(#p6eea126f3c)" d="M 114.512405 408.037583 
L 114.512405 42.575393 
" style="fill:none;stroke:#0000ff;stroke-width:2;"/>
    <path clip-path="url(#p6eea126f3c)" d="M 104.1599 406.651832 
L 104.1599 36.453177 
" style="fill:none;stroke:#0000ff;stroke-width:2;"/>
    <path clip-path="url(#p6eea126f3c)" d="M 93.807396 405.709178 
L 93.807396 30.856907 
" style="fill:none;stroke:#0000ff;stroke-width:2;"/>
    <path clip-path="url(#p6eea126f3c)" d="M 83.454891 403.362521 
L 83.454891 28.850046 
" style="fill:none;stroke:#0000ff;stroke-width:2;"/>
    <path clip-path="url(#p6eea126f3c)" d="M 73.102386 401.521247 
L 73.102386 26.967273 
" style="fill:none;stroke:#0000ff;stroke-width:2;"/>
   </g>
   <g id="line2d_33">
    <defs>
     <path d="M 2 0 
L -2 -0 
" id="me6396a9b55" style="stroke:#0000ff;"/>
    </defs>
    <g clip-path="url(#p6eea126f3c)">
     <use style="fill:#0000ff;stroke:#0000ff;" x="580.375114" xlink:href="#me6396a9b55" y="309.302653"/>
     <use style="fill:#0000ff;stroke:#0000ff;" x="570.022609" xlink:href="#me6396a9b55" y="309.302653"/>
     <use style="fill:#0000ff;stroke:#0000ff;" x="559.670104" xlink:href="#me6396a9b55" y="309.302653"/>
     <use style="fill:#0000ff;stroke:#0000ff;" x="549.3176" xlink:href="#me6396a9b55" y="309.302653"/>
     <use style="fill:#0000ff;stroke:#0000ff;" x="538.965095" xlink:href="#me6396a9b55" y="309.302653"/>
     <use style="fill:#0000ff;stroke:#0000ff;" x="528.61259" xlink:href="#me6396a9b55" y="309.302653"/>
     <use style="fill:#0000ff;stroke:#0000ff;" x="518.260086" xlink:href="#me6396a9b55" y="309.302653"/>
     <use style="fill:#0000ff;stroke:#0000ff;" x="507.907581" xlink:href="#me6396a9b55" y="309.302653"/>
     <use style="fill:#0000ff;stroke:#0000ff;" x="497.555077" xlink:href="#me6396a9b55" y="309.302653"/>
     <use style="fill:#0000ff;stroke:#0000ff;" x="487.202572" xlink:href="#me6396a9b55" y="309.302653"/>
     <use style="fill:#0000ff;stroke:#0000ff;" x="476.850067" xlink:href="#me6396a9b55" y="309.302653"/>
     <use style="fill:#0000ff;stroke:#0000ff;" x="466.497563" xlink:href="#me6396a9b55" y="309.302653"/>
     <use style="fill:#0000ff;stroke:#0000ff;" x="456.145058" xlink:href="#me6396a9b55" y="309.290016"/>
     <use style="fill:#0000ff;stroke:#0000ff;" x="445.792553" xlink:href="#me6396a9b55" y="316.498068"/>
     <use style="fill:#0000ff;stroke:#0000ff;" x="435.440049" xlink:href="#me6396a9b55" y="326.594336"/>
     <use style="fill:#0000ff;stroke:#0000ff;" x="425.087544" xlink:href="#me6396a9b55" y="337.862116"/>
     <use style="fill:#0000ff;stroke:#0000ff;" x="414.735039" xlink:href="#me6396a9b55" y="348.221865"/>
     <use style="fill:#0000ff;stroke:#0000ff;" x="404.382535" xlink:href="#me6396a9b55" y="355.989398"/>
     <use style="fill:#0000ff;stroke:#0000ff;" x="394.03003" xlink:href="#me6396a9b55" y="364.441336"/>
     <use style="fill:#0000ff;stroke:#0000ff;" x="383.677526" xlink:href="#me6396a9b55" y="373.32599"/>
     <use style="fill:#0000ff;stroke:#0000ff;" x="373.325021" xlink:href="#me6396a9b55" y="380.616356"/>
     <use style="fill:#0000ff;stroke:#0000ff;" x="362.972516" xlink:href="#me6396a9b55" y="386.304611"/>
     <use style="fill:#0000ff;stroke:#0000ff;" x="352.620012" xlink:href="#me6396a9b55" y="390.711866"/>
     <use style="fill:#0000ff;stroke:#0000ff;" x="342.267507" xlink:href="#me6396a9b55" y="395.012185"/>
     <use style="fill:#0000ff;stroke:#0000ff;" x="331.915002" xlink:href="#me6396a9b55" y="398.788778"/>
     <use style="fill:#0000ff;stroke:#0000ff;" x="321.562498" xlink:href="#me6396a9b55" y="401.679932"/>
     <use style="fill:#0000ff;stroke:#0000ff;" x="311.209993" xlink:href="#me6396a9b55" y="403.586775"/>
     <use style="fill:#0000ff;stroke:#0000ff;" x="300.857488" xlink:href="#me6396a9b55" y="405.152311"/>
     <use style="fill:#0000ff;stroke:#0000ff;" x="290.504984" xlink:href="#me6396a9b55" y="406.086586"/>
     <use style="fill:#0000ff;stroke:#0000ff;" x="280.152479" xlink:href="#me6396a9b55" y="406.243619"/>
     <use style="fill:#0000ff;stroke:#0000ff;" x="269.799974" xlink:href="#me6396a9b55" y="406.37951"/>
     <use style="fill:#0000ff;stroke:#0000ff;" x="259.44747" xlink:href="#me6396a9b55" y="406.825751"/>
     <use style="fill:#0000ff;stroke:#0000ff;" x="249.094965" xlink:href="#me6396a9b55" y="407.221388"/>
     <use style="fill:#0000ff;stroke:#0000ff;" x="238.742461" xlink:href="#me6396a9b55" y="408.573094"/>
     <use style="fill:#0000ff;stroke:#0000ff;" x="228.389956" xlink:href="#me6396a9b55" y="410.043322"/>
     <use style="fill:#0000ff;stroke:#0000ff;" x="218.037451" xlink:href="#me6396a9b55" y="411.725874"/>
     <use style="fill:#0000ff;stroke:#0000ff;" x="207.684947" xlink:href="#me6396a9b55" y="413.24155"/>
     <use style="fill:#0000ff;stroke:#0000ff;" x="197.332442" xlink:href="#me6396a9b55" y="416.301825"/>
     <use style="fill:#0000ff;stroke:#0000ff;" x="186.979937" xlink:href="#me6396a9b55" y="419.940952"/>
     <use style="fill:#0000ff;stroke:#0000ff;" x="176.627433" xlink:href="#me6396a9b55" y="422.312727"/>
     <use style="fill:#0000ff;stroke:#0000ff;" x="166.274928" xlink:href="#me6396a9b55" y="422.204724"/>
     <use style="fill:#0000ff;stroke:#0000ff;" x="155.922423" xlink:href="#me6396a9b55" y="421.32698"/>
     <use style="fill:#0000ff;stroke:#0000ff;" x="145.569919" xlink:href="#me6396a9b55" y="419.810855"/>
     <use style="fill:#0000ff;stroke:#0000ff;" x="135.217414" xlink:href="#me6396a9b55" y="415.982611"/>
     <use style="fill:#0000ff;stroke:#0000ff;" x="124.86491" xlink:href="#me6396a9b55" y="411.427331"/>
     <use style="fill:#0000ff;stroke:#0000ff;" x="114.512405" xlink:href="#me6396a9b55" y="408.037583"/>
     <use style="fill:#0000ff;stroke:#0000ff;" x="104.1599" xlink:href="#me6396a9b55" y="406.651832"/>
     <use style="fill:#0000ff;stroke:#0000ff;" x="93.807396" xlink:href="#me6396a9b55" y="405.709178"/>
     <use style="fill:#0000ff;stroke:#0000ff;" x="83.454891" xlink:href="#me6396a9b55" y="403.362521"/>
     <use style="fill:#0000ff;stroke:#0000ff;" x="73.102386" xlink:href="#me6396a9b55" y="401.521247"/>
    </g>
   </g>
   <g id="line2d_34">
    <g clip-path="url(#p6eea126f3c)">
     <use style="fill:#0000ff;stroke:#0000ff;" x="580.375114" xlink:href="#me6396a9b55" y="161.314372"/>
     <use style="fill:#0000ff;stroke:#0000ff;" x="570.022609" xlink:href="#me6396a9b55" y="161.314372"/>
     <use style="fill:#0000ff;stroke:#0000ff;" x="559.670104" xlink:href="#me6396a9b55" y="161.314372"/>
     <use style="fill:#0000ff;stroke:#0000ff;" x="549.3176" xlink:href="#me6396a9b55" y="161.314372"/>
     <use style="fill:#0000ff;stroke:#0000ff;" x="538.965095" xlink:href="#me6396a9b55" y="161.314372"/>
     <use style="fill:#0000ff;stroke:#0000ff;" x="528.61259" xlink:href="#me6396a9b55" y="161.314372"/>
     <use style="fill:#0000ff;stroke:#0000ff;" x="518.260086" xlink:href="#me6396a9b55" y="161.314372"/>
     <use style="fill:#0000ff;stroke:#0000ff;" x="507.907581" xlink:href="#me6396a9b55" y="161.314372"/>
     <use style="fill:#0000ff;stroke:#0000ff;" x="497.555077" xlink:href="#me6396a9b55" y="161.314372"/>
     <use style="fill:#0000ff;stroke:#0000ff;" x="487.202572" xlink:href="#me6396a9b55" y="161.314372"/>
     <use style="fill:#0000ff;stroke:#0000ff;" x="476.850067" xlink:href="#me6396a9b55" y="161.314372"/>
     <use style="fill:#0000ff;stroke:#0000ff;" x="466.497563" xlink:href="#me6396a9b55" y="161.314372"/>
     <use style="fill:#0000ff;stroke:#0000ff;" x="456.145058" xlink:href="#me6396a9b55" y="161.151885"/>
     <use style="fill:#0000ff;stroke:#0000ff;" x="445.792553" xlink:href="#me6396a9b55" y="170.032857"/>
     <use style="fill:#0000ff;stroke:#0000ff;" x="435.440049" xlink:href="#me6396a9b55" y="181.83568"/>
     <use style="fill:#0000ff;stroke:#0000ff;" x="425.087544" xlink:href="#me6396a9b55" y="191.673935"/>
     <use style="fill:#0000ff;stroke:#0000ff;" x="414.735039" xlink:href="#me6396a9b55" y="198.667218"/>
     <use style="fill:#0000ff;stroke:#0000ff;" x="404.382535" xlink:href="#me6396a9b55" y="207.020165"/>
     <use style="fill:#0000ff;stroke:#0000ff;" x="394.03003" xlink:href="#me6396a9b55" y="214.259044"/>
     <use style="fill:#0000ff;stroke:#0000ff;" x="383.677526" xlink:href="#me6396a9b55" y="219.06329"/>
     <use style="fill:#0000ff;stroke:#0000ff;" x="373.325021" xlink:href="#me6396a9b55" y="222.247226"/>
     <use style="fill:#0000ff;stroke:#0000ff;" x="362.972516" xlink:href="#me6396a9b55" y="223.413347"/>
     <use style="fill:#0000ff;stroke:#0000ff;" x="352.620012" xlink:href="#me6396a9b55" y="222.150156"/>
     <use style="fill:#0000ff;stroke:#0000ff;" x="342.267507" xlink:href="#me6396a9b55" y="220.336161"/>
     <use style="fill:#0000ff;stroke:#0000ff;" x="331.915002" xlink:href="#me6396a9b55" y="218.307075"/>
     <use style="fill:#0000ff;stroke:#0000ff;" x="321.562498" xlink:href="#me6396a9b55" y="215.546439"/>
     <use style="fill:#0000ff;stroke:#0000ff;" x="311.209993" xlink:href="#me6396a9b55" y="212.847839"/>
     <use style="fill:#0000ff;stroke:#0000ff;" x="300.857488" xlink:href="#me6396a9b55" y="210.156021"/>
     <use style="fill:#0000ff;stroke:#0000ff;" x="290.504984" xlink:href="#me6396a9b55" y="208.087797"/>
     <use style="fill:#0000ff;stroke:#0000ff;" x="280.152479" xlink:href="#me6396a9b55" y="206.006132"/>
     <use style="fill:#0000ff;stroke:#0000ff;" x="269.799974" xlink:href="#me6396a9b55" y="202.595817"/>
     <use style="fill:#0000ff;stroke:#0000ff;" x="259.44747" xlink:href="#me6396a9b55" y="199.318106"/>
     <use style="fill:#0000ff;stroke:#0000ff;" x="249.094965" xlink:href="#me6396a9b55" y="193.018089"/>
     <use style="fill:#0000ff;stroke:#0000ff;" x="238.742461" xlink:href="#me6396a9b55" y="174.620619"/>
     <use style="fill:#0000ff;stroke:#0000ff;" x="228.389956" xlink:href="#me6396a9b55" y="159.070978"/>
     <use style="fill:#0000ff;stroke:#0000ff;" x="218.037451" xlink:href="#me6396a9b55" y="146.088416"/>
     <use style="fill:#0000ff;stroke:#0000ff;" x="207.684947" xlink:href="#me6396a9b55" y="136.113248"/>
     <use style="fill:#0000ff;stroke:#0000ff;" x="197.332442" xlink:href="#me6396a9b55" y="125.999001"/>
     <use style="fill:#0000ff;stroke:#0000ff;" x="186.979937" xlink:href="#me6396a9b55" y="114.984911"/>
     <use style="fill:#0000ff;stroke:#0000ff;" x="176.627433" xlink:href="#me6396a9b55" y="102.820628"/>
     <use style="fill:#0000ff;stroke:#0000ff;" x="166.274928" xlink:href="#me6396a9b55" y="90.629473"/>
     <use style="fill:#0000ff;stroke:#0000ff;" x="155.922423" xlink:href="#me6396a9b55" y="77.92409"/>
     <use style="fill:#0000ff;stroke:#0000ff;" x="145.569919" xlink:href="#me6396a9b55" y="65.536845"/>
     <use style="fill:#0000ff;stroke:#0000ff;" x="135.217414" xlink:href="#me6396a9b55" y="56.839602"/>
     <use style="fill:#0000ff;stroke:#0000ff;" x="124.86491" xlink:href="#me6396a9b55" y="49.667257"/>
     <use style="fill:#0000ff;stroke:#0000ff;" x="114.512405" xlink:href="#me6396a9b55" y="42.575393"/>
     <use style="fill:#0000ff;stroke:#0000ff;" x="104.1599" xlink:href="#me6396a9b55" y="36.453177"/>
     <use style="fill:#0000ff;stroke:#0000ff;" x="93.807396" xlink:href="#me6396a9b55" y="30.856907"/>
     <use style="fill:#0000ff;stroke:#0000ff;" x="83.454891" xlink:href="#me6396a9b55" y="28.850046"/>
     <use style="fill:#0000ff;stroke:#0000ff;" x="73.102386" xlink:href="#me6396a9b55" y="26.967273"/>
    </g>
   </g>
   <g id="line2d_35">
    <path clip-path="url(#p6eea126f3c)" d="M 321.562498 442.08 
L 321.562498 7.2 
" style="fill:none;stroke:#000000;stroke-dasharray:5.55,2.4;stroke-dashoffset:0;stroke-width:1.5;"/>
   </g>
   <g id="line2d_36">
    <defs>
     <path d="M 0 1.5 
C 0.397805 1.5 0.77937 1.341951 1.06066 1.06066 
C 1.341951 0.77937 1.5 0.397805 1.5 0 
C 1.5 -0.397805 1.341951 -0.77937 1.06066 -1.06066 
C 0.77937 -1.341951 0.397805 -1.5 0 -1.5 
C -0.397805 -1.5 -0.77937 -1.341951 -1.06066 -1.06066 
C -1.341951 -0.77937 -1.5 -0.397805 -1.5 0 
C -1.5 0.397805 -1.341951 0.77937 -1.06066 1.06066 
C -0.77937 1.341951 -0.397805 1.5 0 1.5 
z
" id="m8e7f4e7c8c" style="stroke:#ff0000;"/>
    </defs>
    <g clip-path="url(#p6eea126f3c)">
     <use style="fill:#ff0000;stroke:#ff0000;" x="580.375114" xlink:href="#m8e7f4e7c8c" y="235.308513"/>
     <use style="fill:#ff0000;stroke:#ff0000;" x="570.022609" xlink:href="#m8e7f4e7c8c" y="235.308513"/>
     <use style="fill:#ff0000;stroke:#ff0000;" x="559.670104" xlink:href="#m8e7f4e7c8c" y="235.308513"/>
     <use style="fill:#ff0000;stroke:#ff0000;" x="549.3176" xlink:href="#m8e7f4e7c8c" y="235.308513"/>
     <use style="fill:#ff0000;stroke:#ff0000;" x="538.965095" xlink:href="#m8e7f4e7c8c" y="235.308513"/>
     <use style="fill:#ff0000;stroke:#ff0000;" x="528.61259" xlink:href="#m8e7f4e7c8c" y="235.308513"/>
     <use style="fill:#ff0000;stroke:#ff0000;" x="518.260086" xlink:href="#m8e7f4e7c8c" y="235.308513"/>
     <use style="fill:#ff0000;stroke:#ff0000;" x="507.907581" xlink:href="#m8e7f4e7c8c" y="235.308513"/>
     <use style="fill:#ff0000;stroke:#ff0000;" x="497.555077" xlink:href="#m8e7f4e7c8c" y="235.308513"/>
     <use style="fill:#ff0000;stroke:#ff0000;" x="487.202572" xlink:href="#m8e7f4e7c8c" y="235.308513"/>
     <use style="fill:#ff0000;stroke:#ff0000;" x="476.850067" xlink:href="#m8e7f4e7c8c" y="235.308513"/>
     <use style="fill:#ff0000;stroke:#ff0000;" x="466.497563" xlink:href="#m8e7f4e7c8c" y="235.308513"/>
     <use style="fill:#ff0000;stroke:#ff0000;" x="456.145058" xlink:href="#m8e7f4e7c8c" y="235.220951"/>
     <use style="fill:#ff0000;stroke:#ff0000;" x="445.792553" xlink:href="#m8e7f4e7c8c" y="243.265462"/>
     <use style="fill:#ff0000;stroke:#ff0000;" x="435.440049" xlink:href="#m8e7f4e7c8c" y="254.215008"/>
     <use style="fill:#ff0000;stroke:#ff0000;" x="425.087544" xlink:href="#m8e7f4e7c8c" y="264.768025"/>
     <use style="fill:#ff0000;stroke:#ff0000;" x="414.735039" xlink:href="#m8e7f4e7c8c" y="273.444541"/>
     <use style="fill:#ff0000;stroke:#ff0000;" x="404.382535" xlink:href="#m8e7f4e7c8c" y="281.504781"/>
     <use style="fill:#ff0000;stroke:#ff0000;" x="394.03003" xlink:href="#m8e7f4e7c8c" y="289.35019"/>
     <use style="fill:#ff0000;stroke:#ff0000;" x="383.677526" xlink:href="#m8e7f4e7c8c" y="296.19464"/>
     <use style="fill:#ff0000;stroke:#ff0000;" x="373.325021" xlink:href="#m8e7f4e7c8c" y="301.431791"/>
     <use style="fill:#ff0000;stroke:#ff0000;" x="362.972516" xlink:href="#m8e7f4e7c8c" y="304.858979"/>
     <use style="fill:#ff0000;stroke:#ff0000;" x="352.620012" xlink:href="#m8e7f4e7c8c" y="306.431011"/>
     <use style="fill:#ff0000;stroke:#ff0000;" x="342.267507" xlink:href="#m8e7f4e7c8c" y="307.674173"/>
     <use style="fill:#ff0000;stroke:#ff0000;" x="331.915002" xlink:href="#m8e7f4e7c8c" y="308.547926"/>
     <use style="fill:#ff0000;stroke:#ff0000;" x="321.562498" xlink:href="#m8e7f4e7c8c" y="308.613185"/>
     <use style="fill:#ff0000;stroke:#ff0000;" x="311.209993" xlink:href="#m8e7f4e7c8c" y="308.217307"/>
     <use style="fill:#ff0000;stroke:#ff0000;" x="300.857488" xlink:href="#m8e7f4e7c8c" y="307.654166"/>
     <use style="fill:#ff0000;stroke:#ff0000;" x="290.504984" xlink:href="#m8e7f4e7c8c" y="307.087191"/>
     <use style="fill:#ff0000;stroke:#ff0000;" x="280.152479" xlink:href="#m8e7f4e7c8c" y="306.124875"/>
     <use style="fill:#ff0000;stroke:#ff0000;" x="269.799974" xlink:href="#m8e7f4e7c8c" y="304.487663"/>
     <use style="fill:#ff0000;stroke:#ff0000;" x="259.44747" xlink:href="#m8e7f4e7c8c" y="303.071928"/>
     <use style="fill:#ff0000;stroke:#ff0000;" x="249.094965" xlink:href="#m8e7f4e7c8c" y="300.119738"/>
     <use style="fill:#ff0000;stroke:#ff0000;" x="238.742461" xlink:href="#m8e7f4e7c8c" y="291.596857"/>
     <use style="fill:#ff0000;stroke:#ff0000;" x="228.389956" xlink:href="#m8e7f4e7c8c" y="284.55715"/>
     <use style="fill:#ff0000;stroke:#ff0000;" x="218.037451" xlink:href="#m8e7f4e7c8c" y="278.907145"/>
     <use style="fill:#ff0000;stroke:#ff0000;" x="207.684947" xlink:href="#m8e7f4e7c8c" y="274.677399"/>
     <use style="fill:#ff0000;stroke:#ff0000;" x="197.332442" xlink:href="#m8e7f4e7c8c" y="271.150413"/>
     <use style="fill:#ff0000;stroke:#ff0000;" x="186.979937" xlink:href="#m8e7f4e7c8c" y="267.462932"/>
     <use style="fill:#ff0000;stroke:#ff0000;" x="176.627433" xlink:href="#m8e7f4e7c8c" y="262.566678"/>
     <use style="fill:#ff0000;stroke:#ff0000;" x="166.274928" xlink:href="#m8e7f4e7c8c" y="256.417098"/>
     <use style="fill:#ff0000;stroke:#ff0000;" x="155.922423" xlink:href="#m8e7f4e7c8c" y="249.625535"/>
     <use style="fill:#ff0000;stroke:#ff0000;" x="145.569919" xlink:href="#m8e7f4e7c8c" y="242.67385"/>
     <use style="fill:#ff0000;stroke:#ff0000;" x="135.217414" xlink:href="#m8e7f4e7c8c" y="236.411106"/>
     <use style="fill:#ff0000;stroke:#ff0000;" x="124.86491" xlink:href="#m8e7f4e7c8c" y="230.547294"/>
     <use style="fill:#ff0000;stroke:#ff0000;" x="114.512405" xlink:href="#m8e7f4e7c8c" y="225.306488"/>
     <use style="fill:#ff0000;stroke:#ff0000;" x="104.1599" xlink:href="#m8e7f4e7c8c" y="221.552504"/>
     <use style="fill:#ff0000;stroke:#ff0000;" x="93.807396" xlink:href="#m8e7f4e7c8c" y="218.283042"/>
     <use style="fill:#ff0000;stroke:#ff0000;" x="83.454891" xlink:href="#m8e7f4e7c8c" y="216.106283"/>
     <use style="fill:#ff0000;stroke:#ff0000;" x="73.102386" xlink:href="#m8e7f4e7c8c" y="214.24426"/>
    </g>
   </g>
   <g id="patch_3">
    <path d="M 47.73875 442.08 
L 47.73875 7.2 
" style="fill:none;stroke:#000000;stroke-linecap:square;stroke-linejoin:miter;stroke-width:0.8;"/>
   </g>
   <g id="patch_4">
    <path d="M 605.73875 442.08 
L 605.73875 7.2 
" style="fill:none;stroke:#000000;stroke-linecap:square;stroke-linejoin:miter;stroke-width:0.8;"/>
   </g>
   <g id="patch_5">
    <path d="M 47.73875 442.08 
L 605.73875 442.08 
" style="fill:none;stroke:#000000;stroke-linecap:square;stroke-linejoin:miter;stroke-width:0.8;"/>
   </g>
   <g id="patch_6">
    <path d="M 47.73875 7.2 
L 605.73875 7.2 
" style="fill:none;stroke:#000000;stroke-linecap:square;stroke-linejoin:miter;stroke-width:0.8;"/>
   </g>
  </g>
 </g>
 <defs>
  <clipPath id="p6eea126f3c">
   <rect height="434.88" width="558" x="47.73875" y="7.2"/>
  </clipPath>
 </defs>
</svg>
