<?xml version="1.0" encoding="utf-8" standalone="no"?>
<!DOCTYPE svg PUBLIC "-//W3C//DTD SVG 1.1//EN"
  "http://www.w3.org/Graphics/SVG/1.1/DTD/svg11.dtd">
<!-- Created with matplotlib (https://matplotlib.org/) -->
<svg height="485.43125pt" version="1.1" viewBox="0 0 618.130625 485.43125" width="618.130625pt" xmlns="http://www.w3.org/2000/svg" xmlns:xlink="http://www.w3.org/1999/xlink">
 <defs>
  <style type="text/css">
*{stroke-linecap:butt;stroke-linejoin:round;}
  </style>
 </defs>
 <g id="figure_1">
  <g id="patch_1">
   <path d="M 0 485.43125 
L 618.130625 485.43125 
L 618.130625 0 
L 0 0 
z
" style="fill:#ffffff;"/>
  </g>
  <g id="axes_1">
   <g id="patch_2">
    <path d="M 52.930625 442.08 
L 610.930625 442.08 
L 610.930625 7.2 
L 52.930625 7.2 
z
" style="fill:#ffffff;"/>
   </g>
   <g id="matplotlib.axis_1">
    <g id="xtick_1">
     <g id="line2d_1">
      <defs>
       <path d="M 0 0 
L 0 3.5 
" id="mb4915606fb" style="stroke:#000000;stroke-width:0.8;"/>
      </defs>
      <g>
       <use style="stroke:#000000;stroke-width:0.8;" x="78.294261" xlink:href="#mb4915606fb" y="442.08"/>
      </g>
     </g>
     <g id="text_1">
      <!-- $\mathdefault{10^{-3}}$ -->
      <defs>
       <path d="M 27.828125 0 
L 27.828125 64.703125 
Q 25.59375 62.453125 20.234375 59.671875 
Q 14.890625 56.890625 10.359375 55.765625 
L 10.359375 65.140625 
Q 16.359375 66.796875 23.1875 70.4375 
Q 30.03125 74.078125 33.6875 77.296875 
L 37.3125 77.296875 
L 37.3125 0 
z
" id="MicrosoftYaHei-49"/>
       <path d="M 4.4375 36.328125 
Q 4.4375 56.34375 11.078125 66.625 
Q 17.71875 76.90625 30.328125 76.90625 
Q 54.34375 76.90625 54.34375 38.140625 
Q 54.34375 19 47.578125 8.859375 
Q 40.828125 -1.265625 28.609375 -1.265625 
Q 17.09375 -1.265625 10.765625 8.34375 
Q 4.4375 17.96875 4.4375 36.328125 
z
M 14.203125 36.765625 
Q 14.203125 6.640625 29.5 6.640625 
Q 44.53125 6.640625 44.53125 37.25 
Q 44.53125 68.953125 29.78125 68.953125 
Q 14.203125 68.953125 14.203125 36.765625 
z
" id="MicrosoftYaHei-48"/>
       <path d="M 62.0625 27.6875 
L 12.3125 27.6875 
L 12.3125 35.15625 
L 62.0625 35.15625 
z
" id="MicrosoftYaHei-8722"/>
       <path d="M 6.984375 12.640625 
Q 14.75 6.640625 24.515625 6.640625 
Q 32.328125 6.640625 36.890625 10.46875 
Q 41.453125 14.3125 41.453125 20.75 
Q 41.453125 35.109375 20.90625 35.109375 
L 14.59375 35.109375 
L 14.59375 43.015625 
L 20.609375 43.015625 
Q 38.8125 43.015625 38.8125 56.5 
Q 38.8125 68.953125 24.90625 68.953125 
Q 16.9375 68.953125 9.90625 63.578125 
L 9.90625 72.609375 
Q 17.328125 76.90625 27.25 76.90625 
Q 36.921875 76.90625 42.78125 71.84375 
Q 48.640625 66.796875 48.640625 58.734375 
Q 48.640625 43.890625 33.5 39.65625 
L 33.5 39.453125 
Q 41.703125 38.578125 46.453125 33.671875 
Q 51.21875 28.765625 51.21875 21.4375 
Q 51.21875 11.234375 43.875 4.984375 
Q 36.53125 -1.265625 24.3125 -1.265625 
Q 13.578125 -1.265625 6.984375 2.734375 
z
" id="MicrosoftYaHei-51"/>
      </defs>
      <g transform="translate(65.454261 458.6725)scale(0.12 -0.12)">
       <use transform="translate(0 0.365625)" xlink:href="#MicrosoftYaHei-49"/>
       <use transform="translate(58.642578 0.365625)" xlink:href="#MicrosoftYaHei-48"/>
       <use transform="translate(118.230156 38.165625)scale(0.7)" xlink:href="#MicrosoftYaHei-8722"/>
       <use transform="translate(170.149102 38.165625)scale(0.7)" xlink:href="#MicrosoftYaHei-51"/>
      </g>
     </g>
    </g>
    <g id="xtick_2">
     <g id="line2d_2">
      <g>
       <use style="stroke:#000000;stroke-width:0.8;" x="247.38517" xlink:href="#mb4915606fb" y="442.08"/>
      </g>
     </g>
     <g id="text_2">
      <!-- $\mathdefault{10^{-2}}$ -->
      <defs>
       <path d="M 41.65625 55.8125 
Q 41.65625 61.921875 37.796875 65.40625 
Q 33.9375 68.890625 27.296875 68.890625 
Q 22.609375 68.890625 17.8125 66.5 
Q 13.03125 64.109375 8.890625 59.671875 
L 8.890625 68.953125 
Q 12.59375 72.796875 17.296875 74.84375 
Q 22.015625 76.90625 28.375 76.90625 
Q 38.625 76.90625 44.875 71.40625 
Q 51.125 65.921875 51.125 56.546875 
Q 51.125 48.1875 47.28125 42.078125 
Q 43.453125 35.984375 34.1875 29.59375 
Q 24.703125 23.046875 21.5 20.21875 
Q 18.3125 17.390625 17.03125 14.796875 
Q 15.765625 12.203125 15.765625 8.5 
L 53.375 8.5 
L 53.375 0 
L 5.8125 0 
L 5.8125 3.765625 
Q 5.8125 10.296875 7.59375 14.859375 
Q 9.375 19.4375 13.46875 23.75 
Q 17.578125 28.078125 26.265625 34.125 
Q 35.15625 40.375 38.40625 45.09375 
Q 41.65625 49.8125 41.65625 55.8125 
z
" id="MicrosoftYaHei-50"/>
      </defs>
      <g transform="translate(234.54517 458.6725)scale(0.12 -0.12)">
       <use transform="translate(0 0.365625)" xlink:href="#MicrosoftYaHei-49"/>
       <use transform="translate(58.642578 0.365625)" xlink:href="#MicrosoftYaHei-48"/>
       <use transform="translate(118.230156 38.165625)scale(0.7)" xlink:href="#MicrosoftYaHei-8722"/>
       <use transform="translate(170.149102 38.165625)scale(0.7)" xlink:href="#MicrosoftYaHei-50"/>
      </g>
     </g>
    </g>
    <g id="xtick_3">
     <g id="line2d_3">
      <g>
       <use style="stroke:#000000;stroke-width:0.8;" x="416.47608" xlink:href="#mb4915606fb" y="442.08"/>
      </g>
     </g>
     <g id="text_3">
      <!-- $\mathdefault{10^{-1}}$ -->
      <g transform="translate(403.63608 458.6725)scale(0.12 -0.12)">
       <use transform="translate(0 0.092188)" xlink:href="#MicrosoftYaHei-49"/>
       <use transform="translate(58.642578 0.092188)" xlink:href="#MicrosoftYaHei-48"/>
       <use transform="translate(118.230156 37.892188)scale(0.7)" xlink:href="#MicrosoftYaHei-8722"/>
       <use transform="translate(170.149102 37.892188)scale(0.7)" xlink:href="#MicrosoftYaHei-49"/>
      </g>
     </g>
    </g>
    <g id="xtick_4">
     <g id="line2d_4">
      <g>
       <use style="stroke:#000000;stroke-width:0.8;" x="585.566989" xlink:href="#mb4915606fb" y="442.08"/>
      </g>
     </g>
     <g id="text_4">
      <!-- $\mathdefault{10^{0}}$ -->
      <g transform="translate(575.846989 458.6725)scale(0.12 -0.12)">
       <use transform="translate(0 0.365625)" xlink:href="#MicrosoftYaHei-49"/>
       <use transform="translate(58.642578 0.365625)" xlink:href="#MicrosoftYaHei-48"/>
       <use transform="translate(118.230156 38.165625)scale(0.7)" xlink:href="#MicrosoftYaHei-48"/>
      </g>
     </g>
    </g>
    <g id="xtick_5">
     <g id="line2d_5">
      <defs>
       <path d="M 0 0 
L 0 2 
" id="mee32a9aa16" style="stroke:#000000;stroke-width:0.6;"/>
      </defs>
      <g>
       <use style="stroke:#000000;stroke-width:0.6;" x="61.907659" xlink:href="#mee32a9aa16" y="442.08"/>
      </g>
     </g>
    </g>
    <g id="xtick_6">
     <g id="line2d_6">
      <g>
       <use style="stroke:#000000;stroke-width:0.6;" x="70.557086" xlink:href="#mee32a9aa16" y="442.08"/>
      </g>
     </g>
    </g>
    <g id="xtick_7">
     <g id="line2d_7">
      <g>
       <use style="stroke:#000000;stroke-width:0.6;" x="129.195697" xlink:href="#mee32a9aa16" y="442.08"/>
      </g>
     </g>
    </g>
    <g id="xtick_8">
     <g id="line2d_8">
      <g>
       <use style="stroke:#000000;stroke-width:0.6;" x="158.971128" xlink:href="#mee32a9aa16" y="442.08"/>
      </g>
     </g>
    </g>
    <g id="xtick_9">
     <g id="line2d_9">
      <g>
       <use style="stroke:#000000;stroke-width:0.6;" x="180.097133" xlink:href="#mee32a9aa16" y="442.08"/>
      </g>
     </g>
    </g>
    <g id="xtick_10">
     <g id="line2d_10">
      <g>
       <use style="stroke:#000000;stroke-width:0.6;" x="196.483735" xlink:href="#mee32a9aa16" y="442.08"/>
      </g>
     </g>
    </g>
    <g id="xtick_11">
     <g id="line2d_11">
      <g>
       <use style="stroke:#000000;stroke-width:0.6;" x="209.872564" xlink:href="#mee32a9aa16" y="442.08"/>
      </g>
     </g>
    </g>
    <g id="xtick_12">
     <g id="line2d_12">
      <g>
       <use style="stroke:#000000;stroke-width:0.6;" x="221.192657" xlink:href="#mee32a9aa16" y="442.08"/>
      </g>
     </g>
    </g>
    <g id="xtick_13">
     <g id="line2d_13">
      <g>
       <use style="stroke:#000000;stroke-width:0.6;" x="230.998568" xlink:href="#mee32a9aa16" y="442.08"/>
      </g>
     </g>
    </g>
    <g id="xtick_14">
     <g id="line2d_14">
      <g>
       <use style="stroke:#000000;stroke-width:0.6;" x="239.647995" xlink:href="#mee32a9aa16" y="442.08"/>
      </g>
     </g>
    </g>
    <g id="xtick_15">
     <g id="line2d_15">
      <g>
       <use style="stroke:#000000;stroke-width:0.6;" x="298.286606" xlink:href="#mee32a9aa16" y="442.08"/>
      </g>
     </g>
    </g>
    <g id="xtick_16">
     <g id="line2d_16">
      <g>
       <use style="stroke:#000000;stroke-width:0.6;" x="328.062037" xlink:href="#mee32a9aa16" y="442.08"/>
      </g>
     </g>
    </g>
    <g id="xtick_17">
     <g id="line2d_17">
      <g>
       <use style="stroke:#000000;stroke-width:0.6;" x="349.188042" xlink:href="#mee32a9aa16" y="442.08"/>
      </g>
     </g>
    </g>
    <g id="xtick_18">
     <g id="line2d_18">
      <g>
       <use style="stroke:#000000;stroke-width:0.6;" x="365.574644" xlink:href="#mee32a9aa16" y="442.08"/>
      </g>
     </g>
    </g>
    <g id="xtick_19">
     <g id="line2d_19">
      <g>
       <use style="stroke:#000000;stroke-width:0.6;" x="378.963473" xlink:href="#mee32a9aa16" y="442.08"/>
      </g>
     </g>
    </g>
    <g id="xtick_20">
     <g id="line2d_20">
      <g>
       <use style="stroke:#000000;stroke-width:0.6;" x="390.283566" xlink:href="#mee32a9aa16" y="442.08"/>
      </g>
     </g>
    </g>
    <g id="xtick_21">
     <g id="line2d_21">
      <g>
       <use style="stroke:#000000;stroke-width:0.6;" x="400.089477" xlink:href="#mee32a9aa16" y="442.08"/>
      </g>
     </g>
    </g>
    <g id="xtick_22">
     <g id="line2d_22">
      <g>
       <use style="stroke:#000000;stroke-width:0.6;" x="408.738904" xlink:href="#mee32a9aa16" y="442.08"/>
      </g>
     </g>
    </g>
    <g id="xtick_23">
     <g id="line2d_23">
      <g>
       <use style="stroke:#000000;stroke-width:0.6;" x="467.377515" xlink:href="#mee32a9aa16" y="442.08"/>
      </g>
     </g>
    </g>
    <g id="xtick_24">
     <g id="line2d_24">
      <g>
       <use style="stroke:#000000;stroke-width:0.6;" x="497.152946" xlink:href="#mee32a9aa16" y="442.08"/>
      </g>
     </g>
    </g>
    <g id="xtick_25">
     <g id="line2d_25">
      <g>
       <use style="stroke:#000000;stroke-width:0.6;" x="518.278951" xlink:href="#mee32a9aa16" y="442.08"/>
      </g>
     </g>
    </g>
    <g id="xtick_26">
     <g id="line2d_26">
      <g>
       <use style="stroke:#000000;stroke-width:0.6;" x="534.665553" xlink:href="#mee32a9aa16" y="442.08"/>
      </g>
     </g>
    </g>
    <g id="xtick_27">
     <g id="line2d_27">
      <g>
       <use style="stroke:#000000;stroke-width:0.6;" x="548.054382" xlink:href="#mee32a9aa16" y="442.08"/>
      </g>
     </g>
    </g>
    <g id="xtick_28">
     <g id="line2d_28">
      <g>
       <use style="stroke:#000000;stroke-width:0.6;" x="559.374475" xlink:href="#mee32a9aa16" y="442.08"/>
      </g>
     </g>
    </g>
    <g id="xtick_29">
     <g id="line2d_29">
      <g>
       <use style="stroke:#000000;stroke-width:0.6;" x="569.180386" xlink:href="#mee32a9aa16" y="442.08"/>
      </g>
     </g>
    </g>
    <g id="xtick_30">
     <g id="line2d_30">
      <g>
       <use style="stroke:#000000;stroke-width:0.6;" x="577.829813" xlink:href="#mee32a9aa16" y="442.08"/>
      </g>
     </g>
    </g>
    <g id="text_5">
     <!-- Lambda(λ=0.0295) -->
     <defs>
      <path d="M 49.65625 0 
L 9.765625 0 
L 9.765625 75.640625 
L 19.53125 75.640625 
L 19.53125 8.640625 
L 49.65625 8.640625 
z
" id="MicrosoftYaHei-76"/>
      <path d="M 9.8125 50.25 
Q 17.875 55.28125 28.421875 55.28125 
Q 47.953125 55.28125 47.953125 34.765625 
L 47.953125 0 
L 38.484375 0 
L 38.484375 8.34375 
L 38.234375 8.34375 
Q 32.625 -1.265625 21.6875 -1.265625 
Q 13.8125 -1.265625 9.171875 2.984375 
Q 4.546875 7.234375 4.546875 14.453125 
Q 4.546875 29.59375 22.46875 32.078125 
L 38.484375 34.328125 
Q 38.484375 47.5625 27.546875 47.5625 
Q 17.828125 47.5625 9.8125 41.015625 
z
M 25.828125 25.390625 
Q 19.1875 24.515625 16.671875 22.0625 
Q 14.15625 19.625 14.15625 15.234375 
Q 14.15625 11.375 16.890625 8.9375 
Q 19.625 6.5 24.125 6.5 
Q 30.375 6.5 34.421875 10.890625 
Q 38.484375 15.28125 38.484375 21.921875 
L 38.484375 27.09375 
z
" id="MicrosoftYaHei-97"/>
      <path d="M 86.28125 0 
L 76.703125 0 
L 76.703125 31 
Q 76.703125 39.796875 73.96875 43.578125 
Q 71.234375 47.359375 64.984375 47.359375 
Q 59.71875 47.359375 55.953125 42.421875 
Q 52.203125 37.5 52.203125 30.765625 
L 52.203125 0 
L 42.625 0 
L 42.625 31.984375 
Q 42.625 47.359375 30.765625 47.359375 
Q 25.296875 47.359375 21.703125 42.671875 
Q 18.109375 37.984375 18.109375 30.71875 
L 18.109375 0 
L 8.546875 0 
L 8.546875 54 
L 18.109375 54 
L 18.109375 45.453125 
L 18.3125 45.453125 
Q 24.078125 55.28125 35.15625 55.28125 
Q 40.578125 55.28125 44.71875 52.296875 
Q 48.875 49.3125 50.484375 44.234375 
Q 56.5 55.28125 68.453125 55.28125 
Q 86.28125 55.28125 86.28125 33.296875 
z
" id="MicrosoftYaHei-109"/>
      <path d="M 18.109375 7.625 
L 18.109375 0 
L 8.546875 0 
L 8.546875 79.9375 
L 18.109375 79.9375 
L 18.109375 44.671875 
L 18.3125 44.671875 
Q 24.65625 55.28125 36.859375 55.28125 
Q 47.015625 55.28125 53 48.125 
Q 58.984375 40.96875 58.984375 28.5625 
Q 58.984375 14.890625 52.265625 6.8125 
Q 45.5625 -1.265625 34.375 -1.265625 
Q 23.828125 -1.265625 18.3125 7.625 
z
M 18.0625 22.21875 
Q 18.0625 15.671875 22.3125 11.15625 
Q 26.5625 6.640625 32.953125 6.640625 
Q 40.578125 6.640625 44.875 12.5 
Q 49.171875 18.359375 49.171875 28.71875 
Q 49.171875 37.25 45.15625 42.296875 
Q 41.15625 47.359375 34.234375 47.359375 
Q 27.203125 47.359375 22.625 42.328125 
Q 18.0625 37.3125 18.0625 29.546875 
z
" id="MicrosoftYaHei-98"/>
      <path d="M 55.421875 0 
L 45.84375 0 
L 45.84375 8.984375 
L 45.65625 8.984375 
Q 39.75 -1.265625 27.296875 -1.265625 
Q 17.046875 -1.265625 10.984375 6.03125 
Q 4.9375 13.328125 4.9375 25.734375 
Q 4.9375 39.109375 11.765625 47.1875 
Q 18.609375 55.28125 29.640625 55.28125 
Q 40.671875 55.28125 45.65625 46.6875 
L 45.84375 46.6875 
L 45.84375 79.9375 
L 55.421875 79.9375 
z
M 45.90625 32.125 
Q 45.90625 38.625 41.625 42.984375 
Q 37.359375 47.359375 31.109375 47.359375 
Q 23.484375 47.359375 19.09375 41.671875 
Q 14.703125 35.984375 14.703125 26.171875 
Q 14.703125 17.140625 18.921875 11.890625 
Q 23.140625 6.640625 30.171875 6.640625 
Q 37.109375 6.640625 41.5 11.78125 
Q 45.90625 16.9375 45.90625 24.609375 
z
" id="MicrosoftYaHei-100"/>
      <path d="M 23.921875 -17.1875 
Q 7.46875 1.5625 7.46875 28.859375 
Q 7.46875 56.15625 23.921875 75.640625 
L 32.375 75.640625 
Q 15.875 55.375 15.875 28.953125 
Q 15.875 2.59375 32.28125 -17.1875 
z
" id="MicrosoftYaHei-40"/>
      <path d="M 52.9375 0 
L 42.671875 0 
L 28.46875 42.921875 
L 10.40625 0 
L -0.046875 0 
L 24.265625 53.5625 
L 20.90625 63.421875 
Q 18.171875 71.4375 12.703125 71.4375 
Q 9.96875 71.4375 6.109375 70.3125 
L 6.109375 79.25 
Q 9.625 79.984375 13.375 79.984375 
Q 20.015625 79.984375 23.546875 76.4375 
Q 27.09375 72.90625 30.46875 63.578125 
z
" id="MicrosoftYaHei-955"/>
      <path d="M 62.0625 39.015625 
L 12.3125 39.015625 
L 12.3125 46.390625 
L 62.0625 46.390625 
z
M 62.0625 16.453125 
L 12.3125 16.453125 
L 12.3125 23.828125 
L 62.0625 23.828125 
z
" id="MicrosoftYaHei-61"/>
      <path d="M 5.8125 5.03125 
Q 5.8125 7.671875 7.609375 9.46875 
Q 9.421875 11.28125 12.109375 11.28125 
Q 14.84375 11.28125 16.640625 9.453125 
Q 18.453125 7.625 18.453125 5.03125 
Q 18.453125 2.484375 16.640625 0.65625 
Q 14.84375 -1.171875 12.0625 -1.171875 
Q 9.375 -1.171875 7.59375 0.65625 
Q 5.8125 2.484375 5.8125 5.03125 
z
" id="MicrosoftYaHei-46"/>
      <path d="M 9.03125 10.25 
Q 15.28125 6.640625 22.515625 6.640625 
Q 32.671875 6.640625 38.25 14.640625 
Q 43.84375 22.65625 43.84375 37.40625 
Q 43.75 37.3125 43.65625 37.40625 
Q 38.671875 27.9375 26.90625 27.9375 
Q 17.390625 27.9375 11.140625 34.46875 
Q 4.890625 41.015625 4.890625 51.46875 
Q 4.890625 62.59375 11.71875 69.75 
Q 18.5625 76.90625 29.4375 76.90625 
Q 40.71875 76.90625 47.0625 68.046875 
Q 53.421875 59.1875 53.421875 42.234375 
Q 53.421875 21.296875 45.21875 10.015625 
Q 37.015625 -1.265625 22.515625 -1.265625 
Q 14.546875 -1.265625 9.03125 1.3125 
z
M 14.546875 52.6875 
Q 14.546875 45.0625 18.453125 40.59375 
Q 22.359375 36.140625 29.25 36.140625 
Q 35.203125 36.140625 39.25 40.203125 
Q 43.3125 44.28125 43.3125 50.09375 
Q 43.3125 58.25 39.28125 63.59375 
Q 35.25 68.953125 28.65625 68.953125 
Q 22.5625 68.953125 18.546875 64.3125 
Q 14.546875 59.671875 14.546875 52.6875 
z
" id="MicrosoftYaHei-57"/>
      <path d="M 51.46875 23.34375 
Q 51.46875 12.25 44.109375 5.46875 
Q 36.765625 -1.3125 24.359375 -1.3125 
Q 13.71875 -1.3125 8.5 1.859375 
L 8.5 11.625 
Q 16.15625 6.640625 24.125 6.640625 
Q 32.03125 6.640625 36.890625 11 
Q 41.75 15.375 41.75 22.609375 
Q 41.75 29.828125 36.6875 33.859375 
Q 31.640625 37.890625 22.40625 37.890625 
Q 15.28125 37.890625 9.578125 37.25 
L 12.359375 75.640625 
L 47.703125 75.640625 
L 47.703125 67.234375 
L 20.40625 67.234375 
L 18.84375 45.796875 
L 25.734375 46.09375 
Q 37.75 46.09375 44.609375 40.109375 
Q 51.46875 34.125 51.46875 23.34375 
z
" id="MicrosoftYaHei-53"/>
      <path d="M 1.21875 -17.1875 
Q 17.671875 2.546875 17.671875 28.953125 
Q 17.671875 55.421875 1.125 75.640625 
L 9.625 75.640625 
Q 26.125 56.296875 26.125 28.859375 
Q 26.125 1.421875 9.625 -17.1875 
z
" id="MicrosoftYaHei-41"/>
     </defs>
     <g transform="translate(278.163125 475.248125)scale(0.12 -0.12)">
      <use xlink:href="#MicrosoftYaHei-76"/>
      <use x="51.318359" xlink:href="#MicrosoftYaHei-97"/>
      <use x="106.591797" xlink:href="#MicrosoftYaHei-109"/>
      <use x="200.292969" xlink:href="#MicrosoftYaHei-98"/>
      <use x="264.160156" xlink:href="#MicrosoftYaHei-100"/>
      <use x="328.125" xlink:href="#MicrosoftYaHei-97"/>
      <use x="383.398438" xlink:href="#MicrosoftYaHei-40"/>
      <use x="416.796875" xlink:href="#MicrosoftYaHei-955"/>
      <use x="471.240234" xlink:href="#MicrosoftYaHei-61"/>
      <use x="545.410156" xlink:href="#MicrosoftYaHei-48"/>
      <use x="604.052734" xlink:href="#MicrosoftYaHei-46"/>
      <use x="628.125" xlink:href="#MicrosoftYaHei-48"/>
      <use x="686.767578" xlink:href="#MicrosoftYaHei-50"/>
      <use x="745.410156" xlink:href="#MicrosoftYaHei-57"/>
      <use x="804.052734" xlink:href="#MicrosoftYaHei-53"/>
      <use x="862.695312" xlink:href="#MicrosoftYaHei-41"/>
     </g>
    </g>
   </g>
   <g id="matplotlib.axis_2">
    <g id="ytick_1">
     <g id="line2d_31">
      <defs>
       <path d="M 0 0 
L -3.5 0 
" id="m3683b5a52e" style="stroke:#000000;stroke-width:0.8;"/>
      </defs>
      <g>
       <use style="stroke:#000000;stroke-width:0.8;" x="52.930625" xlink:href="#m3683b5a52e" y="389.598656"/>
      </g>
     </g>
     <g id="text_6">
      <!-- -0.2 -->
      <defs>
       <path d="M 36.375 26.265625 
L 7.625 26.265625 
L 7.625 33.640625 
L 36.375 33.640625 
z
" id="MicrosoftYaHei-45"/>
      </defs>
      <g transform="translate(23.775625 394.394906)scale(0.12 -0.12)">
       <use xlink:href="#MicrosoftYaHei-45"/>
       <use x="43.261719" xlink:href="#MicrosoftYaHei-48"/>
       <use x="101.904297" xlink:href="#MicrosoftYaHei-46"/>
       <use x="125.976562" xlink:href="#MicrosoftYaHei-50"/>
      </g>
     </g>
    </g>
    <g id="ytick_2">
     <g id="line2d_32">
      <g>
       <use style="stroke:#000000;stroke-width:0.8;" x="52.930625" xlink:href="#m3683b5a52e" y="322.681174"/>
      </g>
     </g>
     <g id="text_7">
      <!-- -0.1 -->
      <g transform="translate(23.775625 327.477424)scale(0.12 -0.12)">
       <use xlink:href="#MicrosoftYaHei-45"/>
       <use x="43.261719" xlink:href="#MicrosoftYaHei-48"/>
       <use x="101.904297" xlink:href="#MicrosoftYaHei-46"/>
       <use x="125.976562" xlink:href="#MicrosoftYaHei-49"/>
      </g>
     </g>
    </g>
    <g id="ytick_3">
     <g id="line2d_33">
      <g>
       <use style="stroke:#000000;stroke-width:0.8;" x="52.930625" xlink:href="#m3683b5a52e" y="255.763693"/>
      </g>
     </g>
     <g id="text_8">
      <!-- 0.0 -->
      <g transform="translate(28.9675 260.559943)scale(0.12 -0.12)">
       <use xlink:href="#MicrosoftYaHei-48"/>
       <use x="58.642578" xlink:href="#MicrosoftYaHei-46"/>
       <use x="82.714844" xlink:href="#MicrosoftYaHei-48"/>
      </g>
     </g>
    </g>
    <g id="ytick_4">
     <g id="line2d_34">
      <g>
       <use style="stroke:#000000;stroke-width:0.8;" x="52.930625" xlink:href="#m3683b5a52e" y="188.846211"/>
      </g>
     </g>
     <g id="text_9">
      <!-- 0.1 -->
      <g transform="translate(28.9675 193.642461)scale(0.12 -0.12)">
       <use xlink:href="#MicrosoftYaHei-48"/>
       <use x="58.642578" xlink:href="#MicrosoftYaHei-46"/>
       <use x="82.714844" xlink:href="#MicrosoftYaHei-49"/>
      </g>
     </g>
    </g>
    <g id="ytick_5">
     <g id="line2d_35">
      <g>
       <use style="stroke:#000000;stroke-width:0.8;" x="52.930625" xlink:href="#m3683b5a52e" y="121.928729"/>
      </g>
     </g>
     <g id="text_10">
      <!-- 0.2 -->
      <g transform="translate(28.9675 126.724979)scale(0.12 -0.12)">
       <use xlink:href="#MicrosoftYaHei-48"/>
       <use x="58.642578" xlink:href="#MicrosoftYaHei-46"/>
       <use x="82.714844" xlink:href="#MicrosoftYaHei-50"/>
      </g>
     </g>
    </g>
    <g id="ytick_6">
     <g id="line2d_36">
      <g>
       <use style="stroke:#000000;stroke-width:0.8;" x="52.930625" xlink:href="#m3683b5a52e" y="55.011248"/>
      </g>
     </g>
     <g id="text_11">
      <!-- 0.3 -->
      <g transform="translate(28.9675 59.807498)scale(0.12 -0.12)">
       <use xlink:href="#MicrosoftYaHei-48"/>
       <use x="58.642578" xlink:href="#MicrosoftYaHei-46"/>
       <use x="82.714844" xlink:href="#MicrosoftYaHei-51"/>
      </g>
     </g>
    </g>
    <g id="text_12">
     <!-- Coefficients -->
     <defs>
      <path d="M 61.53125 3.125 
Q 53.171875 -1.265625 40.578125 -1.265625 
Q 24.3125 -1.265625 14.59375 9.0625 
Q 4.890625 19.390625 4.890625 36.375 
Q 4.890625 54.640625 15.828125 65.765625 
Q 26.765625 76.90625 43.609375 76.90625 
Q 54.4375 76.90625 61.53125 73.828125 
L 61.53125 63.625 
Q 53.421875 68.109375 43.703125 68.109375 
Q 31.0625 68.109375 23.09375 59.6875 
Q 15.140625 51.265625 15.140625 36.96875 
Q 15.140625 23.390625 22.5625 15.40625 
Q 29.984375 7.421875 42 7.421875 
Q 53.21875 7.421875 61.53125 12.5 
z
" id="MicrosoftYaHei-67"/>
      <path d="M 4.9375 26.421875 
Q 4.9375 39.796875 12.40625 47.53125 
Q 19.875 55.28125 32.671875 55.28125 
Q 44.828125 55.28125 51.734375 47.828125 
Q 58.640625 40.375 58.640625 27.25 
Q 58.640625 14.453125 51.265625 6.59375 
Q 43.890625 -1.265625 31.5 -1.265625 
Q 19.390625 -1.265625 12.15625 6.34375 
Q 4.9375 13.96875 4.9375 26.421875 
z
M 14.703125 26.703125 
Q 14.703125 17.390625 19.40625 12.015625 
Q 24.125 6.640625 32.078125 6.640625 
Q 40.28125 6.640625 44.578125 11.890625 
Q 48.875 17.140625 48.875 26.953125 
Q 48.875 36.8125 44.578125 42.078125 
Q 40.28125 47.359375 32.078125 47.359375 
Q 24.03125 47.359375 19.359375 41.84375 
Q 14.703125 36.328125 14.703125 26.703125 
z
" id="MicrosoftYaHei-111"/>
      <path d="M 52.546875 24.5625 
L 14.75 24.5625 
Q 14.984375 15.921875 19.46875 11.203125 
Q 23.96875 6.5 32.03125 6.5 
Q 41.109375 6.5 48.6875 12.3125 
L 48.6875 3.765625 
Q 41.546875 -1.265625 29.78125 -1.265625 
Q 18.0625 -1.265625 11.5 6.15625 
Q 4.9375 13.578125 4.9375 26.765625 
Q 4.9375 39.15625 12.140625 47.21875 
Q 19.34375 55.28125 30.03125 55.28125 
Q 40.625 55.28125 46.578125 48.46875 
Q 52.546875 41.65625 52.546875 29.390625 
z
M 42.96875 32.234375 
Q 42.921875 39.546875 39.5 43.546875 
Q 36.078125 47.5625 29.890625 47.5625 
Q 24.171875 47.5625 20 43.3125 
Q 15.828125 39.0625 14.75 32.234375 
z
" id="MicrosoftYaHei-101"/>
      <path d="M 36.234375 71.78125 
Q 33.546875 73.1875 30.421875 73.1875 
Q 21.4375 73.1875 21.4375 62.0625 
L 21.4375 54 
L 34.078125 54 
L 34.078125 46.09375 
L 21.4375 46.09375 
L 21.4375 0 
L 11.96875 0 
L 11.96875 46.09375 
L 2.734375 46.09375 
L 2.734375 54 
L 11.96875 54 
L 11.96875 62.5 
Q 11.96875 71.1875 16.96875 76.140625 
Q 21.96875 81.109375 29.6875 81.109375 
Q 33.796875 81.109375 36.234375 80.171875 
z
" id="MicrosoftYaHei-102"/>
      <path d="M 7.375 73.046875 
Q 7.375 75.59375 9.109375 77.3125 
Q 10.84375 79.046875 13.375 79.046875 
Q 15.96875 79.046875 17.75 77.34375 
Q 19.53125 75.640625 19.53125 73.046875 
Q 19.53125 70.515625 17.75 68.828125 
Q 15.96875 67.140625 13.375 67.140625 
Q 10.796875 67.140625 9.078125 68.828125 
Q 7.375 70.515625 7.375 73.046875 
z
M 8.5 0 
L 8.5 54 
L 18.0625 54 
L 18.0625 0 
z
" id="MicrosoftYaHei-105"/>
      <path d="M 45.84375 2.4375 
Q 39.65625 -1.265625 30.90625 -1.265625 
Q 19.1875 -1.265625 12.0625 6.25 
Q 4.9375 13.765625 4.9375 25.734375 
Q 4.9375 39.015625 12.625 47.140625 
Q 20.3125 55.28125 33.203125 55.28125 
Q 40.625 55.28125 45.90625 52.640625 
L 45.90625 43.171875 
Q 40.1875 47.359375 33.203125 47.359375 
Q 25 47.359375 19.84375 41.671875 
Q 14.703125 35.984375 14.703125 26.515625 
Q 14.703125 17.1875 19.5625 11.90625 
Q 24.421875 6.640625 32.671875 6.640625 
Q 39.65625 6.640625 45.84375 11.234375 
z
" id="MicrosoftYaHei-99"/>
      <path d="M 54.203125 0 
L 44.671875 0 
L 44.671875 30.71875 
Q 44.671875 47.359375 32.515625 47.359375 
Q 26.21875 47.359375 22.15625 42.671875 
Q 18.109375 37.984375 18.109375 30.8125 
L 18.109375 0 
L 8.546875 0 
L 8.546875 54 
L 18.109375 54 
L 18.109375 45.0625 
L 18.3125 45.0625 
Q 24.421875 55.28125 36.03125 55.28125 
Q 44.921875 55.28125 49.5625 49.578125 
Q 54.203125 43.890625 54.203125 33.015625 
z
" id="MicrosoftYaHei-110"/>
      <path d="M 34.46875 0.53125 
Q 31.34375 -1.171875 26.03125 -1.171875 
Q 11.53125 -1.171875 11.53125 14.890625 
L 11.53125 46.09375 
L 2.25 46.09375 
L 2.25 54 
L 11.53125 54 
L 11.53125 67 
L 21.046875 70.015625 
L 21.046875 54 
L 34.46875 54 
L 34.46875 46.09375 
L 21.046875 46.09375 
L 21.046875 16.609375 
Q 21.046875 11.28125 22.84375 8.984375 
Q 24.65625 6.6875 28.859375 6.6875 
Q 32.078125 6.6875 34.46875 8.5 
z
" id="MicrosoftYaHei-116"/>
      <path d="M 5.515625 11.671875 
Q 12.75 6.453125 21.09375 6.453125 
Q 32.28125 6.453125 32.28125 13.765625 
Q 32.28125 16.890625 29.828125 18.921875 
Q 27.390625 20.953125 19.921875 23.734375 
Q 10.9375 27.34375 8.25 30.875 
Q 5.5625 34.421875 5.5625 39.453125 
Q 5.5625 46.625 11.640625 50.953125 
Q 17.71875 55.28125 26.609375 55.28125 
Q 33.5 55.28125 39.40625 52.875 
L 39.40625 43.65625 
Q 33.34375 47.5625 25.6875 47.5625 
Q 21.09375 47.5625 18.203125 45.5625 
Q 15.328125 43.5625 15.328125 40.28125 
Q 15.328125 37.0625 17.40625 35.25 
Q 19.484375 33.453125 26.609375 30.609375 
Q 35.640625 27.25 38.8125 23.625 
Q 42 20.015625 42 14.703125 
Q 42 7.28125 35.90625 3 
Q 29.828125 -1.265625 20.171875 -1.265625 
Q 11.765625 -1.265625 5.515625 1.90625 
z
" id="MicrosoftYaHei-115"/>
     </defs>
     <g transform="translate(16.7925 258.34875)rotate(-90)scale(0.12 -0.12)">
      <use xlink:href="#MicrosoftYaHei-67"/>
      <use x="66.894531" xlink:href="#MicrosoftYaHei-111"/>
      <use x="130.46875" xlink:href="#MicrosoftYaHei-101"/>
      <use x="187.207031" xlink:href="#MicrosoftYaHei-102"/>
      <use x="221.875" xlink:href="#MicrosoftYaHei-102"/>
      <use x="256.542969" xlink:href="#MicrosoftYaHei-105"/>
      <use x="283.154297" xlink:href="#MicrosoftYaHei-99"/>
      <use x="333.300781" xlink:href="#MicrosoftYaHei-105"/>
      <use x="359.912109" xlink:href="#MicrosoftYaHei-101"/>
      <use x="416.650391" xlink:href="#MicrosoftYaHei-110"/>
      <use x="478.271484" xlink:href="#MicrosoftYaHei-116"/>
      <use x="515.527344" xlink:href="#MicrosoftYaHei-115"/>
     </g>
    </g>
   </g>
   <g id="line2d_37">
    <path clip-path="url(#p13ace323f9)" d="M 585.566989 255.763693 
L 575.214484 255.763693 
L 564.861979 255.763693 
L 554.509475 255.763693 
L 544.15697 255.763693 
L 533.804465 255.763693 
L 523.451961 255.763693 
L 513.099456 255.763693 
L 502.746952 255.763693 
L 492.394447 255.763693 
L 482.041942 255.763693 
L 471.689438 255.763693 
L 461.336933 255.763693 
L 450.984428 255.763693 
L 440.631924 255.763693 
L 430.279419 255.763693 
L 419.926914 255.763693 
L 409.57441 255.763693 
L 399.221905 255.763693 
L 388.869401 255.763693 
L 378.516896 255.763693 
L 368.164391 255.763693 
L 357.811887 254.458268 
L 347.459382 249.824466 
L 337.106877 245.693664 
L 326.754373 242.065186 
L 316.401868 239.023541 
L 306.049363 238.984921 
L 295.696859 238.965632 
L 285.344354 238.948381 
L 274.991849 238.933885 
L 264.639345 238.762409 
L 254.28684 237.924014 
L 243.934336 237.205057 
L 233.581831 235.106359 
L 223.229326 234.613504 
L 212.876822 233.149686 
L 202.524317 231.225593 
L 192.171812 229.516765 
L 181.819308 228.110452 
L 171.466803 223.457273 
L 161.114298 217.671996 
L 150.761794 212.677239 
L 140.409289 208.346227 
L 130.056785 204.128495 
L 119.70428 200.155175 
L 109.351775 196.611171 
L 98.999271 193.535415 
L 88.646766 190.863987 
L 78.294261 188.544042 
" style="fill:none;stroke:#1f77b4;stroke-linecap:square;stroke-width:1.5;"/>
   </g>
   <g id="line2d_38">
    <path clip-path="url(#p13ace323f9)" d="M 585.566989 255.763693 
L 575.214484 255.763693 
L 564.861979 255.763693 
L 554.509475 255.763693 
L 544.15697 255.763693 
L 533.804465 255.763693 
L 523.451961 255.763693 
L 513.099456 255.763693 
L 502.746952 255.763693 
L 492.394447 255.763693 
L 482.041942 255.763693 
L 471.689438 255.763693 
L 461.336933 255.763693 
L 450.984428 255.763693 
L 440.631924 255.763693 
L 430.279419 247.367228 
L 419.926914 238.152397 
L 409.57441 230.020353 
L 399.221905 222.867562 
L 388.869401 216.562666 
L 378.516896 211.439558 
L 368.164391 206.990739 
L 357.811887 203.382325 
L 347.459382 200.32908 
L 337.106877 197.244915 
L 326.754373 194.386045 
L 316.401868 191.897134 
L 306.049363 189.638463 
L 295.696859 187.665003 
L 285.344354 185.95134 
L 274.991849 184.462407 
L 264.639345 183.196393 
L 254.28684 181.628223 
L 243.934336 180.263953 
L 233.581831 180.025444 
L 223.229326 180.206635 
L 212.876822 180.383204 
L 202.524317 180.462011 
L 192.171812 180.210373 
L 181.819308 178.951565 
L 171.466803 177.751703 
L 161.114298 177.525093 
L 150.761794 177.726003 
L 140.409289 177.892298 
L 130.056785 177.197552 
L 119.70428 175.579179 
L 109.351775 173.782177 
L 98.999271 172.221809 
L 88.646766 170.866903 
L 78.294261 169.689554 
" style="fill:none;stroke:#ff7f0e;stroke-linecap:square;stroke-width:1.5;"/>
   </g>
   <g id="line2d_39">
    <path clip-path="url(#p13ace323f9)" d="M 585.566989 255.763693 
L 575.214484 255.763693 
L 564.861979 255.763693 
L 554.509475 255.763693 
L 544.15697 255.763693 
L 533.804465 255.763693 
L 523.451961 255.763693 
L 513.099456 255.763693 
L 502.746952 255.763693 
L 492.394447 255.763693 
L 482.041942 255.763693 
L 471.689438 255.763693 
L 461.336933 255.763693 
L 450.984428 255.763693 
L 440.631924 255.763693 
L 430.279419 255.763693 
L 419.926914 255.763693 
L 409.57441 255.763693 
L 399.221905 255.763693 
L 388.869401 255.763693 
L 378.516896 255.763693 
L 368.164391 255.763693 
L 357.811887 257.055616 
L 347.459382 259.434362 
L 337.106877 262.043528 
L 326.754373 264.530111 
L 316.401868 266.601255 
L 306.049363 267.187166 
L 295.696859 267.430358 
L 285.344354 267.64107 
L 274.991849 267.825349 
L 264.639345 267.823837 
L 254.28684 268.724423 
L 243.934336 269.513052 
L 233.581831 293.459362 
L 223.229326 298.819577 
L 212.876822 305.582982 
L 202.524317 311.816992 
L 192.171812 317.277328 
L 181.819308 323.582677 
L 171.466803 329.90563 
L 161.114298 335.658235 
L 150.761794 340.387848 
L 140.409289 344.502777 
L 130.056785 349.476986 
L 119.70428 360.338037 
L 109.351775 379.237866 
L 98.999271 395.660625 
L 88.646766 409.92002 
L 78.294261 422.312727 
" style="fill:none;stroke:#2ca02c;stroke-linecap:square;stroke-width:1.5;"/>
   </g>
   <g id="line2d_40">
    <path clip-path="url(#p13ace323f9)" d="M 585.566989 255.763693 
L 575.214484 255.763693 
L 564.861979 255.763693 
L 554.509475 255.763693 
L 544.15697 255.763693 
L 533.804465 255.763693 
L 523.451961 255.763693 
L 513.099456 255.763693 
L 502.746952 255.763693 
L 492.394447 255.763693 
L 482.041942 255.763693 
L 471.689438 255.763693 
L 461.336933 255.763693 
L 450.984428 255.763693 
L 440.631924 255.763693 
L 430.279419 255.763693 
L 419.926914 255.763693 
L 409.57441 255.763693 
L 399.221905 255.763693 
L 388.869401 255.763693 
L 378.516896 255.763693 
L 368.164391 255.763693 
L 357.811887 255.763693 
L 347.459382 255.763693 
L 337.106877 255.763693 
L 326.754373 255.763693 
L 316.401868 255.763693 
L 306.049363 255.763693 
L 295.696859 255.763693 
L 285.344354 255.763693 
L 274.991849 255.763693 
L 264.639345 255.763693 
L 254.28684 255.763693 
L 243.934336 255.763693 
L 233.581831 224.234449 
L 223.229326 211.163325 
L 212.876822 198.123655 
L 202.524317 186.532291 
L 192.171812 176.030554 
L 181.819308 164.152288 
L 171.466803 153.538265 
L 161.114298 144.530641 
L 150.761794 137.042988 
L 140.409289 130.527457 
L 130.056785 123.038449 
L 119.70428 108.173077 
L 109.351775 83.40865 
L 98.999271 61.889746 
L 88.646766 43.20529 
L 78.294261 26.967273 
" style="fill:none;stroke:#d62728;stroke-linecap:square;stroke-width:1.5;"/>
   </g>
   <g id="line2d_41">
    <path clip-path="url(#p13ace323f9)" d="M 585.566989 255.763693 
L 575.214484 255.763693 
L 564.861979 255.763693 
L 554.509475 255.763693 
L 544.15697 255.763693 
L 533.804465 255.763693 
L 523.451961 255.763693 
L 513.099456 255.763693 
L 502.746952 255.763693 
L 492.394447 255.763693 
L 482.041942 255.763693 
L 471.689438 255.763693 
L 461.336933 255.763693 
L 450.984428 255.763693 
L 440.631924 255.763693 
L 430.279419 255.763693 
L 419.926914 255.763693 
L 409.57441 255.763693 
L 399.221905 255.763693 
L 388.869401 255.763693 
L 378.516896 255.763693 
L 368.164391 255.763693 
L 357.811887 255.763693 
L 347.459382 255.763693 
L 337.106877 255.763693 
L 326.754373 255.763693 
L 316.401868 255.763693 
L 306.049363 255.763693 
L 295.696859 255.763693 
L 285.344354 255.763693 
L 274.991849 255.763693 
L 264.639345 255.763693 
L 254.28684 255.763693 
L 243.934336 255.763693 
L 233.581831 255.763693 
L 223.229326 255.763693 
L 212.876822 255.763693 
L 202.524317 255.763693 
L 192.171812 255.255352 
L 181.819308 251.58526 
L 171.466803 248.430673 
L 161.114298 245.546833 
L 150.761794 242.996795 
L 140.409289 240.78231 
L 130.056785 238.954875 
L 119.70428 237.704645 
L 109.351775 237.257894 
L 98.999271 236.869659 
L 88.646766 236.532277 
L 78.294261 236.239649 
" style="fill:none;stroke:#9467bd;stroke-linecap:square;stroke-width:1.5;"/>
   </g>
   <g id="line2d_42">
    <path clip-path="url(#p13ace323f9)" d="M 585.566989 255.763693 
L 575.214484 255.763693 
L 564.861979 255.763693 
L 554.509475 255.763693 
L 544.15697 255.763693 
L 533.804465 255.763693 
L 523.451961 255.763693 
L 513.099456 255.763693 
L 502.746952 255.763693 
L 492.394447 255.763693 
L 482.041942 255.763693 
L 471.689438 255.763693 
L 461.336933 255.763693 
L 450.984428 255.763693 
L 440.631924 255.763693 
L 430.279419 255.763693 
L 419.926914 253.325564 
L 409.57441 250.98924 
L 399.221905 250.732102 
L 388.869401 255.763693 
L 378.516896 255.763693 
L 368.164391 255.763693 
L 357.811887 255.763693 
L 347.459382 255.763693 
L 337.106877 255.763693 
L 326.754373 255.763693 
L 316.401868 255.763693 
L 306.049363 255.763693 
L 295.696859 255.763693 
L 285.344354 255.763693 
L 274.991849 255.763693 
L 264.639345 255.763693 
L 254.28684 255.763693 
L 243.934336 255.763693 
L 233.581831 255.763693 
L 223.229326 255.763693 
L 212.876822 255.763693 
L 202.524317 255.763693 
L 192.171812 255.763693 
L 181.819308 255.763693 
L 171.466803 255.763693 
L 161.114298 255.763693 
L 150.761794 255.763693 
L 140.409289 255.763693 
L 130.056785 245.155208 
L 119.70428 224.415329 
L 109.351775 204.056544 
L 98.999271 186.371528 
L 88.646766 171.013453 
L 78.294261 157.671392 
" style="fill:none;stroke:#8c564b;stroke-linecap:square;stroke-width:1.5;"/>
   </g>
   <g id="line2d_43">
    <path clip-path="url(#p13ace323f9)" d="M 585.566989 255.763693 
L 575.214484 255.763693 
L 564.861979 255.763693 
L 554.509475 255.763693 
L 544.15697 255.763693 
L 533.804465 255.763693 
L 523.451961 255.763693 
L 513.099456 255.763693 
L 502.746952 255.763693 
L 492.394447 255.763693 
L 482.041942 255.763693 
L 471.689438 255.763693 
L 461.336933 255.763693 
L 450.984428 255.763693 
L 440.631924 255.763693 
L 430.279419 255.763693 
L 419.926914 255.763693 
L 409.57441 255.763693 
L 399.221905 255.763693 
L 388.869401 255.763693 
L 378.516896 255.763693 
L 368.164391 255.763693 
L 357.811887 255.763693 
L 347.459382 255.763693 
L 337.106877 255.763693 
L 326.754373 255.763693 
L 316.401868 255.763693 
L 306.049363 255.763693 
L 295.696859 255.763693 
L 285.344354 255.763693 
L 274.991849 255.763693 
L 264.639345 255.763693 
L 254.28684 255.763693 
L 243.934336 255.763693 
L 233.581831 255.763693 
L 223.229326 255.763693 
L 212.876822 255.763693 
L 202.524317 255.763693 
L 192.171812 257.371541 
L 181.819308 265.082278 
L 171.466803 271.513828 
L 161.114298 274.029625 
L 150.761794 275.120584 
L 140.409289 276.094277 
L 130.056785 280.514009 
L 119.70428 289.021756 
L 109.351775 298.617523 
L 98.999271 306.952431 
L 88.646766 314.190037 
L 78.294261 320.478809 
" style="fill:none;stroke:#e377c2;stroke-linecap:square;stroke-width:1.5;"/>
   </g>
   <g id="line2d_44">
    <path clip-path="url(#p13ace323f9)" d="M 585.566989 255.763693 
L 575.214484 255.763693 
L 564.861979 255.763693 
L 554.509475 255.763693 
L 544.15697 255.763693 
L 533.804465 255.763693 
L 523.451961 255.763693 
L 513.099456 255.763693 
L 502.746952 255.763693 
L 492.394447 255.763693 
L 482.041942 255.763693 
L 471.689438 255.763693 
L 461.336933 255.763693 
L 450.984428 255.763693 
L 440.631924 255.763693 
L 430.279419 255.763693 
L 419.926914 255.763693 
L 409.57441 255.763693 
L 399.221905 255.763693 
L 388.869401 255.763693 
L 378.516896 255.763693 
L 368.164391 255.763693 
L 357.811887 255.763693 
L 347.459382 255.763693 
L 337.106877 255.763693 
L 326.754373 255.763693 
L 316.401868 255.763693 
L 306.049363 255.763693 
L 295.696859 255.763693 
L 285.344354 255.763693 
L 274.991849 255.763693 
L 264.639345 255.786812 
L 254.28684 261.57996 
L 243.934336 266.606845 
L 233.581831 269.343584 
L 223.229326 273.703306 
L 212.876822 277.596399 
L 202.524317 282.040384 
L 192.171812 285.513124 
L 181.819308 284.434837 
L 171.466803 283.822087 
L 161.114298 284.878952 
L 150.761794 286.489472 
L 140.409289 287.877786 
L 130.056785 291.84825 
L 119.70428 297.727991 
L 109.351775 302.485301 
L 98.999271 306.616814 
L 88.646766 310.205254 
L 78.294261 313.321532 
" style="fill:none;stroke:#7f7f7f;stroke-linecap:square;stroke-width:1.5;"/>
   </g>
   <g id="line2d_45">
    <path clip-path="url(#p13ace323f9)" d="M 585.566989 255.763693 
L 575.214484 255.763693 
L 564.861979 255.763693 
L 554.509475 255.763693 
L 544.15697 255.763693 
L 533.804465 255.763693 
L 523.451961 255.763693 
L 513.099456 255.763693 
L 502.746952 255.763693 
L 492.394447 255.763693 
L 482.041942 255.763693 
L 471.689438 255.763693 
L 461.336933 255.763693 
L 450.984428 255.763693 
L 440.631924 255.763693 
L 430.279419 255.763693 
L 419.926914 255.763693 
L 409.57441 255.763693 
L 399.221905 255.763693 
L 388.869401 255.763693 
L 378.516896 255.763693 
L 368.164391 255.763693 
L 357.811887 255.763693 
L 347.459382 255.763693 
L 337.106877 255.763693 
L 326.754373 255.763693 
L 316.401868 255.763693 
L 306.049363 255.763693 
L 295.696859 255.763693 
L 285.344354 255.763693 
L 274.991849 255.763693 
L 264.639345 255.763693 
L 254.28684 255.763693 
L 243.934336 255.763693 
L 233.581831 255.763693 
L 223.229326 255.763693 
L 212.876822 255.763693 
L 202.524317 255.763693 
L 192.171812 255.763693 
L 181.819308 255.763693 
L 171.466803 256.390561 
L 161.114298 256.653667 
L 150.761794 256.971713 
L 140.409289 257.250514 
L 130.056785 257.598111 
L 119.70428 257.865508 
L 109.351775 257.753876 
L 98.999271 257.657383 
L 88.646766 257.573668 
L 78.294261 257.500782 
" style="fill:none;stroke:#bcbd22;stroke-linecap:square;stroke-width:1.5;"/>
   </g>
   <g id="line2d_46">
    <path clip-path="url(#p13ace323f9)" d="M 585.566989 255.763693 
L 575.214484 255.763693 
L 564.861979 255.763693 
L 554.509475 255.763693 
L 544.15697 255.763693 
L 533.804465 255.763693 
L 523.451961 255.763693 
L 513.099456 255.763693 
L 502.746952 255.763693 
L 492.394447 255.763693 
L 482.041942 255.763693 
L 471.689438 255.763693 
L 461.336933 255.763693 
L 450.984428 255.763693 
L 440.631924 255.763693 
L 430.279419 255.763693 
L 419.926914 255.763693 
L 409.57441 255.763693 
L 399.221905 255.763693 
L 388.869401 255.763693 
L 378.516896 255.763693 
L 368.164391 255.763693 
L 357.811887 255.763693 
L 347.459382 255.763693 
L 337.106877 255.763693 
L 326.754373 255.763693 
L 316.401868 255.763693 
L 306.049363 255.763693 
L 295.696859 255.763693 
L 285.344354 255.763693 
L 274.991849 255.763693 
L 264.639345 255.763693 
L 254.28684 255.763693 
L 243.934336 255.763693 
L 233.581831 255.763693 
L 223.229326 255.763693 
L 212.876822 255.763693 
L 202.524317 255.763693 
L 192.171812 255.763693 
L 181.819308 255.763693 
L 171.466803 257.38426 
L 161.114298 262.836552 
L 150.761794 267.33483 
L 140.409289 271.231118 
L 130.056785 276.301426 
L 119.70428 282.442183 
L 109.351775 287.747639 
L 98.999271 292.357081 
L 88.646766 296.360412 
L 78.294261 299.837452 
" style="fill:none;stroke:#17becf;stroke-linecap:square;stroke-width:1.5;"/>
   </g>
   <g id="line2d_47">
    <path clip-path="url(#p13ace323f9)" d="M 585.566989 255.763693 
L 575.214484 255.763693 
L 564.861979 255.763693 
L 554.509475 255.763693 
L 544.15697 255.763693 
L 533.804465 255.763693 
L 523.451961 255.763693 
L 513.099456 255.763693 
L 502.746952 255.763693 
L 492.394447 255.763693 
L 482.041942 255.763693 
L 471.689438 255.763693 
L 461.336933 255.763693 
L 450.984428 255.763693 
L 440.631924 255.763693 
L 430.279419 255.763693 
L 419.926914 255.763693 
L 409.57441 255.763693 
L 399.221905 255.763693 
L 388.869401 255.763693 
L 378.516896 255.763693 
L 368.164391 255.763693 
L 357.811887 255.763693 
L 347.459382 255.763693 
L 337.106877 255.763693 
L 326.754373 255.763693 
L 316.401868 255.763693 
L 306.049363 255.763693 
L 295.696859 255.763693 
L 285.344354 255.763693 
L 274.991849 255.763693 
L 264.639345 258.630164 
L 254.28684 263.591373 
L 243.934336 267.840297 
L 233.581831 273.566008 
L 223.229326 274.638691 
L 212.876822 274.237923 
L 202.524317 274.535582 
L 192.171812 275.415249 
L 181.819308 276.840874 
L 171.466803 280.515277 
L 161.114298 286.490071 
L 150.761794 291.33741 
L 140.409289 295.551062 
L 130.056785 300.027164 
L 119.70428 304.45456 
L 109.351775 307.606285 
L 98.999271 310.342725 
L 88.646766 312.719564 
L 78.294261 314.783452 
" style="fill:none;stroke:#1f77b4;stroke-linecap:square;stroke-width:1.5;"/>
   </g>
   <g id="line2d_48">
    <path clip-path="url(#p13ace323f9)" d="M 585.566989 255.763693 
L 575.214484 255.763693 
L 564.861979 255.763693 
L 554.509475 255.763693 
L 544.15697 255.763693 
L 533.804465 255.763693 
L 523.451961 255.763693 
L 513.099456 255.763693 
L 502.746952 255.763693 
L 492.394447 255.763693 
L 482.041942 255.763693 
L 471.689438 255.763693 
L 461.336933 255.763693 
L 450.984428 244.410687 
L 440.631924 230.258432 
L 430.279419 219.465847 
L 419.926914 215.216558 
L 409.57441 213.082873 
L 399.221905 210.848351 
L 388.869401 207.162271 
L 378.516896 204.463606 
L 368.164391 202.116667 
L 357.811887 200.688569 
L 347.459382 200.72758 
L 337.106877 196.883568 
L 326.754373 191.964773 
L 316.401868 188.945732 
L 306.049363 190.951169 
L 295.696859 194.214003 
L 285.344354 197.045163 
L 274.991849 199.508375 
L 264.639345 201.553419 
L 254.28684 201.829756 
L 243.934336 202.094656 
L 233.581831 196.557821 
L 223.229326 189.353781 
L 212.876822 178.34817 
L 202.524317 168.574806 
L 192.171812 160.305181 
L 181.819308 151.603283 
L 171.466803 142.950439 
L 161.114298 131.143538 
L 150.761794 117.957753 
L 140.409289 106.555734 
L 130.056785 97.663387 
L 119.70428 90.357927 
L 109.351775 82.503909 
L 98.999271 75.677112 
L 88.646766 69.74837 
L 78.294261 64.598237 
" style="fill:none;stroke:#ff7f0e;stroke-linecap:square;stroke-width:1.5;"/>
   </g>
   <g id="line2d_49">
    <path clip-path="url(#p13ace323f9)" d="M 585.566989 255.763693 
L 575.214484 255.763693 
L 564.861979 255.763693 
L 554.509475 255.763693 
L 544.15697 255.763693 
L 533.804465 255.763693 
L 523.451961 255.763693 
L 513.099456 255.763693 
L 502.746952 255.763693 
L 492.394447 255.763693 
L 482.041942 255.763693 
L 471.689438 255.763693 
L 461.336933 255.763693 
L 450.984428 255.763693 
L 440.631924 255.763693 
L 430.279419 255.763693 
L 419.926914 255.763693 
L 409.57441 255.763693 
L 399.221905 255.763693 
L 388.869401 255.763693 
L 378.516896 255.763693 
L 368.164391 255.763693 
L 357.811887 255.763693 
L 347.459382 254.166746 
L 337.106877 254.657733 
L 326.754373 255.763693 
L 316.401868 255.763693 
L 306.049363 255.763693 
L 295.696859 255.763693 
L 285.344354 255.763693 
L 274.991849 255.763693 
L 264.639345 255.763693 
L 254.28684 255.763693 
L 243.934336 255.763693 
L 233.581831 255.763693 
L 223.229326 255.763693 
L 212.876822 255.763693 
L 202.524317 255.763693 
L 192.171812 255.763693 
L 181.819308 255.763693 
L 171.466803 255.763693 
L 161.114298 259.084138 
L 150.761794 265.312779 
L 140.409289 270.698229 
L 130.056785 275.454545 
L 119.70428 279.84333 
L 109.351775 284.113128 
L 98.999271 287.825631 
L 88.646766 291.049831 
L 78.294261 293.850471 
" style="fill:none;stroke:#2ca02c;stroke-linecap:square;stroke-width:1.5;"/>
   </g>
   <g id="line2d_50">
    <path clip-path="url(#p13ace323f9)" d="M 585.566989 255.763693 
L 575.214484 255.763693 
L 564.861979 255.763693 
L 554.509475 255.763693 
L 544.15697 255.763693 
L 533.804465 255.763693 
L 523.451961 255.763693 
L 513.099456 255.763693 
L 502.746952 255.763693 
L 492.394447 255.763693 
L 482.041942 255.763693 
L 471.689438 255.763693 
L 461.336933 255.763693 
L 450.984428 255.763693 
L 440.631924 255.763693 
L 430.279419 255.763693 
L 419.926914 255.763693 
L 409.57441 255.763693 
L 399.221905 254.205444 
L 388.869401 246.710298 
L 378.516896 242.812293 
L 368.164391 239.425361 
L 357.811887 235.897604 
L 347.459382 232.271225 
L 337.106877 230.365194 
L 326.754373 229.242377 
L 316.401868 228.377757 
L 306.049363 225.946984 
L 295.696859 224.028806 
L 285.344354 222.363712 
L 274.991849 220.916526 
L 264.639345 222.049913 
L 254.28684 220.926329 
L 243.934336 219.894979 
L 233.581831 213.724975 
L 223.229326 204.358654 
L 212.876822 197.607265 
L 202.524317 193.283641 
L 192.171812 190.661768 
L 181.819308 191.544281 
L 171.466803 192.990032 
L 161.114298 191.008371 
L 150.761794 188.334493 
L 140.409289 186.026695 
L 130.056785 186.932672 
L 119.70428 190.453303 
L 109.351775 193.762993 
L 98.999271 196.634345 
L 88.646766 199.127692 
L 78.294261 201.294118 
" style="fill:none;stroke:#d62728;stroke-linecap:square;stroke-width:1.5;"/>
   </g>
   <g id="line2d_51">
    <path clip-path="url(#p13ace323f9)" d="M 585.566989 255.763693 
L 575.214484 255.763693 
L 564.861979 255.763693 
L 554.509475 255.763693 
L 544.15697 255.763693 
L 533.804465 255.763693 
L 523.451961 255.763693 
L 513.099456 255.763693 
L 502.746952 255.763693 
L 492.394447 255.763693 
L 482.041942 255.763693 
L 471.689438 255.763693 
L 461.336933 255.763693 
L 450.984428 255.763693 
L 440.631924 255.763693 
L 430.279419 255.763693 
L 419.926914 255.763693 
L 409.57441 255.763693 
L 399.221905 255.763693 
L 388.869401 255.763693 
L 378.516896 255.763693 
L 368.164391 255.763693 
L 357.811887 255.763693 
L 347.459382 255.763693 
L 337.106877 255.763693 
L 326.754373 255.763693 
L 316.401868 255.763693 
L 306.049363 255.763693 
L 295.696859 255.763693 
L 285.344354 255.763693 
L 274.991849 255.763693 
L 264.639345 255.763693 
L 254.28684 255.763693 
L 243.934336 255.763693 
L 233.581831 256.616079 
L 223.229326 265.695802 
L 212.876822 275.096117 
L 202.524317 283.889641 
L 192.171812 291.648033 
L 181.819308 299.663778 
L 171.466803 306.455202 
L 161.114298 312.000729 
L 150.761794 316.849623 
L 140.409289 321.059489 
L 130.056785 324.675895 
L 119.70428 327.560591 
L 109.351775 329.523093 
L 98.999271 331.227851 
L 88.646766 332.708586 
L 78.294261 333.994359 
" style="fill:none;stroke:#9467bd;stroke-linecap:square;stroke-width:1.5;"/>
   </g>
   <g id="line2d_52">
    <path clip-path="url(#p13ace323f9)" d="M 585.566989 255.763693 
L 575.214484 255.763693 
L 564.861979 255.763693 
L 554.509475 255.763693 
L 544.15697 255.763693 
L 533.804465 255.763693 
L 523.451961 255.763693 
L 513.099456 255.763693 
L 502.746952 255.763693 
L 492.394447 255.763693 
L 482.041942 255.763693 
L 471.689438 255.763693 
L 461.336933 255.763693 
L 450.984428 255.763693 
L 440.631924 255.763693 
L 430.279419 255.763693 
L 419.926914 255.763693 
L 409.57441 255.763693 
L 399.221905 255.763693 
L 388.869401 255.763693 
L 378.516896 255.763693 
L 368.164391 255.763693 
L 357.811887 255.763693 
L 347.459382 255.763693 
L 337.106877 255.763693 
L 326.754373 255.763693 
L 316.401868 255.763693 
L 306.049363 251.305206 
L 295.696859 247.596093 
L 285.344354 244.375529 
L 274.991849 241.577616 
L 264.639345 238.742828 
L 254.28684 237.203066 
L 243.934336 235.864792 
L 233.581831 255.763693 
L 223.229326 255.763693 
L 212.876822 255.763693 
L 202.524317 255.763693 
L 192.171812 255.763693 
L 181.819308 255.763693 
L 171.466803 255.763693 
L 161.114298 255.763693 
L 150.761794 255.763693 
L 140.409289 255.763693 
L 130.056785 255.763693 
L 119.70428 261.105807 
L 109.351775 275.483486 
L 98.999271 287.97826 
L 88.646766 298.826623 
L 78.294261 308.255825 
" style="fill:none;stroke:#8c564b;stroke-linecap:square;stroke-width:1.5;"/>
   </g>
   <g id="line2d_53">
    <path clip-path="url(#p13ace323f9)" d="M 585.566989 255.763693 
L 575.214484 255.763693 
L 564.861979 255.763693 
L 554.509475 255.763693 
L 544.15697 255.763693 
L 533.804465 255.763693 
L 523.451961 255.763693 
L 513.099456 255.763693 
L 502.746952 255.763693 
L 492.394447 255.763693 
L 482.041942 255.763693 
L 471.689438 255.763693 
L 461.336933 255.763693 
L 450.984428 255.763693 
L 440.631924 255.763693 
L 430.279419 255.763693 
L 419.926914 255.763693 
L 409.57441 255.763693 
L 399.221905 255.763693 
L 388.869401 255.763693 
L 378.516896 255.763693 
L 368.164391 255.763693 
L 357.811887 255.763693 
L 347.459382 255.763693 
L 337.106877 250.270062 
L 326.754373 243.301293 
L 316.401868 238.045401 
L 306.049363 233.305718 
L 295.696859 230.149505 
L 285.344354 227.407992 
L 274.991849 225.02746 
L 264.639345 222.468657 
L 254.28684 221.273889 
L 243.934336 220.25032 
L 233.581831 217.347583 
L 223.229326 211.179486 
L 212.876822 205.439727 
L 202.524317 202.002109 
L 192.171812 199.527788 
L 181.819308 196.208074 
L 171.466803 193.163844 
L 161.114298 186.3779 
L 150.761794 176.818681 
L 140.409289 168.548312 
L 130.056785 161.967886 
L 119.70428 156.819758 
L 109.351775 152.287501 
L 98.999271 148.345261 
L 88.646766 144.921435 
L 78.294261 141.947587 
" style="fill:none;stroke:#e377c2;stroke-linecap:square;stroke-width:1.5;"/>
   </g>
   <g id="line2d_54">
    <path clip-path="url(#p13ace323f9)" d="M 585.566989 255.763693 
L 575.214484 255.763693 
L 564.861979 255.763693 
L 554.509475 255.763693 
L 544.15697 255.763693 
L 533.804465 255.763693 
L 523.451961 255.763693 
L 513.099456 255.763693 
L 502.746952 255.763693 
L 492.394447 255.763693 
L 482.041942 255.763693 
L 471.689438 255.763693 
L 461.336933 255.763693 
L 450.984428 255.763693 
L 440.631924 255.763693 
L 430.279419 255.763693 
L 419.926914 255.763693 
L 409.57441 255.763693 
L 399.221905 255.763693 
L 388.869401 255.763693 
L 378.516896 255.763693 
L 368.164391 255.763693 
L 357.811887 255.763693 
L 347.459382 255.763693 
L 337.106877 255.763693 
L 326.754373 255.763693 
L 316.401868 255.763693 
L 306.049363 255.763693 
L 295.696859 255.763693 
L 285.344354 255.763693 
L 274.991849 255.763693 
L 264.639345 255.763693 
L 254.28684 255.763693 
L 243.934336 255.763693 
L 233.581831 255.763693 
L 223.229326 255.763693 
L 212.876822 255.763693 
L 202.524317 255.763693 
L 192.171812 255.763693 
L 181.819308 255.763693 
L 171.466803 262.486086 
L 161.114298 271.821796 
L 150.761794 280.030232 
L 140.409289 287.144891 
L 130.056785 293.99553 
L 119.70428 298.274668 
L 109.351775 298.605917 
L 98.999271 298.885427 
L 88.646766 299.129624 
L 78.294261 299.338664 
" style="fill:none;stroke:#7f7f7f;stroke-linecap:square;stroke-width:1.5;"/>
   </g>
   <g id="line2d_55">
    <path clip-path="url(#p13ace323f9)" d="M 585.566989 255.763693 
L 575.214484 255.763693 
L 564.861979 255.763693 
L 554.509475 255.763693 
L 544.15697 255.763693 
L 533.804465 255.763693 
L 523.451961 255.763693 
L 513.099456 255.763693 
L 502.746952 255.763693 
L 492.394447 255.763693 
L 482.041942 255.763693 
L 471.689438 255.763693 
L 461.336933 255.763693 
L 450.984428 255.763693 
L 440.631924 255.763693 
L 430.279419 255.763693 
L 419.926914 255.763693 
L 409.57441 255.763693 
L 399.221905 255.763693 
L 388.869401 255.763693 
L 378.516896 255.763693 
L 368.164391 255.763693 
L 357.811887 255.763693 
L 347.459382 255.763693 
L 337.106877 255.763693 
L 326.754373 255.763693 
L 316.401868 255.763693 
L 306.049363 255.763693 
L 295.696859 255.763693 
L 285.344354 255.763693 
L 274.991849 255.763693 
L 264.639345 255.763693 
L 254.28684 255.763693 
L 243.934336 255.763693 
L 233.581831 255.763693 
L 223.229326 265.672025 
L 212.876822 278.904076 
L 202.524317 293.002935 
L 192.171812 306.75523 
L 181.819308 320.831477 
L 171.466803 335.193554 
L 161.114298 349.473888 
L 150.761794 362.700189 
L 140.409289 374.158615 
L 130.056785 383.431835 
L 119.70428 388.628108 
L 109.351775 390.047498 
L 98.999271 391.274737 
L 88.646766 392.341866 
L 78.294261 393.266041 
" style="fill:none;stroke:#bcbd22;stroke-linecap:square;stroke-width:1.5;"/>
   </g>
   <g id="line2d_56">
    <path clip-path="url(#p13ace323f9)" d="M 585.566989 255.763693 
L 575.214484 255.763693 
L 564.861979 255.763693 
L 554.509475 255.763693 
L 544.15697 255.763693 
L 533.804465 255.763693 
L 523.451961 255.763693 
L 513.099456 255.763693 
L 502.746952 255.763693 
L 492.394447 255.763693 
L 482.041942 255.763693 
L 471.689438 255.763693 
L 461.336933 255.763693 
L 450.984428 255.763693 
L 440.631924 255.763693 
L 430.279419 255.763693 
L 419.926914 259.724734 
L 409.57441 264.867505 
L 399.221905 269.573482 
L 388.869401 273.046094 
L 378.516896 274.447244 
L 368.164391 275.660844 
L 357.811887 276.08246 
L 347.459382 275.314432 
L 337.106877 270.024035 
L 326.754373 263.541291 
L 316.401868 258.615609 
L 306.049363 255.763693 
L 295.696859 255.763693 
L 285.344354 255.763693 
L 274.991849 255.763693 
L 264.639345 255.763693 
L 254.28684 255.763693 
L 243.934336 255.763693 
L 233.581831 255.763693 
L 223.229326 255.763693 
L 212.876822 255.763693 
L 202.524317 260.210181 
L 192.171812 267.250885 
L 181.819308 276.541101 
L 171.466803 285.757919 
L 161.114298 289.529114 
L 150.761794 289.468044 
L 140.409289 289.453415 
L 130.056785 287.665164 
L 119.70428 283.708543 
L 109.351775 279.19533 
L 98.999271 275.266882 
L 88.646766 271.855441 
L 78.294261 268.891446 
" style="fill:none;stroke:#17becf;stroke-linecap:square;stroke-width:1.5;"/>
   </g>
   <g id="line2d_57">
    <path clip-path="url(#p13ace323f9)" d="M 585.566989 255.763693 
L 575.214484 255.763693 
L 564.861979 255.763693 
L 554.509475 255.763693 
L 544.15697 255.763693 
L 533.804465 255.763693 
L 523.451961 255.763693 
L 513.099456 255.763693 
L 502.746952 255.763693 
L 492.394447 255.763693 
L 482.041942 255.763693 
L 471.689438 255.763693 
L 461.336933 255.763693 
L 450.984428 255.763693 
L 440.631924 255.763693 
L 430.279419 255.763693 
L 419.926914 255.763693 
L 409.57441 255.763693 
L 399.221905 255.763693 
L 388.869401 255.763693 
L 378.516896 255.763693 
L 368.164391 255.763693 
L 357.811887 255.763693 
L 347.459382 255.763693 
L 337.106877 255.763693 
L 326.754373 255.763693 
L 316.401868 255.763693 
L 306.049363 255.763693 
L 295.696859 255.763693 
L 285.344354 255.763693 
L 274.991849 255.763693 
L 264.639345 255.763693 
L 254.28684 255.763693 
L 243.934336 255.763693 
L 233.581831 258.241995 
L 223.229326 264.617276 
L 212.876822 268.987285 
L 202.524317 272.149118 
L 192.171812 274.740439 
L 181.819308 277.029753 
L 171.466803 279.159414 
L 161.114298 281.40606 
L 150.761794 283.57514 
L 140.409289 285.463397 
L 130.056785 287.77434 
L 119.70428 290.058933 
L 109.351775 291.041119 
L 98.999271 291.89493 
L 88.646766 292.636863 
L 78.294261 293.28046 
" style="fill:none;stroke:#1f77b4;stroke-linecap:square;stroke-width:1.5;"/>
   </g>
   <g id="line2d_58">
    <path clip-path="url(#p13ace323f9)" d="M 585.566989 255.763693 
L 575.214484 255.763693 
L 564.861979 255.763693 
L 554.509475 255.763693 
L 544.15697 255.763693 
L 533.804465 255.763693 
L 523.451961 255.763693 
L 513.099456 255.763693 
L 502.746952 255.763693 
L 492.394447 255.763693 
L 482.041942 255.763693 
L 471.689438 255.763693 
L 461.336933 255.763693 
L 450.984428 255.763693 
L 440.631924 255.763693 
L 430.279419 255.763693 
L 419.926914 255.763693 
L 409.57441 255.763693 
L 399.221905 255.763693 
L 388.869401 255.763693 
L 378.516896 255.763693 
L 368.164391 255.763693 
L 357.811887 255.763693 
L 347.459382 255.763693 
L 337.106877 255.763693 
L 326.754373 255.763693 
L 316.401868 255.763693 
L 306.049363 255.763693 
L 295.696859 255.763693 
L 285.344354 255.763693 
L 274.991849 255.763693 
L 264.639345 255.763693 
L 254.28684 255.763693 
L 243.934336 255.763693 
L 233.581831 252.844557 
L 223.229326 247.685584 
L 212.876822 241.413112 
L 202.524317 234.901991 
L 192.171812 229.163322 
L 181.819308 225.01659 
L 171.466803 220.922601 
L 161.114298 217.800039 
L 150.761794 215.806011 
L 140.409289 214.078672 
L 130.056785 212.277325 
L 119.70428 210.404923 
L 109.351775 208.689783 
L 98.999271 207.20014 
L 88.646766 205.90642 
L 78.294261 204.78269 
" style="fill:none;stroke:#ff7f0e;stroke-linecap:square;stroke-width:1.5;"/>
   </g>
   <g id="line2d_59">
    <path clip-path="url(#p13ace323f9)" d="M 585.566989 255.763693 
L 575.214484 255.763693 
L 564.861979 255.763693 
L 554.509475 255.763693 
L 544.15697 255.763693 
L 533.804465 255.763693 
L 523.451961 255.763693 
L 513.099456 255.763693 
L 502.746952 255.763693 
L 492.394447 255.763693 
L 482.041942 255.763693 
L 471.689438 255.763693 
L 461.336933 255.763693 
L 450.984428 255.763693 
L 440.631924 255.763693 
L 430.279419 255.763693 
L 419.926914 255.763693 
L 409.57441 255.763693 
L 399.221905 255.763693 
L 388.869401 255.763693 
L 378.516896 255.763693 
L 368.164391 255.763693 
L 357.811887 255.763693 
L 347.459382 255.763693 
L 337.106877 255.763693 
L 326.754373 255.763693 
L 316.401868 255.763693 
L 306.049363 255.763693 
L 295.696859 255.763693 
L 285.344354 255.763693 
L 274.991849 255.763693 
L 264.639345 255.763693 
L 254.28684 255.763693 
L 243.934336 255.763693 
L 233.581831 255.763693 
L 223.229326 255.763693 
L 212.876822 255.763693 
L 202.524317 255.763693 
L 192.171812 255.016991 
L 181.819308 251.753595 
L 171.466803 247.518265 
L 161.114298 243.246758 
L 150.761794 239.655594 
L 140.409289 236.540872 
L 130.056785 233.875712 
L 119.70428 231.416906 
L 109.351775 228.623566 
L 98.999271 226.198773 
L 88.646766 224.093051 
L 78.294261 222.263732 
" style="fill:none;stroke:#2ca02c;stroke-linecap:square;stroke-width:1.5;"/>
   </g>
   <g id="line2d_60">
    <path clip-path="url(#p13ace323f9)" d="M 585.566989 255.763693 
L 575.214484 255.763693 
L 564.861979 255.763693 
L 554.509475 255.763693 
L 544.15697 255.763693 
L 533.804465 255.763693 
L 523.451961 255.763693 
L 513.099456 255.763693 
L 502.746952 255.763693 
L 492.394447 255.763693 
L 482.041942 255.763693 
L 471.689438 255.763693 
L 461.336933 255.763693 
L 450.984428 255.763693 
L 440.631924 255.763693 
L 430.279419 255.763693 
L 419.926914 255.763693 
L 409.57441 255.763693 
L 399.221905 255.763693 
L 388.869401 255.763693 
L 378.516896 255.763693 
L 368.164391 255.763693 
L 357.811887 255.763693 
L 347.459382 255.763693 
L 337.106877 255.763693 
L 326.754373 255.763693 
L 316.401868 255.305369 
L 306.049363 252.559776 
L 295.696859 250.376235 
L 285.344354 248.481455 
L 274.991849 246.833063 
L 264.639345 245.69036 
L 254.28684 245.96228 
L 243.934336 246.176757 
L 233.581831 243.870558 
L 223.229326 239.045891 
L 212.876822 233.245223 
L 202.524317 228.058619 
L 192.171812 224.135227 
L 181.819308 222.604734 
L 171.466803 218.848428 
L 161.114298 213.675973 
L 150.761794 208.582902 
L 140.409289 204.170983 
L 130.056785 200.303087 
L 119.70428 198.650452 
L 109.351775 199.982261 
L 98.999271 201.143001 
L 88.646766 202.15007 
L 78.294261 203.026914 
" style="fill:none;stroke:#d62728;stroke-linecap:square;stroke-width:1.5;"/>
   </g>
   <g id="line2d_61">
    <path clip-path="url(#p13ace323f9)" d="M 585.566989 255.763693 
L 575.214484 255.763693 
L 564.861979 255.763693 
L 554.509475 255.763693 
L 544.15697 255.763693 
L 533.804465 255.763693 
L 523.451961 255.763693 
L 513.099456 255.763693 
L 502.746952 255.763693 
L 492.394447 255.763693 
L 482.041942 255.763693 
L 471.689438 255.763693 
L 461.336933 255.763693 
L 450.984428 255.763693 
L 440.631924 255.763693 
L 430.279419 255.763693 
L 419.926914 255.763693 
L 409.57441 255.763693 
L 399.221905 255.763693 
L 388.869401 255.763693 
L 378.516896 255.763693 
L 368.164391 255.763693 
L 357.811887 255.763693 
L 347.459382 255.763693 
L 337.106877 255.763693 
L 326.754373 255.763693 
L 316.401868 255.763693 
L 306.049363 255.763693 
L 295.696859 255.763693 
L 285.344354 255.763693 
L 274.991849 255.763693 
L 264.639345 255.763693 
L 254.28684 255.763693 
L 243.934336 255.763693 
L 233.581831 255.763693 
L 223.229326 255.763693 
L 212.876822 262.805068 
L 202.524317 272.606342 
L 192.171812 281.440426 
L 181.819308 289.697094 
L 171.466803 295.130217 
L 161.114298 298.869962 
L 150.761794 302.389636 
L 140.409289 305.435136 
L 130.056785 307.697976 
L 119.70428 309.330422 
L 109.351775 311.000158 
L 98.999271 312.451159 
L 88.646766 313.711301 
L 78.294261 314.805907 
" style="fill:none;stroke:#9467bd;stroke-linecap:square;stroke-width:1.5;"/>
   </g>
   <g id="line2d_62">
    <path clip-path="url(#p13ace323f9)" d="M 585.566989 255.763693 
L 575.214484 255.763693 
L 564.861979 255.763693 
L 554.509475 255.763693 
L 544.15697 255.763693 
L 533.804465 255.763693 
L 523.451961 255.763693 
L 513.099456 255.763693 
L 502.746952 255.763693 
L 492.394447 255.763693 
L 482.041942 255.763693 
L 471.689438 255.763693 
L 461.336933 255.763693 
L 450.984428 255.763693 
L 440.631924 255.763693 
L 430.279419 255.763693 
L 419.926914 255.763693 
L 409.57441 255.763693 
L 399.221905 255.763693 
L 388.869401 255.763693 
L 378.516896 255.763693 
L 368.164391 255.763693 
L 357.811887 255.763693 
L 347.459382 255.763693 
L 337.106877 255.763693 
L 326.754373 255.763693 
L 316.401868 256.391743 
L 306.049363 258.567265 
L 295.696859 260.453928 
L 285.344354 262.092483 
L 274.991849 263.515516 
L 264.639345 265.629188 
L 254.28684 268.58748 
L 243.934336 271.137514 
L 233.581831 271.565441 
L 223.229326 272.952835 
L 212.876822 278.037351 
L 202.524317 285.016027 
L 192.171812 292.097334 
L 181.819308 300.767398 
L 171.466803 307.445829 
L 161.114298 312.263415 
L 150.761794 316.320164 
L 140.409289 319.843694 
L 130.056785 322.695402 
L 119.70428 324.851427 
L 109.351775 326.652723 
L 98.999271 328.216543 
L 88.646766 329.574725 
L 78.294261 330.75434 
" style="fill:none;stroke:#8c564b;stroke-linecap:square;stroke-width:1.5;"/>
   </g>
   <g id="line2d_63">
    <path clip-path="url(#p13ace323f9)" d="M 585.566989 255.763693 
L 575.214484 255.763693 
L 564.861979 255.763693 
L 554.509475 255.763693 
L 544.15697 255.763693 
L 533.804465 255.763693 
L 523.451961 255.763693 
L 513.099456 255.763693 
L 502.746952 255.763693 
L 492.394447 255.763693 
L 482.041942 255.763693 
L 471.689438 255.763693 
L 461.336933 255.763693 
L 450.984428 255.763693 
L 440.631924 255.763693 
L 430.279419 255.763693 
L 419.926914 255.763693 
L 409.57441 255.763693 
L 399.221905 255.763693 
L 388.869401 255.763693 
L 378.516896 255.763693 
L 368.164391 255.763693 
L 357.811887 255.763693 
L 347.459382 255.763693 
L 337.106877 255.763693 
L 326.754373 255.763693 
L 316.401868 255.763693 
L 306.049363 255.763693 
L 295.696859 255.763693 
L 285.344354 255.763693 
L 274.991849 255.763693 
L 264.639345 255.763693 
L 254.28684 255.763693 
L 243.934336 255.763693 
L 233.581831 255.763693 
L 223.229326 255.763693 
L 212.876822 255.763693 
L 202.524317 255.763693 
L 192.171812 255.763693 
L 181.819308 255.763693 
L 171.466803 255.763693 
L 161.114298 256.283476 
L 150.761794 256.822939 
L 140.409289 257.298593 
L 130.056785 257.372774 
L 119.70428 257.816631 
L 109.351775 259.18933 
L 98.999271 260.384279 
L 88.646766 261.421506 
L 78.294261 262.323612 
" style="fill:none;stroke:#e377c2;stroke-linecap:square;stroke-width:1.5;"/>
   </g>
   <g id="line2d_64">
    <path clip-path="url(#p13ace323f9)" d="M 326.754373 442.08 
L 326.754373 7.2 
" style="fill:none;stroke:#000000;stroke-dasharray:5.55,2.4;stroke-dashoffset:0;stroke-width:1.5;"/>
   </g>
   <g id="patch_3">
    <path d="M 52.930625 442.08 
L 52.930625 7.2 
" style="fill:none;stroke:#000000;stroke-linecap:square;stroke-linejoin:miter;stroke-width:0.8;"/>
   </g>
   <g id="patch_4">
    <path d="M 610.930625 442.08 
L 610.930625 7.2 
" style="fill:none;stroke:#000000;stroke-linecap:square;stroke-linejoin:miter;stroke-width:0.8;"/>
   </g>
   <g id="patch_5">
    <path d="M 52.930625 442.08 
L 610.930625 442.08 
" style="fill:none;stroke:#000000;stroke-linecap:square;stroke-linejoin:miter;stroke-width:0.8;"/>
   </g>
   <g id="patch_6">
    <path d="M 52.930625 7.2 
L 610.930625 7.2 
" style="fill:none;stroke:#000000;stroke-linecap:square;stroke-linejoin:miter;stroke-width:0.8;"/>
   </g>
  </g>
 </g>
 <defs>
  <clipPath id="p13ace323f9">
   <rect height="434.88" width="558" x="52.930625" y="7.2"/>
  </clipPath>
 </defs>
</svg>
