<?xml version="1.0" encoding="utf-8" standalone="no"?>
<!DOCTYPE svg PUBLIC "-//W3C//DTD SVG 1.1//EN"
  "http://www.w3.org/Graphics/SVG/1.1/DTD/svg11.dtd">
<!-- Created with matplotlib (https://matplotlib.org/) -->
<svg height="468.855625pt" version="1.1" viewBox="0 0 896.560824 468.855625" width="896.560824pt" xmlns="http://www.w3.org/2000/svg" xmlns:xlink="http://www.w3.org/1999/xlink">
 <defs>
  <style type="text/css">
*{stroke-linecap:butt;stroke-linejoin:round;}
  </style>
 </defs>
 <g id="figure_1">
  <g id="patch_1">
   <path d="M 0 468.855625 
L 896.560824 468.855625 
L 896.560824 0 
L 0 0 
z
" style="fill:#ffffff;"/>
  </g>
  <g id="axes_1">
   <g id="patch_2">
    <path d="M 323.339375 442.08 
L 881.339375 442.08 
L 881.339375 7.2 
L 323.339375 7.2 
z
" style="fill:#ffffff;"/>
   </g>
   <g id="patch_3">
    <path clip-path="url(#p58f1742c33)" d="M 409.945889 426.548571 
L 348.703011 426.548571 
L 348.703011 395.485714 
L 409.945889 395.485714 
z
" style="fill:#1f77b4;"/>
   </g>
   <g id="patch_4">
    <path clip-path="url(#p58f1742c33)" d="M 409.945889 364.422857 
L 356.040702 364.422857 
L 356.040702 333.36 
L 409.945889 333.36 
z
" style="fill:#1f77b4;"/>
   </g>
   <g id="patch_5">
    <path clip-path="url(#p58f1742c33)" d="M 409.945889 302.297143 
L 497.224824 302.297143 
L 497.224824 271.234286 
L 409.945889 271.234286 
z
" style="fill:#1f77b4;"/>
   </g>
   <g id="patch_6">
    <path clip-path="url(#p58f1742c33)" d="M 409.945889 240.171429 
L 505.623424 240.171429 
L 505.623424 209.108571 
L 409.945889 209.108571 
z
" style="fill:#1f77b4;"/>
   </g>
   <g id="patch_7">
    <path clip-path="url(#p58f1742c33)" d="M 409.945889 178.045714 
L 595.158429 178.045714 
L 595.158429 146.982857 
L 409.945889 146.982857 
z
" style="fill:#1f77b4;"/>
   </g>
   <g id="patch_8">
    <path clip-path="url(#p58f1742c33)" d="M 409.945889 115.92 
L 838.667235 115.92 
L 838.667235 84.857143 
L 409.945889 84.857143 
z
" style="fill:#1f77b4;"/>
   </g>
   <g id="patch_9">
    <path clip-path="url(#p58f1742c33)" d="M 409.945889 53.794286 
L 855.975739 53.794286 
L 855.975739 22.731429 
L 409.945889 22.731429 
z
" style="fill:#1f77b4;"/>
   </g>
   <g id="matplotlib.axis_1">
    <g id="xtick_1">
     <g id="line2d_1">
      <defs>
       <path d="M 0 0 
L 0 3.5 
" id="mbf01ccd95e" style="stroke:#000000;stroke-width:0.8;"/>
      </defs>
      <g>
       <use style="stroke:#000000;stroke-width:0.8;" x="409.945889" xlink:href="#mbf01ccd95e" y="442.08"/>
      </g>
     </g>
     <g id="text_1">
      <!-- 0.00 -->
      <defs>
       <path d="M 4.4375 36.328125 
Q 4.4375 56.34375 11.078125 66.625 
Q 17.71875 76.90625 30.328125 76.90625 
Q 54.34375 76.90625 54.34375 38.140625 
Q 54.34375 19 47.578125 8.859375 
Q 40.828125 -1.265625 28.609375 -1.265625 
Q 17.09375 -1.265625 10.765625 8.34375 
Q 4.4375 17.96875 4.4375 36.328125 
z
M 14.203125 36.765625 
Q 14.203125 6.640625 29.5 6.640625 
Q 44.53125 6.640625 44.53125 37.25 
Q 44.53125 68.953125 29.78125 68.953125 
Q 14.203125 68.953125 14.203125 36.765625 
z
" id="MicrosoftYaHei-48"/>
       <path d="M 5.8125 5.03125 
Q 5.8125 7.671875 7.609375 9.46875 
Q 9.421875 11.28125 12.109375 11.28125 
Q 14.84375 11.28125 16.640625 9.453125 
Q 18.453125 7.625 18.453125 5.03125 
Q 18.453125 2.484375 16.640625 0.65625 
Q 14.84375 -1.171875 12.0625 -1.171875 
Q 9.375 -1.171875 7.59375 0.65625 
Q 5.8125 2.484375 5.8125 5.03125 
z
" id="MicrosoftYaHei-46"/>
      </defs>
      <g transform="translate(397.945889 458.6725)scale(0.12 -0.12)">
       <use xlink:href="#MicrosoftYaHei-48"/>
       <use x="58.642578" xlink:href="#MicrosoftYaHei-46"/>
       <use x="82.714844" xlink:href="#MicrosoftYaHei-48"/>
       <use x="141.357422" xlink:href="#MicrosoftYaHei-48"/>
      </g>
     </g>
    </g>
    <g id="xtick_2">
     <g id="line2d_2">
      <g>
       <use style="stroke:#000000;stroke-width:0.8;" x="503.428876" xlink:href="#mbf01ccd95e" y="442.08"/>
      </g>
     </g>
     <g id="text_2">
      <!-- 0.02 -->
      <defs>
       <path d="M 41.65625 55.8125 
Q 41.65625 61.921875 37.796875 65.40625 
Q 33.9375 68.890625 27.296875 68.890625 
Q 22.609375 68.890625 17.8125 66.5 
Q 13.03125 64.109375 8.890625 59.671875 
L 8.890625 68.953125 
Q 12.59375 72.796875 17.296875 74.84375 
Q 22.015625 76.90625 28.375 76.90625 
Q 38.625 76.90625 44.875 71.40625 
Q 51.125 65.921875 51.125 56.546875 
Q 51.125 48.1875 47.28125 42.078125 
Q 43.453125 35.984375 34.1875 29.59375 
Q 24.703125 23.046875 21.5 20.21875 
Q 18.3125 17.390625 17.03125 14.796875 
Q 15.765625 12.203125 15.765625 8.5 
L 53.375 8.5 
L 53.375 0 
L 5.8125 0 
L 5.8125 3.765625 
Q 5.8125 10.296875 7.59375 14.859375 
Q 9.375 19.4375 13.46875 23.75 
Q 17.578125 28.078125 26.265625 34.125 
Q 35.15625 40.375 38.40625 45.09375 
Q 41.65625 49.8125 41.65625 55.8125 
z
" id="MicrosoftYaHei-50"/>
      </defs>
      <g transform="translate(491.428876 458.6725)scale(0.12 -0.12)">
       <use xlink:href="#MicrosoftYaHei-48"/>
       <use x="58.642578" xlink:href="#MicrosoftYaHei-46"/>
       <use x="82.714844" xlink:href="#MicrosoftYaHei-48"/>
       <use x="141.357422" xlink:href="#MicrosoftYaHei-50"/>
      </g>
     </g>
    </g>
    <g id="xtick_3">
     <g id="line2d_3">
      <g>
       <use style="stroke:#000000;stroke-width:0.8;" x="596.911863" xlink:href="#mbf01ccd95e" y="442.08"/>
      </g>
     </g>
     <g id="text_3">
      <!-- 0.04 -->
      <defs>
       <path d="M 45.40625 75.640625 
L 45.40625 25.6875 
L 56.734375 25.6875 
L 56.734375 17.78125 
L 45.40625 17.78125 
L 45.40625 0 
L 36.140625 0 
L 36.140625 17.78125 
L 0.828125 17.78125 
L 0.828125 25.25 
Q 10.25 35.84375 19.765625 49.65625 
Q 29.296875 63.484375 35.5 75.640625 
z
M 11.578125 25.6875 
L 36.140625 25.6875 
L 36.140625 61.71875 
Q 31.0625 52.59375 25.25 44.015625 
Q 19.4375 35.453125 11.578125 25.6875 
z
" id="MicrosoftYaHei-52"/>
      </defs>
      <g transform="translate(584.911863 458.6725)scale(0.12 -0.12)">
       <use xlink:href="#MicrosoftYaHei-48"/>
       <use x="58.642578" xlink:href="#MicrosoftYaHei-46"/>
       <use x="82.714844" xlink:href="#MicrosoftYaHei-48"/>
       <use x="141.357422" xlink:href="#MicrosoftYaHei-52"/>
      </g>
     </g>
    </g>
    <g id="xtick_4">
     <g id="line2d_4">
      <g>
       <use style="stroke:#000000;stroke-width:0.8;" x="690.39485" xlink:href="#mbf01ccd95e" y="442.08"/>
      </g>
     </g>
     <g id="text_4">
      <!-- 0.06 -->
      <defs>
       <path d="M 49.703125 65.921875 
Q 43.796875 68.953125 37.359375 68.953125 
Q 27.546875 68.953125 21.578125 60.40625 
Q 15.625 51.859375 15.53125 37.0625 
L 15.765625 37.0625 
Q 21.140625 47.46875 32.90625 47.46875 
Q 42.71875 47.46875 48.578125 41.0625 
Q 54.4375 34.671875 54.4375 24.078125 
Q 54.4375 12.984375 47.671875 5.859375 
Q 40.921875 -1.265625 30.421875 -1.265625 
Q 18.890625 -1.265625 12.328125 7.734375 
Q 5.765625 16.75 5.765625 33.296875 
Q 5.765625 53.328125 14.375 65.109375 
Q 23 76.90625 37.0625 76.90625 
Q 45.125 76.90625 49.703125 74.703125 
z
M 16.109375 24.75 
Q 16.109375 17.28125 20.09375 11.953125 
Q 24.078125 6.640625 30.671875 6.640625 
Q 36.921875 6.640625 40.828125 11.234375 
Q 44.734375 15.828125 44.734375 23.046875 
Q 44.734375 30.859375 41.046875 35.203125 
Q 37.359375 39.546875 30.5625 39.546875 
Q 24.125 39.546875 20.109375 35.15625 
Q 16.109375 30.765625 16.109375 24.75 
z
" id="MicrosoftYaHei-54"/>
      </defs>
      <g transform="translate(678.39485 458.6725)scale(0.12 -0.12)">
       <use xlink:href="#MicrosoftYaHei-48"/>
       <use x="58.642578" xlink:href="#MicrosoftYaHei-46"/>
       <use x="82.714844" xlink:href="#MicrosoftYaHei-48"/>
       <use x="141.357422" xlink:href="#MicrosoftYaHei-54"/>
      </g>
     </g>
    </g>
    <g id="xtick_5">
     <g id="line2d_5">
      <g>
       <use style="stroke:#000000;stroke-width:0.8;" x="783.877837" xlink:href="#mbf01ccd95e" y="442.08"/>
      </g>
     </g>
     <g id="text_5">
      <!-- 0.08 -->
      <defs>
       <path d="M 4.78125 21.09375 
Q 4.78125 27.640625 8.6875 33.15625 
Q 12.59375 38.671875 18.75 41.015625 
Q 13.8125 43.796875 10.9375 48.140625 
Q 8.0625 52.484375 8.0625 57.5625 
Q 8.0625 62.9375 10.8125 67.375 
Q 13.578125 71.828125 18.484375 74.359375 
Q 23.390625 76.90625 29.296875 76.90625 
Q 35.25 76.90625 40.1875 74.390625 
Q 45.125 71.875 47.859375 67.421875 
Q 50.59375 62.984375 50.59375 57.5625 
Q 50.59375 52.59375 47.78125 48.21875 
Q 44.96875 43.84375 39.984375 41.015625 
Q 46.140625 38.625 50 33.109375 
Q 53.859375 27.59375 53.859375 21.09375 
Q 53.859375 14.65625 50.78125 9.546875 
Q 47.703125 4.4375 42.03125 1.609375 
Q 36.375 -1.21875 29.296875 -1.21875 
Q 22.265625 -1.21875 16.640625 1.609375 
Q 11.03125 4.4375 7.90625 9.5625 
Q 4.78125 14.703125 4.78125 21.09375 
z
M 14.15625 21.53125 
Q 14.15625 14.796875 18.3125 10.734375 
Q 22.46875 6.6875 29.34375 6.6875 
Q 36.078125 6.6875 40.34375 10.8125 
Q 44.625 14.9375 44.625 21.53125 
Q 44.625 27.78125 40.296875 32.046875 
Q 35.984375 36.328125 29.34375 36.328125 
Q 22.75 36.328125 18.453125 32.15625 
Q 14.15625 27.984375 14.15625 21.53125 
z
M 16.890625 56.78125 
Q 16.890625 51.703125 20.5 48.0625 
Q 24.125 44.4375 29.34375 44.4375 
Q 34.46875 44.4375 38.203125 48.09375 
Q 41.9375 51.765625 41.9375 56.78125 
Q 41.9375 61.921875 38.34375 65.484375 
Q 34.765625 69.046875 29.34375 69.046875 
Q 23.96875 69.046875 20.421875 65.546875 
Q 16.890625 62.0625 16.890625 56.78125 
z
" id="MicrosoftYaHei-56"/>
      </defs>
      <g transform="translate(771.877837 458.6725)scale(0.12 -0.12)">
       <use xlink:href="#MicrosoftYaHei-48"/>
       <use x="58.642578" xlink:href="#MicrosoftYaHei-46"/>
       <use x="82.714844" xlink:href="#MicrosoftYaHei-48"/>
       <use x="141.357422" xlink:href="#MicrosoftYaHei-56"/>
      </g>
     </g>
    </g>
    <g id="xtick_6">
     <g id="line2d_6">
      <g>
       <use style="stroke:#000000;stroke-width:0.8;" x="877.360824" xlink:href="#mbf01ccd95e" y="442.08"/>
      </g>
     </g>
     <g id="text_6">
      <!-- 0.10 -->
      <defs>
       <path d="M 27.828125 0 
L 27.828125 64.703125 
Q 25.59375 62.453125 20.234375 59.671875 
Q 14.890625 56.890625 10.359375 55.765625 
L 10.359375 65.140625 
Q 16.359375 66.796875 23.1875 70.4375 
Q 30.03125 74.078125 33.6875 77.296875 
L 37.3125 77.296875 
L 37.3125 0 
z
" id="MicrosoftYaHei-49"/>
      </defs>
      <g transform="translate(865.360824 458.6725)scale(0.12 -0.12)">
       <use xlink:href="#MicrosoftYaHei-48"/>
       <use x="58.642578" xlink:href="#MicrosoftYaHei-46"/>
       <use x="82.714844" xlink:href="#MicrosoftYaHei-49"/>
       <use x="141.357422" xlink:href="#MicrosoftYaHei-48"/>
      </g>
     </g>
    </g>
   </g>
   <g id="matplotlib.axis_2">
    <g id="ytick_1">
     <g id="line2d_7">
      <defs>
       <path d="M 0 0 
L -3.5 0 
" id="m3a3871fc96" style="stroke:#000000;stroke-width:0.8;"/>
      </defs>
      <g>
       <use style="stroke:#000000;stroke-width:0.8;" x="323.339375" xlink:href="#m3a3871fc96" y="411.017143"/>
      </g>
     </g>
     <g id="text_7">
      <!-- original_firstorder_Minimum -->
      <defs>
       <path d="M 4.9375 26.421875 
Q 4.9375 39.796875 12.40625 47.53125 
Q 19.875 55.28125 32.671875 55.28125 
Q 44.828125 55.28125 51.734375 47.828125 
Q 58.640625 40.375 58.640625 27.25 
Q 58.640625 14.453125 51.265625 6.59375 
Q 43.890625 -1.265625 31.5 -1.265625 
Q 19.390625 -1.265625 12.15625 6.34375 
Q 4.9375 13.96875 4.9375 26.421875 
z
M 14.703125 26.703125 
Q 14.703125 17.390625 19.40625 12.015625 
Q 24.125 6.640625 32.078125 6.640625 
Q 40.28125 6.640625 44.578125 11.890625 
Q 48.875 17.140625 48.875 26.953125 
Q 48.875 36.8125 44.578125 42.078125 
Q 40.28125 47.359375 32.078125 47.359375 
Q 24.03125 47.359375 19.359375 41.84375 
Q 14.703125 36.328125 14.703125 26.703125 
z
" id="MicrosoftYaHei-111"/>
       <path d="M 37.5 44.53125 
Q 35.109375 46.234375 30.90625 46.234375 
Q 25.34375 46.234375 21.71875 41.03125 
Q 18.109375 35.84375 18.109375 27.34375 
L 18.109375 0 
L 8.546875 0 
L 8.546875 54 
L 18.109375 54 
L 18.109375 43.015625 
L 18.3125 43.015625 
Q 22.40625 54.9375 32.46875 54.9375 
Q 35.75 54.9375 37.5 54.203125 
z
" id="MicrosoftYaHei-114"/>
       <path d="M 7.375 73.046875 
Q 7.375 75.59375 9.109375 77.3125 
Q 10.84375 79.046875 13.375 79.046875 
Q 15.96875 79.046875 17.75 77.34375 
Q 19.53125 75.640625 19.53125 73.046875 
Q 19.53125 70.515625 17.75 68.828125 
Q 15.96875 67.140625 13.375 67.140625 
Q 10.796875 67.140625 9.078125 68.828125 
Q 7.375 70.515625 7.375 73.046875 
z
M 8.5 0 
L 8.5 54 
L 18.0625 54 
L 18.0625 0 
z
" id="MicrosoftYaHei-105"/>
       <path d="M 55.421875 4.546875 
Q 55.421875 -25.4375 26.3125 -25.4375 
Q 16.265625 -25.4375 8.84375 -21.6875 
L 8.84375 -12.453125 
Q 17.875 -17.484375 26.171875 -17.484375 
Q 45.84375 -17.484375 45.84375 3.21875 
L 45.84375 8.9375 
L 45.65625 8.9375 
Q 39.5 -1.265625 27.296875 -1.265625 
Q 17.140625 -1.265625 11.03125 6 
Q 4.9375 13.28125 4.9375 25.296875 
Q 4.9375 39.109375 11.671875 47.1875 
Q 18.40625 55.28125 29.640625 55.28125 
Q 40.4375 55.28125 45.65625 46.6875 
L 45.84375 46.6875 
L 45.84375 54 
L 55.421875 54 
z
M 45.84375 32.125 
Q 45.90625 38.375 41.65625 42.859375 
Q 37.40625 47.359375 31.203125 47.359375 
Q 23.390625 47.359375 19.046875 41.625 
Q 14.703125 35.890625 14.703125 25.875 
Q 14.703125 17.28125 18.890625 11.953125 
Q 23.09375 6.640625 30.03125 6.640625 
Q 37.015625 6.640625 41.453125 11.71875 
Q 45.90625 16.796875 45.84375 24.609375 
z
" id="MicrosoftYaHei-103"/>
       <path d="M 54.203125 0 
L 44.671875 0 
L 44.671875 30.71875 
Q 44.671875 47.359375 32.515625 47.359375 
Q 26.21875 47.359375 22.15625 42.671875 
Q 18.109375 37.984375 18.109375 30.8125 
L 18.109375 0 
L 8.546875 0 
L 8.546875 54 
L 18.109375 54 
L 18.109375 45.0625 
L 18.3125 45.0625 
Q 24.421875 55.28125 36.03125 55.28125 
Q 44.921875 55.28125 49.5625 49.578125 
Q 54.203125 43.890625 54.203125 33.015625 
z
" id="MicrosoftYaHei-110"/>
       <path d="M 9.8125 50.25 
Q 17.875 55.28125 28.421875 55.28125 
Q 47.953125 55.28125 47.953125 34.765625 
L 47.953125 0 
L 38.484375 0 
L 38.484375 8.34375 
L 38.234375 8.34375 
Q 32.625 -1.265625 21.6875 -1.265625 
Q 13.8125 -1.265625 9.171875 2.984375 
Q 4.546875 7.234375 4.546875 14.453125 
Q 4.546875 29.59375 22.46875 32.078125 
L 38.484375 34.328125 
Q 38.484375 47.5625 27.546875 47.5625 
Q 17.828125 47.5625 9.8125 41.015625 
z
M 25.828125 25.390625 
Q 19.1875 24.515625 16.671875 22.0625 
Q 14.15625 19.625 14.15625 15.234375 
Q 14.15625 11.375 16.890625 8.9375 
Q 19.625 6.5 24.125 6.5 
Q 30.375 6.5 34.421875 10.890625 
Q 38.484375 15.28125 38.484375 21.921875 
L 38.484375 27.09375 
z
" id="MicrosoftYaHei-97"/>
       <path d="M 8.5 0 
L 8.5 79.9375 
L 18.0625 79.9375 
L 18.0625 0 
z
" id="MicrosoftYaHei-108"/>
       <path d="M 44.828125 -25.53125 
L 0 -25.53125 
L 0 -19.234375 
L 44.828125 -19.234375 
z
" id="MicrosoftYaHei-95"/>
       <path d="M 36.234375 71.78125 
Q 33.546875 73.1875 30.421875 73.1875 
Q 21.4375 73.1875 21.4375 62.0625 
L 21.4375 54 
L 34.078125 54 
L 34.078125 46.09375 
L 21.4375 46.09375 
L 21.4375 0 
L 11.96875 0 
L 11.96875 46.09375 
L 2.734375 46.09375 
L 2.734375 54 
L 11.96875 54 
L 11.96875 62.5 
Q 11.96875 71.1875 16.96875 76.140625 
Q 21.96875 81.109375 29.6875 81.109375 
Q 33.796875 81.109375 36.234375 80.171875 
z
" id="MicrosoftYaHei-102"/>
       <path d="M 5.515625 11.671875 
Q 12.75 6.453125 21.09375 6.453125 
Q 32.28125 6.453125 32.28125 13.765625 
Q 32.28125 16.890625 29.828125 18.921875 
Q 27.390625 20.953125 19.921875 23.734375 
Q 10.9375 27.34375 8.25 30.875 
Q 5.5625 34.421875 5.5625 39.453125 
Q 5.5625 46.625 11.640625 50.953125 
Q 17.71875 55.28125 26.609375 55.28125 
Q 33.5 55.28125 39.40625 52.875 
L 39.40625 43.65625 
Q 33.34375 47.5625 25.6875 47.5625 
Q 21.09375 47.5625 18.203125 45.5625 
Q 15.328125 43.5625 15.328125 40.28125 
Q 15.328125 37.0625 17.40625 35.25 
Q 19.484375 33.453125 26.609375 30.609375 
Q 35.640625 27.25 38.8125 23.625 
Q 42 20.015625 42 14.703125 
Q 42 7.28125 35.90625 3 
Q 29.828125 -1.265625 20.171875 -1.265625 
Q 11.765625 -1.265625 5.515625 1.90625 
z
" id="MicrosoftYaHei-115"/>
       <path d="M 34.46875 0.53125 
Q 31.34375 -1.171875 26.03125 -1.171875 
Q 11.53125 -1.171875 11.53125 14.890625 
L 11.53125 46.09375 
L 2.25 46.09375 
L 2.25 54 
L 11.53125 54 
L 11.53125 67 
L 21.046875 70.015625 
L 21.046875 54 
L 34.46875 54 
L 34.46875 46.09375 
L 21.046875 46.09375 
L 21.046875 16.609375 
Q 21.046875 11.28125 22.84375 8.984375 
Q 24.65625 6.6875 28.859375 6.6875 
Q 32.078125 6.6875 34.46875 8.5 
z
" id="MicrosoftYaHei-116"/>
       <path d="M 55.421875 0 
L 45.84375 0 
L 45.84375 8.984375 
L 45.65625 8.984375 
Q 39.75 -1.265625 27.296875 -1.265625 
Q 17.046875 -1.265625 10.984375 6.03125 
Q 4.9375 13.328125 4.9375 25.734375 
Q 4.9375 39.109375 11.765625 47.1875 
Q 18.609375 55.28125 29.640625 55.28125 
Q 40.671875 55.28125 45.65625 46.6875 
L 45.84375 46.6875 
L 45.84375 79.9375 
L 55.421875 79.9375 
z
M 45.90625 32.125 
Q 45.90625 38.625 41.625 42.984375 
Q 37.359375 47.359375 31.109375 47.359375 
Q 23.484375 47.359375 19.09375 41.671875 
Q 14.703125 35.984375 14.703125 26.171875 
Q 14.703125 17.140625 18.921875 11.890625 
Q 23.140625 6.640625 30.171875 6.640625 
Q 37.109375 6.640625 41.5 11.78125 
Q 45.90625 16.9375 45.90625 24.609375 
z
" id="MicrosoftYaHei-100"/>
       <path d="M 52.546875 24.5625 
L 14.75 24.5625 
Q 14.984375 15.921875 19.46875 11.203125 
Q 23.96875 6.5 32.03125 6.5 
Q 41.109375 6.5 48.6875 12.3125 
L 48.6875 3.765625 
Q 41.546875 -1.265625 29.78125 -1.265625 
Q 18.0625 -1.265625 11.5 6.15625 
Q 4.9375 13.578125 4.9375 26.765625 
Q 4.9375 39.15625 12.140625 47.21875 
Q 19.34375 55.28125 30.03125 55.28125 
Q 40.625 55.28125 46.578125 48.46875 
Q 52.546875 41.65625 52.546875 29.390625 
z
M 42.96875 32.234375 
Q 42.921875 39.546875 39.5 43.546875 
Q 36.078125 47.5625 29.890625 47.5625 
Q 24.171875 47.5625 20 43.3125 
Q 15.828125 39.0625 14.75 32.234375 
z
" id="MicrosoftYaHei-101"/>
       <path d="M 78.171875 0 
L 78.171875 50.09375 
Q 78.171875 56.296875 78.90625 64.984375 
L 78.65625 64.984375 
Q 77.390625 59.515625 76.421875 57.375 
L 51.46875 0 
L 46.046875 0 
L 21.140625 56.9375 
Q 20.265625 58.890625 18.890625 64.984375 
L 18.609375 64.984375 
Q 19.09375 59.71875 19.09375 49.65625 
L 19.09375 0 
L 9.765625 0 
L 9.765625 75.640625 
L 23 75.640625 
L 45.3125 23.78125 
Q 47.859375 17.828125 48.6875 14.5 
L 49.03125 14.5 
Q 51.5625 21.484375 52.59375 23.96875 
L 75.296875 75.640625 
L 87.890625 75.640625 
L 87.890625 0 
z
" id="MicrosoftYaHei-77"/>
       <path d="M 86.28125 0 
L 76.703125 0 
L 76.703125 31 
Q 76.703125 39.796875 73.96875 43.578125 
Q 71.234375 47.359375 64.984375 47.359375 
Q 59.71875 47.359375 55.953125 42.421875 
Q 52.203125 37.5 52.203125 30.765625 
L 52.203125 0 
L 42.625 0 
L 42.625 31.984375 
Q 42.625 47.359375 30.765625 47.359375 
Q 25.296875 47.359375 21.703125 42.671875 
Q 18.109375 37.984375 18.109375 30.71875 
L 18.109375 0 
L 8.546875 0 
L 8.546875 54 
L 18.109375 54 
L 18.109375 45.453125 
L 18.3125 45.453125 
Q 24.078125 55.28125 35.15625 55.28125 
Q 40.578125 55.28125 44.71875 52.296875 
Q 48.875 49.3125 50.484375 44.234375 
Q 56.5 55.28125 68.453125 55.28125 
Q 86.28125 55.28125 86.28125 33.296875 
z
" id="MicrosoftYaHei-109"/>
       <path d="M 53.125 0 
L 43.5 0 
L 43.5 8.5 
L 43.3125 8.5 
Q 37.890625 -1.265625 26.65625 -1.265625 
Q 7.46875 -1.265625 7.46875 21.6875 
L 7.46875 54 
L 16.9375 54 
L 16.9375 23.09375 
Q 16.9375 6.640625 29.546875 6.640625 
Q 35.796875 6.640625 39.640625 11.25 
Q 43.5 15.875 43.5 22.90625 
L 43.5 54 
L 53.125 54 
z
" id="MicrosoftYaHei-117"/>
      </defs>
      <g transform="translate(153.634375 415.883705)scale(0.12 -0.12)">
       <use xlink:href="#MicrosoftYaHei-111"/>
       <use x="63.574219" xlink:href="#MicrosoftYaHei-114"/>
       <use x="101.757812" xlink:href="#MicrosoftYaHei-105"/>
       <use x="128.369141" xlink:href="#MicrosoftYaHei-103"/>
       <use x="192.333984" xlink:href="#MicrosoftYaHei-105"/>
       <use x="218.945312" xlink:href="#MicrosoftYaHei-110"/>
       <use x="280.566406" xlink:href="#MicrosoftYaHei-97"/>
       <use x="335.839844" xlink:href="#MicrosoftYaHei-108"/>
       <use x="362.451172" xlink:href="#MicrosoftYaHei-95"/>
       <use x="407.275391" xlink:href="#MicrosoftYaHei-102"/>
       <use x="441.943359" xlink:href="#MicrosoftYaHei-105"/>
       <use x="468.554688" xlink:href="#MicrosoftYaHei-114"/>
       <use x="507.488281" xlink:href="#MicrosoftYaHei-115"/>
       <use x="553.777344" xlink:href="#MicrosoftYaHei-116"/>
       <use x="590.158203" xlink:href="#MicrosoftYaHei-111"/>
       <use x="653.732422" xlink:href="#MicrosoftYaHei-114"/>
       <use x="690.541016" xlink:href="#MicrosoftYaHei-100"/>
       <use x="754.505859" xlink:href="#MicrosoftYaHei-101"/>
       <use x="811.244141" xlink:href="#MicrosoftYaHei-114"/>
       <use x="849.427734" xlink:href="#MicrosoftYaHei-95"/>
       <use x="894.251953" xlink:href="#MicrosoftYaHei-77"/>
       <use x="991.957031" xlink:href="#MicrosoftYaHei-105"/>
       <use x="1018.568359" xlink:href="#MicrosoftYaHei-110"/>
       <use x="1080.189453" xlink:href="#MicrosoftYaHei-105"/>
       <use x="1106.800781" xlink:href="#MicrosoftYaHei-109"/>
       <use x="1200.501953" xlink:href="#MicrosoftYaHei-117"/>
       <use x="1262.123047" xlink:href="#MicrosoftYaHei-109"/>
      </g>
     </g>
    </g>
    <g id="ytick_2">
     <g id="line2d_8">
      <g>
       <use style="stroke:#000000;stroke-width:0.8;" x="323.339375" xlink:href="#m3a3871fc96" y="348.891429"/>
      </g>
     </g>
     <g id="text_8">
      <!-- original_glrlm_ShortRunEmphasis -->
      <defs>
       <path d="M 6.25 14.203125 
Q 9.71875 11.1875 15.53125 9.234375 
Q 21.34375 7.28125 26.5625 7.28125 
Q 42.484375 7.28125 42.484375 18.609375 
Q 42.484375 21.78125 40.765625 24.3125 
Q 39.0625 26.859375 36.078125 28.8125 
Q 33.109375 30.765625 24.90625 34.8125 
Q 13.53125 40.484375 9.90625 45.34375 
Q 6.296875 50.203125 6.296875 56.453125 
Q 6.296875 65.875 13.859375 71.390625 
Q 21.4375 76.90625 32.953125 76.90625 
Q 44.234375 76.90625 49.515625 74.171875 
L 49.515625 63.53125 
Q 42.671875 68.265625 32.234375 68.265625 
Q 25.296875 68.265625 20.921875 65.359375 
Q 16.546875 62.453125 16.546875 57.28125 
Q 16.546875 52.6875 19.578125 49.796875 
Q 22.609375 46.921875 32.71875 41.9375 
Q 43.84375 36.625 48.28125 31.296875 
Q 52.734375 25.984375 52.734375 19.34375 
Q 52.734375 9.375 45.5 4.046875 
Q 38.28125 -1.265625 25.4375 -1.265625 
Q 20.953125 -1.265625 14.96875 -0.015625 
Q 8.984375 1.21875 6.25 3.078125 
z
" id="MicrosoftYaHei-83"/>
       <path d="M 54.15625 0 
L 44.625 0 
L 44.625 31.0625 
Q 44.625 47.359375 32.515625 47.359375 
Q 26.3125 47.359375 22.203125 42.59375 
Q 18.109375 37.84375 18.109375 30.609375 
L 18.109375 0 
L 8.546875 0 
L 8.546875 79.9375 
L 18.109375 79.9375 
L 18.109375 45.125 
L 18.3125 45.125 
Q 24.515625 55.28125 35.9375 55.28125 
Q 54.15625 55.28125 54.15625 33.25 
z
" id="MicrosoftYaHei-104"/>
       <path d="M 64.984375 0 
L 53.46875 0 
L 40.921875 21 
Q 37.15625 27.296875 34.03125 29.5625 
Q 30.90625 31.84375 26.5625 31.84375 
L 19.53125 31.84375 
L 19.53125 0 
L 9.765625 0 
L 9.765625 75.640625 
L 32.8125 75.640625 
Q 43.84375 75.640625 50.09375 70.3125 
Q 56.34375 64.984375 56.34375 55.421875 
Q 56.34375 39.703125 39.546875 35.015625 
L 39.546875 34.765625 
Q 42.671875 33.453125 44.9375 31 
Q 47.21875 28.5625 50.828125 22.65625 
z
M 19.53125 67.09375 
L 19.53125 40.375 
L 31.0625 40.375 
Q 37.75 40.375 41.921875 44.28125 
Q 46.09375 48.1875 46.09375 54.546875 
Q 46.09375 60.453125 42.28125 63.765625 
Q 38.484375 67.09375 31.203125 67.09375 
z
" id="MicrosoftYaHei-82"/>
       <path d="M 50.4375 0 
L 9.765625 0 
L 9.765625 75.640625 
L 48.734375 75.640625 
L 48.734375 66.9375 
L 19.53125 66.9375 
L 19.53125 42.71875 
L 46.578125 42.71875 
L 46.578125 34.078125 
L 19.53125 34.078125 
L 19.53125 8.640625 
L 50.4375 8.640625 
z
" id="MicrosoftYaHei-69"/>
       <path d="M 18.109375 7.625 
L 18.109375 -24.859375 
L 8.546875 -24.859375 
L 8.546875 54 
L 18.109375 54 
L 18.109375 44.671875 
L 18.3125 44.671875 
Q 24.65625 55.28125 36.859375 55.28125 
Q 47.21875 55.28125 53.09375 48.015625 
Q 58.984375 40.765625 58.984375 28.5625 
Q 58.984375 15.09375 52.3125 6.90625 
Q 45.65625 -1.265625 34.375 -1.265625 
Q 23.96875 -1.265625 18.3125 7.625 
z
M 18.0625 22.265625 
Q 18.0625 15.671875 22.3125 11.15625 
Q 26.5625 6.640625 32.953125 6.640625 
Q 40.578125 6.640625 44.875 12.5 
Q 49.171875 18.359375 49.171875 28.71875 
Q 49.171875 37.453125 45.15625 42.40625 
Q 41.15625 47.359375 34.234375 47.359375 
Q 27.15625 47.359375 22.609375 42.328125 
Q 18.0625 37.3125 18.0625 29.4375 
z
" id="MicrosoftYaHei-112"/>
      </defs>
      <g transform="translate(124.36375 353.687679)scale(0.12 -0.12)">
       <use xlink:href="#MicrosoftYaHei-111"/>
       <use x="63.574219" xlink:href="#MicrosoftYaHei-114"/>
       <use x="101.757812" xlink:href="#MicrosoftYaHei-105"/>
       <use x="128.369141" xlink:href="#MicrosoftYaHei-103"/>
       <use x="192.333984" xlink:href="#MicrosoftYaHei-105"/>
       <use x="218.945312" xlink:href="#MicrosoftYaHei-110"/>
       <use x="280.566406" xlink:href="#MicrosoftYaHei-97"/>
       <use x="335.839844" xlink:href="#MicrosoftYaHei-108"/>
       <use x="362.451172" xlink:href="#MicrosoftYaHei-95"/>
       <use x="407.275391" xlink:href="#MicrosoftYaHei-103"/>
       <use x="471.240234" xlink:href="#MicrosoftYaHei-108"/>
       <use x="497.851562" xlink:href="#MicrosoftYaHei-114"/>
       <use x="536.035156" xlink:href="#MicrosoftYaHei-108"/>
       <use x="562.646484" xlink:href="#MicrosoftYaHei-109"/>
       <use x="656.347656" xlink:href="#MicrosoftYaHei-95"/>
       <use x="701.171875" xlink:href="#MicrosoftYaHei-83"/>
       <use x="758.886719" xlink:href="#MicrosoftYaHei-104"/>
       <use x="820.458984" xlink:href="#MicrosoftYaHei-111"/>
       <use x="884.033203" xlink:href="#MicrosoftYaHei-114"/>
       <use x="925.341797" xlink:href="#MicrosoftYaHei-116"/>
       <use x="962.597656" xlink:href="#MicrosoftYaHei-82"/>
       <use x="1027.880859" xlink:href="#MicrosoftYaHei-117"/>
       <use x="1089.501953" xlink:href="#MicrosoftYaHei-110"/>
       <use x="1151.123047" xlink:href="#MicrosoftYaHei-69"/>
       <use x="1206.103516" xlink:href="#MicrosoftYaHei-109"/>
       <use x="1299.804688" xlink:href="#MicrosoftYaHei-112"/>
       <use x="1363.671875" xlink:href="#MicrosoftYaHei-104"/>
       <use x="1425.244141" xlink:href="#MicrosoftYaHei-97"/>
       <use x="1480.517578" xlink:href="#MicrosoftYaHei-115"/>
       <use x="1526.806641" xlink:href="#MicrosoftYaHei-105"/>
       <use x="1553.417969" xlink:href="#MicrosoftYaHei-115"/>
      </g>
     </g>
    </g>
    <g id="ytick_3">
     <g id="line2d_9">
      <g>
       <use style="stroke:#000000;stroke-width:0.8;" x="323.339375" xlink:href="#m3a3871fc96" y="286.765714"/>
      </g>
     </g>
     <g id="text_9">
      <!-- original_glrlm_LongRunLowGrayLevelEmphasis -->
      <defs>
       <path d="M 49.65625 0 
L 9.765625 0 
L 9.765625 75.640625 
L 19.53125 75.640625 
L 19.53125 8.640625 
L 49.65625 8.640625 
z
" id="MicrosoftYaHei-76"/>
       <path d="M 77.734375 54 
L 61.625 0 
L 51.65625 0 
L 40.921875 37.890625 
Q 40.234375 40.328125 40.046875 43.0625 
L 39.84375 43.0625 
Q 39.703125 41.015625 38.71875 37.984375 
L 27.09375 0 
L 17.4375 0 
L 1.21875 54 
L 11.1875 54 
L 21.96875 13.96875 
Q 22.46875 12.15625 22.703125 9.03125 
L 23.09375 9.03125 
Q 23.296875 11.71875 24.03125 14.109375 
L 35.640625 54 
L 44.484375 54 
L 55.8125 13.921875 
Q 56.296875 12.15625 56.59375 8.9375 
L 57.03125 8.9375 
Q 57.125 11.078125 57.90625 13.921875 
L 68.453125 54 
z
" id="MicrosoftYaHei-119"/>
       <path d="M 66.9375 5.171875 
Q 55.609375 -1.265625 41.359375 -1.265625 
Q 24.953125 -1.265625 14.921875 9.109375 
Q 4.890625 19.484375 4.890625 36.8125 
Q 4.890625 54.34375 15.96875 65.625 
Q 27.046875 76.90625 44.390625 76.90625 
Q 56.640625 76.90625 65.140625 73 
L 65.140625 62.453125 
Q 56.0625 68.171875 43.5 68.171875 
Q 31.15625 68.171875 23.140625 59.71875 
Q 15.140625 51.265625 15.140625 37.453125 
Q 15.140625 23.25 22.515625 15.328125 
Q 29.890625 7.421875 42.4375 7.421875 
Q 51.078125 7.421875 57.125 10.75 
L 57.125 31.203125 
L 40.71875 31.203125 
L 40.71875 39.84375 
L 66.9375 39.84375 
z
" id="MicrosoftYaHei-71"/>
       <path d="M 52.484375 54 
L 27.984375 -8.15625 
Q 21.140625 -25.4375 8.6875 -25.4375 
Q 5.125 -25.4375 2.59375 -24.65625 
L 2.59375 -16.265625 
Q 5.375 -17.328125 7.953125 -17.328125 
Q 14.453125 -17.328125 17.671875 -9.71875 
L 21.828125 0.09375 
L 0.640625 54 
L 11.234375 54 
L 25.34375 13.421875 
L 26.515625 8.984375 
L 26.765625 8.984375 
Q 27.046875 10.5 27.9375 13.328125 
L 42.671875 54 
z
" id="MicrosoftYaHei-121"/>
       <path d="M 52.046875 54 
L 30.671875 0 
L 21 0 
L 0.6875 54 
L 11.140625 54 
L 24.3125 15.4375 
Q 25.921875 10.796875 26.21875 7.671875 
L 26.46875 7.671875 
Q 26.953125 11.765625 28.171875 15.234375 
L 42 54 
z
" id="MicrosoftYaHei-118"/>
      </defs>
      <g transform="translate(47.935 291.561964)scale(0.12 -0.12)">
       <use xlink:href="#MicrosoftYaHei-111"/>
       <use x="63.574219" xlink:href="#MicrosoftYaHei-114"/>
       <use x="101.757812" xlink:href="#MicrosoftYaHei-105"/>
       <use x="128.369141" xlink:href="#MicrosoftYaHei-103"/>
       <use x="192.333984" xlink:href="#MicrosoftYaHei-105"/>
       <use x="218.945312" xlink:href="#MicrosoftYaHei-110"/>
       <use x="280.566406" xlink:href="#MicrosoftYaHei-97"/>
       <use x="335.839844" xlink:href="#MicrosoftYaHei-108"/>
       <use x="362.451172" xlink:href="#MicrosoftYaHei-95"/>
       <use x="407.275391" xlink:href="#MicrosoftYaHei-103"/>
       <use x="471.240234" xlink:href="#MicrosoftYaHei-108"/>
       <use x="497.851562" xlink:href="#MicrosoftYaHei-114"/>
       <use x="536.035156" xlink:href="#MicrosoftYaHei-108"/>
       <use x="562.646484" xlink:href="#MicrosoftYaHei-109"/>
       <use x="656.347656" xlink:href="#MicrosoftYaHei-95"/>
       <use x="701.171875" xlink:href="#MicrosoftYaHei-76"/>
       <use x="752.490234" xlink:href="#MicrosoftYaHei-111"/>
       <use x="816.064453" xlink:href="#MicrosoftYaHei-110"/>
       <use x="877.685547" xlink:href="#MicrosoftYaHei-103"/>
       <use x="941.650391" xlink:href="#MicrosoftYaHei-82"/>
       <use x="1006.933594" xlink:href="#MicrosoftYaHei-117"/>
       <use x="1068.554688" xlink:href="#MicrosoftYaHei-110"/>
       <use x="1130.175781" xlink:href="#MicrosoftYaHei-76"/>
       <use x="1181.494141" xlink:href="#MicrosoftYaHei-111"/>
       <use x="1245.068359" xlink:href="#MicrosoftYaHei-119"/>
       <use x="1324.023438" xlink:href="#MicrosoftYaHei-71"/>
       <use x="1398.388672" xlink:href="#MicrosoftYaHei-114"/>
       <use x="1436.572266" xlink:href="#MicrosoftYaHei-97"/>
       <use x="1491.845703" xlink:href="#MicrosoftYaHei-121"/>
       <use x="1544.775391" xlink:href="#MicrosoftYaHei-76"/>
       <use x="1596.09375" xlink:href="#MicrosoftYaHei-101"/>
       <use x="1652.832031" xlink:href="#MicrosoftYaHei-118"/>
       <use x="1704.697266" xlink:href="#MicrosoftYaHei-101"/>
       <use x="1761.435547" xlink:href="#MicrosoftYaHei-108"/>
       <use x="1788.046875" xlink:href="#MicrosoftYaHei-69"/>
       <use x="1843.027344" xlink:href="#MicrosoftYaHei-109"/>
       <use x="1936.728516" xlink:href="#MicrosoftYaHei-112"/>
       <use x="2000.595703" xlink:href="#MicrosoftYaHei-104"/>
       <use x="2062.167969" xlink:href="#MicrosoftYaHei-97"/>
       <use x="2117.441406" xlink:href="#MicrosoftYaHei-115"/>
       <use x="2163.730469" xlink:href="#MicrosoftYaHei-105"/>
       <use x="2190.341797" xlink:href="#MicrosoftYaHei-115"/>
      </g>
     </g>
    </g>
    <g id="ytick_4">
     <g id="line2d_10">
      <g>
       <use style="stroke:#000000;stroke-width:0.8;" x="323.339375" xlink:href="#m3a3871fc96" y="224.64"/>
      </g>
     </g>
     <g id="text_10">
      <!-- original_firstorder_Energy -->
      <g transform="translate(169.77625 229.506562)scale(0.12 -0.12)">
       <use xlink:href="#MicrosoftYaHei-111"/>
       <use x="63.574219" xlink:href="#MicrosoftYaHei-114"/>
       <use x="101.757812" xlink:href="#MicrosoftYaHei-105"/>
       <use x="128.369141" xlink:href="#MicrosoftYaHei-103"/>
       <use x="192.333984" xlink:href="#MicrosoftYaHei-105"/>
       <use x="218.945312" xlink:href="#MicrosoftYaHei-110"/>
       <use x="280.566406" xlink:href="#MicrosoftYaHei-97"/>
       <use x="335.839844" xlink:href="#MicrosoftYaHei-108"/>
       <use x="362.451172" xlink:href="#MicrosoftYaHei-95"/>
       <use x="407.275391" xlink:href="#MicrosoftYaHei-102"/>
       <use x="441.943359" xlink:href="#MicrosoftYaHei-105"/>
       <use x="468.554688" xlink:href="#MicrosoftYaHei-114"/>
       <use x="507.488281" xlink:href="#MicrosoftYaHei-115"/>
       <use x="553.777344" xlink:href="#MicrosoftYaHei-116"/>
       <use x="590.158203" xlink:href="#MicrosoftYaHei-111"/>
       <use x="653.732422" xlink:href="#MicrosoftYaHei-114"/>
       <use x="690.541016" xlink:href="#MicrosoftYaHei-100"/>
       <use x="754.505859" xlink:href="#MicrosoftYaHei-101"/>
       <use x="811.244141" xlink:href="#MicrosoftYaHei-114"/>
       <use x="849.427734" xlink:href="#MicrosoftYaHei-95"/>
       <use x="894.251953" xlink:href="#MicrosoftYaHei-69"/>
       <use x="949.232422" xlink:href="#MicrosoftYaHei-110"/>
       <use x="1010.853516" xlink:href="#MicrosoftYaHei-101"/>
       <use x="1067.591797" xlink:href="#MicrosoftYaHei-114"/>
       <use x="1104.400391" xlink:href="#MicrosoftYaHei-103"/>
       <use x="1168.365234" xlink:href="#MicrosoftYaHei-121"/>
      </g>
     </g>
    </g>
    <g id="ytick_5">
     <g id="line2d_11">
      <g>
       <use style="stroke:#000000;stroke-width:0.8;" x="323.339375" xlink:href="#m3a3871fc96" y="162.514286"/>
      </g>
     </g>
     <g id="text_11">
      <!-- original_glrlm_GrayLevelNonUniformityNormalized -->
      <defs>
       <path d="M 71.53125 0 
L 59.96875 0 
L 21.921875 58.84375 
Q 20.3125 61.328125 19.34375 63.765625 
L 19.046875 63.765625 
Q 19.4375 61.234375 19.4375 53.171875 
L 19.4375 0 
L 9.765625 0 
L 9.765625 75.640625 
L 22.015625 75.640625 
L 59.03125 17.828125 
Q 61.671875 13.71875 62.15625 12.59375 
L 62.359375 12.59375 
Q 61.859375 15.828125 61.859375 23.640625 
L 61.859375 75.640625 
L 71.53125 75.640625 
z
" id="MicrosoftYaHei-78"/>
       <path d="M 65.828125 30.8125 
Q 65.828125 -1.265625 36.71875 -1.265625 
Q 8.84375 -1.265625 8.84375 29.6875 
L 8.84375 75.640625 
L 18.609375 75.640625 
L 18.609375 30.125 
Q 18.609375 7.421875 37.640625 7.421875 
Q 56.0625 7.421875 56.0625 29.390625 
L 56.0625 75.640625 
L 65.828125 75.640625 
z
" id="MicrosoftYaHei-85"/>
       <path d="M 46.53125 0 
L 1.703125 0 
L 1.703125 3.171875 
L 33.109375 46.09375 
L 4.640625 46.09375 
L 4.640625 54 
L 46.734375 54 
L 46.734375 50.875 
L 15.53125 7.90625 
L 46.53125 7.90625 
z
" id="MicrosoftYaHei-122"/>
      </defs>
      <g transform="translate(23.996875 167.380848)scale(0.12 -0.12)">
       <use xlink:href="#MicrosoftYaHei-111"/>
       <use x="63.574219" xlink:href="#MicrosoftYaHei-114"/>
       <use x="101.757812" xlink:href="#MicrosoftYaHei-105"/>
       <use x="128.369141" xlink:href="#MicrosoftYaHei-103"/>
       <use x="192.333984" xlink:href="#MicrosoftYaHei-105"/>
       <use x="218.945312" xlink:href="#MicrosoftYaHei-110"/>
       <use x="280.566406" xlink:href="#MicrosoftYaHei-97"/>
       <use x="335.839844" xlink:href="#MicrosoftYaHei-108"/>
       <use x="362.451172" xlink:href="#MicrosoftYaHei-95"/>
       <use x="407.275391" xlink:href="#MicrosoftYaHei-103"/>
       <use x="471.240234" xlink:href="#MicrosoftYaHei-108"/>
       <use x="497.851562" xlink:href="#MicrosoftYaHei-114"/>
       <use x="536.035156" xlink:href="#MicrosoftYaHei-108"/>
       <use x="562.646484" xlink:href="#MicrosoftYaHei-109"/>
       <use x="656.347656" xlink:href="#MicrosoftYaHei-95"/>
       <use x="701.171875" xlink:href="#MicrosoftYaHei-71"/>
       <use x="775.537109" xlink:href="#MicrosoftYaHei-114"/>
       <use x="813.720703" xlink:href="#MicrosoftYaHei-97"/>
       <use x="868.994141" xlink:href="#MicrosoftYaHei-121"/>
       <use x="921.923828" xlink:href="#MicrosoftYaHei-76"/>
       <use x="973.242188" xlink:href="#MicrosoftYaHei-101"/>
       <use x="1029.980469" xlink:href="#MicrosoftYaHei-118"/>
       <use x="1081.845703" xlink:href="#MicrosoftYaHei-101"/>
       <use x="1138.583984" xlink:href="#MicrosoftYaHei-108"/>
       <use x="1165.195312" xlink:href="#MicrosoftYaHei-78"/>
       <use x="1246.494141" xlink:href="#MicrosoftYaHei-111"/>
       <use x="1310.068359" xlink:href="#MicrosoftYaHei-110"/>
       <use x="1371.689453" xlink:href="#MicrosoftYaHei-85"/>
       <use x="1446.347656" xlink:href="#MicrosoftYaHei-110"/>
       <use x="1507.96875" xlink:href="#MicrosoftYaHei-105"/>
       <use x="1534.580078" xlink:href="#MicrosoftYaHei-102"/>
       <use x="1569.248047" xlink:href="#MicrosoftYaHei-111"/>
       <use x="1632.822266" xlink:href="#MicrosoftYaHei-114"/>
       <use x="1670.755859" xlink:href="#MicrosoftYaHei-109"/>
       <use x="1764.457031" xlink:href="#MicrosoftYaHei-105"/>
       <use x="1791.068359" xlink:href="#MicrosoftYaHei-116"/>
       <use x="1828.324219" xlink:href="#MicrosoftYaHei-121"/>
       <use x="1881.253906" xlink:href="#MicrosoftYaHei-78"/>
       <use x="1962.552734" xlink:href="#MicrosoftYaHei-111"/>
       <use x="2026.126953" xlink:href="#MicrosoftYaHei-114"/>
       <use x="2064.060547" xlink:href="#MicrosoftYaHei-109"/>
       <use x="2157.761719" xlink:href="#MicrosoftYaHei-97"/>
       <use x="2213.035156" xlink:href="#MicrosoftYaHei-108"/>
       <use x="2239.646484" xlink:href="#MicrosoftYaHei-105"/>
       <use x="2266.257812" xlink:href="#MicrosoftYaHei-122"/>
       <use x="2315.427734" xlink:href="#MicrosoftYaHei-101"/>
       <use x="2372.166016" xlink:href="#MicrosoftYaHei-100"/>
      </g>
     </g>
    </g>
    <g id="ytick_6">
     <g id="line2d_12">
      <g>
       <use style="stroke:#000000;stroke-width:0.8;" x="323.339375" xlink:href="#m3a3871fc96" y="100.388571"/>
      </g>
     </g>
     <g id="text_12">
      <!-- original_firstorder_Kurtosis -->
      <defs>
       <path d="M 63.578125 0 
L 50.203125 0 
L 21.78125 34.375 
Q 20.3125 36.1875 19.78125 37.203125 
L 19.53125 37.203125 
L 19.53125 0 
L 9.765625 0 
L 9.765625 75.640625 
L 19.53125 75.640625 
L 19.53125 40.046875 
L 19.78125 40.046875 
Q 20.609375 41.359375 21.78125 42.828125 
L 49.21875 75.640625 
L 61.28125 75.640625 
L 29.546875 39.359375 
z
" id="MicrosoftYaHei-75"/>
      </defs>
      <g transform="translate(162.754375 105.255134)scale(0.12 -0.12)">
       <use xlink:href="#MicrosoftYaHei-111"/>
       <use x="63.574219" xlink:href="#MicrosoftYaHei-114"/>
       <use x="101.757812" xlink:href="#MicrosoftYaHei-105"/>
       <use x="128.369141" xlink:href="#MicrosoftYaHei-103"/>
       <use x="192.333984" xlink:href="#MicrosoftYaHei-105"/>
       <use x="218.945312" xlink:href="#MicrosoftYaHei-110"/>
       <use x="280.566406" xlink:href="#MicrosoftYaHei-97"/>
       <use x="335.839844" xlink:href="#MicrosoftYaHei-108"/>
       <use x="362.451172" xlink:href="#MicrosoftYaHei-95"/>
       <use x="407.275391" xlink:href="#MicrosoftYaHei-102"/>
       <use x="441.943359" xlink:href="#MicrosoftYaHei-105"/>
       <use x="468.554688" xlink:href="#MicrosoftYaHei-114"/>
       <use x="507.488281" xlink:href="#MicrosoftYaHei-115"/>
       <use x="553.777344" xlink:href="#MicrosoftYaHei-116"/>
       <use x="590.158203" xlink:href="#MicrosoftYaHei-111"/>
       <use x="653.732422" xlink:href="#MicrosoftYaHei-114"/>
       <use x="690.541016" xlink:href="#MicrosoftYaHei-100"/>
       <use x="754.505859" xlink:href="#MicrosoftYaHei-101"/>
       <use x="811.244141" xlink:href="#MicrosoftYaHei-114"/>
       <use x="849.427734" xlink:href="#MicrosoftYaHei-95"/>
       <use x="894.251953" xlink:href="#MicrosoftYaHei-75"/>
       <use x="957.728516" xlink:href="#MicrosoftYaHei-117"/>
       <use x="1019.349609" xlink:href="#MicrosoftYaHei-114"/>
       <use x="1060.658203" xlink:href="#MicrosoftYaHei-116"/>
       <use x="1097.039062" xlink:href="#MicrosoftYaHei-111"/>
       <use x="1160.613281" xlink:href="#MicrosoftYaHei-115"/>
       <use x="1206.902344" xlink:href="#MicrosoftYaHei-105"/>
       <use x="1233.513672" xlink:href="#MicrosoftYaHei-115"/>
      </g>
     </g>
    </g>
    <g id="ytick_7">
     <g id="line2d_13">
      <g>
       <use style="stroke:#000000;stroke-width:0.8;" x="323.339375" xlink:href="#m3a3871fc96" y="38.262857"/>
      </g>
     </g>
     <g id="text_13">
      <!-- original_gldm_DependenceVariance -->
      <defs>
       <path d="M 9.765625 0 
L 9.765625 75.640625 
L 31.34375 75.640625 
Q 48.53125 75.640625 59.9375 65.625 
Q 71.34375 55.609375 71.34375 38.765625 
Q 71.34375 21.1875 59.9375 10.59375 
Q 48.53125 0 30.5625 0 
z
M 19.53125 66.9375 
L 19.53125 8.640625 
L 30.515625 8.640625 
Q 44.921875 8.640625 53 16.5 
Q 61.078125 24.359375 61.078125 38.53125 
Q 61.078125 52.6875 52.78125 59.8125 
Q 44.484375 66.9375 30.953125 66.9375 
z
" id="MicrosoftYaHei-68"/>
       <path d="M 45.84375 2.4375 
Q 39.65625 -1.265625 30.90625 -1.265625 
Q 19.1875 -1.265625 12.0625 6.25 
Q 4.9375 13.765625 4.9375 25.734375 
Q 4.9375 39.015625 12.625 47.140625 
Q 20.3125 55.28125 33.203125 55.28125 
Q 40.625 55.28125 45.90625 52.640625 
L 45.90625 43.171875 
Q 40.1875 47.359375 33.203125 47.359375 
Q 25 47.359375 19.84375 41.671875 
Q 14.703125 35.984375 14.703125 26.515625 
Q 14.703125 17.1875 19.5625 11.90625 
Q 24.421875 6.640625 32.671875 6.640625 
Q 39.65625 6.640625 45.84375 11.234375 
z
" id="MicrosoftYaHei-99"/>
       <path d="M 66.75 75.640625 
L 38.96875 0 
L 28.125 0 
L 0.875 75.640625 
L 11.71875 75.640625 
L 32.078125 16.5 
Q 33.109375 13.578125 33.59375 9.71875 
L 33.84375 9.71875 
Q 34.234375 13.09375 35.546875 16.609375 
L 56.296875 75.640625 
z
" id="MicrosoftYaHei-86"/>
      </defs>
      <g transform="translate(111.325 43.059107)scale(0.12 -0.12)">
       <use xlink:href="#MicrosoftYaHei-111"/>
       <use x="63.574219" xlink:href="#MicrosoftYaHei-114"/>
       <use x="101.757812" xlink:href="#MicrosoftYaHei-105"/>
       <use x="128.369141" xlink:href="#MicrosoftYaHei-103"/>
       <use x="192.333984" xlink:href="#MicrosoftYaHei-105"/>
       <use x="218.945312" xlink:href="#MicrosoftYaHei-110"/>
       <use x="280.566406" xlink:href="#MicrosoftYaHei-97"/>
       <use x="335.839844" xlink:href="#MicrosoftYaHei-108"/>
       <use x="362.451172" xlink:href="#MicrosoftYaHei-95"/>
       <use x="407.275391" xlink:href="#MicrosoftYaHei-103"/>
       <use x="471.240234" xlink:href="#MicrosoftYaHei-108"/>
       <use x="497.851562" xlink:href="#MicrosoftYaHei-100"/>
       <use x="561.816406" xlink:href="#MicrosoftYaHei-109"/>
       <use x="655.517578" xlink:href="#MicrosoftYaHei-95"/>
       <use x="700.341797" xlink:href="#MicrosoftYaHei-68"/>
       <use x="776.513672" xlink:href="#MicrosoftYaHei-101"/>
       <use x="833.251953" xlink:href="#MicrosoftYaHei-112"/>
       <use x="897.119141" xlink:href="#MicrosoftYaHei-101"/>
       <use x="953.857422" xlink:href="#MicrosoftYaHei-110"/>
       <use x="1015.478516" xlink:href="#MicrosoftYaHei-100"/>
       <use x="1079.443359" xlink:href="#MicrosoftYaHei-101"/>
       <use x="1136.181641" xlink:href="#MicrosoftYaHei-110"/>
       <use x="1197.802734" xlink:href="#MicrosoftYaHei-99"/>
       <use x="1247.949219" xlink:href="#MicrosoftYaHei-101"/>
       <use x="1304.6875" xlink:href="#MicrosoftYaHei-86"/>
       <use x="1364.564453" xlink:href="#MicrosoftYaHei-97"/>
       <use x="1419.837891" xlink:href="#MicrosoftYaHei-114"/>
       <use x="1458.021484" xlink:href="#MicrosoftYaHei-105"/>
       <use x="1484.632812" xlink:href="#MicrosoftYaHei-97"/>
       <use x="1539.90625" xlink:href="#MicrosoftYaHei-110"/>
       <use x="1601.527344" xlink:href="#MicrosoftYaHei-99"/>
       <use x="1651.673828" xlink:href="#MicrosoftYaHei-101"/>
      </g>
     </g>
    </g>
    <g id="text_14">
     <!-- feature_name -->
     <g transform="translate(16.933125 263.716875)rotate(-90)scale(0.12 -0.12)">
      <use xlink:href="#MicrosoftYaHei-102"/>
      <use x="34.667969" xlink:href="#MicrosoftYaHei-101"/>
      <use x="91.40625" xlink:href="#MicrosoftYaHei-97"/>
      <use x="146.679688" xlink:href="#MicrosoftYaHei-116"/>
      <use x="183.935547" xlink:href="#MicrosoftYaHei-117"/>
      <use x="245.556641" xlink:href="#MicrosoftYaHei-114"/>
      <use x="282.365234" xlink:href="#MicrosoftYaHei-101"/>
      <use x="339.103516" xlink:href="#MicrosoftYaHei-95"/>
      <use x="383.927734" xlink:href="#MicrosoftYaHei-110"/>
      <use x="445.548828" xlink:href="#MicrosoftYaHei-97"/>
      <use x="500.822266" xlink:href="#MicrosoftYaHei-109"/>
      <use x="594.523438" xlink:href="#MicrosoftYaHei-101"/>
     </g>
    </g>
   </g>
   <g id="patch_10">
    <path d="M 323.339375 442.08 
L 323.339375 7.2 
" style="fill:none;stroke:#000000;stroke-linecap:square;stroke-linejoin:miter;stroke-width:0.8;"/>
   </g>
   <g id="patch_11">
    <path d="M 881.339375 442.08 
L 881.339375 7.2 
" style="fill:none;stroke:#000000;stroke-linecap:square;stroke-linejoin:miter;stroke-width:0.8;"/>
   </g>
   <g id="patch_12">
    <path d="M 323.339375 442.08 
L 881.339375 442.08 
" style="fill:none;stroke:#000000;stroke-linecap:square;stroke-linejoin:miter;stroke-width:0.8;"/>
   </g>
   <g id="patch_13">
    <path d="M 323.339375 7.2 
L 881.339375 7.2 
" style="fill:none;stroke:#000000;stroke-linecap:square;stroke-linejoin:miter;stroke-width:0.8;"/>
   </g>
   <g id="legend_1">
    <g id="patch_14">
     <path d="M 767.121875 436.08 
L 872.939375 436.08 
Q 875.339375 436.08 875.339375 433.68 
L 875.339375 416.304375 
Q 875.339375 413.904375 872.939375 413.904375 
L 767.121875 413.904375 
Q 764.721875 413.904375 764.721875 416.304375 
L 764.721875 433.68 
Q 764.721875 436.08 767.121875 436.08 
z
" style="fill:#ffffff;opacity:0.8;stroke:#cccccc;stroke-linejoin:miter;"/>
    </g>
    <g id="patch_15">
     <path d="M 769.521875 428.296875 
L 793.521875 428.296875 
L 793.521875 419.896875 
L 769.521875 419.896875 
z
" style="fill:#1f77b4;"/>
    </g>
    <g id="text_15">
     <!-- Coefficients -->
     <defs>
      <path d="M 61.53125 3.125 
Q 53.171875 -1.265625 40.578125 -1.265625 
Q 24.3125 -1.265625 14.59375 9.0625 
Q 4.890625 19.390625 4.890625 36.375 
Q 4.890625 54.640625 15.828125 65.765625 
Q 26.765625 76.90625 43.609375 76.90625 
Q 54.4375 76.90625 61.53125 73.828125 
L 61.53125 63.625 
Q 53.421875 68.109375 43.703125 68.109375 
Q 31.0625 68.109375 23.09375 59.6875 
Q 15.140625 51.265625 15.140625 36.96875 
Q 15.140625 23.390625 22.5625 15.40625 
Q 29.984375 7.421875 42 7.421875 
Q 53.21875 7.421875 61.53125 12.5 
z
" id="MicrosoftYaHei-67"/>
     </defs>
     <g transform="translate(803.121875 428.296875)scale(0.12 -0.12)">
      <use xlink:href="#MicrosoftYaHei-67"/>
      <use x="66.894531" xlink:href="#MicrosoftYaHei-111"/>
      <use x="130.46875" xlink:href="#MicrosoftYaHei-101"/>
      <use x="187.207031" xlink:href="#MicrosoftYaHei-102"/>
      <use x="221.875" xlink:href="#MicrosoftYaHei-102"/>
      <use x="256.542969" xlink:href="#MicrosoftYaHei-105"/>
      <use x="283.154297" xlink:href="#MicrosoftYaHei-99"/>
      <use x="333.300781" xlink:href="#MicrosoftYaHei-105"/>
      <use x="359.912109" xlink:href="#MicrosoftYaHei-101"/>
      <use x="416.650391" xlink:href="#MicrosoftYaHei-110"/>
      <use x="478.271484" xlink:href="#MicrosoftYaHei-116"/>
      <use x="515.527344" xlink:href="#MicrosoftYaHei-115"/>
     </g>
    </g>
   </g>
  </g>
 </g>
 <defs>
  <clipPath id="p58f1742c33">
   <rect height="434.88" width="558" x="323.339375" y="7.2"/>
  </clipPath>
 </defs>
</svg>
