<?xml version="1.0" encoding="utf-8" standalone="no"?>
<!DOCTYPE svg PUBLIC "-//W3C//DTD SVG 1.1//EN"
  "http://www.w3.org/Graphics/SVG/1.1/DTD/svg11.dtd">
<!-- Created with matplotlib (https://matplotlib.org/) -->
<svg height="645.900625pt" version="1.1" viewBox="0 0 910.5875 645.900625" width="910.5875pt" xmlns="http://www.w3.org/2000/svg" xmlns:xlink="http://www.w3.org/1999/xlink">
 <defs>
  <style type="text/css">
*{stroke-linecap:butt;stroke-linejoin:round;}
  </style>
 </defs>
 <g id="figure_1">
  <g id="patch_1">
   <path d="M 0 645.900625 
L 910.5875 645.900625 
L 910.5875 0 
L 0 0 
z
" style="fill:#ffffff;"/>
  </g>
  <g id="axes_1">
   <g id="patch_2">
    <path d="M 59.9675 602.48 
L 903.3875 602.48 
L 903.3875 7.2 
L 59.9675 7.2 
z
" style="fill:#ffffff;"/>
   </g>
   <g id="PolyCollection_1">
    <defs>
     <path d="M 122.7528 -111.391807 
L 117.670772 -111.391807 
L 117.055902 -116.001561 
L 116.335988 -120.611316 
L 115.504872 -125.221071 
L 114.559081 -129.830826 
L 113.498548 -134.440581 
L 112.327269 -139.050336 
L 111.053838 -143.66009 
L 109.691801 -148.269845 
L 108.259774 -152.8796 
L 106.781287 -157.489355 
L 105.284315 -162.09911 
L 103.800505 -166.708864 
L 102.364114 -171.318619 
L 101.010693 -175.928374 
L 99.775608 -180.538129 
L 98.692461 -185.147884 
L 97.791527 -189.757639 
L 97.098309 -194.367393 
L 96.632306 -198.977148 
L 96.406081 -203.586903 
L 96.424696 -208.196658 
L 96.685545 -212.806413 
L 97.178588 -217.416167 
L 97.886976 -222.025922 
L 98.787987 -226.635677 
L 99.854229 -231.245432 
L 101.055001 -235.855187 
L 102.357717 -240.464942 
L 103.729321 -245.074696 
L 105.137587 -249.684451 
L 106.552244 -254.294206 
L 107.945897 -258.903961 
L 109.294685 -263.513716 
L 110.578699 -268.12347 
L 111.78216 -272.733225 
L 112.893384 -277.34298 
L 113.904566 -281.952735 
L 114.811442 -286.56249 
L 115.612856 -291.172245 
L 116.310275 -295.781999 
L 116.907304 -300.391754 
L 117.409207 -305.001509 
L 117.822475 -309.611264 
L 118.154449 -314.221019 
L 118.412997 -318.830773 
L 118.606254 -323.440528 
L 118.742422 -328.050283 
L 118.829607 -332.660038 
L 118.875703 -337.269793 
L 118.888294 -341.879548 
L 118.874576 -346.489302 
L 118.841283 -351.099057 
L 118.794619 -355.708812 
L 118.740184 -360.318567 
L 118.682907 -364.928322 
L 118.626973 -369.538076 
L 118.575769 -374.147831 
L 118.531838 -378.757586 
L 118.496859 -383.367341 
L 118.471658 -387.977096 
L 118.456249 -392.586851 
L 118.44992 -397.196605 
L 118.451346 -401.80636 
L 118.458738 -406.416115 
L 118.470019 -411.02587 
L 118.483007 -415.635625 
L 118.495606 -420.245379 
L 118.505986 -424.855134 
L 118.512734 -429.464889 
L 118.514973 -434.074644 
L 118.512441 -438.684399 
L 118.505513 -443.294154 
L 118.495176 -447.903908 
L 118.48296 -452.513663 
L 118.470818 -457.123418 
L 118.460982 -461.733173 
L 118.455794 -466.342928 
L 118.457535 -470.952682 
L 118.468257 -475.562437 
L 118.489638 -480.172192 
L 118.522866 -484.781947 
L 118.56856 -489.391702 
L 118.626742 -494.001457 
L 118.696837 -498.611211 
L 118.777724 -503.220966 
L 118.867821 -507.830721 
L 118.965186 -512.440476 
L 119.067645 -517.050231 
L 119.172917 -521.659985 
L 119.278739 -526.26974 
L 119.382978 -530.879495 
L 119.483721 -535.48925 
L 119.579348 -540.099005 
L 119.668573 -544.70876 
L 119.750461 -549.318514 
L 119.824429 -553.928269 
L 119.890221 -558.538024 
L 119.947867 -563.147779 
L 119.997641 -567.757534 
L 120.425931 -567.757534 
L 120.425931 -567.757534 
L 120.475705 -563.147779 
L 120.533351 -558.538024 
L 120.599142 -553.928269 
L 120.67311 -549.318514 
L 120.754999 -544.70876 
L 120.844223 -540.099005 
L 120.93985 -535.48925 
L 121.040594 -530.879495 
L 121.144832 -526.26974 
L 121.250654 -521.659985 
L 121.355926 -517.050231 
L 121.458385 -512.440476 
L 121.555751 -507.830721 
L 121.645847 -503.220966 
L 121.726735 -498.611211 
L 121.796829 -494.001457 
L 121.855011 -489.391702 
L 121.900706 -484.781947 
L 121.933933 -480.172192 
L 121.955314 -475.562437 
L 121.966036 -470.952682 
L 121.967778 -466.342928 
L 121.96259 -461.733173 
L 121.952754 -457.123418 
L 121.940612 -452.513663 
L 121.928395 -447.903908 
L 121.918059 -443.294154 
L 121.91113 -438.684399 
L 121.908598 -434.074644 
L 121.910838 -429.464889 
L 121.917585 -424.855134 
L 121.927965 -420.245379 
L 121.940565 -415.635625 
L 121.953553 -411.02587 
L 121.964833 -406.416115 
L 121.972225 -401.80636 
L 121.973651 -397.196605 
L 121.967322 -392.586851 
L 121.951914 -387.977096 
L 121.926712 -383.367341 
L 121.891733 -378.757586 
L 121.847802 -374.147831 
L 121.796598 -369.538076 
L 121.740665 -364.928322 
L 121.683387 -360.318567 
L 121.628952 -355.708812 
L 121.582288 -351.099057 
L 121.548995 -346.489302 
L 121.535277 -341.879548 
L 121.547868 -337.269793 
L 121.593964 -332.660038 
L 121.68115 -328.050283 
L 121.817317 -323.440528 
L 122.010575 -318.830773 
L 122.269122 -314.221019 
L 122.601096 -309.611264 
L 123.014365 -305.001509 
L 123.516267 -300.391754 
L 124.113296 -295.781999 
L 124.810716 -291.172245 
L 125.612129 -286.56249 
L 126.519006 -281.952735 
L 127.530188 -277.34298 
L 128.641411 -272.733225 
L 129.844873 -268.12347 
L 131.128887 -263.513716 
L 132.477674 -258.903961 
L 133.871327 -254.294206 
L 135.285985 -249.684451 
L 136.69425 -245.074696 
L 138.065855 -240.464942 
L 139.368571 -235.855187 
L 140.569342 -231.245432 
L 141.635585 -226.635677 
L 142.536596 -222.025922 
L 143.244983 -217.416167 
L 143.738027 -212.806413 
L 143.998875 -208.196658 
L 144.017491 -203.586903 
L 143.791266 -198.977148 
L 143.325263 -194.367393 
L 142.632045 -189.757639 
L 141.731111 -185.147884 
L 140.647963 -180.538129 
L 139.412878 -175.928374 
L 138.059458 -171.318619 
L 136.623066 -166.708864 
L 135.139256 -162.09911 
L 133.642284 -157.489355 
L 132.163797 -152.8796 
L 130.731771 -148.269845 
L 129.369733 -143.66009 
L 128.096302 -139.050336 
L 126.925023 -134.440581 
L 125.86449 -129.830826 
L 124.918699 -125.221071 
L 124.087583 -120.611316 
L 123.36767 -116.001561 
L 122.7528 -111.391807 
z
" id="m311e43e7d5" style="stroke:#3d3d3d;stroke-width:1.5;"/>
    </defs>
    <g clip-path="url(#p7c1669b28d)">
     <use style="fill:#3274a1;stroke:#3d3d3d;stroke-width:1.5;" x="0" xlink:href="#m311e43e7d5" y="645.900625"/>
    </g>
   </g>
   <g id="PolyCollection_2">
    <defs>
     <path d="M 242.94148 -97.575066 
L 238.459235 -97.575066 
L 238.006955 -102.125651 
L 237.489957 -106.676237 
L 236.905107 -111.226822 
L 236.250499 -115.777408 
L 235.52575 -120.327993 
L 234.732269 -124.878579 
L 233.8735 -129.429164 
L 232.955107 -133.97975 
L 231.985097 -138.530335 
L 230.973851 -143.08092 
L 229.934062 -147.631506 
L 228.880559 -152.182091 
L 227.830027 -156.732677 
L 226.800618 -161.283262 
L 225.811458 -165.833848 
L 224.882081 -170.384433 
L 224.031796 -174.935019 
L 223.279027 -179.485604 
L 222.64065 -184.03619 
L 222.131363 -188.586775 
L 221.763121 -193.137361 
L 221.544666 -197.687946 
L 221.48118 -202.238532 
L 221.574076 -206.789117 
L 221.820938 -211.339702 
L 222.215623 -215.890288 
L 222.748502 -220.440873 
L 223.406844 -224.991459 
L 224.175308 -229.542044 
L 225.036519 -234.09263 
L 225.971705 -238.643215 
L 226.961349 -243.193801 
L 227.985836 -247.744386 
L 229.026056 -252.294972 
L 230.063946 -256.845557 
L 231.082938 -261.396143 
L 232.06832 -265.946728 
L 233.007476 -270.497314 
L 233.890033 -275.047899 
L 234.707897 -279.598485 
L 235.4552 -284.14907 
L 236.128174 -288.699655 
L 236.724956 -293.250241 
L 237.245361 -297.800826 
L 237.690619 -302.351412 
L 238.063109 -306.901997 
L 238.366102 -311.452583 
L 238.603513 -316.003168 
L 238.77969 -320.553754 
L 238.899227 -325.104339 
L 238.966822 -329.654925 
L 238.987166 -334.20551 
L 238.964874 -338.756096 
L 238.90444 -343.306681 
L 238.81023 -347.857267 
L 238.686485 -352.407852 
L 238.537352 -356.958437 
L 238.366912 -361.509023 
L 238.17922 -366.059608 
L 237.978339 -370.610194 
L 237.768363 -375.160779 
L 237.553434 -379.711365 
L 237.337739 -384.26195 
L 237.12549 -388.812536 
L 236.92089 -393.363121 
L 236.728078 -397.913707 
L 236.551064 -402.464292 
L 236.393643 -407.014878 
L 236.25931 -411.565463 
L 236.151164 -416.116049 
L 236.071824 -420.666634 
L 236.023337 -425.21722 
L 236.007116 -429.767805 
L 236.023882 -434.31839 
L 236.073633 -438.868976 
L 236.155641 -443.419561 
L 236.268465 -447.970147 
L 236.409998 -452.520732 
L 236.577539 -457.071318 
L 236.767877 -461.621903 
L 236.9774 -466.172489 
L 237.202219 -470.723074 
L 237.438288 -475.27366 
L 237.681532 -479.824245 
L 237.927973 -484.374831 
L 238.173835 -488.925416 
L 238.415643 -493.476002 
L 238.650304 -498.026587 
L 238.87516 -502.577172 
L 239.088028 -507.127758 
L 239.287217 -511.678343 
L 239.471521 -516.228929 
L 239.6402 -520.779514 
L 239.792943 -525.3301 
L 239.929825 -529.880685 
L 240.051246 -534.431271 
L 240.157877 -538.981856 
L 240.250601 -543.532442 
L 240.330448 -548.083027 
L 241.070266 -548.083027 
L 241.070266 -548.083027 
L 241.150113 -543.532442 
L 241.242837 -538.981856 
L 241.349469 -534.431271 
L 241.47089 -529.880685 
L 241.607771 -525.3301 
L 241.760515 -520.779514 
L 241.929193 -516.228929 
L 242.113497 -511.678343 
L 242.312686 -507.127758 
L 242.525554 -502.577172 
L 242.75041 -498.026587 
L 242.985071 -493.476002 
L 243.22688 -488.925416 
L 243.472741 -484.374831 
L 243.719182 -479.824245 
L 243.962427 -475.27366 
L 244.198495 -470.723074 
L 244.423314 -466.172489 
L 244.632837 -461.621903 
L 244.823175 -457.071318 
L 244.990716 -452.520732 
L 245.13225 -447.970147 
L 245.245074 -443.419561 
L 245.327081 -438.868976 
L 245.376833 -434.31839 
L 245.393598 -429.767805 
L 245.377377 -425.21722 
L 245.32889 -420.666634 
L 245.24955 -416.116049 
L 245.141405 -411.565463 
L 245.007071 -407.014878 
L 244.84965 -402.464292 
L 244.672636 -397.913707 
L 244.479825 -393.363121 
L 244.275224 -388.812536 
L 244.062975 -384.26195 
L 243.84728 -379.711365 
L 243.632351 -375.160779 
L 243.422376 -370.610194 
L 243.221494 -366.059608 
L 243.033803 -361.509023 
L 242.863362 -356.958437 
L 242.714229 -352.407852 
L 242.590484 -347.857267 
L 242.496274 -343.306681 
L 242.435841 -338.756096 
L 242.413548 -334.20551 
L 242.433893 -329.654925 
L 242.501487 -325.104339 
L 242.621024 -320.553754 
L 242.797201 -316.003168 
L 243.034612 -311.452583 
L 243.337605 -306.901997 
L 243.710096 -302.351412 
L 244.155353 -297.800826 
L 244.675758 -293.250241 
L 245.27254 -288.699655 
L 245.945514 -284.14907 
L 246.692817 -279.598485 
L 247.510681 -275.047899 
L 248.393238 -270.497314 
L 249.332394 -265.946728 
L 250.317776 -261.396143 
L 251.336768 -256.845557 
L 252.374658 -252.294972 
L 253.414879 -247.744386 
L 254.439366 -243.193801 
L 255.429009 -238.643215 
L 256.364195 -234.09263 
L 257.225406 -229.542044 
L 257.99387 -224.991459 
L 258.652212 -220.440873 
L 259.185092 -215.890288 
L 259.579776 -211.339702 
L 259.826639 -206.789117 
L 259.919534 -202.238532 
L 259.856049 -197.687946 
L 259.637594 -193.137361 
L 259.269351 -188.586775 
L 258.760064 -184.03619 
L 258.121687 -179.485604 
L 257.368918 -174.935019 
L 256.518633 -170.384433 
L 255.589256 -165.833848 
L 254.600097 -161.283262 
L 253.570687 -156.732677 
L 252.520156 -152.182091 
L 251.466653 -147.631506 
L 250.426863 -143.08092 
L 249.415618 -138.530335 
L 248.445608 -133.97975 
L 247.527215 -129.429164 
L 246.668445 -124.878579 
L 245.874964 -120.327993 
L 245.150215 -115.777408 
L 244.495608 -111.226822 
L 243.910757 -106.676237 
L 243.393759 -102.125651 
L 242.94148 -97.575066 
z
" id="mb63a824deb" style="stroke:#3d3d3d;stroke-width:1.5;"/>
    </defs>
    <g clip-path="url(#p7c1669b28d)">
     <use style="fill:#e1812c;stroke:#3d3d3d;stroke-width:1.5;" x="0" xlink:href="#mb63a824deb" y="645.900625"/>
    </g>
   </g>
   <g id="PolyCollection_3">
    <defs>
     <path d="M 363.470097 -102.913785 
L 358.90776 -102.913785 
L 358.443919 -107.298665 
L 357.913625 -111.683546 
L 357.313806 -116.068427 
L 356.642703 -120.453308 
L 355.900165 -124.838189 
L 355.087921 -129.22307 
L 354.20981 -133.607951 
L 353.271951 -137.992831 
L 352.282838 -142.377712 
L 351.253336 -146.762593 
L 350.196572 -151.147474 
L 349.12772 -155.532355 
L 348.063666 -159.917236 
L 347.02257 -164.302117 
L 346.023335 -168.686998 
L 345.085007 -173.071878 
L 344.226126 -177.456759 
L 343.464068 -181.84164 
L 342.814401 -186.226521 
L 342.290301 -190.611402 
L 341.90205 -194.996283 
L 341.656651 -199.381164 
L 341.557575 -203.766045 
L 341.604664 -208.150925 
L 341.794181 -212.535806 
L 342.119013 -216.920687 
L 342.569013 -221.305568 
L 343.131455 -225.690449 
L 343.791574 -230.07533 
L 344.533171 -234.460211 
L 345.339234 -238.845092 
L 346.192549 -243.229972 
L 347.076272 -247.614853 
L 347.974437 -251.999734 
L 348.872375 -256.384615 
L 349.757028 -260.769496 
L 350.617171 -265.154377 
L 351.443513 -269.539258 
L 352.228712 -273.924139 
L 352.9673 -278.309019 
L 353.655541 -282.6939 
L 354.291235 -287.078781 
L 354.873494 -291.463662 
L 355.402502 -295.848543 
L 355.879276 -300.233424 
L 356.30545 -304.618305 
L 356.68308 -309.003186 
L 357.014488 -313.388066 
L 357.302136 -317.772947 
L 357.548546 -322.157828 
L 357.756246 -326.542709 
L 357.927754 -330.92759 
L 358.065575 -335.312471 
L 358.172218 -339.697352 
L 358.250229 -344.082232 
L 358.302208 -348.467113 
L 358.330843 -352.851994 
L 358.338918 -357.236875 
L 358.329322 -361.621756 
L 358.305039 -366.006637 
L 358.269129 -370.391518 
L 358.224697 -374.776399 
L 358.174851 -379.161279 
L 358.122655 -383.54616 
L 358.071079 -387.931041 
L 358.022946 -392.315922 
L 357.980882 -396.700803 
L 357.947268 -401.085684 
L 357.924201 -405.470565 
L 357.913458 -409.855446 
L 357.91647 -414.240326 
L 357.934304 -418.625207 
L 357.967652 -423.010088 
L 358.016828 -427.394969 
L 358.081778 -431.77985 
L 358.162089 -436.164731 
L 358.257012 -440.549612 
L 358.36549 -444.934493 
L 358.486192 -449.319373 
L 358.617556 -453.704254 
L 358.757829 -458.089135 
L 358.905123 -462.474016 
L 359.057461 -466.858897 
L 359.212836 -471.243778 
L 359.369258 -475.628659 
L 359.524809 -480.01354 
L 359.677689 -484.39842 
L 359.826254 -488.783301 
L 359.969052 -493.168182 
L 360.10485 -497.553063 
L 360.232646 -501.937944 
L 360.351685 -506.322825 
L 360.461447 -510.707706 
L 360.56165 -515.092587 
L 360.652225 -519.477467 
L 360.733297 -523.862348 
L 360.80516 -528.247229 
L 360.868246 -532.63211 
L 360.923098 -537.016991 
L 361.454759 -537.016991 
L 361.454759 -537.016991 
L 361.509611 -532.63211 
L 361.572697 -528.247229 
L 361.64456 -523.862348 
L 361.725632 -519.477467 
L 361.816207 -515.092587 
L 361.91641 -510.707706 
L 362.026173 -506.322825 
L 362.145211 -501.937944 
L 362.273008 -497.553063 
L 362.408805 -493.168182 
L 362.551604 -488.783301 
L 362.700168 -484.39842 
L 362.853048 -480.01354 
L 363.0086 -475.628659 
L 363.165022 -471.243778 
L 363.320396 -466.858897 
L 363.472734 -462.474016 
L 363.620028 -458.089135 
L 363.760301 -453.704254 
L 363.891665 -449.319373 
L 364.012367 -444.934493 
L 364.120845 -440.549612 
L 364.215768 -436.164731 
L 364.296079 -431.77985 
L 364.361029 -427.394969 
L 364.410206 -423.010088 
L 364.443553 -418.625207 
L 364.461387 -414.240326 
L 364.464399 -409.855446 
L 364.453656 -405.470565 
L 364.430589 -401.085684 
L 364.396975 -396.700803 
L 364.354911 -392.315922 
L 364.306779 -387.931041 
L 364.255203 -383.54616 
L 364.203007 -379.161279 
L 364.15316 -374.776399 
L 364.108728 -370.391518 
L 364.072818 -366.006637 
L 364.048535 -361.621756 
L 364.038939 -357.236875 
L 364.047014 -352.851994 
L 364.075649 -348.467113 
L 364.127629 -344.082232 
L 364.205639 -339.697352 
L 364.312283 -335.312471 
L 364.450103 -330.92759 
L 364.621611 -326.542709 
L 364.829311 -322.157828 
L 365.075721 -317.772947 
L 365.363369 -313.388066 
L 365.694777 -309.003186 
L 366.072407 -304.618305 
L 366.498581 -300.233424 
L 366.975355 -295.848543 
L 367.504363 -291.463662 
L 368.086622 -287.078781 
L 368.722316 -282.6939 
L 369.410557 -278.309019 
L 370.149145 -273.924139 
L 370.934344 -269.539258 
L 371.760686 -265.154377 
L 372.620829 -260.769496 
L 373.505483 -256.384615 
L 374.40342 -251.999734 
L 375.301585 -247.614853 
L 376.185308 -243.229972 
L 377.038623 -238.845092 
L 377.844686 -234.460211 
L 378.586283 -230.07533 
L 379.246403 -225.690449 
L 379.808844 -221.305568 
L 380.258844 -216.920687 
L 380.583676 -212.535806 
L 380.773193 -208.150925 
L 380.820282 -203.766045 
L 380.721207 -199.381164 
L 380.475807 -194.996283 
L 380.087556 -190.611402 
L 379.563456 -186.226521 
L 378.913789 -181.84164 
L 378.151731 -177.456759 
L 377.29285 -173.071878 
L 376.354522 -168.686998 
L 375.355288 -164.302117 
L 374.314191 -159.917236 
L 373.250137 -155.532355 
L 372.181286 -151.147474 
L 371.124522 -146.762593 
L 370.095019 -142.377712 
L 369.105906 -137.992831 
L 368.168047 -133.607951 
L 367.289936 -129.22307 
L 366.477692 -124.838189 
L 365.735154 -120.453308 
L 365.064051 -116.068427 
L 364.464232 -111.683546 
L 363.933938 -107.298665 
L 363.470097 -102.913785 
z
" id="mafa6ee780d" style="stroke:#3d3d3d;stroke-width:1.5;"/>
    </defs>
    <g clip-path="url(#p7c1669b28d)">
     <use style="fill:#3a923a;stroke:#3d3d3d;stroke-width:1.5;" x="0" xlink:href="#mafa6ee780d" y="645.900625"/>
    </g>
   </g>
   <g id="PolyCollection_4">
    <defs>
     <path d="M 483.352997 -70.478807 
L 480.002003 -70.478807 
L 479.688238 -75.945106 
L 479.333011 -81.411406 
L 478.93457 -86.877705 
L 478.491879 -92.344004 
L 478.004771 -97.810304 
L 477.474084 -103.276603 
L 476.901793 -108.742902 
L 476.2911 -114.209202 
L 475.646501 -119.675501 
L 474.973805 -125.1418 
L 474.280111 -130.6081 
L 473.573723 -136.074399 
L 472.864019 -141.540698 
L 472.161263 -147.006998 
L 471.476368 -152.473297 
L 470.820617 -157.939597 
L 470.205345 -163.405896 
L 469.641608 -168.872195 
L 469.139837 -174.338495 
L 468.709502 -179.804794 
L 468.358799 -185.271093 
L 468.094371 -190.737393 
L 467.921084 -196.203692 
L 467.841856 -201.669991 
L 467.857564 -207.136291 
L 467.967018 -212.60259 
L 468.167005 -218.068889 
L 468.452416 -223.535189 
L 468.816423 -229.001488 
L 469.250718 -234.467788 
L 469.745791 -239.934087 
L 470.291238 -245.400386 
L 470.876085 -250.866686 
L 471.489108 -256.332985 
L 472.119138 -261.799284 
L 472.755356 -267.265584 
L 473.387531 -272.731883 
L 474.006241 -278.198182 
L 474.603033 -283.664482 
L 475.170542 -289.130781 
L 475.702569 -294.59708 
L 476.194108 -300.06338 
L 476.641346 -305.529679 
L 477.04162 -310.995979 
L 477.393358 -316.462278 
L 477.695993 -321.928577 
L 477.949872 -327.394877 
L 478.156151 -332.861176 
L 478.316691 -338.327475 
L 478.433953 -343.793775 
L 478.510902 -349.260074 
L 478.550912 -354.726373 
L 478.557678 -360.192673 
L 478.535141 -365.658972 
L 478.487413 -371.125271 
L 478.418715 -376.591571 
L 478.333313 -382.05787 
L 478.235467 -387.52417 
L 478.129375 -392.990469 
L 478.019127 -398.456768 
L 477.908653 -403.923068 
L 477.801686 -409.389367 
L 477.701711 -414.855666 
L 477.611929 -420.321966 
L 477.535213 -425.788265 
L 477.47408 -431.254564 
L 477.430654 -436.720864 
L 477.406643 -442.187163 
L 477.403321 -447.653462 
L 477.42151 -453.119762 
L 477.461584 -458.586061 
L 477.523466 -464.052361 
L 477.606645 -469.51866 
L 477.710202 -474.984959 
L 477.832834 -480.451259 
L 477.972901 -485.917558 
L 478.128474 -491.383857 
L 478.297384 -496.850157 
L 478.477287 -502.316456 
L 478.665721 -507.782755 
L 478.860174 -513.249055 
L 479.05814 -518.715354 
L 479.257183 -524.181653 
L 479.454987 -529.647953 
L 479.649407 -535.114252 
L 479.838504 -540.580552 
L 480.02058 -546.046851 
L 480.194201 -551.51315 
L 480.358203 -556.97945 
L 480.5117 -562.445749 
L 480.654079 -567.912048 
L 480.784985 -573.378348 
L 480.904301 -578.844647 
L 481.012127 -584.310946 
L 481.10875 -589.777246 
L 481.194613 -595.243545 
L 481.270285 -600.709844 
L 481.336431 -606.176144 
L 481.393781 -611.642443 
L 481.961219 -611.642443 
L 481.961219 -611.642443 
L 482.018569 -606.176144 
L 482.084715 -600.709844 
L 482.160387 -595.243545 
L 482.24625 -589.777246 
L 482.342873 -584.310946 
L 482.450699 -578.844647 
L 482.570015 -573.378348 
L 482.700921 -567.912048 
L 482.8433 -562.445749 
L 482.996797 -556.97945 
L 483.160799 -551.51315 
L 483.33442 -546.046851 
L 483.516496 -540.580552 
L 483.705593 -535.114252 
L 483.900013 -529.647953 
L 484.097817 -524.181653 
L 484.29686 -518.715354 
L 484.494826 -513.249055 
L 484.689279 -507.782755 
L 484.877713 -502.316456 
L 485.057616 -496.850157 
L 485.226526 -491.383857 
L 485.382099 -485.917558 
L 485.522166 -480.451259 
L 485.644798 -474.984959 
L 485.748355 -469.51866 
L 485.831534 -464.052361 
L 485.893416 -458.586061 
L 485.93349 -453.119762 
L 485.951679 -447.653462 
L 485.948357 -442.187163 
L 485.924346 -436.720864 
L 485.88092 -431.254564 
L 485.819787 -425.788265 
L 485.743071 -420.321966 
L 485.653289 -414.855666 
L 485.553314 -409.389367 
L 485.446347 -403.923068 
L 485.335873 -398.456768 
L 485.225625 -392.990469 
L 485.119533 -387.52417 
L 485.021687 -382.05787 
L 484.936285 -376.591571 
L 484.867587 -371.125271 
L 484.819859 -365.658972 
L 484.797322 -360.192673 
L 484.804088 -354.726373 
L 484.844098 -349.260074 
L 484.921047 -343.793775 
L 485.038309 -338.327475 
L 485.198849 -332.861176 
L 485.405128 -327.394877 
L 485.659007 -321.928577 
L 485.961642 -316.462278 
L 486.31338 -310.995979 
L 486.713654 -305.529679 
L 487.160892 -300.06338 
L 487.652431 -294.59708 
L 488.184458 -289.130781 
L 488.751967 -283.664482 
L 489.348759 -278.198182 
L 489.967469 -272.731883 
L 490.599644 -267.265584 
L 491.235862 -261.799284 
L 491.865892 -256.332985 
L 492.478915 -250.866686 
L 493.063762 -245.400386 
L 493.609209 -239.934087 
L 494.104282 -234.467788 
L 494.538577 -229.001488 
L 494.902584 -223.535189 
L 495.187995 -218.068889 
L 495.387982 -212.60259 
L 495.497436 -207.136291 
L 495.513144 -201.669991 
L 495.433916 -196.203692 
L 495.260629 -190.737393 
L 494.996201 -185.271093 
L 494.645498 -179.804794 
L 494.215163 -174.338495 
L 493.713392 -168.872195 
L 493.149655 -163.405896 
L 492.534383 -157.939597 
L 491.878632 -152.473297 
L 491.193737 -147.006998 
L 490.490981 -141.540698 
L 489.781277 -136.074399 
L 489.074889 -130.6081 
L 488.381195 -125.1418 
L 487.708499 -119.675501 
L 487.0639 -114.209202 
L 486.453207 -108.742902 
L 485.880916 -103.276603 
L 485.350229 -97.810304 
L 484.863121 -92.344004 
L 484.42043 -86.877705 
L 484.021989 -81.411406 
L 483.666762 -75.945106 
L 483.352997 -70.478807 
z
" id="mc3ade353ae" style="stroke:#3d3d3d;stroke-width:1.5;"/>
    </defs>
    <g clip-path="url(#p7c1669b28d)">
     <use style="fill:#c03d3e;stroke:#3d3d3d;stroke-width:1.5;" x="0" xlink:href="#mc3ade353ae" y="645.900625"/>
    </g>
   </g>
   <g id="PolyCollection_5">
    <defs>
     <path d="M 603.408477 -84.433321 
L 600.923666 -84.433321 
L 600.673381 -89.577301 
L 600.387077 -94.721282 
L 600.062837 -99.865262 
L 599.699354 -105.009242 
L 599.296078 -110.153223 
L 598.853346 -115.297203 
L 598.372508 -120.441183 
L 597.856016 -125.585163 
L 597.307485 -130.729144 
L 596.731703 -135.873124 
L 596.134606 -141.017104 
L 595.523182 -146.161085 
L 594.905343 -151.305065 
L 594.289726 -156.449045 
L 593.685464 -161.593026 
L 593.101911 -166.737006 
L 592.548346 -171.880986 
L 592.03366 -177.024966 
L 591.566055 -182.168947 
L 591.152755 -187.312927 
L 590.799753 -192.456907 
L 590.511607 -197.600888 
L 590.291294 -202.744868 
L 590.140128 -207.888848 
L 590.057753 -213.032829 
L 590.042195 -218.176809 
L 590.08999 -223.320789 
L 590.19636 -228.464769 
L 590.355434 -233.60875 
L 590.560506 -238.75273 
L 590.8043 -243.89671 
L 591.079246 -249.040691 
L 591.377739 -254.184671 
L 591.692375 -259.328651 
L 592.016158 -264.472632 
L 592.342661 -269.616612 
L 592.666153 -274.760592 
L 592.981679 -279.904572 
L 593.285099 -285.048553 
L 593.573098 -290.192533 
L 593.843157 -295.336513 
L 594.093515 -300.480494 
L 594.323103 -305.624474 
L 594.531476 -310.768454 
L 594.718739 -315.912435 
L 594.885478 -321.056415 
L 595.032688 -326.200395 
L 595.161709 -331.344375 
L 595.274174 -336.488356 
L 595.371951 -341.632336 
L 595.457096 -346.776316 
L 595.53181 -351.920297 
L 595.598391 -357.064277 
L 595.659193 -362.208257 
L 595.716578 -367.352238 
L 595.772874 -372.496218 
L 595.830331 -377.640198 
L 595.891073 -382.784178 
L 595.957062 -387.928159 
L 596.030059 -393.072139 
L 596.11159 -398.216119 
L 596.202924 -403.3601 
L 596.305056 -408.50408 
L 596.418692 -413.64806 
L 596.544255 -418.792041 
L 596.681886 -423.936021 
L 596.83146 -429.080001 
L 596.992603 -434.223981 
L 597.164719 -439.367962 
L 597.347009 -444.511942 
L 597.538507 -449.655922 
L 597.738103 -454.799903 
L 597.944572 -459.943883 
L 598.156602 -465.087863 
L 598.372817 -470.231844 
L 598.5918 -475.375824 
L 598.812117 -480.519804 
L 599.032336 -485.663784 
L 599.251044 -490.807765 
L 599.46687 -495.951745 
L 599.678496 -501.095725 
L 599.884683 -506.239706 
L 600.08428 -511.383686 
L 600.276242 -516.527666 
L 600.459646 -521.671647 
L 600.633703 -526.815627 
L 600.797764 -531.959607 
L 600.951335 -537.103587 
L 601.094074 -542.247568 
L 601.225794 -547.391548 
L 601.34646 -552.535528 
L 601.456181 -557.679509 
L 601.5552 -562.823489 
L 601.643881 -567.967469 
L 601.722688 -573.111449 
L 601.792174 -578.25543 
L 601.852958 -583.39941 
L 601.905704 -588.54339 
L 601.951108 -593.687371 
L 602.381035 -593.687371 
L 602.381035 -593.687371 
L 602.426439 -588.54339 
L 602.479185 -583.39941 
L 602.539969 -578.25543 
L 602.609455 -573.111449 
L 602.688262 -567.967469 
L 602.776942 -562.823489 
L 602.875962 -557.679509 
L 602.985683 -552.535528 
L 603.106349 -547.391548 
L 603.238069 -542.247568 
L 603.380807 -537.103587 
L 603.534378 -531.959607 
L 603.69844 -526.815627 
L 603.872497 -521.671647 
L 604.055901 -516.527666 
L 604.247863 -511.383686 
L 604.44746 -506.239706 
L 604.653647 -501.095725 
L 604.865273 -495.951745 
L 605.081098 -490.807765 
L 605.299807 -485.663784 
L 605.520025 -480.519804 
L 605.740343 -475.375824 
L 605.959326 -470.231844 
L 606.175541 -465.087863 
L 606.387571 -459.943883 
L 606.59404 -454.799903 
L 606.793636 -449.655922 
L 606.985134 -444.511942 
L 607.167424 -439.367962 
L 607.339539 -434.223981 
L 607.500683 -429.080001 
L 607.650257 -423.936021 
L 607.787888 -418.792041 
L 607.913451 -413.64806 
L 608.027087 -408.50408 
L 608.129218 -403.3601 
L 608.220553 -398.216119 
L 608.302084 -393.072139 
L 608.375081 -387.928159 
L 608.44107 -382.784178 
L 608.501812 -377.640198 
L 608.559269 -372.496218 
L 608.615565 -367.352238 
L 608.67295 -362.208257 
L 608.733751 -357.064277 
L 608.800333 -351.920297 
L 608.875047 -346.776316 
L 608.960192 -341.632336 
L 609.057969 -336.488356 
L 609.170433 -331.344375 
L 609.299455 -326.200395 
L 609.446665 -321.056415 
L 609.613404 -315.912435 
L 609.800667 -310.768454 
L 610.00904 -305.624474 
L 610.238628 -300.480494 
L 610.488986 -295.336513 
L 610.759045 -290.192533 
L 611.047043 -285.048553 
L 611.350464 -279.904572 
L 611.66599 -274.760592 
L 611.989482 -269.616612 
L 612.315985 -264.472632 
L 612.639768 -259.328651 
L 612.954404 -254.184671 
L 613.252897 -249.040691 
L 613.527843 -243.89671 
L 613.771637 -238.75273 
L 613.976709 -233.60875 
L 614.135783 -228.464769 
L 614.242153 -223.320789 
L 614.289948 -218.176809 
L 614.27439 -213.032829 
L 614.192015 -207.888848 
L 614.040849 -202.744868 
L 613.820536 -197.600888 
L 613.53239 -192.456907 
L 613.179388 -187.312927 
L 612.766088 -182.168947 
L 612.298483 -177.024966 
L 611.783797 -171.880986 
L 611.230232 -166.737006 
L 610.646679 -161.593026 
L 610.042417 -156.449045 
L 609.4268 -151.305065 
L 608.808961 -146.161085 
L 608.197537 -141.017104 
L 607.60044 -135.873124 
L 607.024658 -130.729144 
L 606.476127 -125.585163 
L 605.959635 -120.441183 
L 605.478797 -115.297203 
L 605.036065 -110.153223 
L 604.632788 -105.009242 
L 604.269306 -99.865262 
L 603.945066 -94.721282 
L 603.658761 -89.577301 
L 603.408477 -84.433321 
z
" id="m00b38c5b43" style="stroke:#3d3d3d;stroke-width:1.5;"/>
    </defs>
    <g clip-path="url(#p7c1669b28d)">
     <use style="fill:#9372b2;stroke:#3d3d3d;stroke-width:1.5;" x="0" xlink:href="#m00b38c5b43" y="645.900625"/>
    </g>
   </g>
   <g id="PolyCollection_6">
    <defs>
     <path d="M 723.404408 -78.455187 
L 721.904877 -78.455187 
L 721.769492 -83.03267 
L 721.615047 -87.610153 
L 721.439906 -92.187636 
L 721.242477 -96.765119 
L 721.021248 -101.342602 
L 720.77483 -105.920085 
L 720.501995 -110.497568 
L 720.201726 -115.075051 
L 719.87326 -119.652534 
L 719.516127 -124.230017 
L 719.130203 -128.8075 
L 718.715741 -133.384983 
L 718.273412 -137.962467 
L 717.804331 -142.53995 
L 717.310085 -147.117433 
L 716.792745 -151.694916 
L 716.254877 -156.272399 
L 715.699536 -160.849882 
L 715.130255 -165.427365 
L 714.551025 -170.004848 
L 713.966254 -174.582331 
L 713.380732 -179.159814 
L 712.799568 -183.737297 
L 712.228129 -188.31478 
L 711.671964 -192.892263 
L 711.136724 -197.469746 
L 710.628068 -202.047229 
L 710.151573 -206.624712 
L 709.712627 -211.202195 
L 709.316336 -215.779678 
L 708.967415 -220.357162 
L 708.670094 -224.934645 
L 708.42802 -229.512128 
L 708.244171 -234.089611 
L 708.120779 -238.667094 
L 708.059264 -243.244577 
L 708.060183 -247.82206 
L 708.123197 -252.399543 
L 708.247057 -256.977026 
L 708.429605 -261.554509 
L 708.667801 -266.131992 
L 708.957774 -270.709475 
L 709.294881 -275.286958 
L 709.673801 -279.864441 
L 710.08864 -284.441924 
L 710.533047 -289.019407 
L 711.000352 -293.59689 
L 711.483711 -298.174374 
L 711.976249 -302.751857 
L 712.471214 -307.32934 
L 712.962124 -311.906823 
L 713.442905 -316.484306 
L 713.908018 -321.061789 
L 714.352575 -325.639272 
L 714.77243 -330.216755 
L 715.164253 -334.794238 
L 715.525578 -339.371721 
L 715.854828 -343.949204 
L 716.151315 -348.526687 
L 716.415213 -353.10417 
L 716.64751 -357.681653 
L 716.849937 -362.259136 
L 717.024881 -366.836619 
L 717.175277 -371.414102 
L 717.304494 -375.991585 
L 717.416212 -380.569069 
L 717.514292 -385.146552 
L 717.602649 -389.724035 
L 717.685136 -394.301518 
L 717.765421 -398.879001 
L 717.846896 -403.456484 
L 717.932583 -408.033967 
L 718.025068 -412.61145 
L 718.126447 -417.188933 
L 718.238298 -421.766416 
L 718.361662 -426.343899 
L 718.497053 -430.921382 
L 718.644476 -435.498865 
L 718.803468 -440.076348 
L 718.973144 -444.653831 
L 719.152259 -449.231314 
L 719.339276 -453.808797 
L 719.532435 -458.38628 
L 719.729826 -462.963764 
L 719.929461 -467.541247 
L 720.129344 -472.11873 
L 720.327526 -476.696213 
L 720.522167 -481.273696 
L 720.711575 -485.851179 
L 720.894245 -490.428662 
L 721.068885 -495.006145 
L 721.234432 -499.583628 
L 721.390058 -504.161111 
L 721.53517 -508.738594 
L 721.669404 -513.316077 
L 721.792606 -517.89356 
L 721.904816 -522.471043 
L 722.006243 -527.048526 
L 722.097241 -531.626009 
L 723.212045 -531.626009 
L 723.212045 -531.626009 
L 723.303043 -527.048526 
L 723.40447 -522.471043 
L 723.516679 -517.89356 
L 723.639881 -513.316077 
L 723.774115 -508.738594 
L 723.919228 -504.161111 
L 724.074854 -499.583628 
L 724.2404 -495.006145 
L 724.41504 -490.428662 
L 724.597711 -485.851179 
L 724.787119 -481.273696 
L 724.981759 -476.696213 
L 725.179942 -472.11873 
L 725.379824 -467.541247 
L 725.57946 -462.963764 
L 725.776851 -458.38628 
L 725.970009 -453.808797 
L 726.157026 -449.231314 
L 726.336142 -444.653831 
L 726.505818 -440.076348 
L 726.66481 -435.498865 
L 726.812233 -430.921382 
L 726.947624 -426.343899 
L 727.070988 -421.766416 
L 727.182839 -417.188933 
L 727.284218 -412.61145 
L 727.376703 -408.033967 
L 727.46239 -403.456484 
L 727.543865 -398.879001 
L 727.62415 -394.301518 
L 727.706636 -389.724035 
L 727.794994 -385.146552 
L 727.893074 -380.569069 
L 728.004792 -375.991585 
L 728.134009 -371.414102 
L 728.284405 -366.836619 
L 728.459349 -362.259136 
L 728.661776 -357.681653 
L 728.894073 -353.10417 
L 729.15797 -348.526687 
L 729.454457 -343.949204 
L 729.783708 -339.371721 
L 730.145033 -334.794238 
L 730.536855 -330.216755 
L 730.956711 -325.639272 
L 731.401268 -321.061789 
L 731.866381 -316.484306 
L 732.347162 -311.906823 
L 732.838072 -307.32934 
L 733.333037 -302.751857 
L 733.825575 -298.174374 
L 734.308933 -293.59689 
L 734.776239 -289.019407 
L 735.220646 -284.441924 
L 735.635484 -279.864441 
L 736.014405 -275.286958 
L 736.351512 -270.709475 
L 736.641484 -266.131992 
L 736.879681 -261.554509 
L 737.062229 -256.977026 
L 737.186088 -252.399543 
L 737.249103 -247.82206 
L 737.250022 -243.244577 
L 737.188507 -238.667094 
L 737.065115 -234.089611 
L 736.881266 -229.512128 
L 736.639191 -224.934645 
L 736.34187 -220.357162 
L 735.99295 -215.779678 
L 735.596658 -211.202195 
L 735.157713 -206.624712 
L 734.681217 -202.047229 
L 734.172562 -197.469746 
L 733.637322 -192.892263 
L 733.081157 -188.31478 
L 732.509718 -183.737297 
L 731.928553 -179.159814 
L 731.343031 -174.582331 
L 730.758261 -170.004848 
L 730.17903 -165.427365 
L 729.60975 -160.849882 
L 729.054409 -156.272399 
L 728.516541 -151.694916 
L 727.999201 -147.117433 
L 727.504955 -142.53995 
L 727.035874 -137.962467 
L 726.593544 -133.384983 
L 726.179083 -128.8075 
L 725.793158 -124.230017 
L 725.436026 -119.652534 
L 725.107559 -115.075051 
L 724.807291 -110.497568 
L 724.534456 -105.920085 
L 724.288038 -101.342602 
L 724.066809 -96.765119 
L 723.86938 -92.187636 
L 723.694239 -87.610153 
L 723.539794 -83.03267 
L 723.404408 -78.455187 
z
" id="m979f875357" style="stroke:#3d3d3d;stroke-width:1.5;"/>
    </defs>
    <g clip-path="url(#p7c1669b28d)">
     <use style="fill:#845b53;stroke:#3d3d3d;stroke-width:1.5;" x="0" xlink:href="#m979f875357" y="645.900625"/>
    </g>
   </g>
   <g id="PolyCollection_7">
    <defs>
     <path d="M 848.175356 -156.570834 
L 838.111073 -156.570834 
L 837.048688 -158.483736 
L 835.825272 -160.396637 
L 834.431477 -162.309539 
L 832.860864 -164.222441 
L 831.11067 -166.135342 
L 829.182549 -168.048244 
L 827.083238 -169.961146 
L 824.825091 -171.874047 
L 822.426442 -173.786949 
L 819.911742 -175.699851 
L 817.311447 -177.612752 
L 814.661623 -179.525654 
L 812.00325 -181.438556 
L 809.381259 -183.351458 
L 806.84329 -185.264359 
L 804.438249 -187.177261 
L 802.214702 -189.090163 
L 800.21919 -191.003064 
L 798.494546 -192.915966 
L 797.078302 -194.828868 
L 796.001267 -196.741769 
L 795.286367 -198.654671 
L 794.947786 -200.567573 
L 794.990484 -202.480475 
L 795.410091 -204.393376 
L 796.193193 -206.306278 
L 797.317977 -208.21918 
L 798.755207 -210.132081 
L 800.46945 -212.044983 
L 802.420504 -213.957885 
L 804.56492 -215.870786 
L 806.857557 -217.783688 
L 809.253087 -219.69659 
L 811.707374 -221.609492 
L 814.178675 -223.522393 
L 816.628635 -225.435295 
L 819.023027 -227.348197 
L 821.332256 -229.261098 
L 823.531619 -231.174 
L 825.601346 -233.086902 
L 827.526455 -234.999803 
L 829.296455 -236.912705 
L 830.904942 -238.825607 
L 832.349112 -240.738508 
L 833.629259 -242.65141 
L 834.748251 -244.564312 
L 835.711046 -246.477214 
L 836.524242 -248.390115 
L 837.195683 -250.303017 
L 837.734135 -252.215919 
L 838.149011 -254.12882 
L 838.450168 -256.041722 
L 838.647741 -257.954624 
L 838.752027 -259.867525 
L 838.7734 -261.780427 
L 838.722241 -263.693329 
L 838.608887 -265.606231 
L 838.443579 -267.519132 
L 838.236415 -269.432034 
L 837.99729 -271.344936 
L 837.735836 -273.257837 
L 837.461349 -275.170739 
L 837.182715 -277.083641 
L 836.908329 -278.996542 
L 836.646011 -280.909444 
L 836.40293 -282.822346 
L 836.185522 -284.735247 
L 835.999429 -286.648149 
L 835.849438 -288.561051 
L 835.739433 -290.473953 
L 835.672364 -292.386854 
L 835.65023 -294.299756 
L 835.674073 -296.212658 
L 835.743993 -298.125559 
L 835.859177 -300.038461 
L 836.01794 -301.951363 
L 836.217791 -303.864264 
L 836.455507 -305.777166 
L 836.727224 -307.690068 
L 837.028543 -309.60297 
L 837.354648 -311.515871 
L 837.700425 -313.428773 
L 838.060601 -315.341675 
L 838.429869 -317.254576 
L 838.803025 -319.167478 
L 839.175085 -321.08038 
L 839.541404 -322.993281 
L 839.897768 -324.906183 
L 840.240478 -326.819085 
L 840.566403 -328.731987 
L 840.873023 -330.644888 
L 841.158438 -332.55779 
L 841.421364 -334.470692 
L 841.6611 -336.383593 
L 841.87749 -338.296495 
L 842.070861 -340.209397 
L 842.241953 -342.122298 
L 842.391849 -344.0352 
L 842.521895 -345.948102 
L 843.764534 -345.948102 
L 843.764534 -345.948102 
L 843.89458 -344.0352 
L 844.044476 -342.122298 
L 844.215568 -340.209397 
L 844.408938 -338.296495 
L 844.625329 -336.383593 
L 844.865065 -334.470692 
L 845.12799 -332.55779 
L 845.413406 -330.644888 
L 845.720026 -328.731987 
L 846.045951 -326.819085 
L 846.38866 -324.906183 
L 846.745024 -322.993281 
L 847.111343 -321.08038 
L 847.483404 -319.167478 
L 847.856559 -317.254576 
L 848.225828 -315.341675 
L 848.586003 -313.428773 
L 848.931781 -311.515871 
L 849.257885 -309.60297 
L 849.559205 -307.690068 
L 849.830922 -305.777166 
L 850.068638 -303.864264 
L 850.268489 -301.951363 
L 850.427252 -300.038461 
L 850.542435 -298.125559 
L 850.612356 -296.212658 
L 850.636199 -294.299756 
L 850.614065 -292.386854 
L 850.546996 -290.473953 
L 850.436991 -288.561051 
L 850.286999 -286.648149 
L 850.100907 -284.735247 
L 849.883499 -282.822346 
L 849.640417 -280.909444 
L 849.3781 -278.996542 
L 849.103713 -277.083641 
L 848.82508 -275.170739 
L 848.550593 -273.257837 
L 848.289138 -271.344936 
L 848.050013 -269.432034 
L 847.842849 -267.519132 
L 847.677542 -265.606231 
L 847.564188 -263.693329 
L 847.513028 -261.780427 
L 847.534401 -259.867525 
L 847.638687 -257.954624 
L 847.83626 -256.041722 
L 848.137417 -254.12882 
L 848.552294 -252.215919 
L 849.090746 -250.303017 
L 849.762187 -248.390115 
L 850.575382 -246.477214 
L 851.538177 -244.564312 
L 852.65717 -242.65141 
L 853.937316 -240.738508 
L 855.381487 -238.825607 
L 856.989973 -236.912705 
L 858.759974 -234.999803 
L 860.685083 -233.086902 
L 862.75481 -231.174 
L 864.954173 -229.261098 
L 867.263402 -227.348197 
L 869.657794 -225.435295 
L 872.107753 -223.522393 
L 874.579055 -221.609492 
L 877.033341 -219.69659 
L 879.428871 -217.783688 
L 881.721509 -215.870786 
L 883.865924 -213.957885 
L 885.816978 -212.044983 
L 887.531222 -210.132081 
L 888.968451 -208.21918 
L 890.093235 -206.306278 
L 890.876337 -204.393376 
L 891.295945 -202.480475 
L 891.338643 -200.567573 
L 891.000062 -198.654671 
L 890.285161 -196.741769 
L 889.208127 -194.828868 
L 887.791882 -192.915966 
L 886.067239 -191.003064 
L 884.071727 -189.090163 
L 881.84818 -187.177261 
L 879.443139 -185.264359 
L 876.90517 -183.351458 
L 874.283178 -181.438556 
L 871.624806 -179.525654 
L 868.974981 -177.612752 
L 866.374687 -175.699851 
L 863.859986 -173.786949 
L 861.461337 -171.874047 
L 859.203191 -169.961146 
L 857.10388 -168.048244 
L 855.175759 -166.135342 
L 853.425564 -164.222441 
L 851.854951 -162.309539 
L 850.461157 -160.396637 
L 849.237741 -158.483736 
L 848.175356 -156.570834 
z
" id="m7cedf5cf0b" style="stroke:#3d3d3d;stroke-width:1.5;"/>
    </defs>
    <g clip-path="url(#p7c1669b28d)">
     <use style="fill:#d684bd;stroke:#3d3d3d;stroke-width:1.5;" x="0" xlink:href="#m7cedf5cf0b" y="645.900625"/>
    </g>
   </g>
   <g id="matplotlib.axis_1">
    <g id="xtick_1">
     <g id="line2d_1">
      <defs>
       <path d="M 0 0 
L 0 3.5 
" id="m97b8b06791" style="stroke:#000000;stroke-width:0.8;"/>
      </defs>
      <g>
       <use style="stroke:#000000;stroke-width:0.8;" x="120.211786" xlink:href="#m97b8b06791" y="602.48"/>
      </g>
     </g>
     <g id="text_1">
      <!-- firstorder -->
      <defs>
       <path d="M 36.234375 71.78125 
Q 33.546875 73.1875 30.421875 73.1875 
Q 21.4375 73.1875 21.4375 62.0625 
L 21.4375 54 
L 34.078125 54 
L 34.078125 46.09375 
L 21.4375 46.09375 
L 21.4375 0 
L 11.96875 0 
L 11.96875 46.09375 
L 2.734375 46.09375 
L 2.734375 54 
L 11.96875 54 
L 11.96875 62.5 
Q 11.96875 71.1875 16.96875 76.140625 
Q 21.96875 81.109375 29.6875 81.109375 
Q 33.796875 81.109375 36.234375 80.171875 
z
" id="MicrosoftYaHei-102"/>
       <path d="M 7.375 73.046875 
Q 7.375 75.59375 9.109375 77.3125 
Q 10.84375 79.046875 13.375 79.046875 
Q 15.96875 79.046875 17.75 77.34375 
Q 19.53125 75.640625 19.53125 73.046875 
Q 19.53125 70.515625 17.75 68.828125 
Q 15.96875 67.140625 13.375 67.140625 
Q 10.796875 67.140625 9.078125 68.828125 
Q 7.375 70.515625 7.375 73.046875 
z
M 8.5 0 
L 8.5 54 
L 18.0625 54 
L 18.0625 0 
z
" id="MicrosoftYaHei-105"/>
       <path d="M 37.5 44.53125 
Q 35.109375 46.234375 30.90625 46.234375 
Q 25.34375 46.234375 21.71875 41.03125 
Q 18.109375 35.84375 18.109375 27.34375 
L 18.109375 0 
L 8.546875 0 
L 8.546875 54 
L 18.109375 54 
L 18.109375 43.015625 
L 18.3125 43.015625 
Q 22.40625 54.9375 32.46875 54.9375 
Q 35.75 54.9375 37.5 54.203125 
z
" id="MicrosoftYaHei-114"/>
       <path d="M 5.515625 11.671875 
Q 12.75 6.453125 21.09375 6.453125 
Q 32.28125 6.453125 32.28125 13.765625 
Q 32.28125 16.890625 29.828125 18.921875 
Q 27.390625 20.953125 19.921875 23.734375 
Q 10.9375 27.34375 8.25 30.875 
Q 5.5625 34.421875 5.5625 39.453125 
Q 5.5625 46.625 11.640625 50.953125 
Q 17.71875 55.28125 26.609375 55.28125 
Q 33.5 55.28125 39.40625 52.875 
L 39.40625 43.65625 
Q 33.34375 47.5625 25.6875 47.5625 
Q 21.09375 47.5625 18.203125 45.5625 
Q 15.328125 43.5625 15.328125 40.28125 
Q 15.328125 37.0625 17.40625 35.25 
Q 19.484375 33.453125 26.609375 30.609375 
Q 35.640625 27.25 38.8125 23.625 
Q 42 20.015625 42 14.703125 
Q 42 7.28125 35.90625 3 
Q 29.828125 -1.265625 20.171875 -1.265625 
Q 11.765625 -1.265625 5.515625 1.90625 
z
" id="MicrosoftYaHei-115"/>
       <path d="M 34.46875 0.53125 
Q 31.34375 -1.171875 26.03125 -1.171875 
Q 11.53125 -1.171875 11.53125 14.890625 
L 11.53125 46.09375 
L 2.25 46.09375 
L 2.25 54 
L 11.53125 54 
L 11.53125 67 
L 21.046875 70.015625 
L 21.046875 54 
L 34.46875 54 
L 34.46875 46.09375 
L 21.046875 46.09375 
L 21.046875 16.609375 
Q 21.046875 11.28125 22.84375 8.984375 
Q 24.65625 6.6875 28.859375 6.6875 
Q 32.078125 6.6875 34.46875 8.5 
z
" id="MicrosoftYaHei-116"/>
       <path d="M 4.9375 26.421875 
Q 4.9375 39.796875 12.40625 47.53125 
Q 19.875 55.28125 32.671875 55.28125 
Q 44.828125 55.28125 51.734375 47.828125 
Q 58.640625 40.375 58.640625 27.25 
Q 58.640625 14.453125 51.265625 6.59375 
Q 43.890625 -1.265625 31.5 -1.265625 
Q 19.390625 -1.265625 12.15625 6.34375 
Q 4.9375 13.96875 4.9375 26.421875 
z
M 14.703125 26.703125 
Q 14.703125 17.390625 19.40625 12.015625 
Q 24.125 6.640625 32.078125 6.640625 
Q 40.28125 6.640625 44.578125 11.890625 
Q 48.875 17.140625 48.875 26.953125 
Q 48.875 36.8125 44.578125 42.078125 
Q 40.28125 47.359375 32.078125 47.359375 
Q 24.03125 47.359375 19.359375 41.84375 
Q 14.703125 36.328125 14.703125 26.703125 
z
" id="MicrosoftYaHei-111"/>
       <path d="M 55.421875 0 
L 45.84375 0 
L 45.84375 8.984375 
L 45.65625 8.984375 
Q 39.75 -1.265625 27.296875 -1.265625 
Q 17.046875 -1.265625 10.984375 6.03125 
Q 4.9375 13.328125 4.9375 25.734375 
Q 4.9375 39.109375 11.765625 47.1875 
Q 18.609375 55.28125 29.640625 55.28125 
Q 40.671875 55.28125 45.65625 46.6875 
L 45.84375 46.6875 
L 45.84375 79.9375 
L 55.421875 79.9375 
z
M 45.90625 32.125 
Q 45.90625 38.625 41.625 42.984375 
Q 37.359375 47.359375 31.109375 47.359375 
Q 23.484375 47.359375 19.09375 41.671875 
Q 14.703125 35.984375 14.703125 26.171875 
Q 14.703125 17.140625 18.921875 11.890625 
Q 23.140625 6.640625 30.171875 6.640625 
Q 37.109375 6.640625 41.5 11.78125 
Q 45.90625 16.9375 45.90625 24.609375 
z
" id="MicrosoftYaHei-100"/>
       <path d="M 52.546875 24.5625 
L 14.75 24.5625 
Q 14.984375 15.921875 19.46875 11.203125 
Q 23.96875 6.5 32.03125 6.5 
Q 41.109375 6.5 48.6875 12.3125 
L 48.6875 3.765625 
Q 41.546875 -1.265625 29.78125 -1.265625 
Q 18.0625 -1.265625 11.5 6.15625 
Q 4.9375 13.578125 4.9375 26.765625 
Q 4.9375 39.15625 12.140625 47.21875 
Q 19.34375 55.28125 30.03125 55.28125 
Q 40.625 55.28125 46.578125 48.46875 
Q 52.546875 41.65625 52.546875 29.390625 
z
M 42.96875 32.234375 
Q 42.921875 39.546875 39.5 43.546875 
Q 36.078125 47.5625 29.890625 47.5625 
Q 24.171875 47.5625 20 43.3125 
Q 15.828125 39.0625 14.75 32.234375 
z
" id="MicrosoftYaHei-101"/>
      </defs>
      <g transform="translate(93.681473 619.0725)scale(0.12 -0.12)">
       <use xlink:href="#MicrosoftYaHei-102"/>
       <use x="34.667969" xlink:href="#MicrosoftYaHei-105"/>
       <use x="61.279297" xlink:href="#MicrosoftYaHei-114"/>
       <use x="100.212891" xlink:href="#MicrosoftYaHei-115"/>
       <use x="146.501953" xlink:href="#MicrosoftYaHei-116"/>
       <use x="182.882812" xlink:href="#MicrosoftYaHei-111"/>
       <use x="246.457031" xlink:href="#MicrosoftYaHei-114"/>
       <use x="283.265625" xlink:href="#MicrosoftYaHei-100"/>
       <use x="347.230469" xlink:href="#MicrosoftYaHei-101"/>
       <use x="403.96875" xlink:href="#MicrosoftYaHei-114"/>
      </g>
     </g>
    </g>
    <g id="xtick_2">
     <g id="line2d_2">
      <g>
       <use style="stroke:#000000;stroke-width:0.8;" x="240.700357" xlink:href="#m97b8b06791" y="602.48"/>
      </g>
     </g>
     <g id="text_2">
      <!-- glcm -->
      <defs>
       <path d="M 55.421875 4.546875 
Q 55.421875 -25.4375 26.3125 -25.4375 
Q 16.265625 -25.4375 8.84375 -21.6875 
L 8.84375 -12.453125 
Q 17.875 -17.484375 26.171875 -17.484375 
Q 45.84375 -17.484375 45.84375 3.21875 
L 45.84375 8.9375 
L 45.65625 8.9375 
Q 39.5 -1.265625 27.296875 -1.265625 
Q 17.140625 -1.265625 11.03125 6 
Q 4.9375 13.28125 4.9375 25.296875 
Q 4.9375 39.109375 11.671875 47.1875 
Q 18.40625 55.28125 29.640625 55.28125 
Q 40.4375 55.28125 45.65625 46.6875 
L 45.84375 46.6875 
L 45.84375 54 
L 55.421875 54 
z
M 45.84375 32.125 
Q 45.90625 38.375 41.65625 42.859375 
Q 37.40625 47.359375 31.203125 47.359375 
Q 23.390625 47.359375 19.046875 41.625 
Q 14.703125 35.890625 14.703125 25.875 
Q 14.703125 17.28125 18.890625 11.953125 
Q 23.09375 6.640625 30.03125 6.640625 
Q 37.015625 6.640625 41.453125 11.71875 
Q 45.90625 16.796875 45.84375 24.609375 
z
" id="MicrosoftYaHei-103"/>
       <path d="M 8.5 0 
L 8.5 79.9375 
L 18.0625 79.9375 
L 18.0625 0 
z
" id="MicrosoftYaHei-108"/>
       <path d="M 45.84375 2.4375 
Q 39.65625 -1.265625 30.90625 -1.265625 
Q 19.1875 -1.265625 12.0625 6.25 
Q 4.9375 13.765625 4.9375 25.734375 
Q 4.9375 39.015625 12.625 47.140625 
Q 20.3125 55.28125 33.203125 55.28125 
Q 40.625 55.28125 45.90625 52.640625 
L 45.90625 43.171875 
Q 40.1875 47.359375 33.203125 47.359375 
Q 25 47.359375 19.84375 41.671875 
Q 14.703125 35.984375 14.703125 26.515625 
Q 14.703125 17.1875 19.5625 11.90625 
Q 24.421875 6.640625 32.671875 6.640625 
Q 39.65625 6.640625 45.84375 11.234375 
z
" id="MicrosoftYaHei-99"/>
       <path d="M 86.28125 0 
L 76.703125 0 
L 76.703125 31 
Q 76.703125 39.796875 73.96875 43.578125 
Q 71.234375 47.359375 64.984375 47.359375 
Q 59.71875 47.359375 55.953125 42.421875 
Q 52.203125 37.5 52.203125 30.765625 
L 52.203125 0 
L 42.625 0 
L 42.625 31.984375 
Q 42.625 47.359375 30.765625 47.359375 
Q 25.296875 47.359375 21.703125 42.671875 
Q 18.109375 37.984375 18.109375 30.71875 
L 18.109375 0 
L 8.546875 0 
L 8.546875 54 
L 18.109375 54 
L 18.109375 45.453125 
L 18.3125 45.453125 
Q 24.078125 55.28125 35.15625 55.28125 
Q 40.578125 55.28125 44.71875 52.296875 
Q 48.875 49.3125 50.484375 44.234375 
Q 56.5 55.28125 68.453125 55.28125 
Q 86.28125 55.28125 86.28125 33.296875 
z
" id="MicrosoftYaHei-109"/>
      </defs>
      <g transform="translate(226.635045 619.0725)scale(0.12 -0.12)">
       <use xlink:href="#MicrosoftYaHei-103"/>
       <use x="63.964844" xlink:href="#MicrosoftYaHei-108"/>
       <use x="90.576172" xlink:href="#MicrosoftYaHei-99"/>
       <use x="140.722656" xlink:href="#MicrosoftYaHei-109"/>
      </g>
     </g>
    </g>
    <g id="xtick_3">
     <g id="line2d_3">
      <g>
       <use style="stroke:#000000;stroke-width:0.8;" x="361.188929" xlink:href="#m97b8b06791" y="602.48"/>
      </g>
     </g>
     <g id="text_3">
      <!-- gldm -->
      <g transform="translate(346.293929 619.0725)scale(0.12 -0.12)">
       <use xlink:href="#MicrosoftYaHei-103"/>
       <use x="63.964844" xlink:href="#MicrosoftYaHei-108"/>
       <use x="90.576172" xlink:href="#MicrosoftYaHei-100"/>
       <use x="154.541016" xlink:href="#MicrosoftYaHei-109"/>
      </g>
     </g>
    </g>
    <g id="xtick_4">
     <g id="line2d_4">
      <g>
       <use style="stroke:#000000;stroke-width:0.8;" x="481.6775" xlink:href="#m97b8b06791" y="602.48"/>
      </g>
     </g>
     <g id="text_4">
      <!-- glrlm -->
      <g transform="translate(466.732812 619.0725)scale(0.12 -0.12)">
       <use xlink:href="#MicrosoftYaHei-103"/>
       <use x="63.964844" xlink:href="#MicrosoftYaHei-108"/>
       <use x="90.576172" xlink:href="#MicrosoftYaHei-114"/>
       <use x="128.759766" xlink:href="#MicrosoftYaHei-108"/>
       <use x="155.371094" xlink:href="#MicrosoftYaHei-109"/>
      </g>
     </g>
    </g>
    <g id="xtick_5">
     <g id="line2d_5">
      <g>
       <use style="stroke:#000000;stroke-width:0.8;" x="602.166071" xlink:href="#m97b8b06791" y="602.48"/>
      </g>
     </g>
     <g id="text_5">
      <!-- glszm -->
      <defs>
       <path d="M 46.53125 0 
L 1.703125 0 
L 1.703125 3.171875 
L 33.109375 46.09375 
L 4.640625 46.09375 
L 4.640625 54 
L 46.734375 54 
L 46.734375 50.875 
L 15.53125 7.90625 
L 46.53125 7.90625 
z
" id="MicrosoftYaHei-122"/>
      </defs>
      <g transform="translate(585.381071 619.0725)scale(0.12 -0.12)">
       <use xlink:href="#MicrosoftYaHei-103"/>
       <use x="63.964844" xlink:href="#MicrosoftYaHei-108"/>
       <use x="90.576172" xlink:href="#MicrosoftYaHei-115"/>
       <use x="136.865234" xlink:href="#MicrosoftYaHei-122"/>
       <use x="186.035156" xlink:href="#MicrosoftYaHei-109"/>
      </g>
     </g>
    </g>
    <g id="xtick_6">
     <g id="line2d_6">
      <g>
       <use style="stroke:#000000;stroke-width:0.8;" x="722.654643" xlink:href="#m97b8b06791" y="602.48"/>
      </g>
     </g>
     <g id="text_6">
      <!-- ngtdm -->
      <defs>
       <path d="M 54.203125 0 
L 44.671875 0 
L 44.671875 30.71875 
Q 44.671875 47.359375 32.515625 47.359375 
Q 26.21875 47.359375 22.15625 42.671875 
Q 18.109375 37.984375 18.109375 30.8125 
L 18.109375 0 
L 8.546875 0 
L 8.546875 54 
L 18.109375 54 
L 18.109375 45.0625 
L 18.3125 45.0625 
Q 24.421875 55.28125 36.03125 55.28125 
Q 44.921875 55.28125 49.5625 49.578125 
Q 54.203125 43.890625 54.203125 33.015625 
z
" id="MicrosoftYaHei-110"/>
      </defs>
      <g transform="translate(703.506205 619.0725)scale(0.12 -0.12)">
       <use xlink:href="#MicrosoftYaHei-110"/>
       <use x="61.621094" xlink:href="#MicrosoftYaHei-103"/>
       <use x="125.585938" xlink:href="#MicrosoftYaHei-116"/>
       <use x="161.466797" xlink:href="#MicrosoftYaHei-100"/>
       <use x="225.431641" xlink:href="#MicrosoftYaHei-109"/>
      </g>
     </g>
    </g>
    <g id="xtick_7">
     <g id="line2d_7">
      <g>
       <use style="stroke:#000000;stroke-width:0.8;" x="843.143214" xlink:href="#m97b8b06791" y="602.48"/>
      </g>
     </g>
     <g id="text_7">
      <!-- shape -->
      <defs>
       <path d="M 54.15625 0 
L 44.625 0 
L 44.625 31.0625 
Q 44.625 47.359375 32.515625 47.359375 
Q 26.3125 47.359375 22.203125 42.59375 
Q 18.109375 37.84375 18.109375 30.609375 
L 18.109375 0 
L 8.546875 0 
L 8.546875 79.9375 
L 18.109375 79.9375 
L 18.109375 45.125 
L 18.3125 45.125 
Q 24.515625 55.28125 35.9375 55.28125 
Q 54.15625 55.28125 54.15625 33.25 
z
" id="MicrosoftYaHei-104"/>
       <path d="M 9.8125 50.25 
Q 17.875 55.28125 28.421875 55.28125 
Q 47.953125 55.28125 47.953125 34.765625 
L 47.953125 0 
L 38.484375 0 
L 38.484375 8.34375 
L 38.234375 8.34375 
Q 32.625 -1.265625 21.6875 -1.265625 
Q 13.8125 -1.265625 9.171875 2.984375 
Q 4.546875 7.234375 4.546875 14.453125 
Q 4.546875 29.59375 22.46875 32.078125 
L 38.484375 34.328125 
Q 38.484375 47.5625 27.546875 47.5625 
Q 17.828125 47.5625 9.8125 41.015625 
z
M 25.828125 25.390625 
Q 19.1875 24.515625 16.671875 22.0625 
Q 14.15625 19.625 14.15625 15.234375 
Q 14.15625 11.375 16.890625 8.9375 
Q 19.625 6.5 24.125 6.5 
Q 30.375 6.5 34.421875 10.890625 
Q 38.484375 15.28125 38.484375 21.921875 
L 38.484375 27.09375 
z
" id="MicrosoftYaHei-97"/>
       <path d="M 18.109375 7.625 
L 18.109375 -24.859375 
L 8.546875 -24.859375 
L 8.546875 54 
L 18.109375 54 
L 18.109375 44.671875 
L 18.3125 44.671875 
Q 24.65625 55.28125 36.859375 55.28125 
Q 47.21875 55.28125 53.09375 48.015625 
Q 58.984375 40.765625 58.984375 28.5625 
Q 58.984375 15.09375 52.3125 6.90625 
Q 45.65625 -1.265625 34.375 -1.265625 
Q 23.96875 -1.265625 18.3125 7.625 
z
M 18.0625 22.265625 
Q 18.0625 15.671875 22.3125 11.15625 
Q 26.5625 6.640625 32.953125 6.640625 
Q 40.578125 6.640625 44.875 12.5 
Q 49.171875 18.359375 49.171875 28.71875 
Q 49.171875 37.453125 45.15625 42.40625 
Q 41.15625 47.359375 34.234375 47.359375 
Q 27.15625 47.359375 22.609375 42.328125 
Q 18.0625 37.3125 18.0625 29.4375 
z
" id="MicrosoftYaHei-112"/>
      </defs>
      <g transform="translate(826.117277 619.0725)scale(0.12 -0.12)">
       <use xlink:href="#MicrosoftYaHei-115"/>
       <use x="46.289062" xlink:href="#MicrosoftYaHei-104"/>
       <use x="107.861328" xlink:href="#MicrosoftYaHei-97"/>
       <use x="163.134766" xlink:href="#MicrosoftYaHei-112"/>
       <use x="227.001953" xlink:href="#MicrosoftYaHei-101"/>
      </g>
     </g>
    </g>
    <g id="text_8">
     <!-- group -->
     <defs>
      <path d="M 53.125 0 
L 43.5 0 
L 43.5 8.5 
L 43.3125 8.5 
Q 37.890625 -1.265625 26.65625 -1.265625 
Q 7.46875 -1.265625 7.46875 21.6875 
L 7.46875 54 
L 16.9375 54 
L 16.9375 23.09375 
Q 16.9375 6.640625 29.546875 6.640625 
Q 35.796875 6.640625 39.640625 11.25 
Q 43.5 15.875 43.5 22.90625 
L 43.5 54 
L 53.125 54 
z
" id="MicrosoftYaHei-117"/>
     </defs>
     <g transform="translate(464.285937 635.648125)scale(0.12 -0.12)">
      <use xlink:href="#MicrosoftYaHei-103"/>
      <use x="63.964844" xlink:href="#MicrosoftYaHei-114"/>
      <use x="100.773438" xlink:href="#MicrosoftYaHei-111"/>
      <use x="164.347656" xlink:href="#MicrosoftYaHei-117"/>
      <use x="225.96875" xlink:href="#MicrosoftYaHei-112"/>
     </g>
    </g>
   </g>
   <g id="matplotlib.axis_2">
    <g id="ytick_1">
     <g id="line2d_8">
      <defs>
       <path d="M 0 0 
L -3.5 0 
" id="m96c670972e" style="stroke:#000000;stroke-width:0.8;"/>
      </defs>
      <g>
       <use style="stroke:#000000;stroke-width:0.8;" x="59.9675" xlink:href="#m96c670972e" y="596.739958"/>
      </g>
     </g>
     <g id="text_9">
      <!-- -0.50 -->
      <defs>
       <path d="M 36.375 26.265625 
L 7.625 26.265625 
L 7.625 33.640625 
L 36.375 33.640625 
z
" id="MicrosoftYaHei-45"/>
       <path d="M 4.4375 36.328125 
Q 4.4375 56.34375 11.078125 66.625 
Q 17.71875 76.90625 30.328125 76.90625 
Q 54.34375 76.90625 54.34375 38.140625 
Q 54.34375 19 47.578125 8.859375 
Q 40.828125 -1.265625 28.609375 -1.265625 
Q 17.09375 -1.265625 10.765625 8.34375 
Q 4.4375 17.96875 4.4375 36.328125 
z
M 14.203125 36.765625 
Q 14.203125 6.640625 29.5 6.640625 
Q 44.53125 6.640625 44.53125 37.25 
Q 44.53125 68.953125 29.78125 68.953125 
Q 14.203125 68.953125 14.203125 36.765625 
z
" id="MicrosoftYaHei-48"/>
       <path d="M 5.8125 5.03125 
Q 5.8125 7.671875 7.609375 9.46875 
Q 9.421875 11.28125 12.109375 11.28125 
Q 14.84375 11.28125 16.640625 9.453125 
Q 18.453125 7.625 18.453125 5.03125 
Q 18.453125 2.484375 16.640625 0.65625 
Q 14.84375 -1.171875 12.0625 -1.171875 
Q 9.375 -1.171875 7.59375 0.65625 
Q 5.8125 2.484375 5.8125 5.03125 
z
" id="MicrosoftYaHei-46"/>
       <path d="M 51.46875 23.34375 
Q 51.46875 12.25 44.109375 5.46875 
Q 36.765625 -1.3125 24.359375 -1.3125 
Q 13.71875 -1.3125 8.5 1.859375 
L 8.5 11.625 
Q 16.15625 6.640625 24.125 6.640625 
Q 32.03125 6.640625 36.890625 11 
Q 41.75 15.375 41.75 22.609375 
Q 41.75 29.828125 36.6875 33.859375 
Q 31.640625 37.890625 22.40625 37.890625 
Q 15.28125 37.890625 9.578125 37.25 
L 12.359375 75.640625 
L 47.703125 75.640625 
L 47.703125 67.234375 
L 20.40625 67.234375 
L 18.84375 45.796875 
L 25.734375 46.09375 
Q 37.75 46.09375 44.609375 40.109375 
Q 51.46875 34.125 51.46875 23.34375 
z
" id="MicrosoftYaHei-53"/>
      </defs>
      <g transform="translate(23.775625 601.536208)scale(0.12 -0.12)">
       <use xlink:href="#MicrosoftYaHei-45"/>
       <use x="43.261719" xlink:href="#MicrosoftYaHei-48"/>
       <use x="101.904297" xlink:href="#MicrosoftYaHei-46"/>
       <use x="125.976562" xlink:href="#MicrosoftYaHei-53"/>
       <use x="184.619141" xlink:href="#MicrosoftYaHei-48"/>
      </g>
     </g>
    </g>
    <g id="ytick_2">
     <g id="line2d_9">
      <g>
       <use style="stroke:#000000;stroke-width:0.8;" x="59.9675" xlink:href="#m96c670972e" y="522.786909"/>
      </g>
     </g>
     <g id="text_10">
      <!-- -0.25 -->
      <defs>
       <path d="M 41.65625 55.8125 
Q 41.65625 61.921875 37.796875 65.40625 
Q 33.9375 68.890625 27.296875 68.890625 
Q 22.609375 68.890625 17.8125 66.5 
Q 13.03125 64.109375 8.890625 59.671875 
L 8.890625 68.953125 
Q 12.59375 72.796875 17.296875 74.84375 
Q 22.015625 76.90625 28.375 76.90625 
Q 38.625 76.90625 44.875 71.40625 
Q 51.125 65.921875 51.125 56.546875 
Q 51.125 48.1875 47.28125 42.078125 
Q 43.453125 35.984375 34.1875 29.59375 
Q 24.703125 23.046875 21.5 20.21875 
Q 18.3125 17.390625 17.03125 14.796875 
Q 15.765625 12.203125 15.765625 8.5 
L 53.375 8.5 
L 53.375 0 
L 5.8125 0 
L 5.8125 3.765625 
Q 5.8125 10.296875 7.59375 14.859375 
Q 9.375 19.4375 13.46875 23.75 
Q 17.578125 28.078125 26.265625 34.125 
Q 35.15625 40.375 38.40625 45.09375 
Q 41.65625 49.8125 41.65625 55.8125 
z
" id="MicrosoftYaHei-50"/>
      </defs>
      <g transform="translate(23.775625 527.583159)scale(0.12 -0.12)">
       <use xlink:href="#MicrosoftYaHei-45"/>
       <use x="43.261719" xlink:href="#MicrosoftYaHei-48"/>
       <use x="101.904297" xlink:href="#MicrosoftYaHei-46"/>
       <use x="125.976562" xlink:href="#MicrosoftYaHei-50"/>
       <use x="184.619141" xlink:href="#MicrosoftYaHei-53"/>
      </g>
     </g>
    </g>
    <g id="ytick_3">
     <g id="line2d_10">
      <g>
       <use style="stroke:#000000;stroke-width:0.8;" x="59.9675" xlink:href="#m96c670972e" y="448.83386"/>
      </g>
     </g>
     <g id="text_11">
      <!-- 0.00 -->
      <g transform="translate(28.9675 453.63011)scale(0.12 -0.12)">
       <use xlink:href="#MicrosoftYaHei-48"/>
       <use x="58.642578" xlink:href="#MicrosoftYaHei-46"/>
       <use x="82.714844" xlink:href="#MicrosoftYaHei-48"/>
       <use x="141.357422" xlink:href="#MicrosoftYaHei-48"/>
      </g>
     </g>
    </g>
    <g id="ytick_4">
     <g id="line2d_11">
      <g>
       <use style="stroke:#000000;stroke-width:0.8;" x="59.9675" xlink:href="#m96c670972e" y="374.880811"/>
      </g>
     </g>
     <g id="text_12">
      <!-- 0.25 -->
      <g transform="translate(28.9675 379.677061)scale(0.12 -0.12)">
       <use xlink:href="#MicrosoftYaHei-48"/>
       <use x="58.642578" xlink:href="#MicrosoftYaHei-46"/>
       <use x="82.714844" xlink:href="#MicrosoftYaHei-50"/>
       <use x="141.357422" xlink:href="#MicrosoftYaHei-53"/>
      </g>
     </g>
    </g>
    <g id="ytick_5">
     <g id="line2d_12">
      <g>
       <use style="stroke:#000000;stroke-width:0.8;" x="59.9675" xlink:href="#m96c670972e" y="300.927762"/>
      </g>
     </g>
     <g id="text_13">
      <!-- 0.50 -->
      <g transform="translate(28.9675 305.724012)scale(0.12 -0.12)">
       <use xlink:href="#MicrosoftYaHei-48"/>
       <use x="58.642578" xlink:href="#MicrosoftYaHei-46"/>
       <use x="82.714844" xlink:href="#MicrosoftYaHei-53"/>
       <use x="141.357422" xlink:href="#MicrosoftYaHei-48"/>
      </g>
     </g>
    </g>
    <g id="ytick_6">
     <g id="line2d_13">
      <g>
       <use style="stroke:#000000;stroke-width:0.8;" x="59.9675" xlink:href="#m96c670972e" y="226.974713"/>
      </g>
     </g>
     <g id="text_14">
      <!-- 0.75 -->
      <defs>
       <path d="M 53.46875 69.734375 
Q 41.546875 48.921875 34.734375 31.21875 
Q 27.9375 13.53125 26.3125 0 
L 16.359375 0 
Q 18.171875 13.328125 24.90625 30.421875 
Q 31.640625 47.515625 42.921875 67.1875 
L 5.421875 67.1875 
L 5.421875 75.640625 
L 53.46875 75.640625 
z
" id="MicrosoftYaHei-55"/>
      </defs>
      <g transform="translate(28.9675 231.770963)scale(0.12 -0.12)">
       <use xlink:href="#MicrosoftYaHei-48"/>
       <use x="58.642578" xlink:href="#MicrosoftYaHei-46"/>
       <use x="82.714844" xlink:href="#MicrosoftYaHei-55"/>
       <use x="141.357422" xlink:href="#MicrosoftYaHei-53"/>
      </g>
     </g>
    </g>
    <g id="ytick_7">
     <g id="line2d_14">
      <g>
       <use style="stroke:#000000;stroke-width:0.8;" x="59.9675" xlink:href="#m96c670972e" y="153.021664"/>
      </g>
     </g>
     <g id="text_15">
      <!-- 1.00 -->
      <defs>
       <path d="M 27.828125 0 
L 27.828125 64.703125 
Q 25.59375 62.453125 20.234375 59.671875 
Q 14.890625 56.890625 10.359375 55.765625 
L 10.359375 65.140625 
Q 16.359375 66.796875 23.1875 70.4375 
Q 30.03125 74.078125 33.6875 77.296875 
L 37.3125 77.296875 
L 37.3125 0 
z
" id="MicrosoftYaHei-49"/>
      </defs>
      <g transform="translate(28.9675 157.817914)scale(0.12 -0.12)">
       <use xlink:href="#MicrosoftYaHei-49"/>
       <use x="58.642578" xlink:href="#MicrosoftYaHei-46"/>
       <use x="82.714844" xlink:href="#MicrosoftYaHei-48"/>
       <use x="141.357422" xlink:href="#MicrosoftYaHei-48"/>
      </g>
     </g>
    </g>
    <g id="ytick_8">
     <g id="line2d_15">
      <g>
       <use style="stroke:#000000;stroke-width:0.8;" x="59.9675" xlink:href="#m96c670972e" y="79.068615"/>
      </g>
     </g>
     <g id="text_16">
      <!-- 1.25 -->
      <g transform="translate(28.9675 83.864865)scale(0.12 -0.12)">
       <use xlink:href="#MicrosoftYaHei-49"/>
       <use x="58.642578" xlink:href="#MicrosoftYaHei-46"/>
       <use x="82.714844" xlink:href="#MicrosoftYaHei-50"/>
       <use x="141.357422" xlink:href="#MicrosoftYaHei-53"/>
      </g>
     </g>
    </g>
    <g id="text_17">
     <!-- pvalue -->
     <defs>
      <path d="M 52.046875 54 
L 30.671875 0 
L 21 0 
L 0.6875 54 
L 11.140625 54 
L 24.3125 15.4375 
Q 25.921875 10.796875 26.21875 7.671875 
L 26.46875 7.671875 
Q 26.953125 11.765625 28.171875 15.234375 
L 42 54 
z
" id="MicrosoftYaHei-118"/>
     </defs>
     <g transform="translate(16.7925 323.716562)rotate(-90)scale(0.12 -0.12)">
      <use xlink:href="#MicrosoftYaHei-112"/>
      <use x="63.867188" xlink:href="#MicrosoftYaHei-118"/>
      <use x="114.357422" xlink:href="#MicrosoftYaHei-97"/>
      <use x="169.630859" xlink:href="#MicrosoftYaHei-108"/>
      <use x="196.242188" xlink:href="#MicrosoftYaHei-117"/>
      <use x="257.863281" xlink:href="#MicrosoftYaHei-101"/>
     </g>
    </g>
   </g>
   <g id="line2d_16">
    <path clip-path="url(#p7c1669b28d)" d="M 120.211786 448.538048 
L 120.211786 399.574231 
" style="fill:none;stroke:#3d3d3d;stroke-linecap:square;stroke-width:1.5;"/>
   </g>
   <g id="line2d_17">
    <path clip-path="url(#p7c1669b28d)" d="M 120.211786 448.538048 
L 120.211786 424.587568 
" style="fill:none;stroke:#3d3d3d;stroke-linecap:square;stroke-width:4.5;"/>
   </g>
   <g id="line2d_18">
    <path clip-path="url(#p7c1669b28d)" d="M 240.700357 448.538048 
L 240.700357 418.653566 
" style="fill:none;stroke:#3d3d3d;stroke-linecap:square;stroke-width:1.5;"/>
   </g>
   <g id="line2d_19">
    <path clip-path="url(#p7c1669b28d)" d="M 240.700357 448.340792 
L 240.700357 429.472099 
" style="fill:none;stroke:#3d3d3d;stroke-linecap:square;stroke-width:4.5;"/>
   </g>
   <g id="line2d_20">
    <path clip-path="url(#p7c1669b28d)" d="M 361.188929 448.538048 
L 361.188929 349.274784 
" style="fill:none;stroke:#3d3d3d;stroke-linecap:square;stroke-width:1.5;"/>
   </g>
   <g id="line2d_21">
    <path clip-path="url(#p7c1669b28d)" d="M 361.188929 448.538048 
L 361.188929 401.703693 
" style="fill:none;stroke:#3d3d3d;stroke-linecap:square;stroke-width:4.5;"/>
   </g>
   <g id="line2d_22">
    <path clip-path="url(#p7c1669b28d)" d="M 481.6775 448.538048 
L 481.6775 178.281383 
" style="fill:none;stroke:#3d3d3d;stroke-linecap:square;stroke-width:1.5;"/>
   </g>
   <g id="line2d_23">
    <path clip-path="url(#p7c1669b28d)" d="M 481.6775 448.538048 
L 481.6775 339.274388 
" style="fill:none;stroke:#3d3d3d;stroke-linecap:square;stroke-width:4.5;"/>
   </g>
   <g id="line2d_24">
    <path clip-path="url(#p7c1669b28d)" d="M 602.166071 448.538048 
L 602.166071 165.14251 
" style="fill:none;stroke:#3d3d3d;stroke-linecap:square;stroke-width:1.5;"/>
   </g>
   <g id="line2d_25">
    <path clip-path="url(#p7c1669b28d)" d="M 602.166071 448.047914 
L 602.166071 280.79082 
" style="fill:none;stroke:#3d3d3d;stroke-linecap:square;stroke-width:4.5;"/>
   </g>
   <g id="line2d_26">
    <path clip-path="url(#p7c1669b28d)" d="M 722.654643 448.538048 
L 722.654643 371.17994 
" style="fill:none;stroke:#3d3d3d;stroke-linecap:square;stroke-width:1.5;"/>
   </g>
   <g id="line2d_27">
    <path clip-path="url(#p7c1669b28d)" d="M 722.654643 413.689204 
L 722.654643 371.17994 
" style="fill:none;stroke:#3d3d3d;stroke-linecap:square;stroke-width:4.5;"/>
   </g>
   <g id="line2d_28">
    <path clip-path="url(#p7c1669b28d)" d="M 843.143214 448.538048 
L 843.143214 419.692719 
" style="fill:none;stroke:#3d3d3d;stroke-linecap:square;stroke-width:1.5;"/>
   </g>
   <g id="line2d_29">
    <path clip-path="url(#p7c1669b28d)" d="M 843.143214 447.731447 
L 843.143214 436.447066 
" style="fill:none;stroke:#3d3d3d;stroke-linecap:square;stroke-width:4.5;"/>
   </g>
   <g id="patch_3">
    <path d="M 59.9675 602.48 
L 59.9675 7.2 
" style="fill:none;stroke:#000000;stroke-linecap:square;stroke-linejoin:miter;stroke-width:0.8;"/>
   </g>
   <g id="patch_4">
    <path d="M 59.9675 602.48 
L 903.3875 602.48 
" style="fill:none;stroke:#000000;stroke-linecap:square;stroke-linejoin:miter;stroke-width:0.8;"/>
   </g>
   <g id="PathCollection_1">
    <defs>
     <path d="M 0 1.5 
C 0.397805 1.5 0.77937 1.341951 1.06066 1.06066 
C 1.341951 0.77937 1.5 0.397805 1.5 0 
C 1.5 -0.397805 1.341951 -0.77937 1.06066 -1.06066 
C 0.77937 -1.341951 0.397805 -1.5 0 -1.5 
C -0.397805 -1.5 -0.77937 -1.341951 -1.06066 -1.06066 
C -1.341951 -0.77937 -1.5 -0.397805 -1.5 0 
C -1.5 0.397805 -1.341951 0.77937 -1.06066 1.06066 
C -0.77937 1.341951 -0.397805 1.5 0 1.5 
z
" id="md31337405d" style="stroke:#3d3d3d;"/>
    </defs>
    <g clip-path="url(#p7c1669b28d)">
     <use style="fill:#ffffff;stroke:#3d3d3d;" x="120.211786" xlink:href="#md31337405d" y="443.029414"/>
    </g>
   </g>
   <g id="PathCollection_2">
    <g clip-path="url(#p7c1669b28d)">
     <use style="fill:#ffffff;stroke:#3d3d3d;" x="240.700357" xlink:href="#md31337405d" y="443.947482"/>
    </g>
   </g>
   <g id="PathCollection_3">
    <g clip-path="url(#p7c1669b28d)">
     <use style="fill:#ffffff;stroke:#3d3d3d;" x="361.188929" xlink:href="#md31337405d" y="447.620745"/>
    </g>
   </g>
   <g id="PathCollection_4">
    <g clip-path="url(#p7c1669b28d)">
     <use style="fill:#ffffff;stroke:#3d3d3d;" x="481.6775" xlink:href="#md31337405d" y="445.297728"/>
    </g>
   </g>
   <g id="PathCollection_5">
    <g clip-path="url(#p7c1669b28d)">
     <use style="fill:#ffffff;stroke:#3d3d3d;" x="602.166071" xlink:href="#md31337405d" y="392.705234"/>
    </g>
   </g>
   <g id="PathCollection_6">
    <g clip-path="url(#p7c1669b28d)">
     <use style="fill:#ffffff;stroke:#3d3d3d;" x="722.654643" xlink:href="#md31337405d" y="380.927361"/>
    </g>
   </g>
   <g id="PathCollection_7">
    <g clip-path="url(#p7c1669b28d)">
     <use style="fill:#ffffff;stroke:#3d3d3d;" x="843.143214" xlink:href="#md31337405d" y="446.513754"/>
    </g>
   </g>
   <g id="PathCollection_8">
    <defs>
     <path d="M 0 2.5 
C 0.663008 2.5 1.29895 2.236584 1.767767 1.767767 
C 2.236584 1.29895 2.5 0.663008 2.5 0 
C 2.5 -0.663008 2.236584 -1.29895 1.767767 -1.767767 
C 1.29895 -2.236584 0.663008 -2.5 0 -2.5 
C -0.663008 -2.5 -1.29895 -2.236584 -1.767767 -1.767767 
C -2.236584 -1.29895 -2.5 -0.663008 -2.5 0 
C -2.5 0.663008 -2.236584 1.29895 -1.767767 1.767767 
C -1.29895 2.236584 -0.663008 2.5 0 2.5 
z
" id="C0_0_6cf06f9401"/>
    </defs>
    <g clip-path="url(#p7c1669b28d)">
     <use x="120.27756" xlink:href="#C0_0_6cf06f9401" y="419.932869"/>
    </g>
    <g clip-path="url(#p7c1669b28d)">
     <use x="113.2024" xlink:href="#C0_0_6cf06f9401" y="446.499826"/>
    </g>
    <g clip-path="url(#p7c1669b28d)">
     <use x="128.483663" xlink:href="#C0_0_6cf06f9401" y="438.551664"/>
    </g>
    <g clip-path="url(#p7c1669b28d)">
     <use x="121.301044" xlink:href="#C0_0_6cf06f9401" y="448.538048"/>
    </g>
    <g clip-path="url(#p7c1669b28d)">
     <use x="108.866234" xlink:href="#C0_0_6cf06f9401" y="448.538048"/>
    </g>
    <g clip-path="url(#p7c1669b28d)">
     <use x="125.867908" xlink:href="#C0_0_6cf06f9401" y="448.538048"/>
    </g>
    <g clip-path="url(#p7c1669b28d)">
     <use x="124.43597" xlink:href="#C0_0_6cf06f9401" y="399.574231"/>
    </g>
    <g clip-path="url(#p7c1669b28d)">
     <use x="114.393758" xlink:href="#C0_0_6cf06f9401" y="442.463316"/>
    </g>
    <g clip-path="url(#p7c1669b28d)">
     <use x="108.175687" xlink:href="#C0_0_6cf06f9401" y="448.538048"/>
    </g>
    <g clip-path="url(#p7c1669b28d)">
     <use x="119.874617" xlink:href="#C0_0_6cf06f9401" y="442.345386"/>
    </g>
    <g clip-path="url(#p7c1669b28d)">
     <use x="118.84783" xlink:href="#C0_0_6cf06f9401" y="448.538048"/>
    </g>
    <g clip-path="url(#p7c1669b28d)">
     <use x="111.873681" xlink:href="#C0_0_6cf06f9401" y="164.113862"/>
    </g>
    <g clip-path="url(#p7c1669b28d)">
     <use x="109.359449" xlink:href="#C0_0_6cf06f9401" y="448.538048"/>
    </g>
    <g clip-path="url(#p7c1669b28d)">
     <use x="124.685636" xlink:href="#C0_0_6cf06f9401" y="443.129424"/>
    </g>
    <g clip-path="url(#p7c1669b28d)">
     <use x="109.641969" xlink:href="#C0_0_6cf06f9401" y="260.037398"/>
    </g>
    <g clip-path="url(#p7c1669b28d)">
     <use x="121.895243" xlink:href="#C0_0_6cf06f9401" y="402.954121"/>
    </g>
    <g clip-path="url(#p7c1669b28d)">
     <use x="125.037459" xlink:href="#C0_0_6cf06f9401" y="448.538048"/>
    </g>
    <g clip-path="url(#p7c1669b28d)">
     <use x="128.84206" xlink:href="#C0_0_6cf06f9401" y="442.929404"/>
    </g>
   </g>
   <g id="PathCollection_9">
    <defs>
     <path d="M 0 2.5 
C 0.663008 2.5 1.29895 2.236584 1.767767 1.767767 
C 2.236584 1.29895 2.5 0.663008 2.5 0 
C 2.5 -0.663008 2.236584 -1.29895 1.767767 -1.767767 
C 1.29895 -2.236584 0.663008 -2.5 0 -2.5 
C -0.663008 -2.5 -1.29895 -2.236584 -1.767767 -1.767767 
C -2.236584 -1.29895 -2.5 -0.663008 -2.5 0 
C -2.5 0.663008 -2.236584 1.29895 -1.767767 1.767767 
C -1.29895 2.236584 -0.663008 2.5 0 2.5 
z
" id="C1_0_4e50d40d72"/>
    </defs>
    <g clip-path="url(#p7c1669b28d)">
     <use x="231.931608" xlink:href="#C1_0_4e50d40d72" y="197.605109"/>
    </g>
    <g clip-path="url(#p7c1669b28d)">
     <use x="237.298536" xlink:href="#C1_0_4e50d40d72" y="260.119082"/>
    </g>
    <g clip-path="url(#p7c1669b28d)">
     <use x="252.156939" xlink:href="#C1_0_4e50d40d72" y="216.633649"/>
    </g>
    <g clip-path="url(#p7c1669b28d)">
     <use x="239.648695" xlink:href="#C1_0_4e50d40d72" y="433.078276"/>
    </g>
    <g clip-path="url(#p7c1669b28d)">
     <use x="240.895106" xlink:href="#C1_0_4e50d40d72" y="447.038345"/>
    </g>
    <g clip-path="url(#p7c1669b28d)">
     <use x="241.236768" xlink:href="#C1_0_4e50d40d72" y="418.653566"/>
    </g>
    <g clip-path="url(#p7c1669b28d)">
     <use x="237.418007" xlink:href="#C1_0_4e50d40d72" y="448.538048"/>
    </g>
    <g clip-path="url(#p7c1669b28d)">
     <use x="237.262378" xlink:href="#C1_0_4e50d40d72" y="448.307801"/>
    </g>
    <g clip-path="url(#p7c1669b28d)">
     <use x="249.34145" xlink:href="#C1_0_4e50d40d72" y="441.997705"/>
    </g>
    <g clip-path="url(#p7c1669b28d)">
     <use x="241.557716" xlink:href="#C1_0_4e50d40d72" y="448.538048"/>
    </g>
    <g clip-path="url(#p7c1669b28d)">
     <use x="252.551529" xlink:href="#C1_0_4e50d40d72" y="448.538048"/>
    </g>
    <g clip-path="url(#p7c1669b28d)">
     <use x="250.537521" xlink:href="#C1_0_4e50d40d72" y="446.951409"/>
    </g>
    <g clip-path="url(#p7c1669b28d)">
     <use x="249.398997" xlink:href="#C1_0_4e50d40d72" y="448.538048"/>
    </g>
    <g clip-path="url(#p7c1669b28d)">
     <use x="230.973366" xlink:href="#C1_0_4e50d40d72" y="441.183776"/>
    </g>
    <g clip-path="url(#p7c1669b28d)">
     <use x="230.878453" xlink:href="#C1_0_4e50d40d72" y="448.538048"/>
    </g>
    <g clip-path="url(#p7c1669b28d)">
     <use x="243.441079" xlink:href="#C1_0_4e50d40d72" y="448.190921"/>
    </g>
    <g clip-path="url(#p7c1669b28d)">
     <use x="234.32879" xlink:href="#C1_0_4e50d40d72" y="209.53238"/>
    </g>
    <g clip-path="url(#p7c1669b28d)">
     <use x="239.582241" xlink:href="#C1_0_4e50d40d72" y="444.995072"/>
    </g>
    <g clip-path="url(#p7c1669b28d)">
     <use x="234.145712" xlink:href="#C1_0_4e50d40d72" y="445.778706"/>
    </g>
    <g clip-path="url(#p7c1669b28d)">
     <use x="228.705786" xlink:href="#C1_0_4e50d40d72" y="442.899892"/>
    </g>
    <g clip-path="url(#p7c1669b28d)">
     <use x="250.80971" xlink:href="#C1_0_4e50d40d72" y="448.439765"/>
    </g>
    <g clip-path="url(#p7c1669b28d)">
     <use x="241.633247" xlink:href="#C1_0_4e50d40d72" y="209.53238"/>
    </g>
    <g clip-path="url(#p7c1669b28d)">
     <use x="237.905632" xlink:href="#C1_0_4e50d40d72" y="441.640673"/>
    </g>
    <g clip-path="url(#p7c1669b28d)">
     <use x="232.895144" xlink:href="#C1_0_4e50d40d72" y="442.882278"/>
    </g>
   </g>
   <g id="PathCollection_10">
    <defs>
     <path d="M 0 2.5 
C 0.663008 2.5 1.29895 2.236584 1.767767 1.767767 
C 2.236584 1.29895 2.5 0.663008 2.5 0 
C 2.5 -0.663008 2.236584 -1.29895 1.767767 -1.767767 
C 1.29895 -2.236584 0.663008 -2.5 0 -2.5 
C -0.663008 -2.5 -1.29895 -2.236584 -1.767767 -1.767767 
C -2.236584 -1.29895 -2.5 -0.663008 -2.5 0 
C -2.5 0.663008 -2.236584 1.29895 -1.767767 1.767767 
C -1.29895 2.236584 -0.663008 2.5 0 2.5 
z
" id="C2_0_86a4b56134"/>
    </defs>
    <g clip-path="url(#p7c1669b28d)">
     <use x="368.045602" xlink:href="#C2_0_86a4b56134" y="349.274784"/>
    </g>
    <g clip-path="url(#p7c1669b28d)">
     <use x="362.384619" xlink:href="#C2_0_86a4b56134" y="448.320678"/>
    </g>
    <g clip-path="url(#p7c1669b28d)">
     <use x="363.802908" xlink:href="#C2_0_86a4b56134" y="448.538048"/>
    </g>
    <g clip-path="url(#p7c1669b28d)">
     <use x="367.577428" xlink:href="#C2_0_86a4b56134" y="448.538048"/>
    </g>
    <g clip-path="url(#p7c1669b28d)">
     <use x="366.279306" xlink:href="#C2_0_86a4b56134" y="448.538048"/>
    </g>
    <g clip-path="url(#p7c1669b28d)">
     <use x="367.717208" xlink:href="#C2_0_86a4b56134" y="442.810318"/>
    </g>
    <g clip-path="url(#p7c1669b28d)">
     <use x="350.823454" xlink:href="#C2_0_86a4b56134" y="203.332427"/>
    </g>
    <g clip-path="url(#p7c1669b28d)">
     <use x="372.651382" xlink:href="#C2_0_86a4b56134" y="448.538048"/>
    </g>
    <g clip-path="url(#p7c1669b28d)">
     <use x="352.757334" xlink:href="#C2_0_86a4b56134" y="448.538048"/>
    </g>
    <g clip-path="url(#p7c1669b28d)">
     <use x="360.635191" xlink:href="#C2_0_86a4b56134" y="446.920811"/>
    </g>
    <g clip-path="url(#p7c1669b28d)">
     <use x="367.75907" xlink:href="#C2_0_86a4b56134" y="254.979188"/>
    </g>
    <g clip-path="url(#p7c1669b28d)">
     <use x="372.180203" xlink:href="#C2_0_86a4b56134" y="448.538048"/>
    </g>
    <g clip-path="url(#p7c1669b28d)">
     <use x="360.154693" xlink:href="#C2_0_86a4b56134" y="393.349339"/>
    </g>
    <g clip-path="url(#p7c1669b28d)">
     <use x="366.786678" xlink:href="#C2_0_86a4b56134" y="426.766753"/>
    </g>
   </g>
   <g id="PathCollection_11">
    <defs>
     <path d="M 0 2.5 
C 0.663008 2.5 1.29895 2.236584 1.767767 1.767767 
C 2.236584 1.29895 2.5 0.663008 2.5 0 
C 2.5 -0.663008 2.236584 -1.29895 1.767767 -1.767767 
C 1.29895 -2.236584 0.663008 -2.5 0 -2.5 
C -0.663008 -2.5 -1.29895 -2.236584 -1.767767 -1.767767 
C -2.236584 -1.29895 -2.5 -0.663008 -2.5 0 
C -2.5 0.663008 -2.236584 1.29895 -1.767767 1.767767 
C -1.29895 2.236584 -0.663008 2.5 0 2.5 
z
" id="C3_0_6735b19019"/>
    </defs>
    <g clip-path="url(#p7c1669b28d)">
     <use x="480.046372" xlink:href="#C3_0_6735b19019" y="448.538048"/>
    </g>
    <g clip-path="url(#p7c1669b28d)">
     <use x="483.059405" xlink:href="#C3_0_6735b19019" y="448.538048"/>
    </g>
    <g clip-path="url(#p7c1669b28d)">
     <use x="490.328206" xlink:href="#C3_0_6735b19019" y="442.081073"/>
    </g>
    <g clip-path="url(#p7c1669b28d)">
     <use x="479.622283" xlink:href="#C3_0_6735b19019" y="211.105942"/>
    </g>
    <g clip-path="url(#p7c1669b28d)">
     <use x="485.181674" xlink:href="#C3_0_6735b19019" y="448.538048"/>
    </g>
    <g clip-path="url(#p7c1669b28d)">
     <use x="475.353239" xlink:href="#C3_0_6735b19019" y="441.361378"/>
    </g>
    <g clip-path="url(#p7c1669b28d)">
     <use x="489.558527" xlink:href="#C3_0_6735b19019" y="434.735665"/>
    </g>
    <g clip-path="url(#p7c1669b28d)">
     <use x="476.244644" xlink:href="#C3_0_6735b19019" y="247.291304"/>
    </g>
    <g clip-path="url(#p7c1669b28d)">
     <use x="479.926698" xlink:href="#C3_0_6735b19019" y="369.935416"/>
    </g>
    <g clip-path="url(#p7c1669b28d)">
     <use x="476.112933" xlink:href="#C3_0_6735b19019" y="448.514383"/>
    </g>
    <g clip-path="url(#p7c1669b28d)">
     <use x="472.417309" xlink:href="#C3_0_6735b19019" y="448.538048"/>
    </g>
    <g clip-path="url(#p7c1669b28d)">
     <use x="481.237079" xlink:href="#C3_0_6735b19019" y="448.538048"/>
    </g>
    <g clip-path="url(#p7c1669b28d)">
     <use x="474.790055" xlink:href="#C3_0_6735b19019" y="448.538048"/>
    </g>
    <g clip-path="url(#p7c1669b28d)">
     <use x="485.667579" xlink:href="#C3_0_6735b19019" y="448.538048"/>
    </g>
    <g clip-path="url(#p7c1669b28d)">
     <use x="487.081676" xlink:href="#C3_0_6735b19019" y="161.141952"/>
    </g>
    <g clip-path="url(#p7c1669b28d)">
     <use x="476.753522" xlink:href="#C3_0_6735b19019" y="178.281383"/>
    </g>
   </g>
   <g id="PathCollection_12">
    <defs>
     <path d="M 0 2.5 
C 0.663008 2.5 1.29895 2.236584 1.767767 1.767767 
C 2.236584 1.29895 2.5 0.663008 2.5 0 
C 2.5 -0.663008 2.236584 -1.29895 1.767767 -1.767767 
C 1.29895 -2.236584 0.663008 -2.5 0 -2.5 
C -0.663008 -2.5 -1.29895 -2.236584 -1.767767 -1.767767 
C -2.236584 -1.29895 -2.5 -0.663008 -2.5 0 
C -2.5 0.663008 -2.236584 1.29895 -1.767767 1.767767 
C -1.29895 2.236584 -0.663008 2.5 0 2.5 
z
" id="C4_0_1d5accd5f7"/>
    </defs>
    <g clip-path="url(#p7c1669b28d)">
     <use x="597.606958" xlink:href="#C4_0_1d5accd5f7" y="443.880083"/>
    </g>
    <g clip-path="url(#p7c1669b28d)">
     <use x="612.406403" xlink:href="#C4_0_1d5accd5f7" y="440.436156"/>
    </g>
    <g clip-path="url(#p7c1669b28d)">
     <use x="604.233309" xlink:href="#C4_0_1d5accd5f7" y="410.03599"/>
    </g>
    <g clip-path="url(#p7c1669b28d)">
     <use x="595.460239" xlink:href="#C4_0_1d5accd5f7" y="264.723841"/>
    </g>
    <g clip-path="url(#p7c1669b28d)">
     <use x="606.903303" xlink:href="#C4_0_1d5accd5f7" y="448.096378"/>
    </g>
    <g clip-path="url(#p7c1669b28d)">
     <use x="612.993509" xlink:href="#C4_0_1d5accd5f7" y="448.467842"/>
    </g>
    <g clip-path="url(#p7c1669b28d)">
     <use x="606.618608" xlink:href="#C4_0_1d5accd5f7" y="448.035977"/>
    </g>
    <g clip-path="url(#p7c1669b28d)">
     <use x="593.941207" xlink:href="#C4_0_1d5accd5f7" y="165.14251"/>
    </g>
    <g clip-path="url(#p7c1669b28d)">
     <use x="602.718665" xlink:href="#C4_0_1d5accd5f7" y="340.091294"/>
    </g>
    <g clip-path="url(#p7c1669b28d)">
     <use x="606.04282" xlink:href="#C4_0_1d5accd5f7" y="375.374477"/>
    </g>
    <g clip-path="url(#p7c1669b28d)">
     <use x="601.88893" xlink:href="#C4_0_1d5accd5f7" y="348.549185"/>
    </g>
    <g clip-path="url(#p7c1669b28d)">
     <use x="613.13464" xlink:href="#C4_0_1d5accd5f7" y="212.452518"/>
    </g>
    <g clip-path="url(#p7c1669b28d)">
     <use x="593.064479" xlink:href="#C4_0_1d5accd5f7" y="286.146479"/>
    </g>
    <g clip-path="url(#p7c1669b28d)">
     <use x="599.099445" xlink:href="#C4_0_1d5accd5f7" y="237.54115"/>
    </g>
    <g clip-path="url(#p7c1669b28d)">
     <use x="611.30535" xlink:href="#C4_0_1d5accd5f7" y="448.538048"/>
    </g>
    <g clip-path="url(#p7c1669b28d)">
     <use x="597.412586" xlink:href="#C4_0_1d5accd5f7" y="448.083726"/>
    </g>
   </g>
   <g id="PathCollection_13">
    <defs>
     <path d="M 0 2.5 
C 0.663008 2.5 1.29895 2.236584 1.767767 1.767767 
C 2.236584 1.29895 2.5 0.663008 2.5 0 
C 2.5 -0.663008 2.236584 -1.29895 1.767767 -1.767767 
C 1.29895 -2.236584 0.663008 -2.5 0 -2.5 
C -0.663008 -2.5 -1.29895 -2.236584 -1.767767 -1.767767 
C -2.236584 -1.29895 -2.5 -0.663008 -2.5 0 
C -2.5 0.663008 -2.236584 1.29895 -1.767767 1.767767 
C -1.29895 2.236584 -0.663008 2.5 0 2.5 
z
" id="C5_0_65085867f6"/>
    </defs>
    <g clip-path="url(#p7c1669b28d)">
     <use x="728.575576" xlink:href="#C5_0_65085867f6" y="448.538048"/>
    </g>
    <g clip-path="url(#p7c1669b28d)">
     <use x="716.689544" xlink:href="#C5_0_65085867f6" y="371.17994"/>
    </g>
    <g clip-path="url(#p7c1669b28d)">
     <use x="715.93367" xlink:href="#C5_0_65085867f6" y="233.182006"/>
    </g>
    <g clip-path="url(#p7c1669b28d)">
     <use x="734.659327" xlink:href="#C5_0_65085867f6" y="413.689204"/>
    </g>
    <g clip-path="url(#p7c1669b28d)">
     <use x="715.902877" xlink:href="#C5_0_65085867f6" y="380.927361"/>
    </g>
   </g>
   <g id="PathCollection_14">
    <defs>
     <path d="M 0 2.5 
C 0.663008 2.5 1.29895 2.236584 1.767767 1.767767 
C 2.236584 1.29895 2.5 0.663008 2.5 0 
C 2.5 -0.663008 2.236584 -1.29895 1.767767 -1.767767 
C 1.29895 -2.236584 0.663008 -2.5 0 -2.5 
C -0.663008 -2.5 -1.29895 -2.236584 -1.767767 -1.767767 
C -2.236584 -1.29895 -2.5 -0.663008 -2.5 0 
C -2.5 0.663008 -2.236584 1.29895 -1.767767 1.767767 
C -1.29895 2.236584 -0.663008 2.5 0 2.5 
z
" id="C6_0_5d1a521119"/>
    </defs>
    <g clip-path="url(#p7c1669b28d)">
     <use x="832.84705" xlink:href="#C6_0_5d1a521119" y="340.744266"/>
    </g>
    <g clip-path="url(#p7c1669b28d)">
     <use x="851.956581" xlink:href="#C6_0_5d1a521119" y="362.047097"/>
    </g>
    <g clip-path="url(#p7c1669b28d)">
     <use x="850.055089" xlink:href="#C6_0_5d1a521119" y="448.47929"/>
    </g>
    <g clip-path="url(#p7c1669b28d)">
     <use x="841.078826" xlink:href="#C6_0_5d1a521119" y="439.818182"/>
    </g>
    <g clip-path="url(#p7c1669b28d)">
     <use x="839.206734" xlink:href="#C6_0_5d1a521119" y="446.07309"/>
    </g>
    <g clip-path="url(#p7c1669b28d)">
     <use x="838.827125" xlink:href="#C6_0_5d1a521119" y="447.301545"/>
    </g>
    <g clip-path="url(#p7c1669b28d)">
     <use x="841.392418" xlink:href="#C6_0_5d1a521119" y="447.322934"/>
    </g>
    <g clip-path="url(#p7c1669b28d)">
     <use x="844.060486" xlink:href="#C6_0_5d1a521119" y="446.954418"/>
    </g>
    <g clip-path="url(#p7c1669b28d)">
     <use x="848.637981" xlink:href="#C6_0_5d1a521119" y="447.867617"/>
    </g>
    <g clip-path="url(#p7c1669b28d)">
     <use x="851.75926" xlink:href="#C6_0_5d1a521119" y="435.323361"/>
    </g>
    <g clip-path="url(#p7c1669b28d)">
     <use x="848.657354" xlink:href="#C6_0_5d1a521119" y="446.050157"/>
    </g>
    <g clip-path="url(#p7c1669b28d)">
     <use x="838.144613" xlink:href="#C6_0_5d1a521119" y="448.538048"/>
    </g>
    <g clip-path="url(#p7c1669b28d)">
     <use x="831.607397" xlink:href="#C6_0_5d1a521119" y="419.692719"/>
    </g>
    <g clip-path="url(#p7c1669b28d)">
     <use x="836.209399" xlink:href="#C6_0_5d1a521119" y="447.883487"/>
    </g>
   </g>
  </g>
 </g>
 <defs>
  <clipPath id="p7c1669b28d">
   <rect height="595.28" width="843.42" x="59.9675" y="7.2"/>
  </clipPath>
 </defs>
</svg>
