<?xml version="1.0" encoding="utf-8" standalone="no"?>
<!DOCTYPE svg PUBLIC "-//W3C//DTD SVG 1.1//EN"
  "http://www.w3.org/Graphics/SVG/1.1/DTD/svg11.dtd">
<!-- Created with matplotlib (https://matplotlib.org/) -->
<svg height="376.780625pt" version="1.1" viewBox="0 0 662.389375 376.780625" width="662.389375pt" xmlns="http://www.w3.org/2000/svg" xmlns:xlink="http://www.w3.org/1999/xlink">
 <defs>
  <style type="text/css">
*{stroke-linecap:butt;stroke-linejoin:round;}
  </style>
 </defs>
 <g id="figure_1">
  <g id="patch_1">
   <path d="M 0 376.780625 
L 662.389375 376.780625 
L 662.389375 0 
L 0 0 
z
" style="fill:#ffffff;"/>
  </g>
  <g id="axes_1">
   <g id="patch_2">
    <path d="M 97.189375 333.36 
L 655.189375 333.36 
L 655.189375 7.2 
L 97.189375 7.2 
z
" style="fill:#ffffff;"/>
   </g>
   <g id="matplotlib.axis_1">
    <g id="xtick_1">
     <g id="line2d_1">
      <defs>
       <path d="M 0 0 
L 0 3.5 
" id="m6203a0a70b" style="stroke:#000000;stroke-width:0.8;"/>
      </defs>
      <g>
       <use style="stroke:#000000;stroke-width:0.8;" x="131.356009" xlink:href="#m6203a0a70b" y="333.36"/>
      </g>
     </g>
     <g id="text_1">
      <!-- -0.2 -->
      <defs>
       <path d="M 36.375 26.265625 
L 7.625 26.265625 
L 7.625 33.640625 
L 36.375 33.640625 
z
" id="MicrosoftYaHei-45"/>
       <path d="M 4.4375 36.328125 
Q 4.4375 56.34375 11.078125 66.625 
Q 17.71875 76.90625 30.328125 76.90625 
Q 54.34375 76.90625 54.34375 38.140625 
Q 54.34375 19 47.578125 8.859375 
Q 40.828125 -1.265625 28.609375 -1.265625 
Q 17.09375 -1.265625 10.765625 8.34375 
Q 4.4375 17.96875 4.4375 36.328125 
z
M 14.203125 36.765625 
Q 14.203125 6.640625 29.5 6.640625 
Q 44.53125 6.640625 44.53125 37.25 
Q 44.53125 68.953125 29.78125 68.953125 
Q 14.203125 68.953125 14.203125 36.765625 
z
" id="MicrosoftYaHei-48"/>
       <path d="M 5.8125 5.03125 
Q 5.8125 7.671875 7.609375 9.46875 
Q 9.421875 11.28125 12.109375 11.28125 
Q 14.84375 11.28125 16.640625 9.453125 
Q 18.453125 7.625 18.453125 5.03125 
Q 18.453125 2.484375 16.640625 0.65625 
Q 14.84375 -1.171875 12.0625 -1.171875 
Q 9.375 -1.171875 7.59375 0.65625 
Q 5.8125 2.484375 5.8125 5.03125 
z
" id="MicrosoftYaHei-46"/>
       <path d="M 41.65625 55.8125 
Q 41.65625 61.921875 37.796875 65.40625 
Q 33.9375 68.890625 27.296875 68.890625 
Q 22.609375 68.890625 17.8125 66.5 
Q 13.03125 64.109375 8.890625 59.671875 
L 8.890625 68.953125 
Q 12.59375 72.796875 17.296875 74.84375 
Q 22.015625 76.90625 28.375 76.90625 
Q 38.625 76.90625 44.875 71.40625 
Q 51.125 65.921875 51.125 56.546875 
Q 51.125 48.1875 47.28125 42.078125 
Q 43.453125 35.984375 34.1875 29.59375 
Q 24.703125 23.046875 21.5 20.21875 
Q 18.3125 17.390625 17.03125 14.796875 
Q 15.765625 12.203125 15.765625 8.5 
L 53.375 8.5 
L 53.375 0 
L 5.8125 0 
L 5.8125 3.765625 
Q 5.8125 10.296875 7.59375 14.859375 
Q 9.375 19.4375 13.46875 23.75 
Q 17.578125 28.078125 26.265625 34.125 
Q 35.15625 40.375 38.40625 45.09375 
Q 41.65625 49.8125 41.65625 55.8125 
z
" id="MicrosoftYaHei-50"/>
      </defs>
      <g transform="translate(120.278509 349.9525)scale(0.12 -0.12)">
       <use xlink:href="#MicrosoftYaHei-45"/>
       <use x="43.261719" xlink:href="#MicrosoftYaHei-48"/>
       <use x="101.904297" xlink:href="#MicrosoftYaHei-46"/>
       <use x="125.976562" xlink:href="#MicrosoftYaHei-50"/>
      </g>
     </g>
    </g>
    <g id="xtick_2">
     <g id="line2d_2">
      <g>
       <use style="stroke:#000000;stroke-width:0.8;" x="241.393477" xlink:href="#m6203a0a70b" y="333.36"/>
      </g>
     </g>
     <g id="text_2">
      <!-- -0.1 -->
      <defs>
       <path d="M 27.828125 0 
L 27.828125 64.703125 
Q 25.59375 62.453125 20.234375 59.671875 
Q 14.890625 56.890625 10.359375 55.765625 
L 10.359375 65.140625 
Q 16.359375 66.796875 23.1875 70.4375 
Q 30.03125 74.078125 33.6875 77.296875 
L 37.3125 77.296875 
L 37.3125 0 
z
" id="MicrosoftYaHei-49"/>
      </defs>
      <g transform="translate(230.315977 349.9525)scale(0.12 -0.12)">
       <use xlink:href="#MicrosoftYaHei-45"/>
       <use x="43.261719" xlink:href="#MicrosoftYaHei-48"/>
       <use x="101.904297" xlink:href="#MicrosoftYaHei-46"/>
       <use x="125.976562" xlink:href="#MicrosoftYaHei-49"/>
      </g>
     </g>
    </g>
    <g id="xtick_3">
     <g id="line2d_3">
      <g>
       <use style="stroke:#000000;stroke-width:0.8;" x="351.430945" xlink:href="#m6203a0a70b" y="333.36"/>
      </g>
     </g>
     <g id="text_3">
      <!-- 0.0 -->
      <g transform="translate(342.949382 349.9525)scale(0.12 -0.12)">
       <use xlink:href="#MicrosoftYaHei-48"/>
       <use x="58.642578" xlink:href="#MicrosoftYaHei-46"/>
       <use x="82.714844" xlink:href="#MicrosoftYaHei-48"/>
      </g>
     </g>
    </g>
    <g id="xtick_4">
     <g id="line2d_4">
      <g>
       <use style="stroke:#000000;stroke-width:0.8;" x="461.468413" xlink:href="#m6203a0a70b" y="333.36"/>
      </g>
     </g>
     <g id="text_4">
      <!-- 0.1 -->
      <g transform="translate(452.98685 349.9525)scale(0.12 -0.12)">
       <use xlink:href="#MicrosoftYaHei-48"/>
       <use x="58.642578" xlink:href="#MicrosoftYaHei-46"/>
       <use x="82.714844" xlink:href="#MicrosoftYaHei-49"/>
      </g>
     </g>
    </g>
    <g id="xtick_5">
     <g id="line2d_5">
      <g>
       <use style="stroke:#000000;stroke-width:0.8;" x="571.505881" xlink:href="#m6203a0a70b" y="333.36"/>
      </g>
     </g>
     <g id="text_5">
      <!-- 0.2 -->
      <g transform="translate(563.024318 349.9525)scale(0.12 -0.12)">
       <use xlink:href="#MicrosoftYaHei-48"/>
       <use x="58.642578" xlink:href="#MicrosoftYaHei-46"/>
       <use x="82.714844" xlink:href="#MicrosoftYaHei-50"/>
      </g>
     </g>
    </g>
    <g id="text_6">
     <!-- log(OR) (95% CI) -->
     <defs>
      <path d="M 8.5 0 
L 8.5 79.9375 
L 18.0625 79.9375 
L 18.0625 0 
z
" id="MicrosoftYaHei-108"/>
      <path d="M 4.9375 26.421875 
Q 4.9375 39.796875 12.40625 47.53125 
Q 19.875 55.28125 32.671875 55.28125 
Q 44.828125 55.28125 51.734375 47.828125 
Q 58.640625 40.375 58.640625 27.25 
Q 58.640625 14.453125 51.265625 6.59375 
Q 43.890625 -1.265625 31.5 -1.265625 
Q 19.390625 -1.265625 12.15625 6.34375 
Q 4.9375 13.96875 4.9375 26.421875 
z
M 14.703125 26.703125 
Q 14.703125 17.390625 19.40625 12.015625 
Q 24.125 6.640625 32.078125 6.640625 
Q 40.28125 6.640625 44.578125 11.890625 
Q 48.875 17.140625 48.875 26.953125 
Q 48.875 36.8125 44.578125 42.078125 
Q 40.28125 47.359375 32.078125 47.359375 
Q 24.03125 47.359375 19.359375 41.84375 
Q 14.703125 36.328125 14.703125 26.703125 
z
" id="MicrosoftYaHei-111"/>
      <path d="M 55.421875 4.546875 
Q 55.421875 -25.4375 26.3125 -25.4375 
Q 16.265625 -25.4375 8.84375 -21.6875 
L 8.84375 -12.453125 
Q 17.875 -17.484375 26.171875 -17.484375 
Q 45.84375 -17.484375 45.84375 3.21875 
L 45.84375 8.9375 
L 45.65625 8.9375 
Q 39.5 -1.265625 27.296875 -1.265625 
Q 17.140625 -1.265625 11.03125 6 
Q 4.9375 13.28125 4.9375 25.296875 
Q 4.9375 39.109375 11.671875 47.1875 
Q 18.40625 55.28125 29.640625 55.28125 
Q 40.4375 55.28125 45.65625 46.6875 
L 45.84375 46.6875 
L 45.84375 54 
L 55.421875 54 
z
M 45.84375 32.125 
Q 45.90625 38.375 41.65625 42.859375 
Q 37.40625 47.359375 31.203125 47.359375 
Q 23.390625 47.359375 19.046875 41.625 
Q 14.703125 35.890625 14.703125 25.875 
Q 14.703125 17.28125 18.890625 11.953125 
Q 23.09375 6.640625 30.03125 6.640625 
Q 37.015625 6.640625 41.453125 11.71875 
Q 45.90625 16.796875 45.84375 24.609375 
z
" id="MicrosoftYaHei-103"/>
      <path d="M 23.921875 -17.1875 
Q 7.46875 1.5625 7.46875 28.859375 
Q 7.46875 56.15625 23.921875 75.640625 
L 32.375 75.640625 
Q 15.875 55.375 15.875 28.953125 
Q 15.875 2.59375 32.28125 -17.1875 
z
" id="MicrosoftYaHei-40"/>
      <path d="M 4.890625 36.921875 
Q 4.890625 55.21875 14.796875 66.0625 
Q 24.703125 76.90625 41.65625 76.90625 
Q 57.421875 76.90625 67.03125 66.3125 
Q 76.65625 55.71875 76.65625 38.71875 
Q 76.65625 20.3125 66.796875 9.515625 
Q 56.9375 -1.265625 40.4375 -1.265625 
Q 24.3125 -1.265625 14.59375 9.328125 
Q 4.890625 19.921875 4.890625 36.921875 
z
M 15.140625 37.703125 
Q 15.140625 23.96875 22.140625 15.6875 
Q 29.15625 7.421875 40.4375 7.421875 
Q 52.546875 7.421875 59.453125 15.359375 
Q 66.359375 23.296875 66.359375 37.546875 
Q 66.359375 52.203125 59.59375 60.15625 
Q 52.828125 68.109375 41.0625 68.109375 
Q 29.5 68.109375 22.3125 59.703125 
Q 15.140625 51.3125 15.140625 37.703125 
z
" id="MicrosoftYaHei-79"/>
      <path d="M 64.984375 0 
L 53.46875 0 
L 40.921875 21 
Q 37.15625 27.296875 34.03125 29.5625 
Q 30.90625 31.84375 26.5625 31.84375 
L 19.53125 31.84375 
L 19.53125 0 
L 9.765625 0 
L 9.765625 75.640625 
L 32.8125 75.640625 
Q 43.84375 75.640625 50.09375 70.3125 
Q 56.34375 64.984375 56.34375 55.421875 
Q 56.34375 39.703125 39.546875 35.015625 
L 39.546875 34.765625 
Q 42.671875 33.453125 44.9375 31 
Q 47.21875 28.5625 50.828125 22.65625 
z
M 19.53125 67.09375 
L 19.53125 40.375 
L 31.0625 40.375 
Q 37.75 40.375 41.921875 44.28125 
Q 46.09375 48.1875 46.09375 54.546875 
Q 46.09375 60.453125 42.28125 63.765625 
Q 38.484375 67.09375 31.203125 67.09375 
z
" id="MicrosoftYaHei-82"/>
      <path d="M 1.21875 -17.1875 
Q 17.671875 2.546875 17.671875 28.953125 
Q 17.671875 55.421875 1.125 75.640625 
L 9.625 75.640625 
Q 26.125 56.296875 26.125 28.859375 
Q 26.125 1.421875 9.625 -17.1875 
z
" id="MicrosoftYaHei-41"/>
      <path id="MicrosoftYaHei-32"/>
      <path d="M 9.03125 10.25 
Q 15.28125 6.640625 22.515625 6.640625 
Q 32.671875 6.640625 38.25 14.640625 
Q 43.84375 22.65625 43.84375 37.40625 
Q 43.75 37.3125 43.65625 37.40625 
Q 38.671875 27.9375 26.90625 27.9375 
Q 17.390625 27.9375 11.140625 34.46875 
Q 4.890625 41.015625 4.890625 51.46875 
Q 4.890625 62.59375 11.71875 69.75 
Q 18.5625 76.90625 29.4375 76.90625 
Q 40.71875 76.90625 47.0625 68.046875 
Q 53.421875 59.1875 53.421875 42.234375 
Q 53.421875 21.296875 45.21875 10.015625 
Q 37.015625 -1.265625 22.515625 -1.265625 
Q 14.546875 -1.265625 9.03125 1.3125 
z
M 14.546875 52.6875 
Q 14.546875 45.0625 18.453125 40.59375 
Q 22.359375 36.140625 29.25 36.140625 
Q 35.203125 36.140625 39.25 40.203125 
Q 43.3125 44.28125 43.3125 50.09375 
Q 43.3125 58.25 39.28125 63.59375 
Q 35.25 68.953125 28.65625 68.953125 
Q 22.5625 68.953125 18.546875 64.3125 
Q 14.546875 59.671875 14.546875 52.6875 
z
" id="MicrosoftYaHei-57"/>
      <path d="M 51.46875 23.34375 
Q 51.46875 12.25 44.109375 5.46875 
Q 36.765625 -1.3125 24.359375 -1.3125 
Q 13.71875 -1.3125 8.5 1.859375 
L 8.5 11.625 
Q 16.15625 6.640625 24.125 6.640625 
Q 32.03125 6.640625 36.890625 11 
Q 41.75 15.375 41.75 22.609375 
Q 41.75 29.828125 36.6875 33.859375 
Q 31.640625 37.890625 22.40625 37.890625 
Q 15.28125 37.890625 9.578125 37.25 
L 12.359375 75.640625 
L 47.703125 75.640625 
L 47.703125 67.234375 
L 20.40625 67.234375 
L 18.84375 45.796875 
L 25.734375 46.09375 
Q 37.75 46.09375 44.609375 40.109375 
Q 51.46875 34.125 51.46875 23.34375 
z
" id="MicrosoftYaHei-53"/>
      <path d="M 4.25 56.546875 
Q 4.25 65.828125 9.203125 71.296875 
Q 14.15625 76.765625 22.5625 76.765625 
Q 30.609375 76.765625 35.125 71.734375 
Q 39.65625 66.703125 39.65625 57.71875 
Q 39.65625 48.78125 34.671875 43.203125 
Q 29.6875 37.640625 21.4375 37.640625 
Q 13.625 37.640625 8.9375 42.8125 
Q 4.25 48 4.25 56.546875 
z
M 11.765625 57.03125 
Q 11.765625 50.734375 14.5 47.3125 
Q 17.234375 43.890625 21.96875 43.890625 
Q 26.859375 43.890625 29.515625 47.4375 
Q 32.171875 50.984375 32.171875 57.421875 
Q 32.171875 63.71875 29.5625 67.15625 
Q 26.953125 70.609375 22.21875 70.609375 
Q 17.390625 70.609375 14.578125 67.015625 
Q 11.765625 63.421875 11.765625 57.03125 
z
M 72.609375 75.640625 
L 24.03125 -0.484375 
L 15.875 -0.484375 
L 64.453125 75.640625 
z
M 49.5625 17.71875 
Q 49.5625 27 54.515625 32.546875 
Q 59.46875 38.09375 67.828125 38.09375 
Q 75.828125 38.09375 80.359375 33.03125 
Q 84.90625 27.984375 84.90625 18.796875 
Q 84.90625 9.90625 79.875 4.359375 
Q 74.859375 -1.171875 66.75 -1.171875 
Q 58.890625 -1.171875 54.21875 4.078125 
Q 49.5625 9.328125 49.5625 17.71875 
z
M 57.03125 18.171875 
Q 57.03125 12.015625 59.765625 8.5625 
Q 62.5 5.125 67.234375 5.125 
Q 72.125 5.125 74.78125 8.6875 
Q 77.4375 12.25 77.4375 18.65625 
Q 77.4375 25 74.78125 28.359375 
Q 72.125 31.734375 67.484375 31.734375 
Q 62.5 31.734375 59.765625 28.140625 
Q 57.03125 24.5625 57.03125 18.171875 
z
" id="MicrosoftYaHei-37"/>
      <path d="M 61.53125 3.125 
Q 53.171875 -1.265625 40.578125 -1.265625 
Q 24.3125 -1.265625 14.59375 9.0625 
Q 4.890625 19.390625 4.890625 36.375 
Q 4.890625 54.640625 15.828125 65.765625 
Q 26.765625 76.90625 43.609375 76.90625 
Q 54.4375 76.90625 61.53125 73.828125 
L 61.53125 63.625 
Q 53.421875 68.109375 43.703125 68.109375 
Q 31.0625 68.109375 23.09375 59.6875 
Q 15.140625 51.265625 15.140625 36.96875 
Q 15.140625 23.390625 22.5625 15.40625 
Q 29.984375 7.421875 42 7.421875 
Q 53.21875 7.421875 61.53125 12.5 
z
" id="MicrosoftYaHei-67"/>
      <path d="M 19.53125 75.640625 
L 19.53125 0 
L 9.765625 0 
L 9.765625 75.640625 
z
" id="MicrosoftYaHei-73"/>
     </defs>
     <g transform="translate(328.4125 366.528125)scale(0.12 -0.12)">
      <use xlink:href="#MicrosoftYaHei-108"/>
      <use x="26.611328" xlink:href="#MicrosoftYaHei-111"/>
      <use x="90.185547" xlink:href="#MicrosoftYaHei-103"/>
      <use x="154.150391" xlink:href="#MicrosoftYaHei-40"/>
      <use x="187.548828" xlink:href="#MicrosoftYaHei-79"/>
      <use x="269.042969" xlink:href="#MicrosoftYaHei-82"/>
      <use x="334.326172" xlink:href="#MicrosoftYaHei-41"/>
      <use x="367.724609" xlink:href="#MicrosoftYaHei-32"/>
      <use x="397.314453" xlink:href="#MicrosoftYaHei-40"/>
      <use x="430.712891" xlink:href="#MicrosoftYaHei-57"/>
      <use x="489.355469" xlink:href="#MicrosoftYaHei-53"/>
      <use x="547.998047" xlink:href="#MicrosoftYaHei-37"/>
      <use x="636.962891" xlink:href="#MicrosoftYaHei-32"/>
      <use x="666.552734" xlink:href="#MicrosoftYaHei-67"/>
      <use x="733.447266" xlink:href="#MicrosoftYaHei-73"/>
      <use x="762.841797" xlink:href="#MicrosoftYaHei-41"/>
     </g>
    </g>
   </g>
   <g id="matplotlib.axis_2">
    <g id="ytick_1">
     <g id="line2d_6">
      <defs>
       <path d="M 0 0 
L -3.5 0 
" id="m0c80b33ee1" style="stroke:#000000;stroke-width:0.8;"/>
      </defs>
      <g>
       <use style="stroke:#000000;stroke-width:0.8;" x="97.189375" xlink:href="#m0c80b33ee1" y="318.534545"/>
      </g>
     </g>
     <g id="text_7">
      <!-- drink -->
      <defs>
       <path d="M 55.421875 0 
L 45.84375 0 
L 45.84375 8.984375 
L 45.65625 8.984375 
Q 39.75 -1.265625 27.296875 -1.265625 
Q 17.046875 -1.265625 10.984375 6.03125 
Q 4.9375 13.328125 4.9375 25.734375 
Q 4.9375 39.109375 11.765625 47.1875 
Q 18.609375 55.28125 29.640625 55.28125 
Q 40.671875 55.28125 45.65625 46.6875 
L 45.84375 46.6875 
L 45.84375 79.9375 
L 55.421875 79.9375 
z
M 45.90625 32.125 
Q 45.90625 38.625 41.625 42.984375 
Q 37.359375 47.359375 31.109375 47.359375 
Q 23.484375 47.359375 19.09375 41.671875 
Q 14.703125 35.984375 14.703125 26.171875 
Q 14.703125 17.140625 18.921875 11.890625 
Q 23.140625 6.640625 30.171875 6.640625 
Q 37.109375 6.640625 41.5 11.78125 
Q 45.90625 16.9375 45.90625 24.609375 
z
" id="MicrosoftYaHei-100"/>
       <path d="M 37.5 44.53125 
Q 35.109375 46.234375 30.90625 46.234375 
Q 25.34375 46.234375 21.71875 41.03125 
Q 18.109375 35.84375 18.109375 27.34375 
L 18.109375 0 
L 8.546875 0 
L 8.546875 54 
L 18.109375 54 
L 18.109375 43.015625 
L 18.3125 43.015625 
Q 22.40625 54.9375 32.46875 54.9375 
Q 35.75 54.9375 37.5 54.203125 
z
" id="MicrosoftYaHei-114"/>
       <path d="M 7.375 73.046875 
Q 7.375 75.59375 9.109375 77.3125 
Q 10.84375 79.046875 13.375 79.046875 
Q 15.96875 79.046875 17.75 77.34375 
Q 19.53125 75.640625 19.53125 73.046875 
Q 19.53125 70.515625 17.75 68.828125 
Q 15.96875 67.140625 13.375 67.140625 
Q 10.796875 67.140625 9.078125 68.828125 
Q 7.375 70.515625 7.375 73.046875 
z
M 8.5 0 
L 8.5 54 
L 18.0625 54 
L 18.0625 0 
z
" id="MicrosoftYaHei-105"/>
       <path d="M 54.203125 0 
L 44.671875 0 
L 44.671875 30.71875 
Q 44.671875 47.359375 32.515625 47.359375 
Q 26.21875 47.359375 22.15625 42.671875 
Q 18.109375 37.984375 18.109375 30.8125 
L 18.109375 0 
L 8.546875 0 
L 8.546875 54 
L 18.109375 54 
L 18.109375 45.0625 
L 18.3125 45.0625 
Q 24.421875 55.28125 36.03125 55.28125 
Q 44.921875 55.28125 49.5625 49.578125 
Q 54.203125 43.890625 54.203125 33.015625 
z
" id="MicrosoftYaHei-110"/>
       <path d="M 54.4375 0 
L 41.40625 0 
L 18.3125 26.03125 
L 18.109375 26.03125 
L 18.109375 0 
L 8.546875 0 
L 8.546875 79.9375 
L 18.109375 79.9375 
L 18.109375 29.25 
L 18.3125 29.25 
L 40.234375 54 
L 52.546875 54 
L 28.125 28.03125 
z
" id="MicrosoftYaHei-107"/>
      </defs>
      <g transform="translate(60.81 323.330795)scale(0.12 -0.12)">
       <use xlink:href="#MicrosoftYaHei-100"/>
       <use x="63.964844" xlink:href="#MicrosoftYaHei-114"/>
       <use x="102.148438" xlink:href="#MicrosoftYaHei-105"/>
       <use x="128.759766" xlink:href="#MicrosoftYaHei-110"/>
       <use x="190.380859" xlink:href="#MicrosoftYaHei-107"/>
      </g>
     </g>
    </g>
    <g id="ytick_2">
     <g id="line2d_7">
      <g>
       <use style="stroke:#000000;stroke-width:0.8;" x="97.189375" xlink:href="#m0c80b33ee1" y="285.589091"/>
      </g>
     </g>
     <g id="text_8">
      <!-- degree -->
      <defs>
       <path d="M 52.546875 24.5625 
L 14.75 24.5625 
Q 14.984375 15.921875 19.46875 11.203125 
Q 23.96875 6.5 32.03125 6.5 
Q 41.109375 6.5 48.6875 12.3125 
L 48.6875 3.765625 
Q 41.546875 -1.265625 29.78125 -1.265625 
Q 18.0625 -1.265625 11.5 6.15625 
Q 4.9375 13.578125 4.9375 26.765625 
Q 4.9375 39.15625 12.140625 47.21875 
Q 19.34375 55.28125 30.03125 55.28125 
Q 40.625 55.28125 46.578125 48.46875 
Q 52.546875 41.65625 52.546875 29.390625 
z
M 42.96875 32.234375 
Q 42.921875 39.546875 39.5 43.546875 
Q 36.078125 47.5625 29.890625 47.5625 
Q 24.171875 47.5625 20 43.3125 
Q 15.828125 39.0625 14.75 32.234375 
z
" id="MicrosoftYaHei-101"/>
      </defs>
      <g transform="translate(49.995 290.385341)scale(0.12 -0.12)">
       <use xlink:href="#MicrosoftYaHei-100"/>
       <use x="63.964844" xlink:href="#MicrosoftYaHei-101"/>
       <use x="120.703125" xlink:href="#MicrosoftYaHei-103"/>
       <use x="184.667969" xlink:href="#MicrosoftYaHei-114"/>
       <use x="221.476562" xlink:href="#MicrosoftYaHei-101"/>
       <use x="278.214844" xlink:href="#MicrosoftYaHei-101"/>
      </g>
     </g>
    </g>
    <g id="ytick_3">
     <g id="line2d_8">
      <g>
       <use style="stroke:#000000;stroke-width:0.8;" x="97.189375" xlink:href="#m0c80b33ee1" y="252.643636"/>
      </g>
     </g>
     <g id="text_9">
      <!-- chemotherapy -->
      <defs>
       <path d="M 45.84375 2.4375 
Q 39.65625 -1.265625 30.90625 -1.265625 
Q 19.1875 -1.265625 12.0625 6.25 
Q 4.9375 13.765625 4.9375 25.734375 
Q 4.9375 39.015625 12.625 47.140625 
Q 20.3125 55.28125 33.203125 55.28125 
Q 40.625 55.28125 45.90625 52.640625 
L 45.90625 43.171875 
Q 40.1875 47.359375 33.203125 47.359375 
Q 25 47.359375 19.84375 41.671875 
Q 14.703125 35.984375 14.703125 26.515625 
Q 14.703125 17.1875 19.5625 11.90625 
Q 24.421875 6.640625 32.671875 6.640625 
Q 39.65625 6.640625 45.84375 11.234375 
z
" id="MicrosoftYaHei-99"/>
       <path d="M 54.15625 0 
L 44.625 0 
L 44.625 31.0625 
Q 44.625 47.359375 32.515625 47.359375 
Q 26.3125 47.359375 22.203125 42.59375 
Q 18.109375 37.84375 18.109375 30.609375 
L 18.109375 0 
L 8.546875 0 
L 8.546875 79.9375 
L 18.109375 79.9375 
L 18.109375 45.125 
L 18.3125 45.125 
Q 24.515625 55.28125 35.9375 55.28125 
Q 54.15625 55.28125 54.15625 33.25 
z
" id="MicrosoftYaHei-104"/>
       <path d="M 86.28125 0 
L 76.703125 0 
L 76.703125 31 
Q 76.703125 39.796875 73.96875 43.578125 
Q 71.234375 47.359375 64.984375 47.359375 
Q 59.71875 47.359375 55.953125 42.421875 
Q 52.203125 37.5 52.203125 30.765625 
L 52.203125 0 
L 42.625 0 
L 42.625 31.984375 
Q 42.625 47.359375 30.765625 47.359375 
Q 25.296875 47.359375 21.703125 42.671875 
Q 18.109375 37.984375 18.109375 30.71875 
L 18.109375 0 
L 8.546875 0 
L 8.546875 54 
L 18.109375 54 
L 18.109375 45.453125 
L 18.3125 45.453125 
Q 24.078125 55.28125 35.15625 55.28125 
Q 40.578125 55.28125 44.71875 52.296875 
Q 48.875 49.3125 50.484375 44.234375 
Q 56.5 55.28125 68.453125 55.28125 
Q 86.28125 55.28125 86.28125 33.296875 
z
" id="MicrosoftYaHei-109"/>
       <path d="M 34.46875 0.53125 
Q 31.34375 -1.171875 26.03125 -1.171875 
Q 11.53125 -1.171875 11.53125 14.890625 
L 11.53125 46.09375 
L 2.25 46.09375 
L 2.25 54 
L 11.53125 54 
L 11.53125 67 
L 21.046875 70.015625 
L 21.046875 54 
L 34.46875 54 
L 34.46875 46.09375 
L 21.046875 46.09375 
L 21.046875 16.609375 
Q 21.046875 11.28125 22.84375 8.984375 
Q 24.65625 6.6875 28.859375 6.6875 
Q 32.078125 6.6875 34.46875 8.5 
z
" id="MicrosoftYaHei-116"/>
       <path d="M 9.8125 50.25 
Q 17.875 55.28125 28.421875 55.28125 
Q 47.953125 55.28125 47.953125 34.765625 
L 47.953125 0 
L 38.484375 0 
L 38.484375 8.34375 
L 38.234375 8.34375 
Q 32.625 -1.265625 21.6875 -1.265625 
Q 13.8125 -1.265625 9.171875 2.984375 
Q 4.546875 7.234375 4.546875 14.453125 
Q 4.546875 29.59375 22.46875 32.078125 
L 38.484375 34.328125 
Q 38.484375 47.5625 27.546875 47.5625 
Q 17.828125 47.5625 9.8125 41.015625 
z
M 25.828125 25.390625 
Q 19.1875 24.515625 16.671875 22.0625 
Q 14.15625 19.625 14.15625 15.234375 
Q 14.15625 11.375 16.890625 8.9375 
Q 19.625 6.5 24.125 6.5 
Q 30.375 6.5 34.421875 10.890625 
Q 38.484375 15.28125 38.484375 21.921875 
L 38.484375 27.09375 
z
" id="MicrosoftYaHei-97"/>
       <path d="M 18.109375 7.625 
L 18.109375 -24.859375 
L 8.546875 -24.859375 
L 8.546875 54 
L 18.109375 54 
L 18.109375 44.671875 
L 18.3125 44.671875 
Q 24.65625 55.28125 36.859375 55.28125 
Q 47.21875 55.28125 53.09375 48.015625 
Q 58.984375 40.765625 58.984375 28.5625 
Q 58.984375 15.09375 52.3125 6.90625 
Q 45.65625 -1.265625 34.375 -1.265625 
Q 23.96875 -1.265625 18.3125 7.625 
z
M 18.0625 22.265625 
Q 18.0625 15.671875 22.3125 11.15625 
Q 26.5625 6.640625 32.953125 6.640625 
Q 40.578125 6.640625 44.875 12.5 
Q 49.171875 18.359375 49.171875 28.71875 
Q 49.171875 37.453125 45.15625 42.40625 
Q 41.15625 47.359375 34.234375 47.359375 
Q 27.15625 47.359375 22.609375 42.328125 
Q 18.0625 37.3125 18.0625 29.4375 
z
" id="MicrosoftYaHei-112"/>
       <path d="M 52.484375 54 
L 27.984375 -8.15625 
Q 21.140625 -25.4375 8.6875 -25.4375 
Q 5.125 -25.4375 2.59375 -24.65625 
L 2.59375 -16.265625 
Q 5.375 -17.328125 7.953125 -17.328125 
Q 14.453125 -17.328125 17.671875 -9.71875 
L 21.828125 0.09375 
L 0.640625 54 
L 11.234375 54 
L 25.34375 13.421875 
L 26.515625 8.984375 
L 26.765625 8.984375 
Q 27.046875 10.5 27.9375 13.328125 
L 42.671875 54 
z
" id="MicrosoftYaHei-121"/>
      </defs>
      <g transform="translate(7.2 257.439886)scale(0.12 -0.12)">
       <use xlink:href="#MicrosoftYaHei-99"/>
       <use x="50.146484" xlink:href="#MicrosoftYaHei-104"/>
       <use x="111.71875" xlink:href="#MicrosoftYaHei-101"/>
       <use x="168.457031" xlink:href="#MicrosoftYaHei-109"/>
       <use x="262.158203" xlink:href="#MicrosoftYaHei-111"/>
       <use x="325.732422" xlink:href="#MicrosoftYaHei-116"/>
       <use x="362.988281" xlink:href="#MicrosoftYaHei-104"/>
       <use x="424.560547" xlink:href="#MicrosoftYaHei-101"/>
       <use x="481.298828" xlink:href="#MicrosoftYaHei-114"/>
       <use x="519.482422" xlink:href="#MicrosoftYaHei-97"/>
       <use x="574.755859" xlink:href="#MicrosoftYaHei-112"/>
       <use x="638.623047" xlink:href="#MicrosoftYaHei-121"/>
      </g>
     </g>
    </g>
    <g id="ytick_4">
     <g id="line2d_9">
      <g>
       <use style="stroke:#000000;stroke-width:0.8;" x="97.189375" xlink:href="#m0c80b33ee1" y="219.698182"/>
      </g>
     </g>
     <g id="text_10">
      <!-- BMI -->
      <defs>
       <path d="M 9.765625 0 
L 9.765625 75.640625 
L 31.984375 75.640625 
Q 41.9375 75.640625 47.890625 70.875 
Q 53.859375 66.109375 53.859375 58.25 
Q 53.859375 52 50.3125 47.21875 
Q 46.78125 42.4375 40.578125 40.4375 
L 40.578125 40.234375 
Q 48.296875 39.359375 52.90625 34.390625 
Q 57.515625 29.4375 57.515625 21.828125 
Q 57.515625 12.0625 50.5 6.03125 
Q 43.5 0 32.5625 0 
z
M 19.53125 67.09375 
L 19.53125 43.40625 
L 28.421875 43.40625 
Q 35.5 43.40625 39.53125 46.84375 
Q 43.5625 50.296875 43.5625 56.390625 
Q 43.5625 67.09375 29.296875 67.09375 
z
M 19.53125 34.90625 
L 19.53125 8.546875 
L 31.25 8.546875 
Q 38.921875 8.546875 43.09375 12.078125 
Q 47.265625 15.625 47.265625 21.921875 
Q 47.265625 34.90625 29.640625 34.90625 
z
" id="MicrosoftYaHei-66"/>
       <path d="M 78.171875 0 
L 78.171875 50.09375 
Q 78.171875 56.296875 78.90625 64.984375 
L 78.65625 64.984375 
Q 77.390625 59.515625 76.421875 57.375 
L 51.46875 0 
L 46.046875 0 
L 21.140625 56.9375 
Q 20.265625 58.890625 18.890625 64.984375 
L 18.609375 64.984375 
Q 19.09375 59.71875 19.09375 49.65625 
L 19.09375 0 
L 9.765625 0 
L 9.765625 75.640625 
L 23 75.640625 
L 45.3125 23.78125 
Q 47.859375 17.828125 48.6875 14.5 
L 49.03125 14.5 
Q 51.5625 21.484375 52.59375 23.96875 
L 75.296875 75.640625 
L 87.890625 75.640625 
L 87.890625 0 
z
" id="MicrosoftYaHei-77"/>
      </defs>
      <g transform="translate(67.408125 224.494432)scale(0.12 -0.12)">
       <use xlink:href="#MicrosoftYaHei-66"/>
       <use x="62.744141" xlink:href="#MicrosoftYaHei-77"/>
       <use x="160.449219" xlink:href="#MicrosoftYaHei-73"/>
      </g>
     </g>
    </g>
    <g id="ytick_5">
     <g id="line2d_10">
      <g>
       <use style="stroke:#000000;stroke-width:0.8;" x="97.189375" xlink:href="#m0c80b33ee1" y="186.752727"/>
      </g>
     </g>
     <g id="text_11">
      <!-- duration -->
      <defs>
       <path d="M 53.125 0 
L 43.5 0 
L 43.5 8.5 
L 43.3125 8.5 
Q 37.890625 -1.265625 26.65625 -1.265625 
Q 7.46875 -1.265625 7.46875 21.6875 
L 7.46875 54 
L 16.9375 54 
L 16.9375 23.09375 
Q 16.9375 6.640625 29.546875 6.640625 
Q 35.796875 6.640625 39.640625 11.25 
Q 43.5 15.875 43.5 22.90625 
L 43.5 54 
L 53.125 54 
z
" id="MicrosoftYaHei-117"/>
      </defs>
      <g transform="translate(41.214375 191.548977)scale(0.12 -0.12)">
       <use xlink:href="#MicrosoftYaHei-100"/>
       <use x="63.964844" xlink:href="#MicrosoftYaHei-117"/>
       <use x="125.585938" xlink:href="#MicrosoftYaHei-114"/>
       <use x="163.769531" xlink:href="#MicrosoftYaHei-97"/>
       <use x="219.042969" xlink:href="#MicrosoftYaHei-116"/>
       <use x="256.298828" xlink:href="#MicrosoftYaHei-105"/>
       <use x="282.910156" xlink:href="#MicrosoftYaHei-111"/>
       <use x="346.484375" xlink:href="#MicrosoftYaHei-110"/>
      </g>
     </g>
    </g>
    <g id="ytick_6">
     <g id="line2d_11">
      <g>
       <use style="stroke:#000000;stroke-width:0.8;" x="97.189375" xlink:href="#m0c80b33ee1" y="153.807273"/>
      </g>
     </g>
     <g id="text_12">
      <!-- age -->
      <g transform="translate(69.07125 158.568835)scale(0.12 -0.12)">
       <use xlink:href="#MicrosoftYaHei-97"/>
       <use x="55.273438" xlink:href="#MicrosoftYaHei-103"/>
       <use x="119.238281" xlink:href="#MicrosoftYaHei-101"/>
      </g>
     </g>
    </g>
    <g id="ytick_7">
     <g id="line2d_12">
      <g>
       <use style="stroke:#000000;stroke-width:0.8;" x="97.189375" xlink:href="#m0c80b33ee1" y="120.861818"/>
      </g>
     </g>
     <g id="text_13">
      <!-- result -->
      <defs>
       <path d="M 5.515625 11.671875 
Q 12.75 6.453125 21.09375 6.453125 
Q 32.28125 6.453125 32.28125 13.765625 
Q 32.28125 16.890625 29.828125 18.921875 
Q 27.390625 20.953125 19.921875 23.734375 
Q 10.9375 27.34375 8.25 30.875 
Q 5.5625 34.421875 5.5625 39.453125 
Q 5.5625 46.625 11.640625 50.953125 
Q 17.71875 55.28125 26.609375 55.28125 
Q 33.5 55.28125 39.40625 52.875 
L 39.40625 43.65625 
Q 33.34375 47.5625 25.6875 47.5625 
Q 21.09375 47.5625 18.203125 45.5625 
Q 15.328125 43.5625 15.328125 40.28125 
Q 15.328125 37.0625 17.40625 35.25 
Q 19.484375 33.453125 26.609375 30.609375 
Q 35.640625 27.25 38.8125 23.625 
Q 42 20.015625 42 14.703125 
Q 42 7.28125 35.90625 3 
Q 29.828125 -1.265625 20.171875 -1.265625 
Q 11.765625 -1.265625 5.515625 1.90625 
z
" id="MicrosoftYaHei-115"/>
      </defs>
      <g transform="translate(58.35 125.658068)scale(0.12 -0.12)">
       <use xlink:href="#MicrosoftYaHei-114"/>
       <use x="36.808594" xlink:href="#MicrosoftYaHei-101"/>
       <use x="93.546875" xlink:href="#MicrosoftYaHei-115"/>
       <use x="139.835938" xlink:href="#MicrosoftYaHei-117"/>
       <use x="201.457031" xlink:href="#MicrosoftYaHei-108"/>
       <use x="228.068359" xlink:href="#MicrosoftYaHei-116"/>
      </g>
     </g>
    </g>
    <g id="ytick_8">
     <g id="line2d_13">
      <g>
       <use style="stroke:#000000;stroke-width:0.8;" x="97.189375" xlink:href="#m0c80b33ee1" y="87.916364"/>
      </g>
     </g>
     <g id="text_14">
      <!-- Tstage -->
      <defs>
       <path d="M 55.46875 66.9375 
L 33.640625 66.9375 
L 33.640625 0 
L 23.828125 0 
L 23.828125 66.9375 
L 2.09375 66.9375 
L 2.09375 75.640625 
L 55.46875 75.640625 
z
" id="MicrosoftYaHei-84"/>
      </defs>
      <g transform="translate(53.14125 92.677926)scale(0.12 -0.12)">
       <use xlink:href="#MicrosoftYaHei-84"/>
       <use x="49.199219" xlink:href="#MicrosoftYaHei-115"/>
       <use x="95.488281" xlink:href="#MicrosoftYaHei-116"/>
       <use x="132.744141" xlink:href="#MicrosoftYaHei-97"/>
       <use x="188.017578" xlink:href="#MicrosoftYaHei-103"/>
       <use x="251.982422" xlink:href="#MicrosoftYaHei-101"/>
      </g>
     </g>
    </g>
    <g id="ytick_9">
     <g id="line2d_14">
      <g>
       <use style="stroke:#000000;stroke-width:0.8;" x="97.189375" xlink:href="#m0c80b33ee1" y="54.970909"/>
      </g>
     </g>
     <g id="text_15">
      <!-- smoke -->
      <g transform="translate(52.674375 59.767159)scale(0.12 -0.12)">
       <use xlink:href="#MicrosoftYaHei-115"/>
       <use x="46.289062" xlink:href="#MicrosoftYaHei-109"/>
       <use x="139.990234" xlink:href="#MicrosoftYaHei-111"/>
       <use x="203.564453" xlink:href="#MicrosoftYaHei-107"/>
       <use x="255.882812" xlink:href="#MicrosoftYaHei-101"/>
      </g>
     </g>
    </g>
    <g id="ytick_10">
     <g id="line2d_15">
      <g>
       <use style="stroke:#000000;stroke-width:0.8;" x="97.189375" xlink:href="#m0c80b33ee1" y="22.025455"/>
      </g>
     </g>
     <g id="text_16">
      <!-- gender -->
      <g transform="translate(49.243125 26.821705)scale(0.12 -0.12)">
       <use xlink:href="#MicrosoftYaHei-103"/>
       <use x="63.964844" xlink:href="#MicrosoftYaHei-101"/>
       <use x="120.703125" xlink:href="#MicrosoftYaHei-110"/>
       <use x="182.324219" xlink:href="#MicrosoftYaHei-100"/>
       <use x="246.289062" xlink:href="#MicrosoftYaHei-101"/>
       <use x="303.027344" xlink:href="#MicrosoftYaHei-114"/>
      </g>
     </g>
    </g>
   </g>
   <g id="LineCollection_1">
    <path clip-path="url(#p8ce7df859a)" d="M 122.553011 318.534545 
L 355.832443 318.534545 
" style="fill:none;stroke:#000000;stroke-width:1.25;"/>
    <path clip-path="url(#p8ce7df859a)" d="M 201.229801 285.589091 
L 457.617101 285.589091 
" style="fill:none;stroke:#000000;stroke-width:1.25;"/>
    <path clip-path="url(#p8ce7df859a)" d="M 227.088606 252.643636 
L 451.565041 252.643636 
" style="fill:none;stroke:#000000;stroke-width:1.25;"/>
    <path clip-path="url(#p8ce7df859a)" d="M 323.37139 219.698182 
L 368.486752 219.698182 
" style="fill:none;stroke:#000000;stroke-width:1.25;"/>
    <path clip-path="url(#p8ce7df859a)" d="M 350.880757 186.752727 
L 356.382631 186.752727 
" style="fill:none;stroke:#000000;stroke-width:1.25;"/>
    <path clip-path="url(#p8ce7df859a)" d="M 351.430945 153.807273 
L 358.033193 153.807273 
" style="fill:none;stroke:#000000;stroke-width:1.25;"/>
    <path clip-path="url(#p8ce7df859a)" d="M 250.746662 120.861818 
L 471.921972 120.861818 
" style="fill:none;stroke:#000000;stroke-width:1.25;"/>
    <path clip-path="url(#p8ce7df859a)" d="M 348.680008 87.916364 
L 448.814104 87.916364 
" style="fill:none;stroke:#000000;stroke-width:1.25;"/>
    <path clip-path="url(#p8ce7df859a)" d="M 290.36015 54.970909 
L 544.546701 54.970909 
" style="fill:none;stroke:#000000;stroke-width:1.25;"/>
    <path clip-path="url(#p8ce7df859a)" d="M 233.690854 22.025455 
L 629.825739 22.025455 
" style="fill:none;stroke:#000000;stroke-width:1.25;"/>
   </g>
   <g id="LineCollection_2">
    <path clip-path="url(#p8ce7df859a)" d="M 351.430945 377.780625 
L 351.430945 -1 
" style="fill:none;stroke:#000000;stroke-dasharray:3.7,1.6;stroke-dashoffset:0;stroke-opacity:0.65;"/>
   </g>
   <g id="line2d_16">
    <defs>
     <path d="M 0 3 
L 0 -3 
" id="m37189c2616" style="stroke:#000000;stroke-width:1.25;"/>
    </defs>
    <g clip-path="url(#p8ce7df859a)">
     <use style="stroke:#000000;stroke-width:1.25;" x="122.553011" xlink:href="#m37189c2616" y="318.534545"/>
     <use style="stroke:#000000;stroke-width:1.25;" x="201.229801" xlink:href="#m37189c2616" y="285.589091"/>
     <use style="stroke:#000000;stroke-width:1.25;" x="227.088606" xlink:href="#m37189c2616" y="252.643636"/>
     <use style="stroke:#000000;stroke-width:1.25;" x="323.37139" xlink:href="#m37189c2616" y="219.698182"/>
     <use style="stroke:#000000;stroke-width:1.25;" x="350.880757" xlink:href="#m37189c2616" y="186.752727"/>
     <use style="stroke:#000000;stroke-width:1.25;" x="351.430945" xlink:href="#m37189c2616" y="153.807273"/>
     <use style="stroke:#000000;stroke-width:1.25;" x="250.746662" xlink:href="#m37189c2616" y="120.861818"/>
     <use style="stroke:#000000;stroke-width:1.25;" x="348.680008" xlink:href="#m37189c2616" y="87.916364"/>
     <use style="stroke:#000000;stroke-width:1.25;" x="290.36015" xlink:href="#m37189c2616" y="54.970909"/>
     <use style="stroke:#000000;stroke-width:1.25;" x="233.690854" xlink:href="#m37189c2616" y="22.025455"/>
    </g>
   </g>
   <g id="line2d_17">
    <g clip-path="url(#p8ce7df859a)">
     <use style="stroke:#000000;stroke-width:1.25;" x="355.832443" xlink:href="#m37189c2616" y="318.534545"/>
     <use style="stroke:#000000;stroke-width:1.25;" x="457.617101" xlink:href="#m37189c2616" y="285.589091"/>
     <use style="stroke:#000000;stroke-width:1.25;" x="451.565041" xlink:href="#m37189c2616" y="252.643636"/>
     <use style="stroke:#000000;stroke-width:1.25;" x="368.486752" xlink:href="#m37189c2616" y="219.698182"/>
     <use style="stroke:#000000;stroke-width:1.25;" x="356.382631" xlink:href="#m37189c2616" y="186.752727"/>
     <use style="stroke:#000000;stroke-width:1.25;" x="358.033193" xlink:href="#m37189c2616" y="153.807273"/>
     <use style="stroke:#000000;stroke-width:1.25;" x="471.921972" xlink:href="#m37189c2616" y="120.861818"/>
     <use style="stroke:#000000;stroke-width:1.25;" x="448.814104" xlink:href="#m37189c2616" y="87.916364"/>
     <use style="stroke:#000000;stroke-width:1.25;" x="544.546701" xlink:href="#m37189c2616" y="54.970909"/>
     <use style="stroke:#000000;stroke-width:1.25;" x="629.825739" xlink:href="#m37189c2616" y="22.025455"/>
    </g>
   </g>
   <g id="line2d_18">
    <defs>
     <path d="M -3 3 
L 3 3 
L 3 -3 
L -3 -3 
z
" id="m134eadd27a" style="stroke:#000000;stroke-linejoin:miter;stroke-width:1.25;"/>
    </defs>
    <g clip-path="url(#p8ce7df859a)">
     <use style="fill:#ffffff;stroke:#000000;stroke-linejoin:miter;stroke-width:1.25;" x="239.192727" xlink:href="#m134eadd27a" y="318.534545"/>
     <use style="fill:#ffffff;stroke:#000000;stroke-linejoin:miter;stroke-width:1.25;" x="329.423451" xlink:href="#m134eadd27a" y="285.589091"/>
     <use style="fill:#ffffff;stroke:#000000;stroke-linejoin:miter;stroke-width:1.25;" x="339.326823" xlink:href="#m134eadd27a" y="252.643636"/>
     <use style="fill:#ffffff;stroke:#000000;stroke-linejoin:miter;stroke-width:1.25;" x="345.929071" xlink:href="#m134eadd27a" y="219.698182"/>
     <use style="fill:#ffffff;stroke:#000000;stroke-linejoin:miter;stroke-width:1.25;" x="353.631694" xlink:href="#m134eadd27a" y="186.752727"/>
     <use style="fill:#ffffff;stroke:#000000;stroke-linejoin:miter;stroke-width:1.25;" x="354.732069" xlink:href="#m134eadd27a" y="153.807273"/>
     <use style="fill:#ffffff;stroke:#000000;stroke-linejoin:miter;stroke-width:1.25;" x="361.334317" xlink:href="#m134eadd27a" y="120.861818"/>
     <use style="fill:#ffffff;stroke:#000000;stroke-linejoin:miter;stroke-width:1.25;" x="398.747056" xlink:href="#m134eadd27a" y="87.916364"/>
     <use style="fill:#ffffff;stroke:#000000;stroke-linejoin:miter;stroke-width:1.25;" x="417.453425" xlink:href="#m134eadd27a" y="54.970909"/>
     <use style="fill:#ffffff;stroke:#000000;stroke-linejoin:miter;stroke-width:1.25;" x="431.758296" xlink:href="#m134eadd27a" y="22.025455"/>
    </g>
   </g>
   <g id="patch_3">
    <path d="M 97.189375 333.36 
L 97.189375 7.2 
" style="fill:none;stroke:#000000;stroke-linecap:square;stroke-linejoin:miter;stroke-width:0.8;"/>
   </g>
   <g id="patch_4">
    <path d="M 655.189375 333.36 
L 655.189375 7.2 
" style="fill:none;stroke:#000000;stroke-linecap:square;stroke-linejoin:miter;stroke-width:0.8;"/>
   </g>
   <g id="patch_5">
    <path d="M 97.189375 333.36 
L 655.189375 333.36 
" style="fill:none;stroke:#000000;stroke-linecap:square;stroke-linejoin:miter;stroke-width:0.8;"/>
   </g>
   <g id="patch_6">
    <path d="M 97.189375 7.2 
L 655.189375 7.2 
" style="fill:none;stroke:#000000;stroke-linecap:square;stroke-linejoin:miter;stroke-width:0.8;"/>
   </g>
  </g>
 </g>
 <defs>
  <clipPath id="p8ce7df859a">
   <rect height="326.16" width="558" x="97.189375" y="7.2"/>
  </clipPath>
 </defs>
</svg>
